<?xml version="1.0" encoding="utf-8" standalone="no"?>
<!DOCTYPE svg PUBLIC "-//W3C//DTD SVG 1.1//EN"
  "http://www.w3.org/Graphics/SVG/1.1/DTD/svg11.dtd">
<!-- Created with matplotlib (https://matplotlib.org/) -->
<svg height="573.12pt" version="1.1" viewBox="0 0 621.36 573.12" width="621.36pt" xmlns="http://www.w3.org/2000/svg" xmlns:xlink="http://www.w3.org/1999/xlink">
 <metadata>
  <rdf:RDF xmlns:cc="http://creativecommons.org/ns#" xmlns:dc="http://purl.org/dc/elements/1.1/" xmlns:rdf="http://www.w3.org/1999/02/22-rdf-syntax-ns#">
   <cc:Work>
    <dc:type rdf:resource="http://purl.org/dc/dcmitype/StillImage"/>
    <dc:date>2020-11-16T08:59:33.402558</dc:date>
    <dc:format>image/svg+xml</dc:format>
    <dc:creator>
     <cc:Agent>
      <dc:title>Matplotlib v3.3.1, https://matplotlib.org/</dc:title>
     </cc:Agent>
    </dc:creator>
   </cc:Work>
  </rdf:RDF>
 </metadata>
 <defs>
  <style type="text/css">*{stroke-linecap:butt;stroke-linejoin:round;}</style>
 </defs>
 <g id="figure_1">
  <g id="patch_1">
   <path d="M 0 573.12 
L 621.36 573.12 
L 621.36 0 
L 0 0 
z
" style="fill:#ffffff;"/>
  </g>
  <g id="axes_1">
   <g id="patch_2">
    <path d="M 77.67 169.50647 
L 559.224 169.50647 
L 559.224 68.7744 
L 77.67 68.7744 
z
" style="fill:#ffffff;"/>
   </g>
   <g id="matplotlib.axis_1">
    <g id="xtick_1">
     <g id="line2d_1">
      <defs>
       <path d="M 0 0 
L 0 3.5 
" id="mdda2380543" style="stroke:#000000;stroke-width:0.8;"/>
      </defs>
      <g>
       <use style="stroke:#000000;stroke-width:0.8;" x="99.558818" xlink:href="#mdda2380543" y="169.50647"/>
      </g>
     </g>
     <g id="text_1">
      <!-- 0 -->
      <g transform="translate(96.377568 184.104907)scale(0.1 -0.1)">
       <defs>
        <path d="M 31.78125 66.40625 
Q 24.171875 66.40625 20.328125 58.90625 
Q 16.5 51.421875 16.5 36.375 
Q 16.5 21.390625 20.328125 13.890625 
Q 24.171875 6.390625 31.78125 6.390625 
Q 39.453125 6.390625 43.28125 13.890625 
Q 47.125 21.390625 47.125 36.375 
Q 47.125 51.421875 43.28125 58.90625 
Q 39.453125 66.40625 31.78125 66.40625 
z
M 31.78125 74.21875 
Q 44.046875 74.21875 50.515625 64.515625 
Q 56.984375 54.828125 56.984375 36.375 
Q 56.984375 17.96875 50.515625 8.265625 
Q 44.046875 -1.421875 31.78125 -1.421875 
Q 19.53125 -1.421875 13.0625 8.265625 
Q 6.59375 17.96875 6.59375 36.375 
Q 6.59375 54.828125 13.0625 64.515625 
Q 19.53125 74.21875 31.78125 74.21875 
z
" id="DejaVuSans-48"/>
       </defs>
       <use xlink:href="#DejaVuSans-48"/>
      </g>
     </g>
    </g>
    <g id="xtick_2">
     <g id="line2d_2">
      <g>
       <use style="stroke:#000000;stroke-width:0.8;" x="158.797839" xlink:href="#mdda2380543" y="169.50647"/>
      </g>
     </g>
     <g id="text_2">
      <!-- 100 -->
      <g transform="translate(149.254089 184.104907)scale(0.1 -0.1)">
       <defs>
        <path d="M 12.40625 8.296875 
L 28.515625 8.296875 
L 28.515625 63.921875 
L 10.984375 60.40625 
L 10.984375 69.390625 
L 28.421875 72.90625 
L 38.28125 72.90625 
L 38.28125 8.296875 
L 54.390625 8.296875 
L 54.390625 0 
L 12.40625 0 
z
" id="DejaVuSans-49"/>
       </defs>
       <use xlink:href="#DejaVuSans-49"/>
       <use x="63.623047" xlink:href="#DejaVuSans-48"/>
       <use x="127.246094" xlink:href="#DejaVuSans-48"/>
      </g>
     </g>
    </g>
    <g id="xtick_3">
     <g id="line2d_3">
      <g>
       <use style="stroke:#000000;stroke-width:0.8;" x="218.03686" xlink:href="#mdda2380543" y="169.50647"/>
      </g>
     </g>
     <g id="text_3">
      <!-- 200 -->
      <g transform="translate(208.49311 184.104907)scale(0.1 -0.1)">
       <defs>
        <path d="M 19.1875 8.296875 
L 53.609375 8.296875 
L 53.609375 0 
L 7.328125 0 
L 7.328125 8.296875 
Q 12.9375 14.109375 22.625 23.890625 
Q 32.328125 33.6875 34.8125 36.53125 
Q 39.546875 41.84375 41.421875 45.53125 
Q 43.3125 49.21875 43.3125 52.78125 
Q 43.3125 58.59375 39.234375 62.25 
Q 35.15625 65.921875 28.609375 65.921875 
Q 23.96875 65.921875 18.8125 64.3125 
Q 13.671875 62.703125 7.8125 59.421875 
L 7.8125 69.390625 
Q 13.765625 71.78125 18.9375 73 
Q 24.125 74.21875 28.421875 74.21875 
Q 39.75 74.21875 46.484375 68.546875 
Q 53.21875 62.890625 53.21875 53.421875 
Q 53.21875 48.921875 51.53125 44.890625 
Q 49.859375 40.875 45.40625 35.40625 
Q 44.1875 33.984375 37.640625 27.21875 
Q 31.109375 20.453125 19.1875 8.296875 
z
" id="DejaVuSans-50"/>
       </defs>
       <use xlink:href="#DejaVuSans-50"/>
       <use x="63.623047" xlink:href="#DejaVuSans-48"/>
       <use x="127.246094" xlink:href="#DejaVuSans-48"/>
      </g>
     </g>
    </g>
    <g id="xtick_4">
     <g id="line2d_4">
      <g>
       <use style="stroke:#000000;stroke-width:0.8;" x="277.275881" xlink:href="#mdda2380543" y="169.50647"/>
      </g>
     </g>
     <g id="text_4">
      <!-- 300 -->
      <g transform="translate(267.732131 184.104907)scale(0.1 -0.1)">
       <defs>
        <path d="M 40.578125 39.3125 
Q 47.65625 37.796875 51.625 33 
Q 55.609375 28.21875 55.609375 21.1875 
Q 55.609375 10.40625 48.1875 4.484375 
Q 40.765625 -1.421875 27.09375 -1.421875 
Q 22.515625 -1.421875 17.65625 -0.515625 
Q 12.796875 0.390625 7.625 2.203125 
L 7.625 11.71875 
Q 11.71875 9.328125 16.59375 8.109375 
Q 21.484375 6.890625 26.8125 6.890625 
Q 36.078125 6.890625 40.9375 10.546875 
Q 45.796875 14.203125 45.796875 21.1875 
Q 45.796875 27.640625 41.28125 31.265625 
Q 36.765625 34.90625 28.71875 34.90625 
L 20.21875 34.90625 
L 20.21875 43.015625 
L 29.109375 43.015625 
Q 36.375 43.015625 40.234375 45.921875 
Q 44.09375 48.828125 44.09375 54.296875 
Q 44.09375 59.90625 40.109375 62.90625 
Q 36.140625 65.921875 28.71875 65.921875 
Q 24.65625 65.921875 20.015625 65.03125 
Q 15.375 64.15625 9.8125 62.3125 
L 9.8125 71.09375 
Q 15.4375 72.65625 20.34375 73.4375 
Q 25.25 74.21875 29.59375 74.21875 
Q 40.828125 74.21875 47.359375 69.109375 
Q 53.90625 64.015625 53.90625 55.328125 
Q 53.90625 49.265625 50.4375 45.09375 
Q 46.96875 40.921875 40.578125 39.3125 
z
" id="DejaVuSans-51"/>
       </defs>
       <use xlink:href="#DejaVuSans-51"/>
       <use x="63.623047" xlink:href="#DejaVuSans-48"/>
       <use x="127.246094" xlink:href="#DejaVuSans-48"/>
      </g>
     </g>
    </g>
    <g id="xtick_5">
     <g id="line2d_5">
      <g>
       <use style="stroke:#000000;stroke-width:0.8;" x="336.514901" xlink:href="#mdda2380543" y="169.50647"/>
      </g>
     </g>
     <g id="text_5">
      <!-- 400 -->
      <g transform="translate(326.971151 184.104907)scale(0.1 -0.1)">
       <defs>
        <path d="M 37.796875 64.3125 
L 12.890625 25.390625 
L 37.796875 25.390625 
z
M 35.203125 72.90625 
L 47.609375 72.90625 
L 47.609375 25.390625 
L 58.015625 25.390625 
L 58.015625 17.1875 
L 47.609375 17.1875 
L 47.609375 0 
L 37.796875 0 
L 37.796875 17.1875 
L 4.890625 17.1875 
L 4.890625 26.703125 
z
" id="DejaVuSans-52"/>
       </defs>
       <use xlink:href="#DejaVuSans-52"/>
       <use x="63.623047" xlink:href="#DejaVuSans-48"/>
       <use x="127.246094" xlink:href="#DejaVuSans-48"/>
      </g>
     </g>
    </g>
    <g id="xtick_6">
     <g id="line2d_6">
      <g>
       <use style="stroke:#000000;stroke-width:0.8;" x="395.753922" xlink:href="#mdda2380543" y="169.50647"/>
      </g>
     </g>
     <g id="text_6">
      <!-- 500 -->
      <g transform="translate(386.210172 184.104907)scale(0.1 -0.1)">
       <defs>
        <path d="M 10.796875 72.90625 
L 49.515625 72.90625 
L 49.515625 64.59375 
L 19.828125 64.59375 
L 19.828125 46.734375 
Q 21.96875 47.46875 24.109375 47.828125 
Q 26.265625 48.1875 28.421875 48.1875 
Q 40.625 48.1875 47.75 41.5 
Q 54.890625 34.8125 54.890625 23.390625 
Q 54.890625 11.625 47.5625 5.09375 
Q 40.234375 -1.421875 26.90625 -1.421875 
Q 22.3125 -1.421875 17.546875 -0.640625 
Q 12.796875 0.140625 7.71875 1.703125 
L 7.71875 11.625 
Q 12.109375 9.234375 16.796875 8.0625 
Q 21.484375 6.890625 26.703125 6.890625 
Q 35.15625 6.890625 40.078125 11.328125 
Q 45.015625 15.765625 45.015625 23.390625 
Q 45.015625 31 40.078125 35.4375 
Q 35.15625 39.890625 26.703125 39.890625 
Q 22.75 39.890625 18.8125 39.015625 
Q 14.890625 38.140625 10.796875 36.28125 
z
" id="DejaVuSans-53"/>
       </defs>
       <use xlink:href="#DejaVuSans-53"/>
       <use x="63.623047" xlink:href="#DejaVuSans-48"/>
       <use x="127.246094" xlink:href="#DejaVuSans-48"/>
      </g>
     </g>
    </g>
    <g id="xtick_7">
     <g id="line2d_7">
      <g>
       <use style="stroke:#000000;stroke-width:0.8;" x="454.992943" xlink:href="#mdda2380543" y="169.50647"/>
      </g>
     </g>
     <g id="text_7">
      <!-- 600 -->
      <g transform="translate(445.449193 184.104907)scale(0.1 -0.1)">
       <defs>
        <path d="M 33.015625 40.375 
Q 26.375 40.375 22.484375 35.828125 
Q 18.609375 31.296875 18.609375 23.390625 
Q 18.609375 15.53125 22.484375 10.953125 
Q 26.375 6.390625 33.015625 6.390625 
Q 39.65625 6.390625 43.53125 10.953125 
Q 47.40625 15.53125 47.40625 23.390625 
Q 47.40625 31.296875 43.53125 35.828125 
Q 39.65625 40.375 33.015625 40.375 
z
M 52.59375 71.296875 
L 52.59375 62.3125 
Q 48.875 64.0625 45.09375 64.984375 
Q 41.3125 65.921875 37.59375 65.921875 
Q 27.828125 65.921875 22.671875 59.328125 
Q 17.53125 52.734375 16.796875 39.40625 
Q 19.671875 43.65625 24.015625 45.921875 
Q 28.375 48.1875 33.59375 48.1875 
Q 44.578125 48.1875 50.953125 41.515625 
Q 57.328125 34.859375 57.328125 23.390625 
Q 57.328125 12.15625 50.6875 5.359375 
Q 44.046875 -1.421875 33.015625 -1.421875 
Q 20.359375 -1.421875 13.671875 8.265625 
Q 6.984375 17.96875 6.984375 36.375 
Q 6.984375 53.65625 15.1875 63.9375 
Q 23.390625 74.21875 37.203125 74.21875 
Q 40.921875 74.21875 44.703125 73.484375 
Q 48.484375 72.75 52.59375 71.296875 
z
" id="DejaVuSans-54"/>
       </defs>
       <use xlink:href="#DejaVuSans-54"/>
       <use x="63.623047" xlink:href="#DejaVuSans-48"/>
       <use x="127.246094" xlink:href="#DejaVuSans-48"/>
      </g>
     </g>
    </g>
    <g id="xtick_8">
     <g id="line2d_8">
      <g>
       <use style="stroke:#000000;stroke-width:0.8;" x="514.231964" xlink:href="#mdda2380543" y="169.50647"/>
      </g>
     </g>
     <g id="text_8">
      <!-- 700 -->
      <g transform="translate(504.688214 184.104907)scale(0.1 -0.1)">
       <defs>
        <path d="M 8.203125 72.90625 
L 55.078125 72.90625 
L 55.078125 68.703125 
L 28.609375 0 
L 18.3125 0 
L 43.21875 64.59375 
L 8.203125 64.59375 
z
" id="DejaVuSans-55"/>
       </defs>
       <use xlink:href="#DejaVuSans-55"/>
       <use x="63.623047" xlink:href="#DejaVuSans-48"/>
       <use x="127.246094" xlink:href="#DejaVuSans-48"/>
      </g>
     </g>
    </g>
    <g id="text_9">
     <!-- Timestamps (samples) -->
     <g transform="translate(261.661063 197.783032)scale(0.1 -0.1)">
      <defs>
       <path d="M -0.296875 72.90625 
L 61.375 72.90625 
L 61.375 64.59375 
L 35.5 64.59375 
L 35.5 0 
L 25.59375 0 
L 25.59375 64.59375 
L -0.296875 64.59375 
z
" id="DejaVuSans-84"/>
       <path d="M 9.421875 54.6875 
L 18.40625 54.6875 
L 18.40625 0 
L 9.421875 0 
z
M 9.421875 75.984375 
L 18.40625 75.984375 
L 18.40625 64.59375 
L 9.421875 64.59375 
z
" id="DejaVuSans-105"/>
       <path d="M 52 44.1875 
Q 55.375 50.25 60.0625 53.125 
Q 64.75 56 71.09375 56 
Q 79.640625 56 84.28125 50.015625 
Q 88.921875 44.046875 88.921875 33.015625 
L 88.921875 0 
L 79.890625 0 
L 79.890625 32.71875 
Q 79.890625 40.578125 77.09375 44.375 
Q 74.3125 48.1875 68.609375 48.1875 
Q 61.625 48.1875 57.5625 43.546875 
Q 53.515625 38.921875 53.515625 30.90625 
L 53.515625 0 
L 44.484375 0 
L 44.484375 32.71875 
Q 44.484375 40.625 41.703125 44.40625 
Q 38.921875 48.1875 33.109375 48.1875 
Q 26.21875 48.1875 22.15625 43.53125 
Q 18.109375 38.875 18.109375 30.90625 
L 18.109375 0 
L 9.078125 0 
L 9.078125 54.6875 
L 18.109375 54.6875 
L 18.109375 46.1875 
Q 21.1875 51.21875 25.484375 53.609375 
Q 29.78125 56 35.6875 56 
Q 41.65625 56 45.828125 52.96875 
Q 50 49.953125 52 44.1875 
z
" id="DejaVuSans-109"/>
       <path d="M 56.203125 29.59375 
L 56.203125 25.203125 
L 14.890625 25.203125 
Q 15.484375 15.921875 20.484375 11.0625 
Q 25.484375 6.203125 34.421875 6.203125 
Q 39.59375 6.203125 44.453125 7.46875 
Q 49.3125 8.734375 54.109375 11.28125 
L 54.109375 2.78125 
Q 49.265625 0.734375 44.1875 -0.34375 
Q 39.109375 -1.421875 33.890625 -1.421875 
Q 20.796875 -1.421875 13.15625 6.1875 
Q 5.515625 13.8125 5.515625 26.8125 
Q 5.515625 40.234375 12.765625 48.109375 
Q 20.015625 56 32.328125 56 
Q 43.359375 56 49.78125 48.890625 
Q 56.203125 41.796875 56.203125 29.59375 
z
M 47.21875 32.234375 
Q 47.125 39.59375 43.09375 43.984375 
Q 39.0625 48.390625 32.421875 48.390625 
Q 24.90625 48.390625 20.390625 44.140625 
Q 15.875 39.890625 15.1875 32.171875 
z
" id="DejaVuSans-101"/>
       <path d="M 44.28125 53.078125 
L 44.28125 44.578125 
Q 40.484375 46.53125 36.375 47.5 
Q 32.28125 48.484375 27.875 48.484375 
Q 21.1875 48.484375 17.84375 46.4375 
Q 14.5 44.390625 14.5 40.28125 
Q 14.5 37.15625 16.890625 35.375 
Q 19.28125 33.59375 26.515625 31.984375 
L 29.59375 31.296875 
Q 39.15625 29.25 43.1875 25.515625 
Q 47.21875 21.78125 47.21875 15.09375 
Q 47.21875 7.46875 41.1875 3.015625 
Q 35.15625 -1.421875 24.609375 -1.421875 
Q 20.21875 -1.421875 15.453125 -0.5625 
Q 10.6875 0.296875 5.421875 2 
L 5.421875 11.28125 
Q 10.40625 8.6875 15.234375 7.390625 
Q 20.0625 6.109375 24.8125 6.109375 
Q 31.15625 6.109375 34.5625 8.28125 
Q 37.984375 10.453125 37.984375 14.40625 
Q 37.984375 18.0625 35.515625 20.015625 
Q 33.0625 21.96875 24.703125 23.78125 
L 21.578125 24.515625 
Q 13.234375 26.265625 9.515625 29.90625 
Q 5.8125 33.546875 5.8125 39.890625 
Q 5.8125 47.609375 11.28125 51.796875 
Q 16.75 56 26.8125 56 
Q 31.78125 56 36.171875 55.265625 
Q 40.578125 54.546875 44.28125 53.078125 
z
" id="DejaVuSans-115"/>
       <path d="M 18.3125 70.21875 
L 18.3125 54.6875 
L 36.8125 54.6875 
L 36.8125 47.703125 
L 18.3125 47.703125 
L 18.3125 18.015625 
Q 18.3125 11.328125 20.140625 9.421875 
Q 21.96875 7.515625 27.59375 7.515625 
L 36.8125 7.515625 
L 36.8125 0 
L 27.59375 0 
Q 17.1875 0 13.234375 3.875 
Q 9.28125 7.765625 9.28125 18.015625 
L 9.28125 47.703125 
L 2.6875 47.703125 
L 2.6875 54.6875 
L 9.28125 54.6875 
L 9.28125 70.21875 
z
" id="DejaVuSans-116"/>
       <path d="M 34.28125 27.484375 
Q 23.390625 27.484375 19.1875 25 
Q 14.984375 22.515625 14.984375 16.5 
Q 14.984375 11.71875 18.140625 8.90625 
Q 21.296875 6.109375 26.703125 6.109375 
Q 34.1875 6.109375 38.703125 11.40625 
Q 43.21875 16.703125 43.21875 25.484375 
L 43.21875 27.484375 
z
M 52.203125 31.203125 
L 52.203125 0 
L 43.21875 0 
L 43.21875 8.296875 
Q 40.140625 3.328125 35.546875 0.953125 
Q 30.953125 -1.421875 24.3125 -1.421875 
Q 15.921875 -1.421875 10.953125 3.296875 
Q 6 8.015625 6 15.921875 
Q 6 25.140625 12.171875 29.828125 
Q 18.359375 34.515625 30.609375 34.515625 
L 43.21875 34.515625 
L 43.21875 35.40625 
Q 43.21875 41.609375 39.140625 45 
Q 35.0625 48.390625 27.6875 48.390625 
Q 23 48.390625 18.546875 47.265625 
Q 14.109375 46.140625 10.015625 43.890625 
L 10.015625 52.203125 
Q 14.9375 54.109375 19.578125 55.046875 
Q 24.21875 56 28.609375 56 
Q 40.484375 56 46.34375 49.84375 
Q 52.203125 43.703125 52.203125 31.203125 
z
" id="DejaVuSans-97"/>
       <path d="M 18.109375 8.203125 
L 18.109375 -20.796875 
L 9.078125 -20.796875 
L 9.078125 54.6875 
L 18.109375 54.6875 
L 18.109375 46.390625 
Q 20.953125 51.265625 25.265625 53.625 
Q 29.59375 56 35.59375 56 
Q 45.5625 56 51.78125 48.09375 
Q 58.015625 40.1875 58.015625 27.296875 
Q 58.015625 14.40625 51.78125 6.484375 
Q 45.5625 -1.421875 35.59375 -1.421875 
Q 29.59375 -1.421875 25.265625 0.953125 
Q 20.953125 3.328125 18.109375 8.203125 
z
M 48.6875 27.296875 
Q 48.6875 37.203125 44.609375 42.84375 
Q 40.53125 48.484375 33.40625 48.484375 
Q 26.265625 48.484375 22.1875 42.84375 
Q 18.109375 37.203125 18.109375 27.296875 
Q 18.109375 17.390625 22.1875 11.75 
Q 26.265625 6.109375 33.40625 6.109375 
Q 40.53125 6.109375 44.609375 11.75 
Q 48.6875 17.390625 48.6875 27.296875 
z
" id="DejaVuSans-112"/>
       <path id="DejaVuSans-32"/>
       <path d="M 31 75.875 
Q 24.46875 64.65625 21.28125 53.65625 
Q 18.109375 42.671875 18.109375 31.390625 
Q 18.109375 20.125 21.3125 9.0625 
Q 24.515625 -2 31 -13.1875 
L 23.1875 -13.1875 
Q 15.875 -1.703125 12.234375 9.375 
Q 8.59375 20.453125 8.59375 31.390625 
Q 8.59375 42.28125 12.203125 53.3125 
Q 15.828125 64.359375 23.1875 75.875 
z
" id="DejaVuSans-40"/>
       <path d="M 9.421875 75.984375 
L 18.40625 75.984375 
L 18.40625 0 
L 9.421875 0 
z
" id="DejaVuSans-108"/>
       <path d="M 8.015625 75.875 
L 15.828125 75.875 
Q 23.140625 64.359375 26.78125 53.3125 
Q 30.421875 42.28125 30.421875 31.390625 
Q 30.421875 20.453125 26.78125 9.375 
Q 23.140625 -1.703125 15.828125 -13.1875 
L 8.015625 -13.1875 
Q 14.5 -2 17.703125 9.0625 
Q 20.90625 20.125 20.90625 31.390625 
Q 20.90625 42.671875 17.703125 53.65625 
Q 14.5 64.65625 8.015625 75.875 
z
" id="DejaVuSans-41"/>
      </defs>
      <use xlink:href="#DejaVuSans-84"/>
      <use x="57.958984" xlink:href="#DejaVuSans-105"/>
      <use x="85.742188" xlink:href="#DejaVuSans-109"/>
      <use x="183.154297" xlink:href="#DejaVuSans-101"/>
      <use x="244.677734" xlink:href="#DejaVuSans-115"/>
      <use x="296.777344" xlink:href="#DejaVuSans-116"/>
      <use x="335.986328" xlink:href="#DejaVuSans-97"/>
      <use x="397.265625" xlink:href="#DejaVuSans-109"/>
      <use x="494.677734" xlink:href="#DejaVuSans-112"/>
      <use x="558.154297" xlink:href="#DejaVuSans-115"/>
      <use x="610.253906" xlink:href="#DejaVuSans-32"/>
      <use x="642.041016" xlink:href="#DejaVuSans-40"/>
      <use x="681.054688" xlink:href="#DejaVuSans-115"/>
      <use x="733.154297" xlink:href="#DejaVuSans-97"/>
      <use x="794.433594" xlink:href="#DejaVuSans-109"/>
      <use x="891.845703" xlink:href="#DejaVuSans-112"/>
      <use x="955.322266" xlink:href="#DejaVuSans-108"/>
      <use x="983.105469" xlink:href="#DejaVuSans-101"/>
      <use x="1044.628906" xlink:href="#DejaVuSans-115"/>
      <use x="1096.728516" xlink:href="#DejaVuSans-41"/>
     </g>
    </g>
   </g>
   <g id="matplotlib.axis_2">
    <g id="ytick_1">
     <g id="line2d_9">
      <defs>
       <path d="M 0 0 
L -3.5 0 
" id="m80cef84d46" style="stroke:#000000;stroke-width:0.8;"/>
      </defs>
      <g>
       <use style="stroke:#000000;stroke-width:0.8;" x="77.67" xlink:href="#m80cef84d46" y="163.623169"/>
      </g>
     </g>
     <g id="text_10">
      <!-- −100 -->
      <g transform="translate(43.202813 167.422388)scale(0.1 -0.1)">
       <defs>
        <path d="M 10.59375 35.5 
L 73.1875 35.5 
L 73.1875 27.203125 
L 10.59375 27.203125 
z
" id="DejaVuSans-8722"/>
       </defs>
       <use xlink:href="#DejaVuSans-8722"/>
       <use x="83.789062" xlink:href="#DejaVuSans-49"/>
       <use x="147.412109" xlink:href="#DejaVuSans-48"/>
       <use x="211.035156" xlink:href="#DejaVuSans-48"/>
      </g>
     </g>
    </g>
    <g id="ytick_2">
     <g id="line2d_10">
      <g>
       <use style="stroke:#000000;stroke-width:0.8;" x="77.67" xlink:href="#m80cef84d46" y="128.970232"/>
      </g>
     </g>
     <g id="text_11">
      <!-- 0 -->
      <g transform="translate(64.3075 132.769451)scale(0.1 -0.1)">
       <use xlink:href="#DejaVuSans-48"/>
      </g>
     </g>
    </g>
    <g id="ytick_3">
     <g id="line2d_11">
      <g>
       <use style="stroke:#000000;stroke-width:0.8;" x="77.67" xlink:href="#m80cef84d46" y="94.317295"/>
      </g>
     </g>
     <g id="text_12">
      <!-- 100 -->
      <g transform="translate(51.5825 98.116514)scale(0.1 -0.1)">
       <use xlink:href="#DejaVuSans-49"/>
       <use x="63.623047" xlink:href="#DejaVuSans-48"/>
       <use x="127.246094" xlink:href="#DejaVuSans-48"/>
      </g>
     </g>
    </g>
    <g id="text_13">
     <!-- Amplitude -->
     <g transform="translate(37.123125 144.763091)rotate(-90)scale(0.1 -0.1)">
      <defs>
       <path d="M 34.1875 63.1875 
L 20.796875 26.90625 
L 47.609375 26.90625 
z
M 28.609375 72.90625 
L 39.796875 72.90625 
L 67.578125 0 
L 57.328125 0 
L 50.6875 18.703125 
L 17.828125 18.703125 
L 11.1875 0 
L 0.78125 0 
z
" id="DejaVuSans-65"/>
       <path d="M 8.5 21.578125 
L 8.5 54.6875 
L 17.484375 54.6875 
L 17.484375 21.921875 
Q 17.484375 14.15625 20.5 10.265625 
Q 23.53125 6.390625 29.59375 6.390625 
Q 36.859375 6.390625 41.078125 11.03125 
Q 45.3125 15.671875 45.3125 23.6875 
L 45.3125 54.6875 
L 54.296875 54.6875 
L 54.296875 0 
L 45.3125 0 
L 45.3125 8.40625 
Q 42.046875 3.421875 37.71875 1 
Q 33.40625 -1.421875 27.6875 -1.421875 
Q 18.265625 -1.421875 13.375 4.4375 
Q 8.5 10.296875 8.5 21.578125 
z
M 31.109375 56 
z
" id="DejaVuSans-117"/>
       <path d="M 45.40625 46.390625 
L 45.40625 75.984375 
L 54.390625 75.984375 
L 54.390625 0 
L 45.40625 0 
L 45.40625 8.203125 
Q 42.578125 3.328125 38.25 0.953125 
Q 33.9375 -1.421875 27.875 -1.421875 
Q 17.96875 -1.421875 11.734375 6.484375 
Q 5.515625 14.40625 5.515625 27.296875 
Q 5.515625 40.1875 11.734375 48.09375 
Q 17.96875 56 27.875 56 
Q 33.9375 56 38.25 53.625 
Q 42.578125 51.265625 45.40625 46.390625 
z
M 14.796875 27.296875 
Q 14.796875 17.390625 18.875 11.75 
Q 22.953125 6.109375 30.078125 6.109375 
Q 37.203125 6.109375 41.296875 11.75 
Q 45.40625 17.390625 45.40625 27.296875 
Q 45.40625 37.203125 41.296875 42.84375 
Q 37.203125 48.484375 30.078125 48.484375 
Q 22.953125 48.484375 18.875 42.84375 
Q 14.796875 37.203125 14.796875 27.296875 
z
" id="DejaVuSans-100"/>
      </defs>
      <use xlink:href="#DejaVuSans-65"/>
      <use x="68.408203" xlink:href="#DejaVuSans-109"/>
      <use x="165.820312" xlink:href="#DejaVuSans-112"/>
      <use x="229.296875" xlink:href="#DejaVuSans-108"/>
      <use x="257.080078" xlink:href="#DejaVuSans-105"/>
      <use x="284.863281" xlink:href="#DejaVuSans-116"/>
      <use x="324.072266" xlink:href="#DejaVuSans-117"/>
      <use x="387.451172" xlink:href="#DejaVuSans-100"/>
      <use x="450.927734" xlink:href="#DejaVuSans-101"/>
     </g>
    </g>
   </g>
   <g id="line2d_12">
    <path clip-path="url(#pd06e673f49)" d="M 99.558818 128.970232 
L 106.667501 129.05673 
L 111.406622 129.290102 
L 113.776183 129.358463 
L 114.960964 129.505698 
L 117.330524 129.945641 
L 119.107695 129.959424 
L 119.700085 130.19959 
L 121.477256 130.28819 
L 122.069646 130.512165 
L 123.846817 130.272878 
L 125.623987 130.827682 
L 126.216378 131.11247 
L 126.808768 130.972006 
L 127.993548 131.133154 
L 130.363109 132.285548 
L 131.547889 132.074378 
L 132.14028 131.872065 
L 132.73267 131.224953 
L 133.32506 131.065179 
L 133.91745 131.034604 
L 135.102231 132.764631 
L 135.694621 132.95765 
L 136.287011 132.945266 
L 136.879401 133.265562 
L 137.471791 132.999203 
L 138.064182 132.478031 
L 138.656572 132.2385 
L 139.841352 133.33508 
L 140.433743 133.663468 
L 141.026133 133.617675 
L 141.618523 133.839191 
L 142.210913 133.847117 
L 143.395694 134.510833 
L 144.580474 133.685948 
L 145.172864 133.949664 
L 145.765254 134.625915 
L 146.357645 134.728699 
L 146.950035 134.445563 
L 147.542425 134.498838 
L 148.134815 134.954032 
L 149.319596 133.881892 
L 149.911986 134.124305 
L 151.689156 135.448948 
L 152.873937 137.519195 
L 154.058717 137.78289 
L 154.651108 137.656971 
L 155.243498 138.044498 
L 155.835888 139.458726 
L 157.020668 141.159607 
L 157.613059 141.510944 
L 158.205449 141.579304 
L 158.797839 140.051441 
L 159.390229 139.059251 
L 159.982619 138.757905 
L 160.57501 137.380776 
L 161.75979 136.525981 
L 162.94457 134.522036 
L 164.129351 136.100934 
L 164.721741 136.504305 
L 165.314131 138.063573 
L 165.906521 137.997144 
L 166.498912 140.366463 
L 167.091302 140.62817 
L 167.683692 140.205529 
L 168.276082 140.618584 
L 168.868473 141.907811 
L 169.460863 141.38984 
L 170.645643 139.133015 
L 171.238033 139.120076 
L 171.830424 139.358315 
L 173.015204 143.089555 
L 173.607594 143.652213 
L 174.199984 142.962367 
L 174.792375 144.262084 
L 175.384765 143.736565 
L 175.977155 143.850336 
L 176.569545 143.293949 
L 177.161935 142.910964 
L 177.754326 142.905453 
L 178.346716 143.691128 
L 178.939106 146.91281 
L 179.531496 147.560026 
L 181.308667 147.44805 
L 181.901057 146.179041 
L 182.493447 148.684845 
L 183.085837 151.6901 
L 183.678228 150.521631 
L 184.863008 145.905554 
L 185.455398 145.068596 
L 186.047789 142.33188 
L 187.232569 144.210643 
L 187.824959 147.545497 
L 189.00974 162.138456 
L 189.60213 164.652055 
L 190.19452 164.927739 
L 190.78691 163.788252 
L 191.3793 160.92673 
L 191.971691 155.762018 
L 192.564081 152.20378 
L 193.156471 151.64951 
L 193.748861 152.841731 
L 194.341251 151.724323 
L 194.933642 150.994082 
L 195.526032 152.90326 
L 196.118422 151.736612 
L 196.710812 149.969954 
L 197.303202 147.585785 
L 197.895593 144.420799 
L 198.487983 143.102921 
L 199.080373 143.391497 
L 199.672763 143.983425 
L 200.265154 140.642871 
L 200.857544 139.990196 
L 202.042324 145.348553 
L 202.634714 145.345075 
L 204.411885 156.64762 
L 205.004275 155.102458 
L 205.596665 151.053094 
L 206.189056 150.75149 
L 206.781446 151.783053 
L 207.373836 152.152537 
L 207.966226 150.135392 
L 208.558616 149.973732 
L 209.151007 148.590758 
L 209.743397 148.932325 
L 210.335787 149.629982 
L 210.928177 148.912033 
L 211.520567 147.640748 
L 212.112958 141.820957 
L 213.297738 133.200811 
L 214.482519 129.530864 
L 215.074909 130.853685 
L 215.667299 133.71554 
L 216.259689 131.456847 
L 216.852079 129.933945 
L 217.44447 133.825374 
L 218.03686 131.122572 
L 218.62925 127.590342 
L 219.22164 127.778719 
L 220.406421 132.395669 
L 220.998811 132.826257 
L 222.183591 134.116407 
L 222.775981 134.567134 
L 223.368372 131.475063 
L 223.960762 127.498996 
L 225.737932 118.460612 
L 226.330323 122.49289 
L 227.515103 127.657668 
L 228.107493 129.190413 
L 229.292274 126.740134 
L 229.884664 121.78882 
L 230.477054 122.19549 
L 231.069444 115.109412 
L 231.661835 115.252764 
L 232.254225 115.859185 
L 233.439005 125.245531 
L 234.031395 126.160131 
L 234.623786 128.73468 
L 235.216176 123.520971 
L 235.808566 120.630006 
L 236.400956 114.590916 
L 236.993346 115.714486 
L 237.585737 116.124784 
L 238.178127 118.977903 
L 238.770517 114.511771 
L 239.362907 114.186425 
L 239.955297 112.372348 
L 241.140078 106.936878 
L 241.732468 107.324426 
L 242.324858 107.211704 
L 242.917248 105.827922 
L 243.509639 106.476534 
L 244.102029 109.702481 
L 244.694419 108.573186 
L 245.286809 111.585647 
L 245.8792 113.325463 
L 246.47159 117.179577 
L 247.06398 118.43917 
L 247.65637 117.595354 
L 248.841151 114.016937 
L 250.025931 110.914596 
L 250.618321 112.72771 
L 251.210711 110.47945 
L 251.803102 113.128652 
L 252.395492 114.156364 
L 252.987882 116.020614 
L 253.580272 121.499081 
L 254.172662 119.79995 
L 254.765053 113.063938 
L 255.357443 102.629495 
L 255.949833 97.456154 
L 256.542223 97.045137 
L 257.134613 100.036673 
L 258.319394 120.678637 
L 259.504174 127.529536 
L 260.096565 122.028523 
L 260.688955 118.808747 
L 261.281345 114.691144 
L 261.873735 114.053587 
L 262.466125 111.944454 
L 263.058516 107.758755 
L 263.650906 101.770336 
L 264.243296 98.114536 
L 264.835686 93.541695 
L 265.428076 94.615221 
L 266.020467 99.294925 
L 266.612857 107.316032 
L 267.205247 109.356757 
L 267.797637 107.173709 
L 268.982418 98.808026 
L 269.574808 96.574071 
L 270.759588 104.369734 
L 271.351978 104.604046 
L 273.129149 98.477201 
L 273.721539 99.638434 
L 274.31393 106.127262 
L 275.49871 112.923538 
L 276.0911 118.243654 
L 276.68349 111.256098 
L 277.275881 115.015644 
L 277.868271 106.712666 
L 278.460661 102.19353 
L 279.053051 102.446354 
L 279.645441 102.381287 
L 280.237832 105.528322 
L 280.830222 104.828881 
L 281.422612 106.385673 
L 282.015002 106.980552 
L 282.607392 105.310357 
L 283.199783 110.455081 
L 284.384563 128.643999 
L 284.976953 131.585586 
L 285.569343 127.33226 
L 286.161734 119.450735 
L 286.754124 114.169222 
L 287.346514 115.129009 
L 287.938904 119.394919 
L 288.531295 122.684991 
L 289.123685 123.336267 
L 289.716075 121.666103 
L 290.308465 125.644327 
L 290.900855 124.639105 
L 291.493246 114.620047 
L 292.085636 115.933499 
L 292.678026 110.555488 
L 293.270416 106.837779 
L 293.862806 112.177475 
L 295.047587 126.949134 
L 295.639977 124.92228 
L 297.417148 103.906674 
L 298.009538 98.109523 
L 298.601928 99.429503 
L 299.194318 100.413883 
L 299.786708 100.380629 
L 300.379099 98.644709 
L 300.971489 99.293845 
L 301.563879 97.896693 
L 302.156269 96.839635 
L 302.748659 94.070925 
L 303.34105 95.065397 
L 303.93344 96.405766 
L 304.52583 100.151313 
L 305.11822 97.036951 
L 305.710611 92.200478 
L 306.895391 100.061339 
L 307.487781 101.074607 
L 308.080171 98.299497 
L 308.672562 101.728884 
L 309.264952 94.812562 
L 309.857342 90.306226 
L 310.449732 91.66819 
L 311.634513 98.202771 
L 312.226903 99.573884 
L 312.819293 102.330967 
L 313.411683 103.360527 
L 314.004073 102.314586 
L 314.596464 95.728807 
L 315.188854 96.067936 
L 315.781244 92.25156 
L 316.373634 90.167534 
L 316.966024 89.816836 
L 317.558415 93.972189 
L 318.150805 105.752869 
L 318.743195 110.950786 
L 319.335585 111.297953 
L 319.927976 106.101877 
L 320.520366 98.135945 
L 321.112756 95.369183 
L 321.705146 97.106955 
L 322.297536 96.421337 
L 322.889927 99.198991 
L 323.482317 96.438985 
L 324.074707 94.719748 
L 324.667097 89.890382 
L 325.259487 93.017244 
L 325.851878 95.45171 
L 326.444268 98.575976 
L 327.629048 114.134072 
L 328.221438 113.108181 
L 328.813829 113.462557 
L 329.998609 95.587344 
L 331.183389 81.891201 
L 331.77578 79.181783 
L 332.36817 87.457265 
L 332.96056 90.921225 
L 333.55295 80.681528 
L 334.145341 82.095672 
L 334.737731 82.825226 
L 335.330121 88.335604 
L 335.922511 92.130579 
L 336.514901 93.874402 
L 337.107292 94.254286 
L 338.292072 76.679746 
L 338.884462 73.35313 
L 340.661633 107.68902 
L 341.254023 124.584951 
L 341.846413 137.054625 
L 342.438803 136.706474 
L 343.031194 133.000494 
L 343.623584 120.586727 
L 344.215974 103.18959 
L 344.808364 93.871336 
L 345.400754 88.923205 
L 345.993145 85.992122 
L 346.585535 85.068285 
L 347.177925 86.473482 
L 347.770315 82.24146 
L 348.362705 80.011511 
L 348.955096 80.763481 
L 349.547486 80.196398 
L 350.139876 82.593733 
L 350.732266 87.609661 
L 351.324657 88.348519 
L 351.917047 87.124567 
L 352.509437 84.602551 
L 353.101827 91.53364 
L 354.878998 103.746776 
L 355.471388 104.127217 
L 356.063778 102.897573 
L 356.656168 99.105881 
L 357.248559 103.98303 
L 357.840949 104.683308 
L 358.433339 109.844016 
L 359.025729 111.80011 
L 359.618119 107.7212 
L 360.21051 102.399031 
L 360.8029 91.742698 
L 361.39529 84.605844 
L 362.58007 74.835521 
L 363.172461 79.979889 
L 364.357241 100.116389 
L 366.134412 105.599759 
L 366.726802 100.765791 
L 367.319192 93.823453 
L 367.911582 95.761339 
L 368.503973 100.422072 
L 369.096363 101.421849 
L 369.688753 103.925333 
L 370.281143 107.917537 
L 370.873533 110.985197 
L 371.465924 112.240835 
L 372.058314 114.67973 
L 372.650704 112.058937 
L 373.243094 115.074633 
L 373.835484 108.053358 
L 374.427875 106.367044 
L 375.612655 97.206546 
L 376.205045 95.872823 
L 376.797435 92.52626 
L 377.389826 95.834222 
L 378.574606 111.243374 
L 379.166996 111.31302 
L 379.759387 113.085141 
L 380.351777 108.346055 
L 380.944167 99.144408 
L 381.536557 100.107509 
L 382.128947 104.692204 
L 383.906118 121.255566 
L 384.498508 124.306607 
L 385.090898 121.868834 
L 385.683289 118.365225 
L 386.275679 113.810544 
L 386.868069 105.524854 
L 387.460459 99.998309 
L 388.052849 102.534942 
L 388.64524 102.392139 
L 389.23763 107.014073 
L 389.83002 117.386064 
L 390.42241 123.467926 
L 391.0148 121.66934 
L 391.607191 121.964504 
L 392.199581 118.900804 
L 392.791971 114.326741 
L 393.384361 105.965314 
L 393.976752 102.776188 
L 394.569142 96.585446 
L 395.753922 107.688015 
L 396.346312 117.015493 
L 396.938703 116.583752 
L 397.531093 114.679219 
L 398.715873 102.405259 
L 399.308263 98.91673 
L 399.900654 98.120497 
L 400.493044 101.889187 
L 401.677824 115.228618 
L 402.270214 118.134841 
L 402.862605 122.179154 
L 403.454995 121.288037 
L 404.047385 116.011374 
L 404.639775 113.098964 
L 405.232165 110.908899 
L 405.824556 107.383709 
L 406.416946 102.322912 
L 407.009336 104.508547 
L 408.194116 119.219968 
L 408.786507 122.584997 
L 409.378897 125.2513 
L 410.563677 121.629245 
L 411.156068 120.605433 
L 411.748458 119.169945 
L 412.340848 116.061747 
L 412.933238 115.518934 
L 414.118019 120.056647 
L 414.710409 120.942199 
L 415.302799 123.451459 
L 415.895189 128.361386 
L 416.487579 130.783699 
L 417.07997 129.570357 
L 418.26475 121.676525 
L 418.85714 119.578204 
L 419.44953 118.871537 
L 420.041921 120.489558 
L 421.226701 122.326801 
L 421.819091 120.871383 
L 422.411481 122.616406 
L 423.003872 125.632885 
L 423.596262 126.579035 
L 424.188652 125.320882 
L 425.373433 120.173547 
L 425.965823 115.794399 
L 426.558213 115.550224 
L 427.150603 116.712806 
L 427.742993 121.330381 
L 428.335384 122.083839 
L 428.927774 127.946111 
L 429.520164 131.170013 
L 430.112554 132.660541 
L 430.704944 129.801578 
L 431.297335 129.629422 
L 431.889725 129.133558 
L 433.074505 124.800182 
L 433.666895 123.408103 
L 434.259286 127.553178 
L 434.851676 127.72236 
L 435.444066 126.034374 
L 436.036456 122.694975 
L 436.628846 123.664487 
L 437.221237 122.064163 
L 437.813627 123.320664 
L 438.406017 123.376043 
L 438.998407 120.661908 
L 439.590798 120.744755 
L 440.775578 118.506181 
L 441.367968 118.893168 
L 441.960358 121.351919 
L 442.552749 128.559013 
L 443.145139 133.446138 
L 443.737529 134.740699 
L 444.329919 134.679047 
L 444.922309 134.223523 
L 445.5147 135.725264 
L 446.10709 134.751822 
L 446.69948 129.85964 
L 447.29187 127.71383 
L 447.88426 129.839811 
L 448.476651 133.759995 
L 449.661431 139.890527 
L 450.253821 141.423585 
L 450.846211 141.159806 
L 451.438602 138.003847 
L 452.623382 126.257167 
L 453.215772 123.721964 
L 453.808163 123.124829 
L 455.585333 126.421567 
L 456.177723 126.34927 
L 456.770114 125.969092 
L 457.362504 124.782421 
L 457.954894 126.450207 
L 458.547284 127.577715 
L 459.139674 129.65718 
L 459.732065 131.293687 
L 460.324455 130.880061 
L 460.916845 130.006189 
L 461.509235 128.041532 
L 462.101625 127.413576 
L 462.694016 125.539902 
L 463.286406 125.766891 
L 463.878796 126.251605 
L 464.471186 128.451713 
L 465.063576 129.906862 
L 465.655967 129.221881 
L 466.248357 128.061365 
L 466.840747 127.505535 
L 467.433137 127.207449 
L 468.617918 127.805397 
L 469.210308 131.645303 
L 469.802698 134.385532 
L 470.395088 134.29834 
L 471.579869 130.688659 
L 472.172259 128.618172 
L 472.764649 127.031789 
L 473.357039 127.813282 
L 474.54182 134.885954 
L 475.13421 135.169821 
L 475.7266 133.854783 
L 476.31899 133.206654 
L 478.096161 132.919386 
L 478.688551 133.597414 
L 479.873332 132.031491 
L 480.465722 131.863062 
L 481.058112 132.180995 
L 481.650502 131.907567 
L 482.242892 134.521521 
L 482.835283 139.293632 
L 484.020063 142.832111 
L 484.612453 142.824248 
L 485.204844 140.955857 
L 485.797234 137.573229 
L 486.389624 136.278177 
L 486.982014 135.640209 
L 488.166795 129.508194 
L 488.759185 129.536267 
L 489.943965 132.132043 
L 491.128746 132.752929 
L 491.721136 133.197376 
L 492.905916 131.728218 
L 493.498306 130.894512 
L 494.090697 130.74758 
L 494.683087 130.228783 
L 495.275477 129.950148 
L 495.867867 130.906667 
L 496.460257 130.592585 
L 497.052648 129.561599 
L 497.645038 129.161756 
L 498.237428 129.448515 
L 498.829818 130.208279 
L 499.422209 131.672896 
L 500.014599 132.63461 
L 500.606989 134.144833 
L 501.199379 135.053893 
L 501.791769 134.617709 
L 502.97655 134.17245 
L 503.56894 133.798587 
L 504.16133 134.038537 
L 504.75372 133.80662 
L 505.346111 133.168904 
L 505.938501 132.809905 
L 507.123281 132.818692 
L 507.715671 133.118748 
L 508.900452 132.812264 
L 509.492842 132.246436 
L 510.085232 131.469178 
L 511.270013 130.599994 
L 511.862403 129.668746 
L 512.454793 129.079534 
L 513.047183 129.053601 
L 513.639574 128.851146 
L 514.231964 129.026862 
L 515.416744 128.859694 
L 516.601525 128.414324 
L 517.786305 128.265602 
L 518.378695 128.543215 
L 519.563476 128.81327 
L 520.748256 129.111946 
L 521.340646 129.088412 
L 522.525427 128.837653 
L 526.079768 129.017605 
L 528.449329 128.873138 
L 537.335182 128.970232 
L 537.335182 128.970232 
" style="fill:none;stroke:#1f77b4;stroke-linecap:square;stroke-width:1.5;"/>
   </g>
   <g id="patch_3">
    <path d="M 77.67 169.50647 
L 77.67 68.7744 
" style="fill:none;stroke:#000000;stroke-linecap:square;stroke-linejoin:miter;stroke-width:0.8;"/>
   </g>
   <g id="patch_4">
    <path d="M 559.224 169.50647 
L 559.224 68.7744 
" style="fill:none;stroke:#000000;stroke-linecap:square;stroke-linejoin:miter;stroke-width:0.8;"/>
   </g>
   <g id="patch_5">
    <path d="M 77.67 169.50647 
L 559.224 169.50647 
" style="fill:none;stroke:#000000;stroke-linecap:square;stroke-linejoin:miter;stroke-width:0.8;"/>
   </g>
   <g id="patch_6">
    <path d="M 77.67 68.7744 
L 559.224 68.7744 
" style="fill:none;stroke:#000000;stroke-linecap:square;stroke-linejoin:miter;stroke-width:0.8;"/>
   </g>
   <g id="text_14">
    <!-- A window with size 740 sample of lab_male.wav non-voice -->
    <g transform="translate(142.67325 62.7744)scale(0.12 -0.12)">
     <defs>
      <path d="M 4.203125 54.6875 
L 13.1875 54.6875 
L 24.421875 12.015625 
L 35.59375 54.6875 
L 46.1875 54.6875 
L 57.421875 12.015625 
L 68.609375 54.6875 
L 77.59375 54.6875 
L 63.28125 0 
L 52.6875 0 
L 40.921875 44.828125 
L 29.109375 0 
L 18.5 0 
z
" id="DejaVuSans-119"/>
      <path d="M 54.890625 33.015625 
L 54.890625 0 
L 45.90625 0 
L 45.90625 32.71875 
Q 45.90625 40.484375 42.875 44.328125 
Q 39.84375 48.1875 33.796875 48.1875 
Q 26.515625 48.1875 22.3125 43.546875 
Q 18.109375 38.921875 18.109375 30.90625 
L 18.109375 0 
L 9.078125 0 
L 9.078125 54.6875 
L 18.109375 54.6875 
L 18.109375 46.1875 
Q 21.34375 51.125 25.703125 53.5625 
Q 30.078125 56 35.796875 56 
Q 45.21875 56 50.046875 50.171875 
Q 54.890625 44.34375 54.890625 33.015625 
z
" id="DejaVuSans-110"/>
      <path d="M 30.609375 48.390625 
Q 23.390625 48.390625 19.1875 42.75 
Q 14.984375 37.109375 14.984375 27.296875 
Q 14.984375 17.484375 19.15625 11.84375 
Q 23.34375 6.203125 30.609375 6.203125 
Q 37.796875 6.203125 41.984375 11.859375 
Q 46.1875 17.53125 46.1875 27.296875 
Q 46.1875 37.015625 41.984375 42.703125 
Q 37.796875 48.390625 30.609375 48.390625 
z
M 30.609375 56 
Q 42.328125 56 49.015625 48.375 
Q 55.71875 40.765625 55.71875 27.296875 
Q 55.71875 13.875 49.015625 6.21875 
Q 42.328125 -1.421875 30.609375 -1.421875 
Q 18.84375 -1.421875 12.171875 6.21875 
Q 5.515625 13.875 5.515625 27.296875 
Q 5.515625 40.765625 12.171875 48.375 
Q 18.84375 56 30.609375 56 
z
" id="DejaVuSans-111"/>
      <path d="M 54.890625 33.015625 
L 54.890625 0 
L 45.90625 0 
L 45.90625 32.71875 
Q 45.90625 40.484375 42.875 44.328125 
Q 39.84375 48.1875 33.796875 48.1875 
Q 26.515625 48.1875 22.3125 43.546875 
Q 18.109375 38.921875 18.109375 30.90625 
L 18.109375 0 
L 9.078125 0 
L 9.078125 75.984375 
L 18.109375 75.984375 
L 18.109375 46.1875 
Q 21.34375 51.125 25.703125 53.5625 
Q 30.078125 56 35.796875 56 
Q 45.21875 56 50.046875 50.171875 
Q 54.890625 44.34375 54.890625 33.015625 
z
" id="DejaVuSans-104"/>
      <path d="M 5.515625 54.6875 
L 48.1875 54.6875 
L 48.1875 46.484375 
L 14.40625 7.171875 
L 48.1875 7.171875 
L 48.1875 0 
L 4.296875 0 
L 4.296875 8.203125 
L 38.09375 47.515625 
L 5.515625 47.515625 
z
" id="DejaVuSans-122"/>
      <path d="M 37.109375 75.984375 
L 37.109375 68.5 
L 28.515625 68.5 
Q 23.6875 68.5 21.796875 66.546875 
Q 19.921875 64.59375 19.921875 59.515625 
L 19.921875 54.6875 
L 34.71875 54.6875 
L 34.71875 47.703125 
L 19.921875 47.703125 
L 19.921875 0 
L 10.890625 0 
L 10.890625 47.703125 
L 2.296875 47.703125 
L 2.296875 54.6875 
L 10.890625 54.6875 
L 10.890625 58.5 
Q 10.890625 67.625 15.140625 71.796875 
Q 19.390625 75.984375 28.609375 75.984375 
z
" id="DejaVuSans-102"/>
      <path d="M 48.6875 27.296875 
Q 48.6875 37.203125 44.609375 42.84375 
Q 40.53125 48.484375 33.40625 48.484375 
Q 26.265625 48.484375 22.1875 42.84375 
Q 18.109375 37.203125 18.109375 27.296875 
Q 18.109375 17.390625 22.1875 11.75 
Q 26.265625 6.109375 33.40625 6.109375 
Q 40.53125 6.109375 44.609375 11.75 
Q 48.6875 17.390625 48.6875 27.296875 
z
M 18.109375 46.390625 
Q 20.953125 51.265625 25.265625 53.625 
Q 29.59375 56 35.59375 56 
Q 45.5625 56 51.78125 48.09375 
Q 58.015625 40.1875 58.015625 27.296875 
Q 58.015625 14.40625 51.78125 6.484375 
Q 45.5625 -1.421875 35.59375 -1.421875 
Q 29.59375 -1.421875 25.265625 0.953125 
Q 20.953125 3.328125 18.109375 8.203125 
L 18.109375 0 
L 9.078125 0 
L 9.078125 75.984375 
L 18.109375 75.984375 
z
" id="DejaVuSans-98"/>
      <path d="M 50.984375 -16.609375 
L 50.984375 -23.578125 
L -0.984375 -23.578125 
L -0.984375 -16.609375 
z
" id="DejaVuSans-95"/>
      <path d="M 10.6875 12.40625 
L 21 12.40625 
L 21 0 
L 10.6875 0 
z
" id="DejaVuSans-46"/>
      <path d="M 2.984375 54.6875 
L 12.5 54.6875 
L 29.59375 8.796875 
L 46.6875 54.6875 
L 56.203125 54.6875 
L 35.6875 0 
L 23.484375 0 
z
" id="DejaVuSans-118"/>
      <path d="M 4.890625 31.390625 
L 31.203125 31.390625 
L 31.203125 23.390625 
L 4.890625 23.390625 
z
" id="DejaVuSans-45"/>
      <path d="M 48.78125 52.59375 
L 48.78125 44.1875 
Q 44.96875 46.296875 41.140625 47.34375 
Q 37.3125 48.390625 33.40625 48.390625 
Q 24.65625 48.390625 19.8125 42.84375 
Q 14.984375 37.3125 14.984375 27.296875 
Q 14.984375 17.28125 19.8125 11.734375 
Q 24.65625 6.203125 33.40625 6.203125 
Q 37.3125 6.203125 41.140625 7.25 
Q 44.96875 8.296875 48.78125 10.40625 
L 48.78125 2.09375 
Q 45.015625 0.34375 40.984375 -0.53125 
Q 36.96875 -1.421875 32.421875 -1.421875 
Q 20.0625 -1.421875 12.78125 6.34375 
Q 5.515625 14.109375 5.515625 27.296875 
Q 5.515625 40.671875 12.859375 48.328125 
Q 20.21875 56 33.015625 56 
Q 37.15625 56 41.109375 55.140625 
Q 45.0625 54.296875 48.78125 52.59375 
z
" id="DejaVuSans-99"/>
     </defs>
     <use xlink:href="#DejaVuSans-65"/>
     <use x="68.408203" xlink:href="#DejaVuSans-32"/>
     <use x="100.195312" xlink:href="#DejaVuSans-119"/>
     <use x="181.982422" xlink:href="#DejaVuSans-105"/>
     <use x="209.765625" xlink:href="#DejaVuSans-110"/>
     <use x="273.144531" xlink:href="#DejaVuSans-100"/>
     <use x="336.621094" xlink:href="#DejaVuSans-111"/>
     <use x="397.802734" xlink:href="#DejaVuSans-119"/>
     <use x="479.589844" xlink:href="#DejaVuSans-32"/>
     <use x="511.376953" xlink:href="#DejaVuSans-119"/>
     <use x="593.164062" xlink:href="#DejaVuSans-105"/>
     <use x="620.947266" xlink:href="#DejaVuSans-116"/>
     <use x="660.15625" xlink:href="#DejaVuSans-104"/>
     <use x="723.535156" xlink:href="#DejaVuSans-32"/>
     <use x="755.322266" xlink:href="#DejaVuSans-115"/>
     <use x="807.421875" xlink:href="#DejaVuSans-105"/>
     <use x="835.205078" xlink:href="#DejaVuSans-122"/>
     <use x="887.695312" xlink:href="#DejaVuSans-101"/>
     <use x="949.21875" xlink:href="#DejaVuSans-32"/>
     <use x="981.005859" xlink:href="#DejaVuSans-55"/>
     <use x="1044.628906" xlink:href="#DejaVuSans-52"/>
     <use x="1108.251953" xlink:href="#DejaVuSans-48"/>
     <use x="1171.875" xlink:href="#DejaVuSans-32"/>
     <use x="1203.662109" xlink:href="#DejaVuSans-115"/>
     <use x="1255.761719" xlink:href="#DejaVuSans-97"/>
     <use x="1317.041016" xlink:href="#DejaVuSans-109"/>
     <use x="1414.453125" xlink:href="#DejaVuSans-112"/>
     <use x="1477.929688" xlink:href="#DejaVuSans-108"/>
     <use x="1505.712891" xlink:href="#DejaVuSans-101"/>
     <use x="1567.236328" xlink:href="#DejaVuSans-32"/>
     <use x="1599.023438" xlink:href="#DejaVuSans-111"/>
     <use x="1660.205078" xlink:href="#DejaVuSans-102"/>
     <use x="1695.410156" xlink:href="#DejaVuSans-32"/>
     <use x="1727.197266" xlink:href="#DejaVuSans-108"/>
     <use x="1754.980469" xlink:href="#DejaVuSans-97"/>
     <use x="1816.259766" xlink:href="#DejaVuSans-98"/>
     <use x="1879.736328" xlink:href="#DejaVuSans-95"/>
     <use x="1929.736328" xlink:href="#DejaVuSans-109"/>
     <use x="2027.148438" xlink:href="#DejaVuSans-97"/>
     <use x="2088.427734" xlink:href="#DejaVuSans-108"/>
     <use x="2116.210938" xlink:href="#DejaVuSans-101"/>
     <use x="2177.734375" xlink:href="#DejaVuSans-46"/>
     <use x="2209.521484" xlink:href="#DejaVuSans-119"/>
     <use x="2291.308594" xlink:href="#DejaVuSans-97"/>
     <use x="2352.587891" xlink:href="#DejaVuSans-118"/>
     <use x="2411.767578" xlink:href="#DejaVuSans-32"/>
     <use x="2443.554688" xlink:href="#DejaVuSans-110"/>
     <use x="2506.933594" xlink:href="#DejaVuSans-111"/>
     <use x="2568.115234" xlink:href="#DejaVuSans-110"/>
     <use x="2631.494141" xlink:href="#DejaVuSans-45"/>
     <use x="2664.953125" xlink:href="#DejaVuSans-118"/>
     <use x="2724.132812" xlink:href="#DejaVuSans-111"/>
     <use x="2785.314453" xlink:href="#DejaVuSans-105"/>
     <use x="2813.097656" xlink:href="#DejaVuSans-99"/>
     <use x="2868.078125" xlink:href="#DejaVuSans-101"/>
    </g>
   </g>
  </g>
  <g id="axes_2">
   <g id="patch_7">
    <path d="M 77.67 339.791635 
L 559.224 339.791635 
L 559.224 239.059565 
L 77.67 239.059565 
z
" style="fill:#ffffff;"/>
   </g>
   <g id="matplotlib.axis_3">
    <g id="xtick_9">
     <g id="line2d_13">
      <g>
       <use style="stroke:#000000;stroke-width:0.8;" x="91.359596" xlink:href="#mdda2380543" y="339.791635"/>
      </g>
     </g>
     <g id="text_15">
      <!-- 0 -->
      <g transform="translate(88.178346 354.390072)scale(0.1 -0.1)">
       <use xlink:href="#DejaVuSans-48"/>
      </g>
     </g>
    </g>
    <g id="xtick_10">
     <g id="line2d_14">
      <g>
       <use style="stroke:#000000;stroke-width:0.8;" x="186.604086" xlink:href="#mdda2380543" y="339.791635"/>
      </g>
     </g>
     <g id="text_16">
      <!-- 200 -->
      <g transform="translate(177.060336 354.390072)scale(0.1 -0.1)">
       <use xlink:href="#DejaVuSans-50"/>
       <use x="63.623047" xlink:href="#DejaVuSans-48"/>
       <use x="127.246094" xlink:href="#DejaVuSans-48"/>
      </g>
     </g>
    </g>
    <g id="xtick_11">
     <g id="line2d_15">
      <g>
       <use style="stroke:#000000;stroke-width:0.8;" x="281.848576" xlink:href="#mdda2380543" y="339.791635"/>
      </g>
     </g>
     <g id="text_17">
      <!-- 400 -->
      <g transform="translate(272.304826 354.390072)scale(0.1 -0.1)">
       <use xlink:href="#DejaVuSans-52"/>
       <use x="63.623047" xlink:href="#DejaVuSans-48"/>
       <use x="127.246094" xlink:href="#DejaVuSans-48"/>
      </g>
     </g>
    </g>
    <g id="xtick_12">
     <g id="line2d_16">
      <g>
       <use style="stroke:#000000;stroke-width:0.8;" x="377.093066" xlink:href="#mdda2380543" y="339.791635"/>
      </g>
     </g>
     <g id="text_18">
      <!-- 600 -->
      <g transform="translate(367.549316 354.390072)scale(0.1 -0.1)">
       <use xlink:href="#DejaVuSans-54"/>
       <use x="63.623047" xlink:href="#DejaVuSans-48"/>
       <use x="127.246094" xlink:href="#DejaVuSans-48"/>
      </g>
     </g>
    </g>
    <g id="xtick_13">
     <g id="line2d_17">
      <g>
       <use style="stroke:#000000;stroke-width:0.8;" x="472.337556" xlink:href="#mdda2380543" y="339.791635"/>
      </g>
     </g>
     <g id="text_19">
      <!-- 800 -->
      <g transform="translate(462.793806 354.390072)scale(0.1 -0.1)">
       <defs>
        <path d="M 31.78125 34.625 
Q 24.75 34.625 20.71875 30.859375 
Q 16.703125 27.09375 16.703125 20.515625 
Q 16.703125 13.921875 20.71875 10.15625 
Q 24.75 6.390625 31.78125 6.390625 
Q 38.8125 6.390625 42.859375 10.171875 
Q 46.921875 13.96875 46.921875 20.515625 
Q 46.921875 27.09375 42.890625 30.859375 
Q 38.875 34.625 31.78125 34.625 
z
M 21.921875 38.8125 
Q 15.578125 40.375 12.03125 44.71875 
Q 8.5 49.078125 8.5 55.328125 
Q 8.5 64.0625 14.71875 69.140625 
Q 20.953125 74.21875 31.78125 74.21875 
Q 42.671875 74.21875 48.875 69.140625 
Q 55.078125 64.0625 55.078125 55.328125 
Q 55.078125 49.078125 51.53125 44.71875 
Q 48 40.375 41.703125 38.8125 
Q 48.828125 37.15625 52.796875 32.3125 
Q 56.78125 27.484375 56.78125 20.515625 
Q 56.78125 9.90625 50.3125 4.234375 
Q 43.84375 -1.421875 31.78125 -1.421875 
Q 19.734375 -1.421875 13.25 4.234375 
Q 6.78125 9.90625 6.78125 20.515625 
Q 6.78125 27.484375 10.78125 32.3125 
Q 14.796875 37.15625 21.921875 38.8125 
z
M 18.3125 54.390625 
Q 18.3125 48.734375 21.84375 45.5625 
Q 25.390625 42.390625 31.78125 42.390625 
Q 38.140625 42.390625 41.71875 45.5625 
Q 45.3125 48.734375 45.3125 54.390625 
Q 45.3125 60.0625 41.71875 63.234375 
Q 38.140625 66.40625 31.78125 66.40625 
Q 25.390625 66.40625 21.84375 63.234375 
Q 18.3125 60.0625 18.3125 54.390625 
z
" id="DejaVuSans-56"/>
       </defs>
       <use xlink:href="#DejaVuSans-56"/>
       <use x="63.623047" xlink:href="#DejaVuSans-48"/>
       <use x="127.246094" xlink:href="#DejaVuSans-48"/>
      </g>
     </g>
    </g>
    <g id="text_20">
     <!-- Frequency -->
     <g transform="translate(292.617313 368.068197)scale(0.1 -0.1)">
      <defs>
       <path d="M 9.8125 72.90625 
L 51.703125 72.90625 
L 51.703125 64.59375 
L 19.671875 64.59375 
L 19.671875 43.109375 
L 48.578125 43.109375 
L 48.578125 34.8125 
L 19.671875 34.8125 
L 19.671875 0 
L 9.8125 0 
z
" id="DejaVuSans-70"/>
       <path d="M 41.109375 46.296875 
Q 39.59375 47.171875 37.8125 47.578125 
Q 36.03125 48 33.890625 48 
Q 26.265625 48 22.1875 43.046875 
Q 18.109375 38.09375 18.109375 28.8125 
L 18.109375 0 
L 9.078125 0 
L 9.078125 54.6875 
L 18.109375 54.6875 
L 18.109375 46.1875 
Q 20.953125 51.171875 25.484375 53.578125 
Q 30.03125 56 36.53125 56 
Q 37.453125 56 38.578125 55.875 
Q 39.703125 55.765625 41.0625 55.515625 
z
" id="DejaVuSans-114"/>
       <path d="M 14.796875 27.296875 
Q 14.796875 17.390625 18.875 11.75 
Q 22.953125 6.109375 30.078125 6.109375 
Q 37.203125 6.109375 41.296875 11.75 
Q 45.40625 17.390625 45.40625 27.296875 
Q 45.40625 37.203125 41.296875 42.84375 
Q 37.203125 48.484375 30.078125 48.484375 
Q 22.953125 48.484375 18.875 42.84375 
Q 14.796875 37.203125 14.796875 27.296875 
z
M 45.40625 8.203125 
Q 42.578125 3.328125 38.25 0.953125 
Q 33.9375 -1.421875 27.875 -1.421875 
Q 17.96875 -1.421875 11.734375 6.484375 
Q 5.515625 14.40625 5.515625 27.296875 
Q 5.515625 40.1875 11.734375 48.09375 
Q 17.96875 56 27.875 56 
Q 33.9375 56 38.25 53.625 
Q 42.578125 51.265625 45.40625 46.390625 
L 45.40625 54.6875 
L 54.390625 54.6875 
L 54.390625 -20.796875 
L 45.40625 -20.796875 
z
" id="DejaVuSans-113"/>
       <path d="M 32.171875 -5.078125 
Q 28.375 -14.84375 24.75 -17.8125 
Q 21.140625 -20.796875 15.09375 -20.796875 
L 7.90625 -20.796875 
L 7.90625 -13.28125 
L 13.1875 -13.28125 
Q 16.890625 -13.28125 18.9375 -11.515625 
Q 21 -9.765625 23.484375 -3.21875 
L 25.09375 0.875 
L 2.984375 54.6875 
L 12.5 54.6875 
L 29.59375 11.921875 
L 46.6875 54.6875 
L 56.203125 54.6875 
z
" id="DejaVuSans-121"/>
      </defs>
      <use xlink:href="#DejaVuSans-70"/>
      <use x="50.269531" xlink:href="#DejaVuSans-114"/>
      <use x="89.132812" xlink:href="#DejaVuSans-101"/>
      <use x="150.65625" xlink:href="#DejaVuSans-113"/>
      <use x="214.132812" xlink:href="#DejaVuSans-117"/>
      <use x="277.511719" xlink:href="#DejaVuSans-101"/>
      <use x="339.035156" xlink:href="#DejaVuSans-110"/>
      <use x="402.414062" xlink:href="#DejaVuSans-99"/>
      <use x="457.394531" xlink:href="#DejaVuSans-121"/>
     </g>
    </g>
   </g>
   <g id="matplotlib.axis_4">
    <g id="ytick_4">
     <g id="line2d_18">
      <g>
       <use style="stroke:#000000;stroke-width:0.8;" x="77.67" xlink:href="#m80cef84d46" y="319.466101"/>
      </g>
     </g>
     <g id="text_21">
      <!-- 1 -->
      <g transform="translate(64.3075 323.26532)scale(0.1 -0.1)">
       <use xlink:href="#DejaVuSans-49"/>
      </g>
     </g>
    </g>
    <g id="ytick_5">
     <g id="line2d_19">
      <g>
       <use style="stroke:#000000;stroke-width:0.8;" x="77.67" xlink:href="#m80cef84d46" y="294.896327"/>
      </g>
     </g>
     <g id="text_22">
      <!-- 2 -->
      <g transform="translate(64.3075 298.695546)scale(0.1 -0.1)">
       <use xlink:href="#DejaVuSans-50"/>
      </g>
     </g>
    </g>
    <g id="ytick_6">
     <g id="line2d_20">
      <g>
       <use style="stroke:#000000;stroke-width:0.8;" x="77.67" xlink:href="#m80cef84d46" y="270.326554"/>
      </g>
     </g>
     <g id="text_23">
      <!-- 3 -->
      <g transform="translate(64.3075 274.125772)scale(0.1 -0.1)">
       <use xlink:href="#DejaVuSans-51"/>
      </g>
     </g>
    </g>
    <g id="ytick_7">
     <g id="line2d_21">
      <g>
       <use style="stroke:#000000;stroke-width:0.8;" x="77.67" xlink:href="#m80cef84d46" y="245.75678"/>
      </g>
     </g>
     <g id="text_24">
      <!-- 4 -->
      <g transform="translate(64.3075 249.555999)scale(0.1 -0.1)">
       <use xlink:href="#DejaVuSans-52"/>
      </g>
     </g>
    </g>
    <g id="text_25">
     <!-- Power -->
     <g transform="translate(58.227812 304.539662)rotate(-90)scale(0.1 -0.1)">
      <defs>
       <path d="M 19.671875 64.796875 
L 19.671875 37.40625 
L 32.078125 37.40625 
Q 38.96875 37.40625 42.71875 40.96875 
Q 46.484375 44.53125 46.484375 51.125 
Q 46.484375 57.671875 42.71875 61.234375 
Q 38.96875 64.796875 32.078125 64.796875 
z
M 9.8125 72.90625 
L 32.078125 72.90625 
Q 44.34375 72.90625 50.609375 67.359375 
Q 56.890625 61.8125 56.890625 51.125 
Q 56.890625 40.328125 50.609375 34.8125 
Q 44.34375 29.296875 32.078125 29.296875 
L 19.671875 29.296875 
L 19.671875 0 
L 9.8125 0 
z
" id="DejaVuSans-80"/>
      </defs>
      <use xlink:href="#DejaVuSans-80"/>
      <use x="56.677734" xlink:href="#DejaVuSans-111"/>
      <use x="117.859375" xlink:href="#DejaVuSans-119"/>
      <use x="199.646484" xlink:href="#DejaVuSans-101"/>
      <use x="261.169922" xlink:href="#DejaVuSans-114"/>
     </g>
    </g>
    <g id="text_26">
     <!-- 1e8 -->
     <g transform="translate(77.67 236.059565)scale(0.1 -0.1)">
      <use xlink:href="#DejaVuSans-49"/>
      <use x="63.623047" xlink:href="#DejaVuSans-101"/>
      <use x="125.146484" xlink:href="#DejaVuSans-56"/>
     </g>
    </g>
   </g>
   <g id="line2d_22">
    <path clip-path="url(#p39c9079ee8)" d="M 91.359596 288.357149 
L 92.289718 287.607461 
L 93.21984 285.402178 
L 94.149962 281.871683 
L 95.080084 277.22981 
L 96.940328 265.843149 
L 98.800571 254.275156 
L 99.730693 249.514856 
L 100.660815 246.001656 
L 101.590937 244.093449 
L 102.521059 244.058437 
L 103.451181 246.049308 
L 104.381303 250.085776 
L 105.311425 256.048215 
L 106.241547 263.683958 
L 108.101791 282.424976 
L 110.892157 312.029251 
L 111.822279 320.472198 
L 112.752401 327.65386 
L 113.682523 333.412813 
L 114.612645 337.709204 
L 115.542767 340.614925 
L 116.472889 342.29333 
L 117.403011 342.971696 
L 118.333133 342.910274 
L 119.263255 342.371885 
L 122.053621 340.056415 
L 122.983743 339.516729 
L 123.913865 339.186717 
L 124.843987 339.05188 
L 126.704231 339.176139 
L 129.494597 339.506387 
L 131.354841 339.453127 
L 135.075328 339.145585 
L 136.935572 339.341944 
L 138.795816 339.893193 
L 145.30667 342.44767 
L 147.166914 342.762314 
L 149.95728 342.934639 
L 153.677768 343.1912 
L 161.118744 344.02226 
L 164.839232 343.95355 
L 168.559719 343.913614 
L 175.070573 343.992199 
L 178.791061 343.663694 
L 183.441671 343.237903 
L 187.162159 343.192806 
L 213.205574 343.886017 
L 218.786306 343.969074 
L 221.576672 343.837454 
L 225.29716 343.409305 
L 229.94777 342.844314 
L 232.738136 342.77947 
L 235.528501 342.975972 
L 244.829721 343.927008 
L 248.550209 343.942878 
L 252.270697 343.723457 
L 257.851429 343.36373 
L 260.641795 343.397939 
L 272.73338 343.920982 
L 283.894844 343.942688 
L 292.265942 343.750919 
L 306.217771 343.947065 
L 311.798503 344.020747 
L 323.890089 343.90397 
L 328.540699 344.010147 
L 332.261187 343.798162 
L 335.981675 343.574997 
L 338.772041 343.604206 
L 345.282894 343.861203 
L 349.003382 343.672006 
L 353.653992 343.407833 
L 358.304602 343.415026 
L 375.046797 343.707737 
L 378.767285 343.67452 
L 382.487773 343.365318 
L 388.998627 342.72773 
L 391.788993 342.713021 
L 394.579359 342.904053 
L 403.880579 343.7623 
L 407.601067 343.755096 
L 415.972164 343.386711 
L 425.273384 342.815327 
L 428.993872 342.710788 
L 431.784238 342.838925 
L 435.504726 343.262529 
L 440.155336 343.775077 
L 442.945701 343.861411 
L 447.596311 343.709862 
L 452.246921 343.623267 
L 468.058995 343.751602 
L 477.360214 343.468543 
L 482.010824 343.652998 
L 488.521678 343.945276 
L 496.892776 344.008936 
L 530.377167 343.983773 
L 539.678387 343.938686 
L 549.909728 343.991784 
L 560.14107 343.891396 
L 560.14107 343.891396 
" style="fill:none;stroke:#1f77b4;stroke-linecap:square;stroke-width:1.5;"/>
   </g>
   <g id="patch_8">
    <path d="M 77.67 339.791635 
L 77.67 239.059565 
" style="fill:none;stroke:#000000;stroke-linecap:square;stroke-linejoin:miter;stroke-width:0.8;"/>
   </g>
   <g id="patch_9">
    <path d="M 559.224 339.791635 
L 559.224 239.059565 
" style="fill:none;stroke:#000000;stroke-linecap:square;stroke-linejoin:miter;stroke-width:0.8;"/>
   </g>
   <g id="patch_10">
    <path d="M 77.67 339.791635 
L 559.224 339.791635 
" style="fill:none;stroke:#000000;stroke-linecap:square;stroke-linejoin:miter;stroke-width:0.8;"/>
   </g>
   <g id="patch_11">
    <path d="M 77.67 239.059565 
L 559.224 239.059565 
" style="fill:none;stroke:#000000;stroke-linecap:square;stroke-linejoin:miter;stroke-width:0.8;"/>
   </g>
   <g id="text_27">
    <!-- Power Spectrum apply hanning window -->
    <g transform="translate(199.968563 233.059565)scale(0.12 -0.12)">
     <defs>
      <path d="M 53.515625 70.515625 
L 53.515625 60.890625 
Q 47.90625 63.578125 42.921875 64.890625 
Q 37.9375 66.21875 33.296875 66.21875 
Q 25.25 66.21875 20.875 63.09375 
Q 16.5 59.96875 16.5 54.203125 
Q 16.5 49.359375 19.40625 46.890625 
Q 22.3125 44.4375 30.421875 42.921875 
L 36.375 41.703125 
Q 47.40625 39.59375 52.65625 34.296875 
Q 57.90625 29 57.90625 20.125 
Q 57.90625 9.515625 50.796875 4.046875 
Q 43.703125 -1.421875 29.984375 -1.421875 
Q 24.8125 -1.421875 18.96875 -0.25 
Q 13.140625 0.921875 6.890625 3.21875 
L 6.890625 13.375 
Q 12.890625 10.015625 18.65625 8.296875 
Q 24.421875 6.59375 29.984375 6.59375 
Q 38.421875 6.59375 43.015625 9.90625 
Q 47.609375 13.234375 47.609375 19.390625 
Q 47.609375 24.75 44.3125 27.78125 
Q 41.015625 30.8125 33.5 32.328125 
L 27.484375 33.5 
Q 16.453125 35.6875 11.515625 40.375 
Q 6.59375 45.0625 6.59375 53.421875 
Q 6.59375 63.09375 13.40625 68.65625 
Q 20.21875 74.21875 32.171875 74.21875 
Q 37.3125 74.21875 42.625 73.28125 
Q 47.953125 72.359375 53.515625 70.515625 
z
" id="DejaVuSans-83"/>
      <path d="M 45.40625 27.984375 
Q 45.40625 37.75 41.375 43.109375 
Q 37.359375 48.484375 30.078125 48.484375 
Q 22.859375 48.484375 18.828125 43.109375 
Q 14.796875 37.75 14.796875 27.984375 
Q 14.796875 18.265625 18.828125 12.890625 
Q 22.859375 7.515625 30.078125 7.515625 
Q 37.359375 7.515625 41.375 12.890625 
Q 45.40625 18.265625 45.40625 27.984375 
z
M 54.390625 6.78125 
Q 54.390625 -7.171875 48.1875 -13.984375 
Q 42 -20.796875 29.203125 -20.796875 
Q 24.46875 -20.796875 20.265625 -20.09375 
Q 16.0625 -19.390625 12.109375 -17.921875 
L 12.109375 -9.1875 
Q 16.0625 -11.328125 19.921875 -12.34375 
Q 23.78125 -13.375 27.78125 -13.375 
Q 36.625 -13.375 41.015625 -8.765625 
Q 45.40625 -4.15625 45.40625 5.171875 
L 45.40625 9.625 
Q 42.625 4.78125 38.28125 2.390625 
Q 33.9375 0 27.875 0 
Q 17.828125 0 11.671875 7.65625 
Q 5.515625 15.328125 5.515625 27.984375 
Q 5.515625 40.671875 11.671875 48.328125 
Q 17.828125 56 27.875 56 
Q 33.9375 56 38.28125 53.609375 
Q 42.625 51.21875 45.40625 46.390625 
L 45.40625 54.6875 
L 54.390625 54.6875 
z
" id="DejaVuSans-103"/>
     </defs>
     <use xlink:href="#DejaVuSans-80"/>
     <use x="56.677734" xlink:href="#DejaVuSans-111"/>
     <use x="117.859375" xlink:href="#DejaVuSans-119"/>
     <use x="199.646484" xlink:href="#DejaVuSans-101"/>
     <use x="261.169922" xlink:href="#DejaVuSans-114"/>
     <use x="302.283203" xlink:href="#DejaVuSans-32"/>
     <use x="334.070312" xlink:href="#DejaVuSans-83"/>
     <use x="397.546875" xlink:href="#DejaVuSans-112"/>
     <use x="461.023438" xlink:href="#DejaVuSans-101"/>
     <use x="522.546875" xlink:href="#DejaVuSans-99"/>
     <use x="577.527344" xlink:href="#DejaVuSans-116"/>
     <use x="616.736328" xlink:href="#DejaVuSans-114"/>
     <use x="657.849609" xlink:href="#DejaVuSans-117"/>
     <use x="721.228516" xlink:href="#DejaVuSans-109"/>
     <use x="818.640625" xlink:href="#DejaVuSans-32"/>
     <use x="850.427734" xlink:href="#DejaVuSans-97"/>
     <use x="911.707031" xlink:href="#DejaVuSans-112"/>
     <use x="975.183594" xlink:href="#DejaVuSans-112"/>
     <use x="1038.660156" xlink:href="#DejaVuSans-108"/>
     <use x="1066.443359" xlink:href="#DejaVuSans-121"/>
     <use x="1125.623047" xlink:href="#DejaVuSans-32"/>
     <use x="1157.410156" xlink:href="#DejaVuSans-104"/>
     <use x="1220.789062" xlink:href="#DejaVuSans-97"/>
     <use x="1282.068359" xlink:href="#DejaVuSans-110"/>
     <use x="1345.447266" xlink:href="#DejaVuSans-110"/>
     <use x="1408.826172" xlink:href="#DejaVuSans-105"/>
     <use x="1436.609375" xlink:href="#DejaVuSans-110"/>
     <use x="1499.988281" xlink:href="#DejaVuSans-103"/>
     <use x="1563.464844" xlink:href="#DejaVuSans-32"/>
     <use x="1595.251953" xlink:href="#DejaVuSans-119"/>
     <use x="1677.039062" xlink:href="#DejaVuSans-105"/>
     <use x="1704.822266" xlink:href="#DejaVuSans-110"/>
     <use x="1768.201172" xlink:href="#DejaVuSans-100"/>
     <use x="1831.677734" xlink:href="#DejaVuSans-111"/>
     <use x="1892.859375" xlink:href="#DejaVuSans-119"/>
    </g>
   </g>
  </g>
  <g id="axes_3">
   <g id="patch_12">
    <path d="M 77.67 510.0768 
L 559.224 510.0768 
L 559.224 409.34473 
L 77.67 409.34473 
z
" style="fill:#ffffff;"/>
   </g>
   <g id="matplotlib.axis_5">
    <g id="xtick_14">
     <g id="line2d_23">
      <g>
       <use style="stroke:#000000;stroke-width:0.8;" x="105.65043" xlink:href="#mdda2380543" y="510.0768"/>
      </g>
     </g>
     <g id="text_28">
      <!-- 0 -->
      <g transform="translate(102.46918 524.675237)scale(0.1 -0.1)">
       <use xlink:href="#DejaVuSans-48"/>
      </g>
     </g>
    </g>
    <g id="xtick_15">
     <g id="line2d_24">
      <g>
       <use style="stroke:#000000;stroke-width:0.8;" x="162.765045" xlink:href="#mdda2380543" y="510.0768"/>
      </g>
     </g>
     <g id="text_29">
      <!-- 25 -->
      <g transform="translate(156.402545 524.675237)scale(0.1 -0.1)">
       <use xlink:href="#DejaVuSans-50"/>
       <use x="63.623047" xlink:href="#DejaVuSans-53"/>
      </g>
     </g>
    </g>
    <g id="xtick_16">
     <g id="line2d_25">
      <g>
       <use style="stroke:#000000;stroke-width:0.8;" x="219.879661" xlink:href="#mdda2380543" y="510.0768"/>
      </g>
     </g>
     <g id="text_30">
      <!-- 50 -->
      <g transform="translate(213.517161 524.675237)scale(0.1 -0.1)">
       <use xlink:href="#DejaVuSans-53"/>
       <use x="63.623047" xlink:href="#DejaVuSans-48"/>
      </g>
     </g>
    </g>
    <g id="xtick_17">
     <g id="line2d_26">
      <g>
       <use style="stroke:#000000;stroke-width:0.8;" x="276.994277" xlink:href="#mdda2380543" y="510.0768"/>
      </g>
     </g>
     <g id="text_31">
      <!-- 75 -->
      <g transform="translate(270.631777 524.675237)scale(0.1 -0.1)">
       <use xlink:href="#DejaVuSans-55"/>
       <use x="63.623047" xlink:href="#DejaVuSans-53"/>
      </g>
     </g>
    </g>
    <g id="xtick_18">
     <g id="line2d_27">
      <g>
       <use style="stroke:#000000;stroke-width:0.8;" x="334.108892" xlink:href="#mdda2380543" y="510.0768"/>
      </g>
     </g>
     <g id="text_32">
      <!-- 100 -->
      <g transform="translate(324.565142 524.675237)scale(0.1 -0.1)">
       <use xlink:href="#DejaVuSans-49"/>
       <use x="63.623047" xlink:href="#DejaVuSans-48"/>
       <use x="127.246094" xlink:href="#DejaVuSans-48"/>
      </g>
     </g>
    </g>
    <g id="xtick_19">
     <g id="line2d_28">
      <g>
       <use style="stroke:#000000;stroke-width:0.8;" x="391.223508" xlink:href="#mdda2380543" y="510.0768"/>
      </g>
     </g>
     <g id="text_33">
      <!-- 125 -->
      <g transform="translate(381.679758 524.675237)scale(0.1 -0.1)">
       <use xlink:href="#DejaVuSans-49"/>
       <use x="63.623047" xlink:href="#DejaVuSans-50"/>
       <use x="127.246094" xlink:href="#DejaVuSans-53"/>
      </g>
     </g>
    </g>
    <g id="xtick_20">
     <g id="line2d_29">
      <g>
       <use style="stroke:#000000;stroke-width:0.8;" x="448.338123" xlink:href="#mdda2380543" y="510.0768"/>
      </g>
     </g>
     <g id="text_34">
      <!-- 150 -->
      <g transform="translate(438.794373 524.675237)scale(0.1 -0.1)">
       <use xlink:href="#DejaVuSans-49"/>
       <use x="63.623047" xlink:href="#DejaVuSans-53"/>
       <use x="127.246094" xlink:href="#DejaVuSans-48"/>
      </g>
     </g>
    </g>
    <g id="xtick_21">
     <g id="line2d_30">
      <g>
       <use style="stroke:#000000;stroke-width:0.8;" x="505.452739" xlink:href="#mdda2380543" y="510.0768"/>
      </g>
     </g>
     <g id="text_35">
      <!-- 175 -->
      <g transform="translate(495.908989 524.675237)scale(0.1 -0.1)">
       <use xlink:href="#DejaVuSans-49"/>
       <use x="63.623047" xlink:href="#DejaVuSans-55"/>
       <use x="127.246094" xlink:href="#DejaVuSans-53"/>
      </g>
     </g>
    </g>
    <g id="text_36">
     <!-- Frequency -->
     <g transform="translate(292.617313 538.353363)scale(0.1 -0.1)">
      <use xlink:href="#DejaVuSans-70"/>
      <use x="50.269531" xlink:href="#DejaVuSans-114"/>
      <use x="89.132812" xlink:href="#DejaVuSans-101"/>
      <use x="150.65625" xlink:href="#DejaVuSans-113"/>
      <use x="214.132812" xlink:href="#DejaVuSans-117"/>
      <use x="277.511719" xlink:href="#DejaVuSans-101"/>
      <use x="339.035156" xlink:href="#DejaVuSans-110"/>
      <use x="402.414062" xlink:href="#DejaVuSans-99"/>
      <use x="457.394531" xlink:href="#DejaVuSans-121"/>
     </g>
    </g>
   </g>
   <g id="matplotlib.axis_6">
    <g id="ytick_8">
     <g id="line2d_31">
      <g>
       <use style="stroke:#000000;stroke-width:0.8;" x="77.67" xlink:href="#m80cef84d46" y="507.156889"/>
      </g>
     </g>
     <g id="text_37">
      <!-- 0 -->
      <g transform="translate(64.3075 510.956107)scale(0.1 -0.1)">
       <use xlink:href="#DejaVuSans-48"/>
      </g>
     </g>
    </g>
    <g id="ytick_9">
     <g id="line2d_32">
      <g>
       <use style="stroke:#000000;stroke-width:0.8;" x="77.67" xlink:href="#m80cef84d46" y="486.519701"/>
      </g>
     </g>
     <g id="text_38">
      <!-- 1 -->
      <g transform="translate(64.3075 490.31892)scale(0.1 -0.1)">
       <use xlink:href="#DejaVuSans-49"/>
      </g>
     </g>
    </g>
    <g id="ytick_10">
     <g id="line2d_33">
      <g>
       <use style="stroke:#000000;stroke-width:0.8;" x="77.67" xlink:href="#m80cef84d46" y="465.882513"/>
      </g>
     </g>
     <g id="text_39">
      <!-- 2 -->
      <g transform="translate(64.3075 469.681732)scale(0.1 -0.1)">
       <use xlink:href="#DejaVuSans-50"/>
      </g>
     </g>
    </g>
    <g id="ytick_11">
     <g id="line2d_34">
      <g>
       <use style="stroke:#000000;stroke-width:0.8;" x="77.67" xlink:href="#m80cef84d46" y="445.245325"/>
      </g>
     </g>
     <g id="text_40">
      <!-- 3 -->
      <g transform="translate(64.3075 449.044544)scale(0.1 -0.1)">
       <use xlink:href="#DejaVuSans-51"/>
      </g>
     </g>
    </g>
    <g id="ytick_12">
     <g id="line2d_35">
      <g>
       <use style="stroke:#000000;stroke-width:0.8;" x="77.67" xlink:href="#m80cef84d46" y="424.608138"/>
      </g>
     </g>
     <g id="text_41">
      <!-- 4 -->
      <g transform="translate(64.3075 428.407356)scale(0.1 -0.1)">
       <use xlink:href="#DejaVuSans-52"/>
      </g>
     </g>
    </g>
    <g id="text_42">
     <!-- Power -->
     <g transform="translate(58.227812 474.824828)rotate(-90)scale(0.1 -0.1)">
      <use xlink:href="#DejaVuSans-80"/>
      <use x="56.677734" xlink:href="#DejaVuSans-111"/>
      <use x="117.859375" xlink:href="#DejaVuSans-119"/>
      <use x="199.646484" xlink:href="#DejaVuSans-101"/>
      <use x="261.169922" xlink:href="#DejaVuSans-114"/>
     </g>
    </g>
    <g id="text_43">
     <!-- 1e42 -->
     <g transform="translate(77.67 406.34473)scale(0.1 -0.1)">
      <use xlink:href="#DejaVuSans-49"/>
      <use x="63.623047" xlink:href="#DejaVuSans-101"/>
      <use x="125.146484" xlink:href="#DejaVuSans-52"/>
      <use x="188.769531" xlink:href="#DejaVuSans-50"/>
     </g>
    </g>
   </g>
   <g id="line2d_36">
    <path clip-path="url(#pdb27b19c72)" d="M 105.65043 494.823251 
L 107.935014 484.269645 
L 110.219599 445.035913 
L 112.504184 414.002452 
L 114.788768 461.156078 
L 117.073353 503.390829 
L 119.357937 506.960656 
L 121.642522 507.126785 
L 208.456738 507.156889 
L 622.36 507.156889 
L 622.36 507.156889 
" style="fill:none;stroke:#1f77b4;stroke-linecap:square;stroke-width:1.5;"/>
   </g>
   <g id="line2d_37">
    <defs>
     <path d="M 0 3 
C 0.795609 3 1.55874 2.683901 2.12132 2.12132 
C 2.683901 1.55874 3 0.795609 3 0 
C 3 -0.795609 2.683901 -1.55874 2.12132 -2.12132 
C 1.55874 -2.683901 0.795609 -3 0 -3 
C -0.795609 -3 -1.55874 -2.683901 -2.12132 -2.12132 
C -2.683901 -1.55874 -3 -0.795609 -3 0 
C -3 0.795609 -2.683901 1.55874 -2.12132 2.12132 
C -1.55874 2.683901 -0.795609 3 0 3 
z
" id="m3a423ff419" style="stroke:#ff7f0e;"/>
    </defs>
    <g clip-path="url(#pdb27b19c72)">
     <use style="fill:#ff7f0e;stroke:#ff7f0e;" x="112.504184" xlink:href="#m3a423ff419" y="414.002452"/>
    </g>
   </g>
   <g id="patch_13">
    <path d="M 77.67 510.0768 
L 77.67 409.34473 
" style="fill:none;stroke:#000000;stroke-linecap:square;stroke-linejoin:miter;stroke-width:0.8;"/>
   </g>
   <g id="patch_14">
    <path d="M 559.224 510.0768 
L 559.224 409.34473 
" style="fill:none;stroke:#000000;stroke-linecap:square;stroke-linejoin:miter;stroke-width:0.8;"/>
   </g>
   <g id="patch_15">
    <path d="M 77.67 510.0768 
L 559.224 510.0768 
" style="fill:none;stroke:#000000;stroke-linecap:square;stroke-linejoin:miter;stroke-width:0.8;"/>
   </g>
   <g id="patch_16">
    <path d="M 77.67 409.34473 
L 559.224 409.34473 
" style="fill:none;stroke:#000000;stroke-linecap:square;stroke-linejoin:miter;stroke-width:0.8;"/>
   </g>
   <g id="text_44">
    <!-- Power Spectrum after downsample by product_num of 5 and multiply -->
    <g transform="translate(109.74075 403.34473)scale(0.12 -0.12)">
     <use xlink:href="#DejaVuSans-80"/>
     <use x="56.677734" xlink:href="#DejaVuSans-111"/>
     <use x="117.859375" xlink:href="#DejaVuSans-119"/>
     <use x="199.646484" xlink:href="#DejaVuSans-101"/>
     <use x="261.169922" xlink:href="#DejaVuSans-114"/>
     <use x="302.283203" xlink:href="#DejaVuSans-32"/>
     <use x="334.070312" xlink:href="#DejaVuSans-83"/>
     <use x="397.546875" xlink:href="#DejaVuSans-112"/>
     <use x="461.023438" xlink:href="#DejaVuSans-101"/>
     <use x="522.546875" xlink:href="#DejaVuSans-99"/>
     <use x="577.527344" xlink:href="#DejaVuSans-116"/>
     <use x="616.736328" xlink:href="#DejaVuSans-114"/>
     <use x="657.849609" xlink:href="#DejaVuSans-117"/>
     <use x="721.228516" xlink:href="#DejaVuSans-109"/>
     <use x="818.640625" xlink:href="#DejaVuSans-32"/>
     <use x="850.427734" xlink:href="#DejaVuSans-97"/>
     <use x="911.707031" xlink:href="#DejaVuSans-102"/>
     <use x="945.162109" xlink:href="#DejaVuSans-116"/>
     <use x="984.371094" xlink:href="#DejaVuSans-101"/>
     <use x="1045.894531" xlink:href="#DejaVuSans-114"/>
     <use x="1087.007812" xlink:href="#DejaVuSans-32"/>
     <use x="1118.794922" xlink:href="#DejaVuSans-100"/>
     <use x="1182.271484" xlink:href="#DejaVuSans-111"/>
     <use x="1243.453125" xlink:href="#DejaVuSans-119"/>
     <use x="1325.240234" xlink:href="#DejaVuSans-110"/>
     <use x="1388.619141" xlink:href="#DejaVuSans-115"/>
     <use x="1440.71875" xlink:href="#DejaVuSans-97"/>
     <use x="1501.998047" xlink:href="#DejaVuSans-109"/>
     <use x="1599.410156" xlink:href="#DejaVuSans-112"/>
     <use x="1662.886719" xlink:href="#DejaVuSans-108"/>
     <use x="1690.669922" xlink:href="#DejaVuSans-101"/>
     <use x="1752.193359" xlink:href="#DejaVuSans-32"/>
     <use x="1783.980469" xlink:href="#DejaVuSans-98"/>
     <use x="1847.457031" xlink:href="#DejaVuSans-121"/>
     <use x="1906.636719" xlink:href="#DejaVuSans-32"/>
     <use x="1938.423828" xlink:href="#DejaVuSans-112"/>
     <use x="2001.900391" xlink:href="#DejaVuSans-114"/>
     <use x="2040.763672" xlink:href="#DejaVuSans-111"/>
     <use x="2101.945312" xlink:href="#DejaVuSans-100"/>
     <use x="2165.421875" xlink:href="#DejaVuSans-117"/>
     <use x="2228.800781" xlink:href="#DejaVuSans-99"/>
     <use x="2283.78125" xlink:href="#DejaVuSans-116"/>
     <use x="2322.990234" xlink:href="#DejaVuSans-95"/>
     <use x="2372.990234" xlink:href="#DejaVuSans-110"/>
     <use x="2436.369141" xlink:href="#DejaVuSans-117"/>
     <use x="2499.748047" xlink:href="#DejaVuSans-109"/>
     <use x="2597.160156" xlink:href="#DejaVuSans-32"/>
     <use x="2628.947266" xlink:href="#DejaVuSans-111"/>
     <use x="2690.128906" xlink:href="#DejaVuSans-102"/>
     <use x="2725.333984" xlink:href="#DejaVuSans-32"/>
     <use x="2757.121094" xlink:href="#DejaVuSans-53"/>
     <use x="2820.744141" xlink:href="#DejaVuSans-32"/>
     <use x="2852.53125" xlink:href="#DejaVuSans-97"/>
     <use x="2913.810547" xlink:href="#DejaVuSans-110"/>
     <use x="2977.189453" xlink:href="#DejaVuSans-100"/>
     <use x="3040.666016" xlink:href="#DejaVuSans-32"/>
     <use x="3072.453125" xlink:href="#DejaVuSans-109"/>
     <use x="3169.865234" xlink:href="#DejaVuSans-117"/>
     <use x="3233.244141" xlink:href="#DejaVuSans-108"/>
     <use x="3261.027344" xlink:href="#DejaVuSans-116"/>
     <use x="3300.236328" xlink:href="#DejaVuSans-105"/>
     <use x="3328.019531" xlink:href="#DejaVuSans-112"/>
     <use x="3391.496094" xlink:href="#DejaVuSans-108"/>
     <use x="3419.279297" xlink:href="#DejaVuSans-121"/>
    </g>
   </g>
  </g>
 </g>
 <defs>
  <clipPath id="pd06e673f49">
   <rect height="100.73207" width="481.554" x="77.67" y="68.7744"/>
  </clipPath>
  <clipPath id="p39c9079ee8">
   <rect height="100.73207" width="481.554" x="77.67" y="239.059565"/>
  </clipPath>
  <clipPath id="pdb27b19c72">
   <rect height="100.73207" width="481.554" x="77.67" y="409.34473"/>
  </clipPath>
 </defs>
</svg>
