<?xml version="1.0" encoding="utf-8" standalone="no"?>
<!DOCTYPE svg PUBLIC "-//W3C//DTD SVG 1.1//EN"
  "http://www.w3.org/Graphics/SVG/1.1/DTD/svg11.dtd">
<!-- Created with matplotlib (https://matplotlib.org/) -->
<svg height="397.44pt" version="1.1" viewBox="0 0 645.84 397.44" width="645.84pt" xmlns="http://www.w3.org/2000/svg" xmlns:xlink="http://www.w3.org/1999/xlink">
 <metadata>
  <rdf:RDF xmlns:cc="http://creativecommons.org/ns#" xmlns:dc="http://purl.org/dc/elements/1.1/" xmlns:rdf="http://www.w3.org/1999/02/22-rdf-syntax-ns#">
   <cc:Work>
    <dc:type rdf:resource="http://purl.org/dc/dcmitype/StillImage"/>
    <dc:date>2020-11-16T08:57:21.873940</dc:date>
    <dc:format>image/svg+xml</dc:format>
    <dc:creator>
     <cc:Agent>
      <dc:title>Matplotlib v3.3.1, https://matplotlib.org/</dc:title>
     </cc:Agent>
    </dc:creator>
   </cc:Work>
  </rdf:RDF>
 </metadata>
 <defs>
  <style type="text/css">*{stroke-linecap:butt;stroke-linejoin:round;}</style>
 </defs>
 <g id="figure_1">
  <g id="patch_1">
   <path d="M 0 397.44 
L 645.84 397.44 
L 645.84 0 
L 0 0 
z
" style="fill:#ffffff;"/>
  </g>
  <g id="axes_1">
   <g id="patch_2">
    <path d="M 80.73 113.606695 
L 581.256 113.606695 
L 581.256 47.6928 
L 80.73 47.6928 
z
" style="fill:#ffffff;"/>
   </g>
   <g id="matplotlib.axis_1">
    <g id="xtick_1">
     <g id="line2d_1">
      <defs>
       <path d="M 0 0 
L 0 3.5 
" id="m94ff761098" style="stroke:#000000;stroke-width:0.8;"/>
      </defs>
      <g>
       <use style="stroke:#000000;stroke-width:0.8;" x="103.481182" xlink:href="#m94ff761098" y="113.606695"/>
      </g>
     </g>
     <g id="text_1">
      <!-- 0 -->
      <g transform="translate(100.299932 128.205133)scale(0.1 -0.1)">
       <defs>
        <path d="M 31.78125 66.40625 
Q 24.171875 66.40625 20.328125 58.90625 
Q 16.5 51.421875 16.5 36.375 
Q 16.5 21.390625 20.328125 13.890625 
Q 24.171875 6.390625 31.78125 6.390625 
Q 39.453125 6.390625 43.28125 13.890625 
Q 47.125 21.390625 47.125 36.375 
Q 47.125 51.421875 43.28125 58.90625 
Q 39.453125 66.40625 31.78125 66.40625 
z
M 31.78125 74.21875 
Q 44.046875 74.21875 50.515625 64.515625 
Q 56.984375 54.828125 56.984375 36.375 
Q 56.984375 17.96875 50.515625 8.265625 
Q 44.046875 -1.421875 31.78125 -1.421875 
Q 19.53125 -1.421875 13.0625 8.265625 
Q 6.59375 17.96875 6.59375 36.375 
Q 6.59375 54.828125 13.0625 64.515625 
Q 19.53125 74.21875 31.78125 74.21875 
z
" id="DejaVuSans-48"/>
       </defs>
       <use xlink:href="#DejaVuSans-48"/>
      </g>
     </g>
    </g>
    <g id="xtick_2">
     <g id="line2d_2">
      <g>
       <use style="stroke:#000000;stroke-width:0.8;" x="165.054069" xlink:href="#m94ff761098" y="113.606695"/>
      </g>
     </g>
     <g id="text_2">
      <!-- 100 -->
      <g transform="translate(155.510319 128.205133)scale(0.1 -0.1)">
       <defs>
        <path d="M 12.40625 8.296875 
L 28.515625 8.296875 
L 28.515625 63.921875 
L 10.984375 60.40625 
L 10.984375 69.390625 
L 28.421875 72.90625 
L 38.28125 72.90625 
L 38.28125 8.296875 
L 54.390625 8.296875 
L 54.390625 0 
L 12.40625 0 
z
" id="DejaVuSans-49"/>
       </defs>
       <use xlink:href="#DejaVuSans-49"/>
       <use x="63.623047" xlink:href="#DejaVuSans-48"/>
       <use x="127.246094" xlink:href="#DejaVuSans-48"/>
      </g>
     </g>
    </g>
    <g id="xtick_3">
     <g id="line2d_3">
      <g>
       <use style="stroke:#000000;stroke-width:0.8;" x="226.626956" xlink:href="#m94ff761098" y="113.606695"/>
      </g>
     </g>
     <g id="text_3">
      <!-- 200 -->
      <g transform="translate(217.083206 128.205133)scale(0.1 -0.1)">
       <defs>
        <path d="M 19.1875 8.296875 
L 53.609375 8.296875 
L 53.609375 0 
L 7.328125 0 
L 7.328125 8.296875 
Q 12.9375 14.109375 22.625 23.890625 
Q 32.328125 33.6875 34.8125 36.53125 
Q 39.546875 41.84375 41.421875 45.53125 
Q 43.3125 49.21875 43.3125 52.78125 
Q 43.3125 58.59375 39.234375 62.25 
Q 35.15625 65.921875 28.609375 65.921875 
Q 23.96875 65.921875 18.8125 64.3125 
Q 13.671875 62.703125 7.8125 59.421875 
L 7.8125 69.390625 
Q 13.765625 71.78125 18.9375 73 
Q 24.125 74.21875 28.421875 74.21875 
Q 39.75 74.21875 46.484375 68.546875 
Q 53.21875 62.890625 53.21875 53.421875 
Q 53.21875 48.921875 51.53125 44.890625 
Q 49.859375 40.875 45.40625 35.40625 
Q 44.1875 33.984375 37.640625 27.21875 
Q 31.109375 20.453125 19.1875 8.296875 
z
" id="DejaVuSans-50"/>
       </defs>
       <use xlink:href="#DejaVuSans-50"/>
       <use x="63.623047" xlink:href="#DejaVuSans-48"/>
       <use x="127.246094" xlink:href="#DejaVuSans-48"/>
      </g>
     </g>
    </g>
    <g id="xtick_4">
     <g id="line2d_4">
      <g>
       <use style="stroke:#000000;stroke-width:0.8;" x="288.199843" xlink:href="#m94ff761098" y="113.606695"/>
      </g>
     </g>
     <g id="text_4">
      <!-- 300 -->
      <g transform="translate(278.656093 128.205133)scale(0.1 -0.1)">
       <defs>
        <path d="M 40.578125 39.3125 
Q 47.65625 37.796875 51.625 33 
Q 55.609375 28.21875 55.609375 21.1875 
Q 55.609375 10.40625 48.1875 4.484375 
Q 40.765625 -1.421875 27.09375 -1.421875 
Q 22.515625 -1.421875 17.65625 -0.515625 
Q 12.796875 0.390625 7.625 2.203125 
L 7.625 11.71875 
Q 11.71875 9.328125 16.59375 8.109375 
Q 21.484375 6.890625 26.8125 6.890625 
Q 36.078125 6.890625 40.9375 10.546875 
Q 45.796875 14.203125 45.796875 21.1875 
Q 45.796875 27.640625 41.28125 31.265625 
Q 36.765625 34.90625 28.71875 34.90625 
L 20.21875 34.90625 
L 20.21875 43.015625 
L 29.109375 43.015625 
Q 36.375 43.015625 40.234375 45.921875 
Q 44.09375 48.828125 44.09375 54.296875 
Q 44.09375 59.90625 40.109375 62.90625 
Q 36.140625 65.921875 28.71875 65.921875 
Q 24.65625 65.921875 20.015625 65.03125 
Q 15.375 64.15625 9.8125 62.3125 
L 9.8125 71.09375 
Q 15.4375 72.65625 20.34375 73.4375 
Q 25.25 74.21875 29.59375 74.21875 
Q 40.828125 74.21875 47.359375 69.109375 
Q 53.90625 64.015625 53.90625 55.328125 
Q 53.90625 49.265625 50.4375 45.09375 
Q 46.96875 40.921875 40.578125 39.3125 
z
" id="DejaVuSans-51"/>
       </defs>
       <use xlink:href="#DejaVuSans-51"/>
       <use x="63.623047" xlink:href="#DejaVuSans-48"/>
       <use x="127.246094" xlink:href="#DejaVuSans-48"/>
      </g>
     </g>
    </g>
    <g id="xtick_5">
     <g id="line2d_5">
      <g>
       <use style="stroke:#000000;stroke-width:0.8;" x="349.772731" xlink:href="#m94ff761098" y="113.606695"/>
      </g>
     </g>
     <g id="text_5">
      <!-- 400 -->
      <g transform="translate(340.228981 128.205133)scale(0.1 -0.1)">
       <defs>
        <path d="M 37.796875 64.3125 
L 12.890625 25.390625 
L 37.796875 25.390625 
z
M 35.203125 72.90625 
L 47.609375 72.90625 
L 47.609375 25.390625 
L 58.015625 25.390625 
L 58.015625 17.1875 
L 47.609375 17.1875 
L 47.609375 0 
L 37.796875 0 
L 37.796875 17.1875 
L 4.890625 17.1875 
L 4.890625 26.703125 
z
" id="DejaVuSans-52"/>
       </defs>
       <use xlink:href="#DejaVuSans-52"/>
       <use x="63.623047" xlink:href="#DejaVuSans-48"/>
       <use x="127.246094" xlink:href="#DejaVuSans-48"/>
      </g>
     </g>
    </g>
    <g id="xtick_6">
     <g id="line2d_6">
      <g>
       <use style="stroke:#000000;stroke-width:0.8;" x="411.345618" xlink:href="#m94ff761098" y="113.606695"/>
      </g>
     </g>
     <g id="text_6">
      <!-- 500 -->
      <g transform="translate(401.801868 128.205133)scale(0.1 -0.1)">
       <defs>
        <path d="M 10.796875 72.90625 
L 49.515625 72.90625 
L 49.515625 64.59375 
L 19.828125 64.59375 
L 19.828125 46.734375 
Q 21.96875 47.46875 24.109375 47.828125 
Q 26.265625 48.1875 28.421875 48.1875 
Q 40.625 48.1875 47.75 41.5 
Q 54.890625 34.8125 54.890625 23.390625 
Q 54.890625 11.625 47.5625 5.09375 
Q 40.234375 -1.421875 26.90625 -1.421875 
Q 22.3125 -1.421875 17.546875 -0.640625 
Q 12.796875 0.140625 7.71875 1.703125 
L 7.71875 11.625 
Q 12.109375 9.234375 16.796875 8.0625 
Q 21.484375 6.890625 26.703125 6.890625 
Q 35.15625 6.890625 40.078125 11.328125 
Q 45.015625 15.765625 45.015625 23.390625 
Q 45.015625 31 40.078125 35.4375 
Q 35.15625 39.890625 26.703125 39.890625 
Q 22.75 39.890625 18.8125 39.015625 
Q 14.890625 38.140625 10.796875 36.28125 
z
" id="DejaVuSans-53"/>
       </defs>
       <use xlink:href="#DejaVuSans-53"/>
       <use x="63.623047" xlink:href="#DejaVuSans-48"/>
       <use x="127.246094" xlink:href="#DejaVuSans-48"/>
      </g>
     </g>
    </g>
    <g id="xtick_7">
     <g id="line2d_7">
      <g>
       <use style="stroke:#000000;stroke-width:0.8;" x="472.918505" xlink:href="#m94ff761098" y="113.606695"/>
      </g>
     </g>
     <g id="text_7">
      <!-- 600 -->
      <g transform="translate(463.374755 128.205133)scale(0.1 -0.1)">
       <defs>
        <path d="M 33.015625 40.375 
Q 26.375 40.375 22.484375 35.828125 
Q 18.609375 31.296875 18.609375 23.390625 
Q 18.609375 15.53125 22.484375 10.953125 
Q 26.375 6.390625 33.015625 6.390625 
Q 39.65625 6.390625 43.53125 10.953125 
Q 47.40625 15.53125 47.40625 23.390625 
Q 47.40625 31.296875 43.53125 35.828125 
Q 39.65625 40.375 33.015625 40.375 
z
M 52.59375 71.296875 
L 52.59375 62.3125 
Q 48.875 64.0625 45.09375 64.984375 
Q 41.3125 65.921875 37.59375 65.921875 
Q 27.828125 65.921875 22.671875 59.328125 
Q 17.53125 52.734375 16.796875 39.40625 
Q 19.671875 43.65625 24.015625 45.921875 
Q 28.375 48.1875 33.59375 48.1875 
Q 44.578125 48.1875 50.953125 41.515625 
Q 57.328125 34.859375 57.328125 23.390625 
Q 57.328125 12.15625 50.6875 5.359375 
Q 44.046875 -1.421875 33.015625 -1.421875 
Q 20.359375 -1.421875 13.671875 8.265625 
Q 6.984375 17.96875 6.984375 36.375 
Q 6.984375 53.65625 15.1875 63.9375 
Q 23.390625 74.21875 37.203125 74.21875 
Q 40.921875 74.21875 44.703125 73.484375 
Q 48.484375 72.75 52.59375 71.296875 
z
" id="DejaVuSans-54"/>
       </defs>
       <use xlink:href="#DejaVuSans-54"/>
       <use x="63.623047" xlink:href="#DejaVuSans-48"/>
       <use x="127.246094" xlink:href="#DejaVuSans-48"/>
      </g>
     </g>
    </g>
    <g id="xtick_8">
     <g id="line2d_8">
      <g>
       <use style="stroke:#000000;stroke-width:0.8;" x="534.491392" xlink:href="#m94ff761098" y="113.606695"/>
      </g>
     </g>
     <g id="text_8">
      <!-- 700 -->
      <g transform="translate(524.947642 128.205133)scale(0.1 -0.1)">
       <defs>
        <path d="M 8.203125 72.90625 
L 55.078125 72.90625 
L 55.078125 68.703125 
L 28.609375 0 
L 18.3125 0 
L 43.21875 64.59375 
L 8.203125 64.59375 
z
" id="DejaVuSans-55"/>
       </defs>
       <use xlink:href="#DejaVuSans-55"/>
       <use x="63.623047" xlink:href="#DejaVuSans-48"/>
       <use x="127.246094" xlink:href="#DejaVuSans-48"/>
      </g>
     </g>
    </g>
    <g id="text_9">
     <!-- Timestamps (samples) -->
     <g transform="translate(274.207063 141.883258)scale(0.1 -0.1)">
      <defs>
       <path d="M -0.296875 72.90625 
L 61.375 72.90625 
L 61.375 64.59375 
L 35.5 64.59375 
L 35.5 0 
L 25.59375 0 
L 25.59375 64.59375 
L -0.296875 64.59375 
z
" id="DejaVuSans-84"/>
       <path d="M 9.421875 54.6875 
L 18.40625 54.6875 
L 18.40625 0 
L 9.421875 0 
z
M 9.421875 75.984375 
L 18.40625 75.984375 
L 18.40625 64.59375 
L 9.421875 64.59375 
z
" id="DejaVuSans-105"/>
       <path d="M 52 44.1875 
Q 55.375 50.25 60.0625 53.125 
Q 64.75 56 71.09375 56 
Q 79.640625 56 84.28125 50.015625 
Q 88.921875 44.046875 88.921875 33.015625 
L 88.921875 0 
L 79.890625 0 
L 79.890625 32.71875 
Q 79.890625 40.578125 77.09375 44.375 
Q 74.3125 48.1875 68.609375 48.1875 
Q 61.625 48.1875 57.5625 43.546875 
Q 53.515625 38.921875 53.515625 30.90625 
L 53.515625 0 
L 44.484375 0 
L 44.484375 32.71875 
Q 44.484375 40.625 41.703125 44.40625 
Q 38.921875 48.1875 33.109375 48.1875 
Q 26.21875 48.1875 22.15625 43.53125 
Q 18.109375 38.875 18.109375 30.90625 
L 18.109375 0 
L 9.078125 0 
L 9.078125 54.6875 
L 18.109375 54.6875 
L 18.109375 46.1875 
Q 21.1875 51.21875 25.484375 53.609375 
Q 29.78125 56 35.6875 56 
Q 41.65625 56 45.828125 52.96875 
Q 50 49.953125 52 44.1875 
z
" id="DejaVuSans-109"/>
       <path d="M 56.203125 29.59375 
L 56.203125 25.203125 
L 14.890625 25.203125 
Q 15.484375 15.921875 20.484375 11.0625 
Q 25.484375 6.203125 34.421875 6.203125 
Q 39.59375 6.203125 44.453125 7.46875 
Q 49.3125 8.734375 54.109375 11.28125 
L 54.109375 2.78125 
Q 49.265625 0.734375 44.1875 -0.34375 
Q 39.109375 -1.421875 33.890625 -1.421875 
Q 20.796875 -1.421875 13.15625 6.1875 
Q 5.515625 13.8125 5.515625 26.8125 
Q 5.515625 40.234375 12.765625 48.109375 
Q 20.015625 56 32.328125 56 
Q 43.359375 56 49.78125 48.890625 
Q 56.203125 41.796875 56.203125 29.59375 
z
M 47.21875 32.234375 
Q 47.125 39.59375 43.09375 43.984375 
Q 39.0625 48.390625 32.421875 48.390625 
Q 24.90625 48.390625 20.390625 44.140625 
Q 15.875 39.890625 15.1875 32.171875 
z
" id="DejaVuSans-101"/>
       <path d="M 44.28125 53.078125 
L 44.28125 44.578125 
Q 40.484375 46.53125 36.375 47.5 
Q 32.28125 48.484375 27.875 48.484375 
Q 21.1875 48.484375 17.84375 46.4375 
Q 14.5 44.390625 14.5 40.28125 
Q 14.5 37.15625 16.890625 35.375 
Q 19.28125 33.59375 26.515625 31.984375 
L 29.59375 31.296875 
Q 39.15625 29.25 43.1875 25.515625 
Q 47.21875 21.78125 47.21875 15.09375 
Q 47.21875 7.46875 41.1875 3.015625 
Q 35.15625 -1.421875 24.609375 -1.421875 
Q 20.21875 -1.421875 15.453125 -0.5625 
Q 10.6875 0.296875 5.421875 2 
L 5.421875 11.28125 
Q 10.40625 8.6875 15.234375 7.390625 
Q 20.0625 6.109375 24.8125 6.109375 
Q 31.15625 6.109375 34.5625 8.28125 
Q 37.984375 10.453125 37.984375 14.40625 
Q 37.984375 18.0625 35.515625 20.015625 
Q 33.0625 21.96875 24.703125 23.78125 
L 21.578125 24.515625 
Q 13.234375 26.265625 9.515625 29.90625 
Q 5.8125 33.546875 5.8125 39.890625 
Q 5.8125 47.609375 11.28125 51.796875 
Q 16.75 56 26.8125 56 
Q 31.78125 56 36.171875 55.265625 
Q 40.578125 54.546875 44.28125 53.078125 
z
" id="DejaVuSans-115"/>
       <path d="M 18.3125 70.21875 
L 18.3125 54.6875 
L 36.8125 54.6875 
L 36.8125 47.703125 
L 18.3125 47.703125 
L 18.3125 18.015625 
Q 18.3125 11.328125 20.140625 9.421875 
Q 21.96875 7.515625 27.59375 7.515625 
L 36.8125 7.515625 
L 36.8125 0 
L 27.59375 0 
Q 17.1875 0 13.234375 3.875 
Q 9.28125 7.765625 9.28125 18.015625 
L 9.28125 47.703125 
L 2.6875 47.703125 
L 2.6875 54.6875 
L 9.28125 54.6875 
L 9.28125 70.21875 
z
" id="DejaVuSans-116"/>
       <path d="M 34.28125 27.484375 
Q 23.390625 27.484375 19.1875 25 
Q 14.984375 22.515625 14.984375 16.5 
Q 14.984375 11.71875 18.140625 8.90625 
Q 21.296875 6.109375 26.703125 6.109375 
Q 34.1875 6.109375 38.703125 11.40625 
Q 43.21875 16.703125 43.21875 25.484375 
L 43.21875 27.484375 
z
M 52.203125 31.203125 
L 52.203125 0 
L 43.21875 0 
L 43.21875 8.296875 
Q 40.140625 3.328125 35.546875 0.953125 
Q 30.953125 -1.421875 24.3125 -1.421875 
Q 15.921875 -1.421875 10.953125 3.296875 
Q 6 8.015625 6 15.921875 
Q 6 25.140625 12.171875 29.828125 
Q 18.359375 34.515625 30.609375 34.515625 
L 43.21875 34.515625 
L 43.21875 35.40625 
Q 43.21875 41.609375 39.140625 45 
Q 35.0625 48.390625 27.6875 48.390625 
Q 23 48.390625 18.546875 47.265625 
Q 14.109375 46.140625 10.015625 43.890625 
L 10.015625 52.203125 
Q 14.9375 54.109375 19.578125 55.046875 
Q 24.21875 56 28.609375 56 
Q 40.484375 56 46.34375 49.84375 
Q 52.203125 43.703125 52.203125 31.203125 
z
" id="DejaVuSans-97"/>
       <path d="M 18.109375 8.203125 
L 18.109375 -20.796875 
L 9.078125 -20.796875 
L 9.078125 54.6875 
L 18.109375 54.6875 
L 18.109375 46.390625 
Q 20.953125 51.265625 25.265625 53.625 
Q 29.59375 56 35.59375 56 
Q 45.5625 56 51.78125 48.09375 
Q 58.015625 40.1875 58.015625 27.296875 
Q 58.015625 14.40625 51.78125 6.484375 
Q 45.5625 -1.421875 35.59375 -1.421875 
Q 29.59375 -1.421875 25.265625 0.953125 
Q 20.953125 3.328125 18.109375 8.203125 
z
M 48.6875 27.296875 
Q 48.6875 37.203125 44.609375 42.84375 
Q 40.53125 48.484375 33.40625 48.484375 
Q 26.265625 48.484375 22.1875 42.84375 
Q 18.109375 37.203125 18.109375 27.296875 
Q 18.109375 17.390625 22.1875 11.75 
Q 26.265625 6.109375 33.40625 6.109375 
Q 40.53125 6.109375 44.609375 11.75 
Q 48.6875 17.390625 48.6875 27.296875 
z
" id="DejaVuSans-112"/>
       <path id="DejaVuSans-32"/>
       <path d="M 31 75.875 
Q 24.46875 64.65625 21.28125 53.65625 
Q 18.109375 42.671875 18.109375 31.390625 
Q 18.109375 20.125 21.3125 9.0625 
Q 24.515625 -2 31 -13.1875 
L 23.1875 -13.1875 
Q 15.875 -1.703125 12.234375 9.375 
Q 8.59375 20.453125 8.59375 31.390625 
Q 8.59375 42.28125 12.203125 53.3125 
Q 15.828125 64.359375 23.1875 75.875 
z
" id="DejaVuSans-40"/>
       <path d="M 9.421875 75.984375 
L 18.40625 75.984375 
L 18.40625 0 
L 9.421875 0 
z
" id="DejaVuSans-108"/>
       <path d="M 8.015625 75.875 
L 15.828125 75.875 
Q 23.140625 64.359375 26.78125 53.3125 
Q 30.421875 42.28125 30.421875 31.390625 
Q 30.421875 20.453125 26.78125 9.375 
Q 23.140625 -1.703125 15.828125 -13.1875 
L 8.015625 -13.1875 
Q 14.5 -2 17.703125 9.0625 
Q 20.90625 20.125 20.90625 31.390625 
Q 20.90625 42.671875 17.703125 53.65625 
Q 14.5 64.65625 8.015625 75.875 
z
" id="DejaVuSans-41"/>
      </defs>
      <use xlink:href="#DejaVuSans-84"/>
      <use x="57.958984" xlink:href="#DejaVuSans-105"/>
      <use x="85.742188" xlink:href="#DejaVuSans-109"/>
      <use x="183.154297" xlink:href="#DejaVuSans-101"/>
      <use x="244.677734" xlink:href="#DejaVuSans-115"/>
      <use x="296.777344" xlink:href="#DejaVuSans-116"/>
      <use x="335.986328" xlink:href="#DejaVuSans-97"/>
      <use x="397.265625" xlink:href="#DejaVuSans-109"/>
      <use x="494.677734" xlink:href="#DejaVuSans-112"/>
      <use x="558.154297" xlink:href="#DejaVuSans-115"/>
      <use x="610.253906" xlink:href="#DejaVuSans-32"/>
      <use x="642.041016" xlink:href="#DejaVuSans-40"/>
      <use x="681.054688" xlink:href="#DejaVuSans-115"/>
      <use x="733.154297" xlink:href="#DejaVuSans-97"/>
      <use x="794.433594" xlink:href="#DejaVuSans-109"/>
      <use x="891.845703" xlink:href="#DejaVuSans-112"/>
      <use x="955.322266" xlink:href="#DejaVuSans-108"/>
      <use x="983.105469" xlink:href="#DejaVuSans-101"/>
      <use x="1044.628906" xlink:href="#DejaVuSans-115"/>
      <use x="1096.728516" xlink:href="#DejaVuSans-41"/>
     </g>
    </g>
   </g>
   <g id="matplotlib.axis_2">
    <g id="ytick_1">
     <g id="line2d_9">
      <defs>
       <path d="M 0 0 
L -3.5 0 
" id="m5bb72061f6" style="stroke:#000000;stroke-width:0.8;"/>
      </defs>
      <g>
       <use style="stroke:#000000;stroke-width:0.8;" x="80.73" xlink:href="#m5bb72061f6" y="108.310853"/>
      </g>
     </g>
     <g id="text_10">
      <!-- −5000 -->
      <g transform="translate(39.900313 112.110071)scale(0.1 -0.1)">
       <defs>
        <path d="M 10.59375 35.5 
L 73.1875 35.5 
L 73.1875 27.203125 
L 10.59375 27.203125 
z
" id="DejaVuSans-8722"/>
       </defs>
       <use xlink:href="#DejaVuSans-8722"/>
       <use x="83.789062" xlink:href="#DejaVuSans-53"/>
       <use x="147.412109" xlink:href="#DejaVuSans-48"/>
       <use x="211.035156" xlink:href="#DejaVuSans-48"/>
       <use x="274.658203" xlink:href="#DejaVuSans-48"/>
      </g>
     </g>
    </g>
    <g id="ytick_2">
     <g id="line2d_10">
      <g>
       <use style="stroke:#000000;stroke-width:0.8;" x="80.73" xlink:href="#m5bb72061f6" y="87.72778"/>
      </g>
     </g>
     <g id="text_11">
      <!-- 0 -->
      <g transform="translate(67.3675 91.526999)scale(0.1 -0.1)">
       <use xlink:href="#DejaVuSans-48"/>
      </g>
     </g>
    </g>
    <g id="ytick_3">
     <g id="line2d_11">
      <g>
       <use style="stroke:#000000;stroke-width:0.8;" x="80.73" xlink:href="#m5bb72061f6" y="67.144707"/>
      </g>
     </g>
     <g id="text_12">
      <!-- 5000 -->
      <g transform="translate(48.28 70.943926)scale(0.1 -0.1)">
       <use xlink:href="#DejaVuSans-53"/>
       <use x="63.623047" xlink:href="#DejaVuSans-48"/>
       <use x="127.246094" xlink:href="#DejaVuSans-48"/>
       <use x="190.869141" xlink:href="#DejaVuSans-48"/>
      </g>
     </g>
    </g>
    <g id="text_13">
     <!-- Amplitude -->
     <g transform="translate(33.820625 106.272404)rotate(-90)scale(0.1 -0.1)">
      <defs>
       <path d="M 34.1875 63.1875 
L 20.796875 26.90625 
L 47.609375 26.90625 
z
M 28.609375 72.90625 
L 39.796875 72.90625 
L 67.578125 0 
L 57.328125 0 
L 50.6875 18.703125 
L 17.828125 18.703125 
L 11.1875 0 
L 0.78125 0 
z
" id="DejaVuSans-65"/>
       <path d="M 8.5 21.578125 
L 8.5 54.6875 
L 17.484375 54.6875 
L 17.484375 21.921875 
Q 17.484375 14.15625 20.5 10.265625 
Q 23.53125 6.390625 29.59375 6.390625 
Q 36.859375 6.390625 41.078125 11.03125 
Q 45.3125 15.671875 45.3125 23.6875 
L 45.3125 54.6875 
L 54.296875 54.6875 
L 54.296875 0 
L 45.3125 0 
L 45.3125 8.40625 
Q 42.046875 3.421875 37.71875 1 
Q 33.40625 -1.421875 27.6875 -1.421875 
Q 18.265625 -1.421875 13.375 4.4375 
Q 8.5 10.296875 8.5 21.578125 
z
M 31.109375 56 
z
" id="DejaVuSans-117"/>
       <path d="M 45.40625 46.390625 
L 45.40625 75.984375 
L 54.390625 75.984375 
L 54.390625 0 
L 45.40625 0 
L 45.40625 8.203125 
Q 42.578125 3.328125 38.25 0.953125 
Q 33.9375 -1.421875 27.875 -1.421875 
Q 17.96875 -1.421875 11.734375 6.484375 
Q 5.515625 14.40625 5.515625 27.296875 
Q 5.515625 40.1875 11.734375 48.09375 
Q 17.96875 56 27.875 56 
Q 33.9375 56 38.25 53.625 
Q 42.578125 51.265625 45.40625 46.390625 
z
M 14.796875 27.296875 
Q 14.796875 17.390625 18.875 11.75 
Q 22.953125 6.109375 30.078125 6.109375 
Q 37.203125 6.109375 41.296875 11.75 
Q 45.40625 17.390625 45.40625 27.296875 
Q 45.40625 37.203125 41.296875 42.84375 
Q 37.203125 48.484375 30.078125 48.484375 
Q 22.953125 48.484375 18.875 42.84375 
Q 14.796875 37.203125 14.796875 27.296875 
z
" id="DejaVuSans-100"/>
      </defs>
      <use xlink:href="#DejaVuSans-65"/>
      <use x="68.408203" xlink:href="#DejaVuSans-109"/>
      <use x="165.820312" xlink:href="#DejaVuSans-112"/>
      <use x="229.296875" xlink:href="#DejaVuSans-108"/>
      <use x="257.080078" xlink:href="#DejaVuSans-105"/>
      <use x="284.863281" xlink:href="#DejaVuSans-116"/>
      <use x="324.072266" xlink:href="#DejaVuSans-117"/>
      <use x="387.451172" xlink:href="#DejaVuSans-100"/>
      <use x="450.927734" xlink:href="#DejaVuSans-101"/>
     </g>
    </g>
   </g>
   <g id="line2d_12">
    <path clip-path="url(#pb96a1a7968)" d="M 103.481182 87.72778 
L 121.953048 87.786783 
L 123.800235 87.974796 
L 125.647421 87.749018 
L 127.494608 87.591326 
L 131.188981 87.659768 
L 134.267625 87.380787 
L 135.499083 87.631991 
L 137.961999 88.27035 
L 138.577728 88.368681 
L 139.809185 88.028536 
L 141.656372 87.410082 
L 142.88783 87.253021 
L 145.966474 87.638643 
L 148.429389 88.084416 
L 150.892305 88.819778 
L 151.508034 88.788375 
L 152.739492 88.371354 
L 154.586678 87.667805 
L 156.433865 87.173216 
L 157.665323 87.475447 
L 158.89678 88.024421 
L 160.743967 88.118576 
L 163.206882 88.638262 
L 163.822611 88.57918 
L 166.285527 88.962456 
L 166.901256 88.942284 
L 168.748442 87.70045 
L 169.364171 87.50052 
L 170.595629 87.876639 
L 171.211358 88.01385 
L 173.058544 89.158084 
L 173.674273 88.814265 
L 174.290002 87.113998 
L 175.52146 81.240824 
L 176.137189 80.139495 
L 176.752918 80.290269 
L 177.368646 82.909403 
L 178.600104 90.09879 
L 179.215833 92.725409 
L 179.831562 93.569204 
L 180.447291 93.358755 
L 181.06302 92.327258 
L 183.525935 84.936032 
L 184.141664 84.31553 
L 184.757393 84.611585 
L 185.373122 86.015633 
L 186.60458 87.582172 
L 187.220308 87.132757 
L 188.451766 83.700939 
L 189.067495 82.67573 
L 189.683224 83.179626 
L 190.298953 84.884639 
L 192.146139 91.237627 
L 192.761868 92.734452 
L 193.377597 93.384988 
L 193.993326 93.146621 
L 194.609055 92.145668 
L 196.456241 84.799903 
L 197.07197 83.46058 
L 197.687699 83.815425 
L 198.303428 84.838527 
L 198.919157 86.411424 
L 199.534886 87.041306 
L 200.150615 86.943928 
L 200.766344 86.599087 
L 201.382072 85.744312 
L 201.997801 85.5474 
L 202.61353 85.471808 
L 203.229259 85.855632 
L 204.460717 87.771904 
L 205.692175 90.617761 
L 206.307903 91.624228 
L 206.923632 92.060188 
L 207.539361 91.344719 
L 208.15509 90.23817 
L 209.386548 87.026575 
L 210.002277 86.134182 
L 210.618006 85.651591 
L 212.465192 86.993279 
L 213.080921 87.33197 
L 213.69665 87.007339 
L 214.312379 86.888319 
L 214.928108 86.470391 
L 216.775294 83.956464 
L 217.391023 83.674609 
L 218.006752 84.705275 
L 219.23821 88.696531 
L 220.469667 90.028444 
L 221.085396 90.350616 
L 221.701125 89.659412 
L 222.316854 89.628595 
L 222.932583 90.17424 
L 223.548312 89.954051 
L 224.164041 89.585806 
L 226.011227 87.275593 
L 226.626956 86.967688 
L 227.242685 87.566197 
L 227.858414 87.187545 
L 228.474143 86.332829 
L 229.705601 85.302374 
L 230.321329 86.037775 
L 230.937058 87.304731 
L 231.552787 89.249633 
L 232.168516 90.703407 
L 233.399974 91.071248 
L 234.015703 90.825645 
L 234.631432 91.442693 
L 235.24716 92.662707 
L 235.862889 92.894111 
L 236.478618 92.73303 
L 237.710076 89.483639 
L 238.941534 86.522748 
L 239.557263 85.895498 
L 240.172991 84.858371 
L 240.78872 84.226912 
L 241.404449 84.041616 
L 242.020178 84.662616 
L 242.635907 87.044705 
L 243.251636 88.890612 
L 243.867365 91.536202 
L 244.483093 93.399111 
L 245.098822 92.993077 
L 245.714551 93.367683 
L 246.33028 93.050346 
L 247.561738 88.706368 
L 248.793196 87.218467 
L 249.408924 86.179806 
L 250.640382 89.699801 
L 251.256111 89.225785 
L 251.87184 89.570213 
L 252.487569 89.020812 
L 253.103298 87.415017 
L 253.719027 87.547718 
L 254.950484 88.621677 
L 255.566213 90.159355 
L 256.181942 93.321151 
L 256.797671 97.567235 
L 257.4134 100.071609 
L 258.029129 99.725744 
L 258.644858 93.117205 
L 259.876315 63.986296 
L 260.492044 55.015657 
L 261.107773 53.037296 
L 261.723502 60.553662 
L 262.95496 90.149874 
L 263.570689 99.926517 
L 264.186417 105.009445 
L 264.802146 106.627064 
L 265.417875 104.365602 
L 266.033604 100.683767 
L 266.649333 96.051273 
L 267.880791 84.141564 
L 268.496519 80.476109 
L 269.112248 82.411878 
L 270.343706 90.418181 
L 270.959435 92.059685 
L 271.575164 87.561613 
L 272.806622 72.19571 
L 273.42235 68.13611 
L 274.038079 70.240523 
L 274.653808 75.272064 
L 275.885266 90.275882 
L 277.116724 100.772106 
L 277.732453 103.822658 
L 278.348181 104.669909 
L 278.96391 102.058224 
L 280.195368 87.78224 
L 280.811097 80.290989 
L 281.426826 77.038994 
L 282.042555 78.340501 
L 282.658284 81.542866 
L 283.274012 85.943898 
L 283.889741 87.93108 
L 284.50547 87.72778 
L 285.121199 85.724145 
L 285.736928 83.157721 
L 286.968386 81.318953 
L 287.584115 81.568769 
L 288.199843 82.860044 
L 288.815572 84.433987 
L 290.04703 92.370639 
L 290.662759 96.594829 
L 291.278488 98.577034 
L 291.894217 96.553218 
L 292.509946 92.522586 
L 293.125674 87.731622 
L 293.741403 84.508965 
L 294.357132 83.834248 
L 295.58859 86.894547 
L 296.204319 86.993769 
L 296.820048 87.229646 
L 298.051505 86.829096 
L 298.667234 86.604192 
L 299.282963 85.64497 
L 299.898692 84.218484 
L 300.514421 81.302596 
L 301.13015 79.240116 
L 301.745879 79.794118 
L 302.361607 81.312128 
L 303.593065 87.481576 
L 304.208794 88.451673 
L 304.824523 88.659964 
L 305.440252 88.457915 
L 306.055981 88.686769 
L 306.67171 89.32843 
L 307.287438 90.793381 
L 307.903167 91.704542 
L 308.518896 91.991189 
L 309.134625 91.964595 
L 309.750354 90.189314 
L 310.366083 89.482434 
L 310.981812 87.861052 
L 311.597541 85.859805 
L 312.213269 84.926706 
L 312.828998 82.642257 
L 313.444727 82.442185 
L 314.060456 82.542383 
L 314.676185 82.935628 
L 315.907643 86.355476 
L 316.523372 89.704478 
L 317.754829 92.491848 
L 318.370558 95.16326 
L 318.986287 95.859588 
L 319.602016 96.900261 
L 320.217745 96.7343 
L 320.833474 95.867314 
L 321.449202 94.683387 
L 322.064931 93.132888 
L 322.68066 92.454517 
L 323.296389 90.313931 
L 325.143576 81.258791 
L 325.759305 80.064425 
L 326.375033 80.777771 
L 327.606491 88.809858 
L 328.22222 91.633018 
L 328.837949 93.283979 
L 329.453678 93.819681 
L 330.069407 94.116506 
L 330.685136 93.861508 
L 331.300864 93.980889 
L 331.916593 93.239703 
L 332.532322 90.868402 
L 334.379509 82.704141 
L 334.995238 83.803528 
L 336.226695 90.963327 
L 336.842424 95.068068 
L 337.458153 97.246984 
L 338.073882 97.362294 
L 339.30534 94.001375 
L 339.921069 94.281166 
L 340.536798 93.646399 
L 341.152526 94.097672 
L 341.768255 92.095942 
L 342.383984 81.464145 
L 343.615442 52.858647 
L 344.231171 50.688886 
L 344.8469 53.35349 
L 345.462628 60.486031 
L 346.694086 88.932035 
L 347.309815 99.14115 
L 347.925544 104.656456 
L 349.157002 110.610609 
L 349.772731 107.598403 
L 350.388459 102.105524 
L 351.619917 85.545556 
L 352.235646 81.946599 
L 352.851375 79.901944 
L 353.467104 81.77267 
L 354.082833 83.020674 
L 354.698562 82.44613 
L 355.31429 80.028654 
L 355.930019 73.251044 
L 356.545748 69.793587 
L 357.161477 70.191567 
L 357.777206 74.407348 
L 358.392935 80.242369 
L 359.008664 84.151795 
L 360.85585 102.703458 
L 361.471579 106.267113 
L 362.087308 106.677191 
L 362.703037 105.688585 
L 363.318766 98.818811 
L 363.934495 90.462904 
L 364.550224 84.225971 
L 365.165952 80.193495 
L 365.781681 80.581855 
L 366.39741 80.054286 
L 367.013139 80.376199 
L 367.628868 81.673319 
L 368.244597 81.305551 
L 368.860326 82.272733 
L 369.476054 82.683843 
L 370.091783 83.376243 
L 370.707512 84.260139 
L 371.323241 84.184766 
L 371.93897 85.180471 
L 372.554699 86.398596 
L 373.170428 89.242471 
L 373.786157 92.878086 
L 374.401885 94.984065 
L 375.017614 96.332848 
L 375.633343 95.846272 
L 376.864801 93.69036 
L 378.711988 87.75358 
L 379.943445 81.795694 
L 380.559174 80.805275 
L 381.790632 83.901045 
L 382.406361 84.669447 
L 383.02209 85.144548 
L 383.637819 84.577429 
L 384.253547 84.429943 
L 384.869276 84.658737 
L 385.485005 85.128321 
L 386.100734 86.730542 
L 387.332192 88.499654 
L 387.947921 89.150222 
L 388.56365 88.375236 
L 389.179378 90.350168 
L 389.795107 93.134212 
L 390.410836 91.722721 
L 391.026565 89.445367 
L 391.642294 88.751713 
L 392.258023 88.371298 
L 392.873752 86.899195 
L 393.489481 86.399722 
L 394.105209 88.018737 
L 394.720938 87.687343 
L 395.952396 87.72778 
L 396.568125 86.632573 
L 397.183854 87.784136 
L 397.799583 88.127223 
L 398.415311 87.708057 
L 399.03104 86.716392 
L 399.646769 85.088048 
L 400.878227 88.170335 
L 401.493956 89.991773 
L 402.109685 92.66752 
L 402.725414 94.136419 
L 403.341142 94.725467 
L 403.956871 93.268945 
L 404.5726 92.501272 
L 405.188329 92.791378 
L 405.804058 92.216173 
L 406.419787 91.193936 
L 407.035516 88.908341 
L 407.651245 87.464002 
L 408.882702 83.318731 
L 409.498431 83.758051 
L 410.11416 84.04592 
L 410.729889 85.64074 
L 411.345618 87.891372 
L 411.961347 89.130198 
L 412.577076 91.082706 
L 413.808533 93.261948 
L 414.424262 93.761439 
L 415.039991 92.020684 
L 415.65572 89.537281 
L 416.271449 88.596114 
L 416.887178 89.480048 
L 417.502907 88.493339 
L 418.118635 88.262246 
L 418.734364 89.480374 
L 419.350093 88.717824 
L 419.965822 88.225354 
L 420.581551 87.558364 
L 421.19728 87.271499 
L 422.428737 89.680784 
L 423.044466 91.505501 
L 423.660195 92.75872 
L 424.275924 93.145409 
L 425.507382 94.302693 
L 426.123111 90.962869 
L 427.354568 70.439932 
L 427.970297 64.696266 
L 428.586026 62.968517 
L 429.201755 65.219097 
L 429.817484 73.571234 
L 430.433213 84.826903 
L 431.048942 93.608897 
L 431.664671 98.28303 
L 432.280399 99.845166 
L 432.896128 100.263514 
L 433.511857 98.364581 
L 434.743315 91.879762 
L 435.359044 87.448847 
L 435.974773 84.313306 
L 436.590502 83.386516 
L 437.20623 84.267069 
L 437.821959 85.802108 
L 438.437688 86.810422 
L 439.053417 86.948554 
L 439.669146 84.020861 
L 440.284875 80.106137 
L 440.900604 77.656959 
L 441.516333 77.475849 
L 442.74779 82.723274 
L 443.363519 86.605521 
L 443.979248 91.226647 
L 444.594977 94.637766 
L 445.210706 97.061991 
L 445.826435 98.020298 
L 446.442163 97.722424 
L 447.057892 95.479353 
L 448.905079 84.359515 
L 449.520808 82.86892 
L 450.136537 83.023543 
L 450.752266 83.895395 
L 451.367994 84.972621 
L 452.599452 85.763672 
L 453.215181 86.165924 
L 454.446639 86.104795 
L 455.062368 85.792061 
L 455.678097 86.113587 
L 456.293825 86.801393 
L 456.909554 87.319777 
L 457.525283 88.472788 
L 458.756741 91.974197 
L 459.37247 92.251243 
L 459.988199 91.354147 
L 462.451114 87.005422 
L 463.066843 86.363585 
L 463.682572 86.045817 
L 464.91403 85.972541 
L 465.529759 86.215142 
L 466.145487 86.929718 
L 466.761216 87.267699 
L 467.376945 87.271593 
L 467.992674 86.997941 
L 469.224132 86.005232 
L 469.839861 85.633019 
L 470.455589 85.721462 
L 471.071318 86.167776 
L 472.302776 87.446998 
L 472.918505 87.82233 
L 473.534234 88.894706 
L 474.149963 89.411608 
L 474.765692 89.375158 
L 475.38142 89.007915 
L 475.997149 87.724188 
L 477.228607 86.531665 
L 477.844336 86.248794 
L 478.460065 87.131088 
L 479.691523 88.342293 
L 480.307251 88.276025 
L 480.92298 88.025904 
L 481.538709 88.054413 
L 483.385896 86.793133 
L 484.001625 86.823961 
L 484.617354 87.365592 
L 485.233082 87.694913 
L 485.848811 88.442632 
L 487.080269 89.60233 
L 487.695998 89.925047 
L 488.927456 88.868858 
L 489.543185 88.427406 
L 491.390371 87.698173 
L 492.0061 87.786799 
L 494.469016 87.454981 
L 495.084744 87.883941 
L 496.931931 88.442696 
L 498.163389 88.630412 
L 499.394846 88.26077 
L 500.626304 88.177666 
L 501.857762 87.955108 
L 502.473491 87.975636 
L 504.320677 87.3611 
L 504.936406 87.408271 
L 508.63078 89.233199 
L 509.862237 89.178209 
L 510.477966 88.938891 
L 511.093695 88.049932 
L 512.325153 84.498741 
L 512.940882 83.736022 
L 513.556611 83.659668 
L 514.172339 84.304369 
L 515.403797 87.238326 
L 516.019526 88.359654 
L 516.635255 88.955178 
L 517.866713 89.280803 
L 519.09817 88.845263 
L 519.713899 88.45772 
L 520.329628 87.832003 
L 520.945357 87.551027 
L 521.561086 87.493753 
L 522.176815 87.680105 
L 523.408272 87.681561 
L 524.024001 87.608506 
L 525.255459 86.74215 
L 525.871188 86.598124 
L 526.486917 86.715856 
L 528.949832 87.968497 
L 530.18129 88.410567 
L 531.412748 88.420358 
L 533.875663 87.548939 
L 537.570037 87.675683 
L 540.032952 87.614836 
L 546.190241 87.757497 
L 549.884614 87.715662 
L 558.504818 87.72778 
L 558.504818 87.72778 
" style="fill:none;stroke:#1f77b4;stroke-linecap:square;stroke-width:1.5;"/>
   </g>
   <g id="patch_3">
    <path d="M 80.73 113.606695 
L 80.73 47.6928 
" style="fill:none;stroke:#000000;stroke-linecap:square;stroke-linejoin:miter;stroke-width:0.8;"/>
   </g>
   <g id="patch_4">
    <path d="M 581.256 113.606695 
L 581.256 47.6928 
" style="fill:none;stroke:#000000;stroke-linecap:square;stroke-linejoin:miter;stroke-width:0.8;"/>
   </g>
   <g id="patch_5">
    <path d="M 80.73 113.606695 
L 581.256 113.606695 
" style="fill:none;stroke:#000000;stroke-linecap:square;stroke-linejoin:miter;stroke-width:0.8;"/>
   </g>
   <g id="patch_6">
    <path d="M 80.73 47.6928 
L 581.256 47.6928 
" style="fill:none;stroke:#000000;stroke-linecap:square;stroke-linejoin:miter;stroke-width:0.8;"/>
   </g>
   <g id="text_14">
    <!-- A window with size 740 sample of lab_male.wav apply hanning window -->
    <g transform="translate(116.929875 41.6928)scale(0.12 -0.12)">
     <defs>
      <path d="M 4.203125 54.6875 
L 13.1875 54.6875 
L 24.421875 12.015625 
L 35.59375 54.6875 
L 46.1875 54.6875 
L 57.421875 12.015625 
L 68.609375 54.6875 
L 77.59375 54.6875 
L 63.28125 0 
L 52.6875 0 
L 40.921875 44.828125 
L 29.109375 0 
L 18.5 0 
z
" id="DejaVuSans-119"/>
      <path d="M 54.890625 33.015625 
L 54.890625 0 
L 45.90625 0 
L 45.90625 32.71875 
Q 45.90625 40.484375 42.875 44.328125 
Q 39.84375 48.1875 33.796875 48.1875 
Q 26.515625 48.1875 22.3125 43.546875 
Q 18.109375 38.921875 18.109375 30.90625 
L 18.109375 0 
L 9.078125 0 
L 9.078125 54.6875 
L 18.109375 54.6875 
L 18.109375 46.1875 
Q 21.34375 51.125 25.703125 53.5625 
Q 30.078125 56 35.796875 56 
Q 45.21875 56 50.046875 50.171875 
Q 54.890625 44.34375 54.890625 33.015625 
z
" id="DejaVuSans-110"/>
      <path d="M 30.609375 48.390625 
Q 23.390625 48.390625 19.1875 42.75 
Q 14.984375 37.109375 14.984375 27.296875 
Q 14.984375 17.484375 19.15625 11.84375 
Q 23.34375 6.203125 30.609375 6.203125 
Q 37.796875 6.203125 41.984375 11.859375 
Q 46.1875 17.53125 46.1875 27.296875 
Q 46.1875 37.015625 41.984375 42.703125 
Q 37.796875 48.390625 30.609375 48.390625 
z
M 30.609375 56 
Q 42.328125 56 49.015625 48.375 
Q 55.71875 40.765625 55.71875 27.296875 
Q 55.71875 13.875 49.015625 6.21875 
Q 42.328125 -1.421875 30.609375 -1.421875 
Q 18.84375 -1.421875 12.171875 6.21875 
Q 5.515625 13.875 5.515625 27.296875 
Q 5.515625 40.765625 12.171875 48.375 
Q 18.84375 56 30.609375 56 
z
" id="DejaVuSans-111"/>
      <path d="M 54.890625 33.015625 
L 54.890625 0 
L 45.90625 0 
L 45.90625 32.71875 
Q 45.90625 40.484375 42.875 44.328125 
Q 39.84375 48.1875 33.796875 48.1875 
Q 26.515625 48.1875 22.3125 43.546875 
Q 18.109375 38.921875 18.109375 30.90625 
L 18.109375 0 
L 9.078125 0 
L 9.078125 75.984375 
L 18.109375 75.984375 
L 18.109375 46.1875 
Q 21.34375 51.125 25.703125 53.5625 
Q 30.078125 56 35.796875 56 
Q 45.21875 56 50.046875 50.171875 
Q 54.890625 44.34375 54.890625 33.015625 
z
" id="DejaVuSans-104"/>
      <path d="M 5.515625 54.6875 
L 48.1875 54.6875 
L 48.1875 46.484375 
L 14.40625 7.171875 
L 48.1875 7.171875 
L 48.1875 0 
L 4.296875 0 
L 4.296875 8.203125 
L 38.09375 47.515625 
L 5.515625 47.515625 
z
" id="DejaVuSans-122"/>
      <path d="M 37.109375 75.984375 
L 37.109375 68.5 
L 28.515625 68.5 
Q 23.6875 68.5 21.796875 66.546875 
Q 19.921875 64.59375 19.921875 59.515625 
L 19.921875 54.6875 
L 34.71875 54.6875 
L 34.71875 47.703125 
L 19.921875 47.703125 
L 19.921875 0 
L 10.890625 0 
L 10.890625 47.703125 
L 2.296875 47.703125 
L 2.296875 54.6875 
L 10.890625 54.6875 
L 10.890625 58.5 
Q 10.890625 67.625 15.140625 71.796875 
Q 19.390625 75.984375 28.609375 75.984375 
z
" id="DejaVuSans-102"/>
      <path d="M 48.6875 27.296875 
Q 48.6875 37.203125 44.609375 42.84375 
Q 40.53125 48.484375 33.40625 48.484375 
Q 26.265625 48.484375 22.1875 42.84375 
Q 18.109375 37.203125 18.109375 27.296875 
Q 18.109375 17.390625 22.1875 11.75 
Q 26.265625 6.109375 33.40625 6.109375 
Q 40.53125 6.109375 44.609375 11.75 
Q 48.6875 17.390625 48.6875 27.296875 
z
M 18.109375 46.390625 
Q 20.953125 51.265625 25.265625 53.625 
Q 29.59375 56 35.59375 56 
Q 45.5625 56 51.78125 48.09375 
Q 58.015625 40.1875 58.015625 27.296875 
Q 58.015625 14.40625 51.78125 6.484375 
Q 45.5625 -1.421875 35.59375 -1.421875 
Q 29.59375 -1.421875 25.265625 0.953125 
Q 20.953125 3.328125 18.109375 8.203125 
L 18.109375 0 
L 9.078125 0 
L 9.078125 75.984375 
L 18.109375 75.984375 
z
" id="DejaVuSans-98"/>
      <path d="M 50.984375 -16.609375 
L 50.984375 -23.578125 
L -0.984375 -23.578125 
L -0.984375 -16.609375 
z
" id="DejaVuSans-95"/>
      <path d="M 10.6875 12.40625 
L 21 12.40625 
L 21 0 
L 10.6875 0 
z
" id="DejaVuSans-46"/>
      <path d="M 2.984375 54.6875 
L 12.5 54.6875 
L 29.59375 8.796875 
L 46.6875 54.6875 
L 56.203125 54.6875 
L 35.6875 0 
L 23.484375 0 
z
" id="DejaVuSans-118"/>
      <path d="M 32.171875 -5.078125 
Q 28.375 -14.84375 24.75 -17.8125 
Q 21.140625 -20.796875 15.09375 -20.796875 
L 7.90625 -20.796875 
L 7.90625 -13.28125 
L 13.1875 -13.28125 
Q 16.890625 -13.28125 18.9375 -11.515625 
Q 21 -9.765625 23.484375 -3.21875 
L 25.09375 0.875 
L 2.984375 54.6875 
L 12.5 54.6875 
L 29.59375 11.921875 
L 46.6875 54.6875 
L 56.203125 54.6875 
z
" id="DejaVuSans-121"/>
      <path d="M 45.40625 27.984375 
Q 45.40625 37.75 41.375 43.109375 
Q 37.359375 48.484375 30.078125 48.484375 
Q 22.859375 48.484375 18.828125 43.109375 
Q 14.796875 37.75 14.796875 27.984375 
Q 14.796875 18.265625 18.828125 12.890625 
Q 22.859375 7.515625 30.078125 7.515625 
Q 37.359375 7.515625 41.375 12.890625 
Q 45.40625 18.265625 45.40625 27.984375 
z
M 54.390625 6.78125 
Q 54.390625 -7.171875 48.1875 -13.984375 
Q 42 -20.796875 29.203125 -20.796875 
Q 24.46875 -20.796875 20.265625 -20.09375 
Q 16.0625 -19.390625 12.109375 -17.921875 
L 12.109375 -9.1875 
Q 16.0625 -11.328125 19.921875 -12.34375 
Q 23.78125 -13.375 27.78125 -13.375 
Q 36.625 -13.375 41.015625 -8.765625 
Q 45.40625 -4.15625 45.40625 5.171875 
L 45.40625 9.625 
Q 42.625 4.78125 38.28125 2.390625 
Q 33.9375 0 27.875 0 
Q 17.828125 0 11.671875 7.65625 
Q 5.515625 15.328125 5.515625 27.984375 
Q 5.515625 40.671875 11.671875 48.328125 
Q 17.828125 56 27.875 56 
Q 33.9375 56 38.28125 53.609375 
Q 42.625 51.21875 45.40625 46.390625 
L 45.40625 54.6875 
L 54.390625 54.6875 
z
" id="DejaVuSans-103"/>
     </defs>
     <use xlink:href="#DejaVuSans-65"/>
     <use x="68.408203" xlink:href="#DejaVuSans-32"/>
     <use x="100.195312" xlink:href="#DejaVuSans-119"/>
     <use x="181.982422" xlink:href="#DejaVuSans-105"/>
     <use x="209.765625" xlink:href="#DejaVuSans-110"/>
     <use x="273.144531" xlink:href="#DejaVuSans-100"/>
     <use x="336.621094" xlink:href="#DejaVuSans-111"/>
     <use x="397.802734" xlink:href="#DejaVuSans-119"/>
     <use x="479.589844" xlink:href="#DejaVuSans-32"/>
     <use x="511.376953" xlink:href="#DejaVuSans-119"/>
     <use x="593.164062" xlink:href="#DejaVuSans-105"/>
     <use x="620.947266" xlink:href="#DejaVuSans-116"/>
     <use x="660.15625" xlink:href="#DejaVuSans-104"/>
     <use x="723.535156" xlink:href="#DejaVuSans-32"/>
     <use x="755.322266" xlink:href="#DejaVuSans-115"/>
     <use x="807.421875" xlink:href="#DejaVuSans-105"/>
     <use x="835.205078" xlink:href="#DejaVuSans-122"/>
     <use x="887.695312" xlink:href="#DejaVuSans-101"/>
     <use x="949.21875" xlink:href="#DejaVuSans-32"/>
     <use x="981.005859" xlink:href="#DejaVuSans-55"/>
     <use x="1044.628906" xlink:href="#DejaVuSans-52"/>
     <use x="1108.251953" xlink:href="#DejaVuSans-48"/>
     <use x="1171.875" xlink:href="#DejaVuSans-32"/>
     <use x="1203.662109" xlink:href="#DejaVuSans-115"/>
     <use x="1255.761719" xlink:href="#DejaVuSans-97"/>
     <use x="1317.041016" xlink:href="#DejaVuSans-109"/>
     <use x="1414.453125" xlink:href="#DejaVuSans-112"/>
     <use x="1477.929688" xlink:href="#DejaVuSans-108"/>
     <use x="1505.712891" xlink:href="#DejaVuSans-101"/>
     <use x="1567.236328" xlink:href="#DejaVuSans-32"/>
     <use x="1599.023438" xlink:href="#DejaVuSans-111"/>
     <use x="1660.205078" xlink:href="#DejaVuSans-102"/>
     <use x="1695.410156" xlink:href="#DejaVuSans-32"/>
     <use x="1727.197266" xlink:href="#DejaVuSans-108"/>
     <use x="1754.980469" xlink:href="#DejaVuSans-97"/>
     <use x="1816.259766" xlink:href="#DejaVuSans-98"/>
     <use x="1879.736328" xlink:href="#DejaVuSans-95"/>
     <use x="1929.736328" xlink:href="#DejaVuSans-109"/>
     <use x="2027.148438" xlink:href="#DejaVuSans-97"/>
     <use x="2088.427734" xlink:href="#DejaVuSans-108"/>
     <use x="2116.210938" xlink:href="#DejaVuSans-101"/>
     <use x="2177.734375" xlink:href="#DejaVuSans-46"/>
     <use x="2209.521484" xlink:href="#DejaVuSans-119"/>
     <use x="2291.308594" xlink:href="#DejaVuSans-97"/>
     <use x="2352.587891" xlink:href="#DejaVuSans-118"/>
     <use x="2411.767578" xlink:href="#DejaVuSans-32"/>
     <use x="2443.554688" xlink:href="#DejaVuSans-97"/>
     <use x="2504.833984" xlink:href="#DejaVuSans-112"/>
     <use x="2568.310547" xlink:href="#DejaVuSans-112"/>
     <use x="2631.787109" xlink:href="#DejaVuSans-108"/>
     <use x="2659.570312" xlink:href="#DejaVuSans-121"/>
     <use x="2718.75" xlink:href="#DejaVuSans-32"/>
     <use x="2750.537109" xlink:href="#DejaVuSans-104"/>
     <use x="2813.916016" xlink:href="#DejaVuSans-97"/>
     <use x="2875.195312" xlink:href="#DejaVuSans-110"/>
     <use x="2938.574219" xlink:href="#DejaVuSans-110"/>
     <use x="3001.953125" xlink:href="#DejaVuSans-105"/>
     <use x="3029.736328" xlink:href="#DejaVuSans-110"/>
     <use x="3093.115234" xlink:href="#DejaVuSans-103"/>
     <use x="3156.591797" xlink:href="#DejaVuSans-32"/>
     <use x="3188.378906" xlink:href="#DejaVuSans-119"/>
     <use x="3270.166016" xlink:href="#DejaVuSans-105"/>
     <use x="3297.949219" xlink:href="#DejaVuSans-110"/>
     <use x="3361.328125" xlink:href="#DejaVuSans-100"/>
     <use x="3424.804688" xlink:href="#DejaVuSans-111"/>
     <use x="3485.986328" xlink:href="#DejaVuSans-119"/>
    </g>
   </g>
  </g>
  <g id="axes_2">
   <g id="patch_7">
    <path d="M 80.73 233.664148 
L 581.256 233.664148 
L 581.256 167.750252 
L 80.73 167.750252 
z
" style="fill:#ffffff;"/>
   </g>
   <g id="matplotlib.axis_3">
    <g id="xtick_9">
     <g id="line2d_13">
      <g>
       <use style="stroke:#000000;stroke-width:0.8;" x="131.706332" xlink:href="#m94ff761098" y="233.664148"/>
      </g>
     </g>
     <g id="text_15">
      <!-- 0 -->
      <g transform="translate(128.525082 248.262585)scale(0.1 -0.1)">
       <use xlink:href="#DejaVuSans-48"/>
      </g>
     </g>
    </g>
    <g id="xtick_10">
     <g id="line2d_14">
      <g>
       <use style="stroke:#000000;stroke-width:0.8;" x="237.764473" xlink:href="#m94ff761098" y="233.664148"/>
      </g>
     </g>
     <g id="text_16">
      <!-- 500 -->
      <g transform="translate(228.220723 248.262585)scale(0.1 -0.1)">
       <use xlink:href="#DejaVuSans-53"/>
       <use x="63.623047" xlink:href="#DejaVuSans-48"/>
       <use x="127.246094" xlink:href="#DejaVuSans-48"/>
      </g>
     </g>
    </g>
    <g id="xtick_11">
     <g id="line2d_15">
      <g>
       <use style="stroke:#000000;stroke-width:0.8;" x="343.822614" xlink:href="#m94ff761098" y="233.664148"/>
      </g>
     </g>
     <g id="text_17">
      <!-- 1000 -->
      <g transform="translate(331.097614 248.262585)scale(0.1 -0.1)">
       <use xlink:href="#DejaVuSans-49"/>
       <use x="63.623047" xlink:href="#DejaVuSans-48"/>
       <use x="127.246094" xlink:href="#DejaVuSans-48"/>
       <use x="190.869141" xlink:href="#DejaVuSans-48"/>
      </g>
     </g>
    </g>
    <g id="xtick_12">
     <g id="line2d_16">
      <g>
       <use style="stroke:#000000;stroke-width:0.8;" x="449.880755" xlink:href="#m94ff761098" y="233.664148"/>
      </g>
     </g>
     <g id="text_18">
      <!-- 1500 -->
      <g transform="translate(437.155755 248.262585)scale(0.1 -0.1)">
       <use xlink:href="#DejaVuSans-49"/>
       <use x="63.623047" xlink:href="#DejaVuSans-53"/>
       <use x="127.246094" xlink:href="#DejaVuSans-48"/>
       <use x="190.869141" xlink:href="#DejaVuSans-48"/>
      </g>
     </g>
    </g>
    <g id="xtick_13">
     <g id="line2d_17">
      <g>
       <use style="stroke:#000000;stroke-width:0.8;" x="555.938895" xlink:href="#m94ff761098" y="233.664148"/>
      </g>
     </g>
     <g id="text_19">
      <!-- 2000 -->
      <g transform="translate(543.213895 248.262585)scale(0.1 -0.1)">
       <use xlink:href="#DejaVuSans-50"/>
       <use x="63.623047" xlink:href="#DejaVuSans-48"/>
       <use x="127.246094" xlink:href="#DejaVuSans-48"/>
       <use x="190.869141" xlink:href="#DejaVuSans-48"/>
      </g>
     </g>
    </g>
    <g id="text_20">
     <!-- Frequency -->
     <g transform="translate(305.163313 261.94071)scale(0.1 -0.1)">
      <defs>
       <path d="M 9.8125 72.90625 
L 51.703125 72.90625 
L 51.703125 64.59375 
L 19.671875 64.59375 
L 19.671875 43.109375 
L 48.578125 43.109375 
L 48.578125 34.8125 
L 19.671875 34.8125 
L 19.671875 0 
L 9.8125 0 
z
" id="DejaVuSans-70"/>
       <path d="M 41.109375 46.296875 
Q 39.59375 47.171875 37.8125 47.578125 
Q 36.03125 48 33.890625 48 
Q 26.265625 48 22.1875 43.046875 
Q 18.109375 38.09375 18.109375 28.8125 
L 18.109375 0 
L 9.078125 0 
L 9.078125 54.6875 
L 18.109375 54.6875 
L 18.109375 46.1875 
Q 20.953125 51.171875 25.484375 53.578125 
Q 30.03125 56 36.53125 56 
Q 37.453125 56 38.578125 55.875 
Q 39.703125 55.765625 41.0625 55.515625 
z
" id="DejaVuSans-114"/>
       <path d="M 14.796875 27.296875 
Q 14.796875 17.390625 18.875 11.75 
Q 22.953125 6.109375 30.078125 6.109375 
Q 37.203125 6.109375 41.296875 11.75 
Q 45.40625 17.390625 45.40625 27.296875 
Q 45.40625 37.203125 41.296875 42.84375 
Q 37.203125 48.484375 30.078125 48.484375 
Q 22.953125 48.484375 18.875 42.84375 
Q 14.796875 37.203125 14.796875 27.296875 
z
M 45.40625 8.203125 
Q 42.578125 3.328125 38.25 0.953125 
Q 33.9375 -1.421875 27.875 -1.421875 
Q 17.96875 -1.421875 11.734375 6.484375 
Q 5.515625 14.40625 5.515625 27.296875 
Q 5.515625 40.1875 11.734375 48.09375 
Q 17.96875 56 27.875 56 
Q 33.9375 56 38.25 53.625 
Q 42.578125 51.265625 45.40625 46.390625 
L 45.40625 54.6875 
L 54.390625 54.6875 
L 54.390625 -20.796875 
L 45.40625 -20.796875 
z
" id="DejaVuSans-113"/>
       <path d="M 48.78125 52.59375 
L 48.78125 44.1875 
Q 44.96875 46.296875 41.140625 47.34375 
Q 37.3125 48.390625 33.40625 48.390625 
Q 24.65625 48.390625 19.8125 42.84375 
Q 14.984375 37.3125 14.984375 27.296875 
Q 14.984375 17.28125 19.8125 11.734375 
Q 24.65625 6.203125 33.40625 6.203125 
Q 37.3125 6.203125 41.140625 7.25 
Q 44.96875 8.296875 48.78125 10.40625 
L 48.78125 2.09375 
Q 45.015625 0.34375 40.984375 -0.53125 
Q 36.96875 -1.421875 32.421875 -1.421875 
Q 20.0625 -1.421875 12.78125 6.34375 
Q 5.515625 14.109375 5.515625 27.296875 
Q 5.515625 40.671875 12.859375 48.328125 
Q 20.21875 56 33.015625 56 
Q 37.15625 56 41.109375 55.140625 
Q 45.0625 54.296875 48.78125 52.59375 
z
" id="DejaVuSans-99"/>
      </defs>
      <use xlink:href="#DejaVuSans-70"/>
      <use x="50.269531" xlink:href="#DejaVuSans-114"/>
      <use x="89.132812" xlink:href="#DejaVuSans-101"/>
      <use x="150.65625" xlink:href="#DejaVuSans-113"/>
      <use x="214.132812" xlink:href="#DejaVuSans-117"/>
      <use x="277.511719" xlink:href="#DejaVuSans-101"/>
      <use x="339.035156" xlink:href="#DejaVuSans-110"/>
      <use x="402.414062" xlink:href="#DejaVuSans-99"/>
      <use x="457.394531" xlink:href="#DejaVuSans-121"/>
     </g>
    </g>
   </g>
   <g id="matplotlib.axis_4">
    <g id="ytick_4">
     <g id="line2d_18">
      <g>
       <use style="stroke:#000000;stroke-width:0.8;" x="80.73" xlink:href="#m5bb72061f6" y="232.917897"/>
      </g>
     </g>
     <g id="text_21">
      <!-- 0 -->
      <g transform="translate(67.3675 236.717116)scale(0.1 -0.1)">
       <use xlink:href="#DejaVuSans-48"/>
      </g>
     </g>
    </g>
    <g id="ytick_5">
     <g id="line2d_19">
      <g>
       <use style="stroke:#000000;stroke-width:0.8;" x="80.73" xlink:href="#m5bb72061f6" y="191.67016"/>
      </g>
     </g>
     <g id="text_22">
      <!-- 5 -->
      <g transform="translate(67.3675 195.469379)scale(0.1 -0.1)">
       <use xlink:href="#DejaVuSans-53"/>
      </g>
     </g>
    </g>
    <g id="text_23">
     <!-- Power -->
     <g transform="translate(61.287813 215.821262)rotate(-90)scale(0.1 -0.1)">
      <defs>
       <path d="M 19.671875 64.796875 
L 19.671875 37.40625 
L 32.078125 37.40625 
Q 38.96875 37.40625 42.71875 40.96875 
Q 46.484375 44.53125 46.484375 51.125 
Q 46.484375 57.671875 42.71875 61.234375 
Q 38.96875 64.796875 32.078125 64.796875 
z
M 9.8125 72.90625 
L 32.078125 72.90625 
Q 44.34375 72.90625 50.609375 67.359375 
Q 56.890625 61.8125 56.890625 51.125 
Q 56.890625 40.328125 50.609375 34.8125 
Q 44.34375 29.296875 32.078125 29.296875 
L 19.671875 29.296875 
L 19.671875 0 
L 9.8125 0 
z
" id="DejaVuSans-80"/>
      </defs>
      <use xlink:href="#DejaVuSans-80"/>
      <use x="56.677734" xlink:href="#DejaVuSans-111"/>
      <use x="117.859375" xlink:href="#DejaVuSans-119"/>
      <use x="199.646484" xlink:href="#DejaVuSans-101"/>
      <use x="261.169922" xlink:href="#DejaVuSans-114"/>
     </g>
    </g>
    <g id="text_24">
     <!-- 1e10 -->
     <g transform="translate(80.73 164.750252)scale(0.1 -0.1)">
      <use xlink:href="#DejaVuSans-49"/>
      <use x="63.623047" xlink:href="#DejaVuSans-101"/>
      <use x="125.146484" xlink:href="#DejaVuSans-49"/>
      <use x="188.769531" xlink:href="#DejaVuSans-48"/>
     </g>
    </g>
   </g>
   <g id="line2d_20">
    <path clip-path="url(#p4f9738c0a1)" d="M 131.706332 232.869128 
L 150.763654 232.782259 
L 151.592234 232.508541 
L 152.420813 232.046485 
L 153.663682 231.044257 
L 155.32084 229.617622 
L 156.149419 229.16106 
L 156.977999 229.015624 
L 157.806578 229.206722 
L 158.635157 229.682932 
L 161.949474 232.156067 
L 163.192343 232.612573 
L 164.435212 232.807629 
L 166.920949 232.876024 
L 173.963873 232.806693 
L 175.206742 232.539348 
L 176.035321 232.176583 
L 176.8639 231.616452 
L 178.106769 230.426258 
L 179.763927 228.688888 
L 180.592506 228.104107 
L 181.421086 227.893048 
L 182.249665 228.104087 
L 183.078244 228.688578 
L 184.321113 229.973299 
L 185.563982 231.266125 
L 186.392561 231.933424 
L 187.22114 232.395319 
L 188.464009 232.75669 
L 190.121168 232.891418 
L 194.678353 232.886156 
L 202.549856 232.68717 
L 206.692752 232.359204 
L 208.7642 232.507471 
L 212.907096 232.879365 
L 217.049992 232.906151 
L 224.507205 232.787278 
L 225.750074 232.412202 
L 226.992943 231.699243 
L 229.89297 229.68962 
L 230.72155 229.47751 
L 231.550129 229.555003 
L 232.378708 229.901523 
L 233.621577 230.746179 
L 235.278735 231.915834 
L 236.521604 232.499181 
L 237.764473 232.788759 
L 239.421631 232.898764 
L 247.707424 232.907776 
L 249.778872 232.790647 
L 251.021741 232.545928 
L 252.678899 231.956813 
L 254.750347 231.172126 
L 255.993216 230.993368 
L 257.236085 231.128094 
L 258.893243 231.617372 
L 260.964691 232.217279 
L 263.036139 232.543015 
L 267.179035 232.900959 
L 268.836194 232.793621 
L 270.493352 232.657083 
L 272.97909 232.753654 
L 273.39338 232.399997 
L 273.807669 231.730657 
L 274.221959 230.643845 
L 274.636249 229.042738 
L 275.050538 226.846431 
L 275.879117 220.490546 
L 276.707697 211.638025 
L 279.193434 181.344822 
L 279.607724 177.969646 
L 280.022013 175.580548 
L 280.436303 174.275274 
L 280.850593 174.091045 
L 281.264882 175.003462 
L 281.679172 176.930569 
L 282.507751 183.268311 
L 283.75062 196.213741 
L 284.993489 208.958778 
L 285.822068 215.73819 
L 286.650647 220.78028 
L 287.479227 224.246344 
L 288.307806 226.513649 
L 289.136385 227.996085 
L 289.964964 229.023208 
L 291.207833 230.101087 
L 292.036412 230.583904 
L 292.864991 230.869229 
L 294.10786 230.988325 
L 295.350729 231.081994 
L 296.179308 231.376391 
L 298.250756 232.588979 
L 298.665046 232.546281 
L 299.079336 232.230498 
L 299.493625 231.555582 
L 299.907915 230.443624 
L 300.322204 228.833319 
L 301.150784 224.002339 
L 301.979363 217.170676 
L 304.465101 193.753795 
L 304.87939 191.13715 
L 305.29368 189.275977 
L 305.707969 188.246842 
L 306.122259 188.081567 
L 306.536549 188.766091 
L 306.950838 190.24298 
L 307.779418 195.164841 
L 309.022286 205.388428 
L 310.265155 215.673405 
L 311.093734 221.264721 
L 311.922314 225.502592 
L 312.750893 228.45957 
L 313.579472 230.382568 
L 314.408051 231.561702 
L 315.236631 232.24593 
L 316.06521 232.610625 
L 316.893789 232.763534 
L 318.136658 232.740914 
L 320.208106 232.615588 
L 322.279554 232.770643 
L 322.693844 232.552018 
L 323.108133 232.082465 
L 323.522423 231.262796 
L 323.936712 229.99068 
L 324.351002 228.170327 
L 324.765292 225.723509 
L 325.593871 218.791885 
L 326.42245 209.312239 
L 328.908188 177.694166 
L 329.322477 174.307243 
L 329.736767 171.99293 
L 330.151057 170.853473 
L 330.565346 170.926727 
L 330.979636 172.184646 
L 331.393925 174.537246 
L 332.222505 181.913735 
L 333.879663 201.657321 
L 335.122532 214.933041 
L 335.951111 221.453988 
L 336.77969 226.001455 
L 337.60827 228.893062 
L 338.436849 230.580114 
L 339.265428 231.488042 
L 340.094007 231.938557 
L 340.922587 232.139577 
L 342.579745 232.217167 
L 347.55122 232.078093 
L 348.3798 231.675005 
L 349.208379 230.77818 
L 350.036958 229.214971 
L 350.865537 226.933757 
L 352.108406 222.522551 
L 353.351275 218.099622 
L 354.179854 215.96344 
L 354.594144 215.296158 
L 355.008433 214.938134 
L 355.422723 214.901056 
L 355.837013 215.179963 
L 356.251302 215.754163 
L 357.079881 217.640558 
L 358.32275 221.560207 
L 359.979909 226.729853 
L 360.808488 228.708013 
L 361.637067 230.184396 
L 362.465646 231.212933 
L 363.294226 231.891794 
L 364.122805 232.323309 
L 365.365674 232.682122 
L 367.022832 232.859208 
L 369.09428 232.785667 
L 371.580018 232.654159 
L 374.480045 232.730372 
L 375.308624 232.393722 
L 376.137204 231.709889 
L 376.965783 230.68214 
L 379.45152 227.12907 
L 380.2801 226.539432 
L 380.694389 226.447422 
L 381.108679 226.49393 
L 381.937258 226.964137 
L 382.765837 227.812416 
L 385.251575 230.778879 
L 386.080154 231.480771 
L 386.908734 231.980739 
L 388.151602 232.426676 
L 389.808761 232.679321 
L 391.880209 232.732385 
L 393.951657 232.5447 
L 396.023105 232.349476 
L 397.680263 232.474112 
L 398.923132 232.482231 
L 399.751711 232.190049 
L 400.580291 231.509382 
L 401.40887 230.407723 
L 402.651739 228.210752 
L 403.894608 226.080539 
L 404.723187 225.141699 
L 405.137476 224.888193 
L 405.551766 224.79184 
L 405.966056 224.851323 
L 406.380345 225.056984 
L 407.208925 225.83483 
L 408.451793 227.552538 
L 410.108952 229.888668 
L 411.351821 231.190373 
L 412.1804 231.794972 
L 413.423269 232.359982 
L 414.666138 232.589751 
L 415.909006 232.51022 
L 417.151875 232.100179 
L 419.637613 230.942469 
L 420.466192 230.984018 
L 421.294771 231.447797 
L 422.95193 232.783511 
L 423.366219 232.79438 
L 423.780509 232.47829 
L 424.194799 231.732991 
L 424.609088 230.47076 
L 425.023378 228.629697 
L 425.851957 223.151637 
L 426.680536 215.640856 
L 428.337695 199.340503 
L 429.166274 193.798213 
L 429.580564 192.293486 
L 429.994853 191.755581 
L 430.409143 192.203029 
L 430.823432 193.594113 
L 431.237722 195.831771 
L 432.066301 202.242666 
L 434.137749 220.964689 
L 434.966329 226.417378 
L 435.794908 229.994637 
L 436.209197 231.13598 
L 436.623487 231.915904 
L 437.037777 232.398347 
L 437.452066 232.647782 
L 437.866356 232.723703 
L 438.694935 232.547243 
L 439.937804 231.902324 
L 441.594962 230.749774 
L 443.252121 229.518772 
L 444.0807 229.1167 
L 444.909279 229.028025 
L 445.737858 229.296435 
L 447.395017 230.247165 
L 447.809307 230.298432 
L 448.223596 230.149772 
L 448.637886 229.737763 
L 449.052175 229.007746 
L 449.466465 227.919887 
L 450.295044 224.616808 
L 451.123623 219.977495 
L 453.195072 206.946128 
L 454.023651 203.563754 
L 454.43794 202.649862 
L 454.85223 202.313641 
L 455.26652 202.560933 
L 455.680809 203.36687 
L 456.095099 204.678892 
L 456.923678 208.503836 
L 459.823705 224.609579 
L 460.652285 227.731029 
L 461.480864 229.898425 
L 462.309443 231.255997 
L 463.138022 232.009483 
L 463.966601 232.357653 
L 464.795181 232.45687 
L 466.03805 232.359968 
L 469.766656 231.838042 
L 471.009525 232.043015 
L 473.909552 232.892132 
L 474.738131 232.637889 
L 475.566711 231.945434 
L 476.39529 230.848733 
L 478.466738 227.628599 
L 479.295317 226.834545 
L 479.709607 226.644459 
L 480.123896 226.60375 
L 480.538186 226.709597 
L 481.366765 227.308865 
L 482.195344 228.278642 
L 484.266792 230.974252 
L 485.095372 231.765455 
L 485.923951 232.31312 
L 486.75253 232.646505 
L 487.995399 232.866952 
L 490.066847 232.898869 
L 500.424087 232.595322 
L 501.666956 232.2408 
L 504.566983 231.262559 
L 505.809852 231.179569 
L 507.052721 231.379311 
L 509.124169 232.041814 
L 511.195617 232.613709 
L 512.852776 232.844923 
L 514.924224 232.913148 
L 524.867174 232.729497 
L 529.42436 232.107436 
L 531.081519 232.195056 
L 537.710152 232.818572 
L 543.510207 232.916672 
L 548.481682 232.837259 
L 550.96742 232.546897 
L 553.867447 232.211905 
L 555.524606 232.250199 
L 564.224688 232.895526 
L 571.681901 232.871305 
L 574.167638 232.642548 
L 578.724824 232.037438 
L 580.796272 232.13067 
L 581.624851 232.218989 
L 581.624851 232.218989 
" style="fill:none;stroke:#1f77b4;stroke-linecap:square;stroke-width:1.5;"/>
   </g>
   <g id="patch_8">
    <path d="M 80.73 233.664148 
L 80.73 167.750252 
" style="fill:none;stroke:#000000;stroke-linecap:square;stroke-linejoin:miter;stroke-width:0.8;"/>
   </g>
   <g id="patch_9">
    <path d="M 581.256 233.664148 
L 581.256 167.750252 
" style="fill:none;stroke:#000000;stroke-linecap:square;stroke-linejoin:miter;stroke-width:0.8;"/>
   </g>
   <g id="patch_10">
    <path d="M 80.73 233.664148 
L 581.256 233.664148 
" style="fill:none;stroke:#000000;stroke-linecap:square;stroke-linejoin:miter;stroke-width:0.8;"/>
   </g>
   <g id="patch_11">
    <path d="M 80.73 167.750252 
L 581.256 167.750252 
" style="fill:none;stroke:#000000;stroke-linecap:square;stroke-linejoin:miter;stroke-width:0.8;"/>
   </g>
   <g id="text_25">
    <!-- Power Spectrum apply hanning window -->
    <g transform="translate(212.514563 161.750252)scale(0.12 -0.12)">
     <defs>
      <path d="M 53.515625 70.515625 
L 53.515625 60.890625 
Q 47.90625 63.578125 42.921875 64.890625 
Q 37.9375 66.21875 33.296875 66.21875 
Q 25.25 66.21875 20.875 63.09375 
Q 16.5 59.96875 16.5 54.203125 
Q 16.5 49.359375 19.40625 46.890625 
Q 22.3125 44.4375 30.421875 42.921875 
L 36.375 41.703125 
Q 47.40625 39.59375 52.65625 34.296875 
Q 57.90625 29 57.90625 20.125 
Q 57.90625 9.515625 50.796875 4.046875 
Q 43.703125 -1.421875 29.984375 -1.421875 
Q 24.8125 -1.421875 18.96875 -0.25 
Q 13.140625 0.921875 6.890625 3.21875 
L 6.890625 13.375 
Q 12.890625 10.015625 18.65625 8.296875 
Q 24.421875 6.59375 29.984375 6.59375 
Q 38.421875 6.59375 43.015625 9.90625 
Q 47.609375 13.234375 47.609375 19.390625 
Q 47.609375 24.75 44.3125 27.78125 
Q 41.015625 30.8125 33.5 32.328125 
L 27.484375 33.5 
Q 16.453125 35.6875 11.515625 40.375 
Q 6.59375 45.0625 6.59375 53.421875 
Q 6.59375 63.09375 13.40625 68.65625 
Q 20.21875 74.21875 32.171875 74.21875 
Q 37.3125 74.21875 42.625 73.28125 
Q 47.953125 72.359375 53.515625 70.515625 
z
" id="DejaVuSans-83"/>
     </defs>
     <use xlink:href="#DejaVuSans-80"/>
     <use x="56.677734" xlink:href="#DejaVuSans-111"/>
     <use x="117.859375" xlink:href="#DejaVuSans-119"/>
     <use x="199.646484" xlink:href="#DejaVuSans-101"/>
     <use x="261.169922" xlink:href="#DejaVuSans-114"/>
     <use x="302.283203" xlink:href="#DejaVuSans-32"/>
     <use x="334.070312" xlink:href="#DejaVuSans-83"/>
     <use x="397.546875" xlink:href="#DejaVuSans-112"/>
     <use x="461.023438" xlink:href="#DejaVuSans-101"/>
     <use x="522.546875" xlink:href="#DejaVuSans-99"/>
     <use x="577.527344" xlink:href="#DejaVuSans-116"/>
     <use x="616.736328" xlink:href="#DejaVuSans-114"/>
     <use x="657.849609" xlink:href="#DejaVuSans-117"/>
     <use x="721.228516" xlink:href="#DejaVuSans-109"/>
     <use x="818.640625" xlink:href="#DejaVuSans-32"/>
     <use x="850.427734" xlink:href="#DejaVuSans-97"/>
     <use x="911.707031" xlink:href="#DejaVuSans-112"/>
     <use x="975.183594" xlink:href="#DejaVuSans-112"/>
     <use x="1038.660156" xlink:href="#DejaVuSans-108"/>
     <use x="1066.443359" xlink:href="#DejaVuSans-121"/>
     <use x="1125.623047" xlink:href="#DejaVuSans-32"/>
     <use x="1157.410156" xlink:href="#DejaVuSans-104"/>
     <use x="1220.789062" xlink:href="#DejaVuSans-97"/>
     <use x="1282.068359" xlink:href="#DejaVuSans-110"/>
     <use x="1345.447266" xlink:href="#DejaVuSans-110"/>
     <use x="1408.826172" xlink:href="#DejaVuSans-105"/>
     <use x="1436.609375" xlink:href="#DejaVuSans-110"/>
     <use x="1499.988281" xlink:href="#DejaVuSans-103"/>
     <use x="1563.464844" xlink:href="#DejaVuSans-32"/>
     <use x="1595.251953" xlink:href="#DejaVuSans-119"/>
     <use x="1677.039062" xlink:href="#DejaVuSans-105"/>
     <use x="1704.822266" xlink:href="#DejaVuSans-110"/>
     <use x="1768.201172" xlink:href="#DejaVuSans-100"/>
     <use x="1831.677734" xlink:href="#DejaVuSans-111"/>
     <use x="1892.859375" xlink:href="#DejaVuSans-119"/>
    </g>
   </g>
  </g>
  <g id="axes_3">
   <g id="patch_12">
    <path d="M 80.73 353.7216 
L 581.256 353.7216 
L 581.256 287.807705 
L 80.73 287.807705 
z
" style="fill:#ffffff;"/>
   </g>
   <g id="matplotlib.axis_5">
    <g id="xtick_14">
     <g id="line2d_21">
      <g>
       <use style="stroke:#000000;stroke-width:0.8;" x="87.76904" xlink:href="#m94ff761098" y="353.7216"/>
      </g>
     </g>
     <g id="text_26">
      <!-- 0 -->
      <g transform="translate(84.58779 368.320037)scale(0.1 -0.1)">
       <use xlink:href="#DejaVuSans-48"/>
      </g>
     </g>
    </g>
    <g id="xtick_15">
     <g id="line2d_22">
      <g>
       <use style="stroke:#000000;stroke-width:0.8;" x="163.893313" xlink:href="#m94ff761098" y="353.7216"/>
      </g>
     </g>
     <g id="text_27">
      <!-- 50 -->
      <g transform="translate(157.530813 368.320037)scale(0.1 -0.1)">
       <use xlink:href="#DejaVuSans-53"/>
       <use x="63.623047" xlink:href="#DejaVuSans-48"/>
      </g>
     </g>
    </g>
    <g id="xtick_16">
     <g id="line2d_23">
      <g>
       <use style="stroke:#000000;stroke-width:0.8;" x="240.017587" xlink:href="#m94ff761098" y="353.7216"/>
      </g>
     </g>
     <g id="text_28">
      <!-- 100 -->
      <g transform="translate(230.473837 368.320037)scale(0.1 -0.1)">
       <use xlink:href="#DejaVuSans-49"/>
       <use x="63.623047" xlink:href="#DejaVuSans-48"/>
       <use x="127.246094" xlink:href="#DejaVuSans-48"/>
      </g>
     </g>
    </g>
    <g id="xtick_17">
     <g id="line2d_24">
      <g>
       <use style="stroke:#000000;stroke-width:0.8;" x="316.14186" xlink:href="#m94ff761098" y="353.7216"/>
      </g>
     </g>
     <g id="text_29">
      <!-- 150 -->
      <g transform="translate(306.59811 368.320037)scale(0.1 -0.1)">
       <use xlink:href="#DejaVuSans-49"/>
       <use x="63.623047" xlink:href="#DejaVuSans-53"/>
       <use x="127.246094" xlink:href="#DejaVuSans-48"/>
      </g>
     </g>
    </g>
    <g id="xtick_18">
     <g id="line2d_25">
      <g>
       <use style="stroke:#000000;stroke-width:0.8;" x="392.266134" xlink:href="#m94ff761098" y="353.7216"/>
      </g>
     </g>
     <g id="text_30">
      <!-- 200 -->
      <g transform="translate(382.722384 368.320037)scale(0.1 -0.1)">
       <use xlink:href="#DejaVuSans-50"/>
       <use x="63.623047" xlink:href="#DejaVuSans-48"/>
       <use x="127.246094" xlink:href="#DejaVuSans-48"/>
      </g>
     </g>
    </g>
    <g id="xtick_19">
     <g id="line2d_26">
      <g>
       <use style="stroke:#000000;stroke-width:0.8;" x="468.390407" xlink:href="#m94ff761098" y="353.7216"/>
      </g>
     </g>
     <g id="text_31">
      <!-- 250 -->
      <g transform="translate(458.846657 368.320037)scale(0.1 -0.1)">
       <use xlink:href="#DejaVuSans-50"/>
       <use x="63.623047" xlink:href="#DejaVuSans-53"/>
       <use x="127.246094" xlink:href="#DejaVuSans-48"/>
      </g>
     </g>
    </g>
    <g id="xtick_20">
     <g id="line2d_27">
      <g>
       <use style="stroke:#000000;stroke-width:0.8;" x="544.514681" xlink:href="#m94ff761098" y="353.7216"/>
      </g>
     </g>
     <g id="text_32">
      <!-- 300 -->
      <g transform="translate(534.970931 368.320037)scale(0.1 -0.1)">
       <use xlink:href="#DejaVuSans-51"/>
       <use x="63.623047" xlink:href="#DejaVuSans-48"/>
       <use x="127.246094" xlink:href="#DejaVuSans-48"/>
      </g>
     </g>
    </g>
    <g id="text_33">
     <!-- Frequency -->
     <g transform="translate(305.163313 381.998162)scale(0.1 -0.1)">
      <use xlink:href="#DejaVuSans-70"/>
      <use x="50.269531" xlink:href="#DejaVuSans-114"/>
      <use x="89.132812" xlink:href="#DejaVuSans-101"/>
      <use x="150.65625" xlink:href="#DejaVuSans-113"/>
      <use x="214.132812" xlink:href="#DejaVuSans-117"/>
      <use x="277.511719" xlink:href="#DejaVuSans-101"/>
      <use x="339.035156" xlink:href="#DejaVuSans-110"/>
      <use x="402.414062" xlink:href="#DejaVuSans-99"/>
      <use x="457.394531" xlink:href="#DejaVuSans-121"/>
     </g>
    </g>
   </g>
   <g id="matplotlib.axis_6">
    <g id="ytick_6">
     <g id="line2d_28">
      <g>
       <use style="stroke:#000000;stroke-width:0.8;" x="80.73" xlink:href="#m5bb72061f6" y="353.254126"/>
      </g>
     </g>
     <g id="text_34">
      <!-- 0.0 -->
      <g transform="translate(57.826875 357.053344)scale(0.1 -0.1)">
       <use xlink:href="#DejaVuSans-48"/>
       <use x="63.623047" xlink:href="#DejaVuSans-46"/>
       <use x="95.410156" xlink:href="#DejaVuSans-48"/>
      </g>
     </g>
    </g>
    <g id="ytick_7">
     <g id="line2d_29">
      <g>
       <use style="stroke:#000000;stroke-width:0.8;" x="80.73" xlink:href="#m5bb72061f6" y="323.622501"/>
      </g>
     </g>
     <g id="text_35">
      <!-- 0.5 -->
      <g transform="translate(57.826875 327.42172)scale(0.1 -0.1)">
       <use xlink:href="#DejaVuSans-48"/>
       <use x="63.623047" xlink:href="#DejaVuSans-46"/>
       <use x="95.410156" xlink:href="#DejaVuSans-53"/>
      </g>
     </g>
    </g>
    <g id="ytick_8">
     <g id="line2d_30">
      <g>
       <use style="stroke:#000000;stroke-width:0.8;" x="80.73" xlink:href="#m5bb72061f6" y="293.990877"/>
      </g>
     </g>
     <g id="text_36">
      <!-- 1.0 -->
      <g transform="translate(57.826875 297.790096)scale(0.1 -0.1)">
       <use xlink:href="#DejaVuSans-49"/>
       <use x="63.623047" xlink:href="#DejaVuSans-46"/>
       <use x="95.410156" xlink:href="#DejaVuSans-48"/>
      </g>
     </g>
    </g>
    <g id="text_37">
     <!-- Power -->
     <g transform="translate(51.747187 335.878715)rotate(-90)scale(0.1 -0.1)">
      <use xlink:href="#DejaVuSans-80"/>
      <use x="56.677734" xlink:href="#DejaVuSans-111"/>
      <use x="117.859375" xlink:href="#DejaVuSans-119"/>
      <use x="199.646484" xlink:href="#DejaVuSans-101"/>
      <use x="261.169922" xlink:href="#DejaVuSans-114"/>
     </g>
    </g>
    <g id="text_38">
     <!-- 1e51 -->
     <g transform="translate(80.73 284.807705)scale(0.1 -0.1)">
      <use xlink:href="#DejaVuSans-49"/>
      <use x="63.623047" xlink:href="#DejaVuSans-101"/>
      <use x="125.146484" xlink:href="#DejaVuSans-53"/>
      <use x="188.769531" xlink:href="#DejaVuSans-49"/>
     </g>
    </g>
   </g>
   <g id="line2d_31">
    <path clip-path="url(#pb3db7d1da2)" d="M 87.76904 353.254126 
L 265.89984 353.172802 
L 267.422325 349.224703 
L 270.467296 290.924201 
L 271.989782 315.781667 
L 273.512267 345.171353 
L 275.034753 352.531364 
L 276.557238 353.216996 
L 282.64718 353.254065 
L 357.248968 353.235153 
L 358.771453 352.938869 
L 360.293939 350.510628 
L 361.816424 346.994806 
L 363.33891 348.839595 
L 364.861395 352.215642 
L 366.383881 353.179837 
L 369.428852 353.25412 
L 448.598096 353.252778 
L 450.120582 353.11988 
L 453.165553 351.270923 
L 454.688038 351.918024 
L 456.210523 352.855177 
L 457.733009 353.184391 
L 460.77798 353.253276 
L 646.84 353.254126 
L 646.84 353.254126 
" style="fill:none;stroke:#1f77b4;stroke-linecap:square;stroke-width:1.5;"/>
   </g>
   <g id="line2d_32">
    <defs>
     <path d="M 0 3 
C 0.795609 3 1.55874 2.683901 2.12132 2.12132 
C 2.683901 1.55874 3 0.795609 3 0 
C 3 -0.795609 2.683901 -1.55874 2.12132 -2.12132 
C 1.55874 -2.683901 0.795609 -3 0 -3 
C -0.795609 -3 -1.55874 -2.683901 -2.12132 -2.12132 
C -2.683901 -1.55874 -3 -0.795609 -3 0 
C -3 0.795609 -2.683901 1.55874 -2.12132 2.12132 
C -1.55874 2.683901 -0.795609 3 0 3 
z
" id="m8b7b8d3841" style="stroke:#ff7f0e;"/>
    </defs>
    <g clip-path="url(#pb3db7d1da2)">
     <use style="fill:#ff7f0e;stroke:#ff7f0e;" x="270.467296" xlink:href="#m8b7b8d3841" y="290.924201"/>
    </g>
   </g>
   <g id="patch_13">
    <path d="M 80.73 353.7216 
L 80.73 287.807705 
" style="fill:none;stroke:#000000;stroke-linecap:square;stroke-linejoin:miter;stroke-width:0.8;"/>
   </g>
   <g id="patch_14">
    <path d="M 581.256 353.7216 
L 581.256 287.807705 
" style="fill:none;stroke:#000000;stroke-linecap:square;stroke-linejoin:miter;stroke-width:0.8;"/>
   </g>
   <g id="patch_15">
    <path d="M 80.73 353.7216 
L 581.256 353.7216 
" style="fill:none;stroke:#000000;stroke-linecap:square;stroke-linejoin:miter;stroke-width:0.8;"/>
   </g>
   <g id="patch_16">
    <path d="M 80.73 287.807705 
L 581.256 287.807705 
" style="fill:none;stroke:#000000;stroke-linecap:square;stroke-linejoin:miter;stroke-width:0.8;"/>
   </g>
   <g id="text_39">
    <!-- Power Spectrum after downsample by product_num of 5 and multiply -->
    <g transform="translate(122.28675 281.807705)scale(0.12 -0.12)">
     <use xlink:href="#DejaVuSans-80"/>
     <use x="56.677734" xlink:href="#DejaVuSans-111"/>
     <use x="117.859375" xlink:href="#DejaVuSans-119"/>
     <use x="199.646484" xlink:href="#DejaVuSans-101"/>
     <use x="261.169922" xlink:href="#DejaVuSans-114"/>
     <use x="302.283203" xlink:href="#DejaVuSans-32"/>
     <use x="334.070312" xlink:href="#DejaVuSans-83"/>
     <use x="397.546875" xlink:href="#DejaVuSans-112"/>
     <use x="461.023438" xlink:href="#DejaVuSans-101"/>
     <use x="522.546875" xlink:href="#DejaVuSans-99"/>
     <use x="577.527344" xlink:href="#DejaVuSans-116"/>
     <use x="616.736328" xlink:href="#DejaVuSans-114"/>
     <use x="657.849609" xlink:href="#DejaVuSans-117"/>
     <use x="721.228516" xlink:href="#DejaVuSans-109"/>
     <use x="818.640625" xlink:href="#DejaVuSans-32"/>
     <use x="850.427734" xlink:href="#DejaVuSans-97"/>
     <use x="911.707031" xlink:href="#DejaVuSans-102"/>
     <use x="945.162109" xlink:href="#DejaVuSans-116"/>
     <use x="984.371094" xlink:href="#DejaVuSans-101"/>
     <use x="1045.894531" xlink:href="#DejaVuSans-114"/>
     <use x="1087.007812" xlink:href="#DejaVuSans-32"/>
     <use x="1118.794922" xlink:href="#DejaVuSans-100"/>
     <use x="1182.271484" xlink:href="#DejaVuSans-111"/>
     <use x="1243.453125" xlink:href="#DejaVuSans-119"/>
     <use x="1325.240234" xlink:href="#DejaVuSans-110"/>
     <use x="1388.619141" xlink:href="#DejaVuSans-115"/>
     <use x="1440.71875" xlink:href="#DejaVuSans-97"/>
     <use x="1501.998047" xlink:href="#DejaVuSans-109"/>
     <use x="1599.410156" xlink:href="#DejaVuSans-112"/>
     <use x="1662.886719" xlink:href="#DejaVuSans-108"/>
     <use x="1690.669922" xlink:href="#DejaVuSans-101"/>
     <use x="1752.193359" xlink:href="#DejaVuSans-32"/>
     <use x="1783.980469" xlink:href="#DejaVuSans-98"/>
     <use x="1847.457031" xlink:href="#DejaVuSans-121"/>
     <use x="1906.636719" xlink:href="#DejaVuSans-32"/>
     <use x="1938.423828" xlink:href="#DejaVuSans-112"/>
     <use x="2001.900391" xlink:href="#DejaVuSans-114"/>
     <use x="2040.763672" xlink:href="#DejaVuSans-111"/>
     <use x="2101.945312" xlink:href="#DejaVuSans-100"/>
     <use x="2165.421875" xlink:href="#DejaVuSans-117"/>
     <use x="2228.800781" xlink:href="#DejaVuSans-99"/>
     <use x="2283.78125" xlink:href="#DejaVuSans-116"/>
     <use x="2322.990234" xlink:href="#DejaVuSans-95"/>
     <use x="2372.990234" xlink:href="#DejaVuSans-110"/>
     <use x="2436.369141" xlink:href="#DejaVuSans-117"/>
     <use x="2499.748047" xlink:href="#DejaVuSans-109"/>
     <use x="2597.160156" xlink:href="#DejaVuSans-32"/>
     <use x="2628.947266" xlink:href="#DejaVuSans-111"/>
     <use x="2690.128906" xlink:href="#DejaVuSans-102"/>
     <use x="2725.333984" xlink:href="#DejaVuSans-32"/>
     <use x="2757.121094" xlink:href="#DejaVuSans-53"/>
     <use x="2820.744141" xlink:href="#DejaVuSans-32"/>
     <use x="2852.53125" xlink:href="#DejaVuSans-97"/>
     <use x="2913.810547" xlink:href="#DejaVuSans-110"/>
     <use x="2977.189453" xlink:href="#DejaVuSans-100"/>
     <use x="3040.666016" xlink:href="#DejaVuSans-32"/>
     <use x="3072.453125" xlink:href="#DejaVuSans-109"/>
     <use x="3169.865234" xlink:href="#DejaVuSans-117"/>
     <use x="3233.244141" xlink:href="#DejaVuSans-108"/>
     <use x="3261.027344" xlink:href="#DejaVuSans-116"/>
     <use x="3300.236328" xlink:href="#DejaVuSans-105"/>
     <use x="3328.019531" xlink:href="#DejaVuSans-112"/>
     <use x="3391.496094" xlink:href="#DejaVuSans-108"/>
     <use x="3419.279297" xlink:href="#DejaVuSans-121"/>
    </g>
   </g>
  </g>
 </g>
 <defs>
  <clipPath id="pb96a1a7968">
   <rect height="65.913895" width="500.526" x="80.73" y="47.6928"/>
  </clipPath>
  <clipPath id="p4f9738c0a1">
   <rect height="65.913895" width="500.526" x="80.73" y="167.750252"/>
  </clipPath>
  <clipPath id="pb3db7d1da2">
   <rect height="65.913895" width="500.526" x="80.73" y="287.807705"/>
  </clipPath>
 </defs>
</svg>
