<?xml version="1.0" encoding="utf-8" standalone="no"?>
<!DOCTYPE svg PUBLIC "-//W3C//DTD SVG 1.1//EN"
  "http://www.w3.org/Graphics/SVG/1.1/DTD/svg11.dtd">
<!-- Created with matplotlib (https://matplotlib.org/) -->
<svg height="544.32pt" version="1.1" viewBox="0 0 884.16 544.32" width="884.16pt" xmlns="http://www.w3.org/2000/svg" xmlns:xlink="http://www.w3.org/1999/xlink">
 <metadata>
  <rdf:RDF xmlns:cc="http://creativecommons.org/ns#" xmlns:dc="http://purl.org/dc/elements/1.1/" xmlns:rdf="http://www.w3.org/1999/02/22-rdf-syntax-ns#">
   <cc:Work>
    <dc:type rdf:resource="http://purl.org/dc/dcmitype/StillImage"/>
    <dc:date>2020-11-14T18:46:14.423587</dc:date>
    <dc:format>image/svg+xml</dc:format>
    <dc:creator>
     <cc:Agent>
      <dc:title>Matplotlib v3.3.1, https://matplotlib.org/</dc:title>
     </cc:Agent>
    </dc:creator>
   </cc:Work>
  </rdf:RDF>
 </metadata>
 <defs>
  <style type="text/css">*{stroke-linecap:butt;stroke-linejoin:round;}</style>
 </defs>
 <g id="figure_1">
  <g id="patch_1">
   <path d="M 0 544.32 
L 884.16 544.32 
L 884.16 0 
L 0 0 
z
" style="fill:#ffffff;"/>
  </g>
  <g id="axes_1">
   <g id="patch_2">
    <path d="M 110.52 127.345563 
L 795.744 127.345563 
L 795.744 65.3184 
L 110.52 65.3184 
z
" style="fill:#ffffff;"/>
   </g>
   <g id="matplotlib.axis_1">
    <g id="xtick_1">
     <g id="line2d_1">
      <defs>
       <path d="M 0 0 
L 0 3.5 
" id="m9ee83fd77c" style="stroke:#000000;stroke-width:0.8;"/>
      </defs>
      <g>
       <use style="stroke:#000000;stroke-width:0.8;" x="141.666545" xlink:href="#m9ee83fd77c" y="127.345563"/>
      </g>
     </g>
     <g id="text_1">
      <!-- 0 -->
      <g transform="translate(138.485295 141.944)scale(0.1 -0.1)">
       <defs>
        <path d="M 31.78125 66.40625 
Q 24.171875 66.40625 20.328125 58.90625 
Q 16.5 51.421875 16.5 36.375 
Q 16.5 21.390625 20.328125 13.890625 
Q 24.171875 6.390625 31.78125 6.390625 
Q 39.453125 6.390625 43.28125 13.890625 
Q 47.125 21.390625 47.125 36.375 
Q 47.125 51.421875 43.28125 58.90625 
Q 39.453125 66.40625 31.78125 66.40625 
z
M 31.78125 74.21875 
Q 44.046875 74.21875 50.515625 64.515625 
Q 56.984375 54.828125 56.984375 36.375 
Q 56.984375 17.96875 50.515625 8.265625 
Q 44.046875 -1.421875 31.78125 -1.421875 
Q 19.53125 -1.421875 13.0625 8.265625 
Q 6.59375 17.96875 6.59375 36.375 
Q 6.59375 54.828125 13.0625 64.515625 
Q 19.53125 74.21875 31.78125 74.21875 
z
" id="DejaVuSans-48"/>
       </defs>
       <use xlink:href="#DejaVuSans-48"/>
      </g>
     </g>
    </g>
    <g id="xtick_2">
     <g id="line2d_2">
      <g>
       <use style="stroke:#000000;stroke-width:0.8;" x="239.304619" xlink:href="#m9ee83fd77c" y="127.345563"/>
      </g>
     </g>
     <g id="text_2">
      <!-- 50 -->
      <g transform="translate(232.942119 141.944)scale(0.1 -0.1)">
       <defs>
        <path d="M 10.796875 72.90625 
L 49.515625 72.90625 
L 49.515625 64.59375 
L 19.828125 64.59375 
L 19.828125 46.734375 
Q 21.96875 47.46875 24.109375 47.828125 
Q 26.265625 48.1875 28.421875 48.1875 
Q 40.625 48.1875 47.75 41.5 
Q 54.890625 34.8125 54.890625 23.390625 
Q 54.890625 11.625 47.5625 5.09375 
Q 40.234375 -1.421875 26.90625 -1.421875 
Q 22.3125 -1.421875 17.546875 -0.640625 
Q 12.796875 0.140625 7.71875 1.703125 
L 7.71875 11.625 
Q 12.109375 9.234375 16.796875 8.0625 
Q 21.484375 6.890625 26.703125 6.890625 
Q 35.15625 6.890625 40.078125 11.328125 
Q 45.015625 15.765625 45.015625 23.390625 
Q 45.015625 31 40.078125 35.4375 
Q 35.15625 39.890625 26.703125 39.890625 
Q 22.75 39.890625 18.8125 39.015625 
Q 14.890625 38.140625 10.796875 36.28125 
z
" id="DejaVuSans-53"/>
       </defs>
       <use xlink:href="#DejaVuSans-53"/>
       <use x="63.623047" xlink:href="#DejaVuSans-48"/>
      </g>
     </g>
    </g>
    <g id="xtick_3">
     <g id="line2d_3">
      <g>
       <use style="stroke:#000000;stroke-width:0.8;" x="336.942693" xlink:href="#m9ee83fd77c" y="127.345563"/>
      </g>
     </g>
     <g id="text_3">
      <!-- 100 -->
      <g transform="translate(327.398943 141.944)scale(0.1 -0.1)">
       <defs>
        <path d="M 12.40625 8.296875 
L 28.515625 8.296875 
L 28.515625 63.921875 
L 10.984375 60.40625 
L 10.984375 69.390625 
L 28.421875 72.90625 
L 38.28125 72.90625 
L 38.28125 8.296875 
L 54.390625 8.296875 
L 54.390625 0 
L 12.40625 0 
z
" id="DejaVuSans-49"/>
       </defs>
       <use xlink:href="#DejaVuSans-49"/>
       <use x="63.623047" xlink:href="#DejaVuSans-48"/>
       <use x="127.246094" xlink:href="#DejaVuSans-48"/>
      </g>
     </g>
    </g>
    <g id="xtick_4">
     <g id="line2d_4">
      <g>
       <use style="stroke:#000000;stroke-width:0.8;" x="434.580766" xlink:href="#m9ee83fd77c" y="127.345563"/>
      </g>
     </g>
     <g id="text_4">
      <!-- 150 -->
      <g transform="translate(425.037016 141.944)scale(0.1 -0.1)">
       <use xlink:href="#DejaVuSans-49"/>
       <use x="63.623047" xlink:href="#DejaVuSans-53"/>
       <use x="127.246094" xlink:href="#DejaVuSans-48"/>
      </g>
     </g>
    </g>
    <g id="xtick_5">
     <g id="line2d_5">
      <g>
       <use style="stroke:#000000;stroke-width:0.8;" x="532.21884" xlink:href="#m9ee83fd77c" y="127.345563"/>
      </g>
     </g>
     <g id="text_5">
      <!-- 200 -->
      <g transform="translate(522.67509 141.944)scale(0.1 -0.1)">
       <defs>
        <path d="M 19.1875 8.296875 
L 53.609375 8.296875 
L 53.609375 0 
L 7.328125 0 
L 7.328125 8.296875 
Q 12.9375 14.109375 22.625 23.890625 
Q 32.328125 33.6875 34.8125 36.53125 
Q 39.546875 41.84375 41.421875 45.53125 
Q 43.3125 49.21875 43.3125 52.78125 
Q 43.3125 58.59375 39.234375 62.25 
Q 35.15625 65.921875 28.609375 65.921875 
Q 23.96875 65.921875 18.8125 64.3125 
Q 13.671875 62.703125 7.8125 59.421875 
L 7.8125 69.390625 
Q 13.765625 71.78125 18.9375 73 
Q 24.125 74.21875 28.421875 74.21875 
Q 39.75 74.21875 46.484375 68.546875 
Q 53.21875 62.890625 53.21875 53.421875 
Q 53.21875 48.921875 51.53125 44.890625 
Q 49.859375 40.875 45.40625 35.40625 
Q 44.1875 33.984375 37.640625 27.21875 
Q 31.109375 20.453125 19.1875 8.296875 
z
" id="DejaVuSans-50"/>
       </defs>
       <use xlink:href="#DejaVuSans-50"/>
       <use x="63.623047" xlink:href="#DejaVuSans-48"/>
       <use x="127.246094" xlink:href="#DejaVuSans-48"/>
      </g>
     </g>
    </g>
    <g id="xtick_6">
     <g id="line2d_6">
      <g>
       <use style="stroke:#000000;stroke-width:0.8;" x="629.856913" xlink:href="#m9ee83fd77c" y="127.345563"/>
      </g>
     </g>
     <g id="text_6">
      <!-- 250 -->
      <g transform="translate(620.313163 141.944)scale(0.1 -0.1)">
       <use xlink:href="#DejaVuSans-50"/>
       <use x="63.623047" xlink:href="#DejaVuSans-53"/>
       <use x="127.246094" xlink:href="#DejaVuSans-48"/>
      </g>
     </g>
    </g>
    <g id="xtick_7">
     <g id="line2d_7">
      <g>
       <use style="stroke:#000000;stroke-width:0.8;" x="727.494987" xlink:href="#m9ee83fd77c" y="127.345563"/>
      </g>
     </g>
     <g id="text_7">
      <!-- 300 -->
      <g transform="translate(717.951237 141.944)scale(0.1 -0.1)">
       <defs>
        <path d="M 40.578125 39.3125 
Q 47.65625 37.796875 51.625 33 
Q 55.609375 28.21875 55.609375 21.1875 
Q 55.609375 10.40625 48.1875 4.484375 
Q 40.765625 -1.421875 27.09375 -1.421875 
Q 22.515625 -1.421875 17.65625 -0.515625 
Q 12.796875 0.390625 7.625 2.203125 
L 7.625 11.71875 
Q 11.71875 9.328125 16.59375 8.109375 
Q 21.484375 6.890625 26.8125 6.890625 
Q 36.078125 6.890625 40.9375 10.546875 
Q 45.796875 14.203125 45.796875 21.1875 
Q 45.796875 27.640625 41.28125 31.265625 
Q 36.765625 34.90625 28.71875 34.90625 
L 20.21875 34.90625 
L 20.21875 43.015625 
L 29.109375 43.015625 
Q 36.375 43.015625 40.234375 45.921875 
Q 44.09375 48.828125 44.09375 54.296875 
Q 44.09375 59.90625 40.109375 62.90625 
Q 36.140625 65.921875 28.71875 65.921875 
Q 24.65625 65.921875 20.015625 65.03125 
Q 15.375 64.15625 9.8125 62.3125 
L 9.8125 71.09375 
Q 15.4375 72.65625 20.34375 73.4375 
Q 25.25 74.21875 29.59375 74.21875 
Q 40.828125 74.21875 47.359375 69.109375 
Q 53.90625 64.015625 53.90625 55.328125 
Q 53.90625 49.265625 50.4375 45.09375 
Q 46.96875 40.921875 40.578125 39.3125 
z
" id="DejaVuSans-51"/>
       </defs>
       <use xlink:href="#DejaVuSans-51"/>
       <use x="63.623047" xlink:href="#DejaVuSans-48"/>
       <use x="127.246094" xlink:href="#DejaVuSans-48"/>
      </g>
     </g>
    </g>
    <g id="text_8">
     <!-- Timestamps (samples) -->
     <g transform="translate(396.346063 155.622125)scale(0.1 -0.1)">
      <defs>
       <path d="M -0.296875 72.90625 
L 61.375 72.90625 
L 61.375 64.59375 
L 35.5 64.59375 
L 35.5 0 
L 25.59375 0 
L 25.59375 64.59375 
L -0.296875 64.59375 
z
" id="DejaVuSans-84"/>
       <path d="M 9.421875 54.6875 
L 18.40625 54.6875 
L 18.40625 0 
L 9.421875 0 
z
M 9.421875 75.984375 
L 18.40625 75.984375 
L 18.40625 64.59375 
L 9.421875 64.59375 
z
" id="DejaVuSans-105"/>
       <path d="M 52 44.1875 
Q 55.375 50.25 60.0625 53.125 
Q 64.75 56 71.09375 56 
Q 79.640625 56 84.28125 50.015625 
Q 88.921875 44.046875 88.921875 33.015625 
L 88.921875 0 
L 79.890625 0 
L 79.890625 32.71875 
Q 79.890625 40.578125 77.09375 44.375 
Q 74.3125 48.1875 68.609375 48.1875 
Q 61.625 48.1875 57.5625 43.546875 
Q 53.515625 38.921875 53.515625 30.90625 
L 53.515625 0 
L 44.484375 0 
L 44.484375 32.71875 
Q 44.484375 40.625 41.703125 44.40625 
Q 38.921875 48.1875 33.109375 48.1875 
Q 26.21875 48.1875 22.15625 43.53125 
Q 18.109375 38.875 18.109375 30.90625 
L 18.109375 0 
L 9.078125 0 
L 9.078125 54.6875 
L 18.109375 54.6875 
L 18.109375 46.1875 
Q 21.1875 51.21875 25.484375 53.609375 
Q 29.78125 56 35.6875 56 
Q 41.65625 56 45.828125 52.96875 
Q 50 49.953125 52 44.1875 
z
" id="DejaVuSans-109"/>
       <path d="M 56.203125 29.59375 
L 56.203125 25.203125 
L 14.890625 25.203125 
Q 15.484375 15.921875 20.484375 11.0625 
Q 25.484375 6.203125 34.421875 6.203125 
Q 39.59375 6.203125 44.453125 7.46875 
Q 49.3125 8.734375 54.109375 11.28125 
L 54.109375 2.78125 
Q 49.265625 0.734375 44.1875 -0.34375 
Q 39.109375 -1.421875 33.890625 -1.421875 
Q 20.796875 -1.421875 13.15625 6.1875 
Q 5.515625 13.8125 5.515625 26.8125 
Q 5.515625 40.234375 12.765625 48.109375 
Q 20.015625 56 32.328125 56 
Q 43.359375 56 49.78125 48.890625 
Q 56.203125 41.796875 56.203125 29.59375 
z
M 47.21875 32.234375 
Q 47.125 39.59375 43.09375 43.984375 
Q 39.0625 48.390625 32.421875 48.390625 
Q 24.90625 48.390625 20.390625 44.140625 
Q 15.875 39.890625 15.1875 32.171875 
z
" id="DejaVuSans-101"/>
       <path d="M 44.28125 53.078125 
L 44.28125 44.578125 
Q 40.484375 46.53125 36.375 47.5 
Q 32.28125 48.484375 27.875 48.484375 
Q 21.1875 48.484375 17.84375 46.4375 
Q 14.5 44.390625 14.5 40.28125 
Q 14.5 37.15625 16.890625 35.375 
Q 19.28125 33.59375 26.515625 31.984375 
L 29.59375 31.296875 
Q 39.15625 29.25 43.1875 25.515625 
Q 47.21875 21.78125 47.21875 15.09375 
Q 47.21875 7.46875 41.1875 3.015625 
Q 35.15625 -1.421875 24.609375 -1.421875 
Q 20.21875 -1.421875 15.453125 -0.5625 
Q 10.6875 0.296875 5.421875 2 
L 5.421875 11.28125 
Q 10.40625 8.6875 15.234375 7.390625 
Q 20.0625 6.109375 24.8125 6.109375 
Q 31.15625 6.109375 34.5625 8.28125 
Q 37.984375 10.453125 37.984375 14.40625 
Q 37.984375 18.0625 35.515625 20.015625 
Q 33.0625 21.96875 24.703125 23.78125 
L 21.578125 24.515625 
Q 13.234375 26.265625 9.515625 29.90625 
Q 5.8125 33.546875 5.8125 39.890625 
Q 5.8125 47.609375 11.28125 51.796875 
Q 16.75 56 26.8125 56 
Q 31.78125 56 36.171875 55.265625 
Q 40.578125 54.546875 44.28125 53.078125 
z
" id="DejaVuSans-115"/>
       <path d="M 18.3125 70.21875 
L 18.3125 54.6875 
L 36.8125 54.6875 
L 36.8125 47.703125 
L 18.3125 47.703125 
L 18.3125 18.015625 
Q 18.3125 11.328125 20.140625 9.421875 
Q 21.96875 7.515625 27.59375 7.515625 
L 36.8125 7.515625 
L 36.8125 0 
L 27.59375 0 
Q 17.1875 0 13.234375 3.875 
Q 9.28125 7.765625 9.28125 18.015625 
L 9.28125 47.703125 
L 2.6875 47.703125 
L 2.6875 54.6875 
L 9.28125 54.6875 
L 9.28125 70.21875 
z
" id="DejaVuSans-116"/>
       <path d="M 34.28125 27.484375 
Q 23.390625 27.484375 19.1875 25 
Q 14.984375 22.515625 14.984375 16.5 
Q 14.984375 11.71875 18.140625 8.90625 
Q 21.296875 6.109375 26.703125 6.109375 
Q 34.1875 6.109375 38.703125 11.40625 
Q 43.21875 16.703125 43.21875 25.484375 
L 43.21875 27.484375 
z
M 52.203125 31.203125 
L 52.203125 0 
L 43.21875 0 
L 43.21875 8.296875 
Q 40.140625 3.328125 35.546875 0.953125 
Q 30.953125 -1.421875 24.3125 -1.421875 
Q 15.921875 -1.421875 10.953125 3.296875 
Q 6 8.015625 6 15.921875 
Q 6 25.140625 12.171875 29.828125 
Q 18.359375 34.515625 30.609375 34.515625 
L 43.21875 34.515625 
L 43.21875 35.40625 
Q 43.21875 41.609375 39.140625 45 
Q 35.0625 48.390625 27.6875 48.390625 
Q 23 48.390625 18.546875 47.265625 
Q 14.109375 46.140625 10.015625 43.890625 
L 10.015625 52.203125 
Q 14.9375 54.109375 19.578125 55.046875 
Q 24.21875 56 28.609375 56 
Q 40.484375 56 46.34375 49.84375 
Q 52.203125 43.703125 52.203125 31.203125 
z
" id="DejaVuSans-97"/>
       <path d="M 18.109375 8.203125 
L 18.109375 -20.796875 
L 9.078125 -20.796875 
L 9.078125 54.6875 
L 18.109375 54.6875 
L 18.109375 46.390625 
Q 20.953125 51.265625 25.265625 53.625 
Q 29.59375 56 35.59375 56 
Q 45.5625 56 51.78125 48.09375 
Q 58.015625 40.1875 58.015625 27.296875 
Q 58.015625 14.40625 51.78125 6.484375 
Q 45.5625 -1.421875 35.59375 -1.421875 
Q 29.59375 -1.421875 25.265625 0.953125 
Q 20.953125 3.328125 18.109375 8.203125 
z
M 48.6875 27.296875 
Q 48.6875 37.203125 44.609375 42.84375 
Q 40.53125 48.484375 33.40625 48.484375 
Q 26.265625 48.484375 22.1875 42.84375 
Q 18.109375 37.203125 18.109375 27.296875 
Q 18.109375 17.390625 22.1875 11.75 
Q 26.265625 6.109375 33.40625 6.109375 
Q 40.53125 6.109375 44.609375 11.75 
Q 48.6875 17.390625 48.6875 27.296875 
z
" id="DejaVuSans-112"/>
       <path id="DejaVuSans-32"/>
       <path d="M 31 75.875 
Q 24.46875 64.65625 21.28125 53.65625 
Q 18.109375 42.671875 18.109375 31.390625 
Q 18.109375 20.125 21.3125 9.0625 
Q 24.515625 -2 31 -13.1875 
L 23.1875 -13.1875 
Q 15.875 -1.703125 12.234375 9.375 
Q 8.59375 20.453125 8.59375 31.390625 
Q 8.59375 42.28125 12.203125 53.3125 
Q 15.828125 64.359375 23.1875 75.875 
z
" id="DejaVuSans-40"/>
       <path d="M 9.421875 75.984375 
L 18.40625 75.984375 
L 18.40625 0 
L 9.421875 0 
z
" id="DejaVuSans-108"/>
       <path d="M 8.015625 75.875 
L 15.828125 75.875 
Q 23.140625 64.359375 26.78125 53.3125 
Q 30.421875 42.28125 30.421875 31.390625 
Q 30.421875 20.453125 26.78125 9.375 
Q 23.140625 -1.703125 15.828125 -13.1875 
L 8.015625 -13.1875 
Q 14.5 -2 17.703125 9.0625 
Q 20.90625 20.125 20.90625 31.390625 
Q 20.90625 42.671875 17.703125 53.65625 
Q 14.5 64.65625 8.015625 75.875 
z
" id="DejaVuSans-41"/>
      </defs>
      <use xlink:href="#DejaVuSans-84"/>
      <use x="57.958984" xlink:href="#DejaVuSans-105"/>
      <use x="85.742188" xlink:href="#DejaVuSans-109"/>
      <use x="183.154297" xlink:href="#DejaVuSans-101"/>
      <use x="244.677734" xlink:href="#DejaVuSans-115"/>
      <use x="296.777344" xlink:href="#DejaVuSans-116"/>
      <use x="335.986328" xlink:href="#DejaVuSans-97"/>
      <use x="397.265625" xlink:href="#DejaVuSans-109"/>
      <use x="494.677734" xlink:href="#DejaVuSans-112"/>
      <use x="558.154297" xlink:href="#DejaVuSans-115"/>
      <use x="610.253906" xlink:href="#DejaVuSans-32"/>
      <use x="642.041016" xlink:href="#DejaVuSans-40"/>
      <use x="681.054688" xlink:href="#DejaVuSans-115"/>
      <use x="733.154297" xlink:href="#DejaVuSans-97"/>
      <use x="794.433594" xlink:href="#DejaVuSans-109"/>
      <use x="891.845703" xlink:href="#DejaVuSans-112"/>
      <use x="955.322266" xlink:href="#DejaVuSans-108"/>
      <use x="983.105469" xlink:href="#DejaVuSans-101"/>
      <use x="1044.628906" xlink:href="#DejaVuSans-115"/>
      <use x="1096.728516" xlink:href="#DejaVuSans-41"/>
     </g>
    </g>
   </g>
   <g id="matplotlib.axis_2">
    <g id="ytick_1">
     <g id="line2d_8">
      <defs>
       <path d="M 0 0 
L -3.5 0 
" id="mf6e437e326" style="stroke:#000000;stroke-width:0.8;"/>
      </defs>
      <g>
       <use style="stroke:#000000;stroke-width:0.8;" x="110.52" xlink:href="#mf6e437e326" y="104.972018"/>
      </g>
     </g>
     <g id="text_9">
      <!-- 0 -->
      <g transform="translate(97.1575 108.771237)scale(0.1 -0.1)">
       <use xlink:href="#DejaVuSans-48"/>
      </g>
     </g>
    </g>
    <g id="ytick_2">
     <g id="line2d_9">
      <g>
       <use style="stroke:#000000;stroke-width:0.8;" x="110.52" xlink:href="#mf6e437e326" y="70.672547"/>
      </g>
     </g>
     <g id="text_10">
      <!-- 10000 -->
      <g transform="translate(71.7075 74.471766)scale(0.1 -0.1)">
       <use xlink:href="#DejaVuSans-49"/>
       <use x="63.623047" xlink:href="#DejaVuSans-48"/>
       <use x="127.246094" xlink:href="#DejaVuSans-48"/>
       <use x="190.869141" xlink:href="#DejaVuSans-48"/>
       <use x="254.492188" xlink:href="#DejaVuSans-48"/>
      </g>
     </g>
    </g>
    <g id="text_11">
     <!-- Amplitude -->
     <g transform="translate(65.627812 121.954638)rotate(-90)scale(0.1 -0.1)">
      <defs>
       <path d="M 34.1875 63.1875 
L 20.796875 26.90625 
L 47.609375 26.90625 
z
M 28.609375 72.90625 
L 39.796875 72.90625 
L 67.578125 0 
L 57.328125 0 
L 50.6875 18.703125 
L 17.828125 18.703125 
L 11.1875 0 
L 0.78125 0 
z
" id="DejaVuSans-65"/>
       <path d="M 8.5 21.578125 
L 8.5 54.6875 
L 17.484375 54.6875 
L 17.484375 21.921875 
Q 17.484375 14.15625 20.5 10.265625 
Q 23.53125 6.390625 29.59375 6.390625 
Q 36.859375 6.390625 41.078125 11.03125 
Q 45.3125 15.671875 45.3125 23.6875 
L 45.3125 54.6875 
L 54.296875 54.6875 
L 54.296875 0 
L 45.3125 0 
L 45.3125 8.40625 
Q 42.046875 3.421875 37.71875 1 
Q 33.40625 -1.421875 27.6875 -1.421875 
Q 18.265625 -1.421875 13.375 4.4375 
Q 8.5 10.296875 8.5 21.578125 
z
M 31.109375 56 
z
" id="DejaVuSans-117"/>
       <path d="M 45.40625 46.390625 
L 45.40625 75.984375 
L 54.390625 75.984375 
L 54.390625 0 
L 45.40625 0 
L 45.40625 8.203125 
Q 42.578125 3.328125 38.25 0.953125 
Q 33.9375 -1.421875 27.875 -1.421875 
Q 17.96875 -1.421875 11.734375 6.484375 
Q 5.515625 14.40625 5.515625 27.296875 
Q 5.515625 40.1875 11.734375 48.09375 
Q 17.96875 56 27.875 56 
Q 33.9375 56 38.25 53.625 
Q 42.578125 51.265625 45.40625 46.390625 
z
M 14.796875 27.296875 
Q 14.796875 17.390625 18.875 11.75 
Q 22.953125 6.109375 30.078125 6.109375 
Q 37.203125 6.109375 41.296875 11.75 
Q 45.40625 17.390625 45.40625 27.296875 
Q 45.40625 37.203125 41.296875 42.84375 
Q 37.203125 48.484375 30.078125 48.484375 
Q 22.953125 48.484375 18.875 42.84375 
Q 14.796875 37.203125 14.796875 27.296875 
z
" id="DejaVuSans-100"/>
      </defs>
      <use xlink:href="#DejaVuSans-65"/>
      <use x="68.408203" xlink:href="#DejaVuSans-109"/>
      <use x="165.820312" xlink:href="#DejaVuSans-112"/>
      <use x="229.296875" xlink:href="#DejaVuSans-108"/>
      <use x="257.080078" xlink:href="#DejaVuSans-105"/>
      <use x="284.863281" xlink:href="#DejaVuSans-116"/>
      <use x="324.072266" xlink:href="#DejaVuSans-117"/>
      <use x="387.451172" xlink:href="#DejaVuSans-100"/>
      <use x="450.927734" xlink:href="#DejaVuSans-101"/>
     </g>
    </g>
   </g>
   <g id="line2d_10">
    <path clip-path="url(#p11a6c32b3b)" d="M 141.666545 103.624049 
L 143.619307 98.811833 
L 145.572068 95.12464 
L 147.52483 92.192035 
L 149.477591 92.154306 
L 151.430353 96.373141 
L 153.383114 100.026034 
L 155.335876 106.265108 
L 157.288637 111.753023 
L 159.241399 116.390312 
L 161.19416 120.38277 
L 163.146922 120.602287 
L 165.099683 119.73794 
L 167.052445 114.877705 
L 169.005206 108.343656 
L 170.957968 102.454437 
L 172.910729 97.213478 
L 174.86349 96.321692 
L 176.816252 97.165459 
L 178.769013 100.122073 
L 180.721775 103.52801 
L 182.674536 104.629023 
L 184.627298 105.002888 
L 188.532821 101.449462 
L 190.485582 100.166662 
L 192.438344 98.626616 
L 194.391105 98.928451 
L 196.343867 100.197532 
L 198.296628 103.356513 
L 200.24939 108.010951 
L 202.202151 111.921091 
L 204.154913 115.176111 
L 206.107674 115.498526 
L 208.060435 113.224471 
L 210.013197 109.787664 
L 211.965958 105.733466 
L 213.91872 103.010088 
L 215.871481 101.181927 
L 217.824243 100.797772 
L 223.682527 103.178156 
L 229.540812 103.404532 
L 231.493573 101.850766 
L 233.446335 99.827097 
L 235.399096 97.992076 
L 237.351858 97.542753 
L 239.304619 98.475698 
L 241.25738 100.379319 
L 247.115665 109.37264 
L 249.068426 111.35172 
L 251.021188 113.100993 
L 252.973949 114.246595 
L 254.926711 111.879931 
L 258.832234 106.076461 
L 260.784995 102.756272 
L 262.737757 101.072168 
L 264.690518 99.68647 
L 266.64328 99.494393 
L 268.596041 100.32787 
L 270.548803 100.825212 
L 276.407087 104.083662 
L 278.359848 104.978878 
L 280.31261 106.062741 
L 282.265371 107.324962 
L 284.218133 108.158439 
L 288.123656 111.464908 
L 290.076417 112.833457 
L 292.029179 113.773262 
L 293.98194 113.310219 
L 295.934702 111.927951 
L 299.840225 107.729696 
L 303.745748 104.553565 
L 305.698509 103.55202 
L 307.65127 101.936515 
L 309.604032 101.356854 
L 311.556793 102.310379 
L 313.509555 103.397672 
L 315.462316 105.414481 
L 317.415078 106.745301 
L 319.367839 106.831049 
L 321.320601 106.79675 
L 323.273362 107.167184 
L 327.178885 108.669501 
L 329.131647 109.708775 
L 331.084408 109.695055 
L 333.03717 109.304041 
L 336.942693 110.312446 
L 338.895454 110.405054 
L 340.848215 110.799498 
L 342.800977 110.600561 
L 344.753738 108.652351 
L 346.7065 106.453755 
L 348.659261 104.85197 
L 350.612023 103.991053 
L 352.564784 104.968588 
L 356.470307 106.14506 
L 360.37583 109.276602 
L 362.328592 110.552542 
L 364.281353 109.142834 
L 366.234115 102.653374 
L 368.186876 91.097882 
L 370.139638 81.229924 
L 372.092399 77.62848 
L 374.04516 78.582005 
L 375.997922 88.134408 
L 377.950683 101.843906 
L 379.903445 113.011814 
L 381.856206 121.669 
L 383.808968 124.203731 
L 385.761729 123.243346 
L 387.714491 119.683061 
L 391.620014 107.726266 
L 393.572775 100.917821 
L 395.525537 96.530918 
L 397.478298 94.795365 
L 399.43106 95.80377 
L 401.383821 100.002025 
L 403.336583 102.581345 
L 405.289344 104.560424 
L 407.242105 103.311924 
L 409.194867 98.191013 
L 411.147628 94.023627 
L 413.10039 91.410007 
L 415.053151 92.915754 
L 417.005913 97.529033 
L 420.911436 109.653896 
L 422.864197 113.828141 
L 424.816959 117.453595 
L 426.76972 118.907893 
L 428.722482 118.163594 
L 430.675243 115.601424 
L 436.533528 98.167003 
L 438.486289 95.165799 
L 440.43905 96.081595 
L 442.391812 98.479128 
L 444.344573 102.046273 
L 446.297335 103.462841 
L 448.250096 103.267334 
L 450.202858 102.543616 
L 452.155619 100.749753 
L 454.108381 100.379319 
L 456.061142 100.269561 
L 458.013904 101.109898 
L 459.966665 103.287914 
L 461.919427 105.061197 
L 463.872188 108.07269 
L 465.82495 110.6966 
L 467.777711 112.61394 
L 469.730472 113.385678 
L 471.683234 111.927951 
L 473.635995 109.753364 
L 475.588757 106.522354 
L 477.541518 103.661778 
L 479.49428 102.022264 
L 481.447041 101.164777 
L 483.399803 102.090863 
L 487.305326 103.661778 
L 489.258087 104.272309 
L 491.210849 103.709798 
L 493.16361 103.514291 
L 495.116372 102.807721 
L 497.069133 101.308835 
L 500.974656 98.647196 
L 502.927417 98.232172 
L 504.880179 99.988305 
L 506.83294 103.54859 
L 508.785702 106.542934 
L 510.738463 107.657667 
L 512.691225 108.642061 
L 514.643986 109.122254 
L 516.596748 108.004091 
L 518.549509 107.932062 
L 520.502271 108.75182 
L 522.455032 108.384815 
L 524.407794 107.798294 
L 526.360555 106.573803 
L 528.313317 105.215544 
L 530.266078 104.299748 
L 532.21884 103.850425 
L 534.171601 104.735352 
L 536.124362 104.18656 
L 538.077124 102.958639 
L 540.029885 102.149172 
L 541.982647 101.521491 
L 543.935408 102.584775 
L 545.88817 104.378637 
L 547.840931 107.091725 
L 549.793693 109.087955 
L 553.699216 109.533848 
L 555.651977 109.170273 
L 557.604739 109.972881 
L 559.5575 111.571236 
L 561.510262 111.835342 
L 563.463023 111.578096 
L 567.368546 107.259793 
L 569.321307 105.46936 
L 571.274069 103.421682 
L 573.22683 102.629364 
L 575.179592 101.325984 
L 577.132353 100.550816 
L 579.085115 100.345019 
L 581.037876 101.147627 
L 582.990638 104.124821 
L 584.943399 106.405736 
L 586.896161 109.640176 
L 588.848922 111.883361 
L 590.801684 111.35172 
L 592.754445 111.766743 
L 594.707207 111.34829 
L 596.659968 108.549453 
L 598.61273 106.13134 
L 602.518252 104.375207 
L 604.471014 103.167866 
L 608.376537 107.246073 
L 610.329298 106.690422 
L 612.28206 107.074576 
L 614.234821 106.440035 
L 616.187583 104.618734 
L 618.140344 104.769651 
L 622.045867 105.966703 
L 623.998629 107.664527 
L 625.95139 111.135633 
L 627.904152 115.762632 
L 629.856913 118.44485 
L 631.809675 118.005817 
L 633.762436 110.799498 
L 637.667959 79.535531 
L 639.62072 70.082596 
L 641.573482 68.137816 
L 643.526243 76.246211 
L 647.431766 107.510179 
L 649.384528 117.700552 
L 651.337289 122.927791 
L 653.290051 124.526146 
L 655.242812 122.114894 
L 657.195574 118.266493 
L 659.148335 113.478287 
L 663.053858 101.336274 
L 665.00662 97.649081 
L 666.959381 99.624731 
L 668.912142 103.919024 
L 670.864904 107.657667 
L 672.817665 109.280032 
L 674.770427 104.807381 
L 678.67595 89.695034 
L 680.628711 85.771174 
L 682.581473 87.894312 
L 684.534234 92.850585 
L 688.439757 107.43472 
L 692.34528 117.494755 
L 694.298042 120.37248 
L 696.250803 121.130499 
L 698.203565 118.595768 
L 700.156326 112.284665 
L 704.061849 97.968066 
L 706.01461 94.935993 
L 707.967372 96.184494 
L 709.920133 99.199417 
L 711.872895 103.311924 
L 713.825656 105.160665 
L 715.778418 104.972018 
L 717.731179 103.123277 
L 719.683941 100.766903 
L 721.636702 100.008885 
L 723.589464 99.106809 
L 725.542225 99.350335 
L 727.494987 100.540526 
L 729.447748 101.981104 
L 731.40051 105.376752 
L 735.306032 112.963795 
L 737.258794 114.726788 
L 739.211555 112.888336 
L 741.164317 109.262882 
L 743.117078 104.975448 
L 745.06984 102.104582 
L 747.022601 101.511201 
L 748.975363 102.780282 
L 750.928124 104.234579 
L 752.880886 104.323758 
L 754.833647 104.532985 
L 758.73917 104.18313 
L 760.691932 103.987623 
L 762.644693 103.150716 
L 764.597455 101.909075 
L 764.597455 101.909075 
" style="fill:none;stroke:#1f77b4;stroke-linecap:square;stroke-width:1.5;"/>
   </g>
   <g id="patch_3">
    <path d="M 110.52 127.345563 
L 110.52 65.3184 
" style="fill:none;stroke:#000000;stroke-linecap:square;stroke-linejoin:miter;stroke-width:0.8;"/>
   </g>
   <g id="patch_4">
    <path d="M 795.744 127.345563 
L 795.744 65.3184 
" style="fill:none;stroke:#000000;stroke-linecap:square;stroke-linejoin:miter;stroke-width:0.8;"/>
   </g>
   <g id="patch_5">
    <path d="M 110.52 127.345563 
L 795.744 127.345563 
" style="fill:none;stroke:#000000;stroke-linecap:square;stroke-linejoin:miter;stroke-width:0.8;"/>
   </g>
   <g id="patch_6">
    <path d="M 110.52 65.3184 
L 795.744 65.3184 
" style="fill:none;stroke:#000000;stroke-linecap:square;stroke-linejoin:miter;stroke-width:0.8;"/>
   </g>
   <g id="text_12">
    <!-- A window with size 320 sample of lab_male.wav using rectangular window -->
    <g transform="translate(229.162313 59.3184)scale(0.12 -0.12)">
     <defs>
      <path d="M 4.203125 54.6875 
L 13.1875 54.6875 
L 24.421875 12.015625 
L 35.59375 54.6875 
L 46.1875 54.6875 
L 57.421875 12.015625 
L 68.609375 54.6875 
L 77.59375 54.6875 
L 63.28125 0 
L 52.6875 0 
L 40.921875 44.828125 
L 29.109375 0 
L 18.5 0 
z
" id="DejaVuSans-119"/>
      <path d="M 54.890625 33.015625 
L 54.890625 0 
L 45.90625 0 
L 45.90625 32.71875 
Q 45.90625 40.484375 42.875 44.328125 
Q 39.84375 48.1875 33.796875 48.1875 
Q 26.515625 48.1875 22.3125 43.546875 
Q 18.109375 38.921875 18.109375 30.90625 
L 18.109375 0 
L 9.078125 0 
L 9.078125 54.6875 
L 18.109375 54.6875 
L 18.109375 46.1875 
Q 21.34375 51.125 25.703125 53.5625 
Q 30.078125 56 35.796875 56 
Q 45.21875 56 50.046875 50.171875 
Q 54.890625 44.34375 54.890625 33.015625 
z
" id="DejaVuSans-110"/>
      <path d="M 30.609375 48.390625 
Q 23.390625 48.390625 19.1875 42.75 
Q 14.984375 37.109375 14.984375 27.296875 
Q 14.984375 17.484375 19.15625 11.84375 
Q 23.34375 6.203125 30.609375 6.203125 
Q 37.796875 6.203125 41.984375 11.859375 
Q 46.1875 17.53125 46.1875 27.296875 
Q 46.1875 37.015625 41.984375 42.703125 
Q 37.796875 48.390625 30.609375 48.390625 
z
M 30.609375 56 
Q 42.328125 56 49.015625 48.375 
Q 55.71875 40.765625 55.71875 27.296875 
Q 55.71875 13.875 49.015625 6.21875 
Q 42.328125 -1.421875 30.609375 -1.421875 
Q 18.84375 -1.421875 12.171875 6.21875 
Q 5.515625 13.875 5.515625 27.296875 
Q 5.515625 40.765625 12.171875 48.375 
Q 18.84375 56 30.609375 56 
z
" id="DejaVuSans-111"/>
      <path d="M 54.890625 33.015625 
L 54.890625 0 
L 45.90625 0 
L 45.90625 32.71875 
Q 45.90625 40.484375 42.875 44.328125 
Q 39.84375 48.1875 33.796875 48.1875 
Q 26.515625 48.1875 22.3125 43.546875 
Q 18.109375 38.921875 18.109375 30.90625 
L 18.109375 0 
L 9.078125 0 
L 9.078125 75.984375 
L 18.109375 75.984375 
L 18.109375 46.1875 
Q 21.34375 51.125 25.703125 53.5625 
Q 30.078125 56 35.796875 56 
Q 45.21875 56 50.046875 50.171875 
Q 54.890625 44.34375 54.890625 33.015625 
z
" id="DejaVuSans-104"/>
      <path d="M 5.515625 54.6875 
L 48.1875 54.6875 
L 48.1875 46.484375 
L 14.40625 7.171875 
L 48.1875 7.171875 
L 48.1875 0 
L 4.296875 0 
L 4.296875 8.203125 
L 38.09375 47.515625 
L 5.515625 47.515625 
z
" id="DejaVuSans-122"/>
      <path d="M 37.109375 75.984375 
L 37.109375 68.5 
L 28.515625 68.5 
Q 23.6875 68.5 21.796875 66.546875 
Q 19.921875 64.59375 19.921875 59.515625 
L 19.921875 54.6875 
L 34.71875 54.6875 
L 34.71875 47.703125 
L 19.921875 47.703125 
L 19.921875 0 
L 10.890625 0 
L 10.890625 47.703125 
L 2.296875 47.703125 
L 2.296875 54.6875 
L 10.890625 54.6875 
L 10.890625 58.5 
Q 10.890625 67.625 15.140625 71.796875 
Q 19.390625 75.984375 28.609375 75.984375 
z
" id="DejaVuSans-102"/>
      <path d="M 48.6875 27.296875 
Q 48.6875 37.203125 44.609375 42.84375 
Q 40.53125 48.484375 33.40625 48.484375 
Q 26.265625 48.484375 22.1875 42.84375 
Q 18.109375 37.203125 18.109375 27.296875 
Q 18.109375 17.390625 22.1875 11.75 
Q 26.265625 6.109375 33.40625 6.109375 
Q 40.53125 6.109375 44.609375 11.75 
Q 48.6875 17.390625 48.6875 27.296875 
z
M 18.109375 46.390625 
Q 20.953125 51.265625 25.265625 53.625 
Q 29.59375 56 35.59375 56 
Q 45.5625 56 51.78125 48.09375 
Q 58.015625 40.1875 58.015625 27.296875 
Q 58.015625 14.40625 51.78125 6.484375 
Q 45.5625 -1.421875 35.59375 -1.421875 
Q 29.59375 -1.421875 25.265625 0.953125 
Q 20.953125 3.328125 18.109375 8.203125 
L 18.109375 0 
L 9.078125 0 
L 9.078125 75.984375 
L 18.109375 75.984375 
z
" id="DejaVuSans-98"/>
      <path d="M 50.984375 -16.609375 
L 50.984375 -23.578125 
L -0.984375 -23.578125 
L -0.984375 -16.609375 
z
" id="DejaVuSans-95"/>
      <path d="M 10.6875 12.40625 
L 21 12.40625 
L 21 0 
L 10.6875 0 
z
" id="DejaVuSans-46"/>
      <path d="M 2.984375 54.6875 
L 12.5 54.6875 
L 29.59375 8.796875 
L 46.6875 54.6875 
L 56.203125 54.6875 
L 35.6875 0 
L 23.484375 0 
z
" id="DejaVuSans-118"/>
      <path d="M 45.40625 27.984375 
Q 45.40625 37.75 41.375 43.109375 
Q 37.359375 48.484375 30.078125 48.484375 
Q 22.859375 48.484375 18.828125 43.109375 
Q 14.796875 37.75 14.796875 27.984375 
Q 14.796875 18.265625 18.828125 12.890625 
Q 22.859375 7.515625 30.078125 7.515625 
Q 37.359375 7.515625 41.375 12.890625 
Q 45.40625 18.265625 45.40625 27.984375 
z
M 54.390625 6.78125 
Q 54.390625 -7.171875 48.1875 -13.984375 
Q 42 -20.796875 29.203125 -20.796875 
Q 24.46875 -20.796875 20.265625 -20.09375 
Q 16.0625 -19.390625 12.109375 -17.921875 
L 12.109375 -9.1875 
Q 16.0625 -11.328125 19.921875 -12.34375 
Q 23.78125 -13.375 27.78125 -13.375 
Q 36.625 -13.375 41.015625 -8.765625 
Q 45.40625 -4.15625 45.40625 5.171875 
L 45.40625 9.625 
Q 42.625 4.78125 38.28125 2.390625 
Q 33.9375 0 27.875 0 
Q 17.828125 0 11.671875 7.65625 
Q 5.515625 15.328125 5.515625 27.984375 
Q 5.515625 40.671875 11.671875 48.328125 
Q 17.828125 56 27.875 56 
Q 33.9375 56 38.28125 53.609375 
Q 42.625 51.21875 45.40625 46.390625 
L 45.40625 54.6875 
L 54.390625 54.6875 
z
" id="DejaVuSans-103"/>
      <path d="M 41.109375 46.296875 
Q 39.59375 47.171875 37.8125 47.578125 
Q 36.03125 48 33.890625 48 
Q 26.265625 48 22.1875 43.046875 
Q 18.109375 38.09375 18.109375 28.8125 
L 18.109375 0 
L 9.078125 0 
L 9.078125 54.6875 
L 18.109375 54.6875 
L 18.109375 46.1875 
Q 20.953125 51.171875 25.484375 53.578125 
Q 30.03125 56 36.53125 56 
Q 37.453125 56 38.578125 55.875 
Q 39.703125 55.765625 41.0625 55.515625 
z
" id="DejaVuSans-114"/>
      <path d="M 48.78125 52.59375 
L 48.78125 44.1875 
Q 44.96875 46.296875 41.140625 47.34375 
Q 37.3125 48.390625 33.40625 48.390625 
Q 24.65625 48.390625 19.8125 42.84375 
Q 14.984375 37.3125 14.984375 27.296875 
Q 14.984375 17.28125 19.8125 11.734375 
Q 24.65625 6.203125 33.40625 6.203125 
Q 37.3125 6.203125 41.140625 7.25 
Q 44.96875 8.296875 48.78125 10.40625 
L 48.78125 2.09375 
Q 45.015625 0.34375 40.984375 -0.53125 
Q 36.96875 -1.421875 32.421875 -1.421875 
Q 20.0625 -1.421875 12.78125 6.34375 
Q 5.515625 14.109375 5.515625 27.296875 
Q 5.515625 40.671875 12.859375 48.328125 
Q 20.21875 56 33.015625 56 
Q 37.15625 56 41.109375 55.140625 
Q 45.0625 54.296875 48.78125 52.59375 
z
" id="DejaVuSans-99"/>
     </defs>
     <use xlink:href="#DejaVuSans-65"/>
     <use x="68.408203" xlink:href="#DejaVuSans-32"/>
     <use x="100.195312" xlink:href="#DejaVuSans-119"/>
     <use x="181.982422" xlink:href="#DejaVuSans-105"/>
     <use x="209.765625" xlink:href="#DejaVuSans-110"/>
     <use x="273.144531" xlink:href="#DejaVuSans-100"/>
     <use x="336.621094" xlink:href="#DejaVuSans-111"/>
     <use x="397.802734" xlink:href="#DejaVuSans-119"/>
     <use x="479.589844" xlink:href="#DejaVuSans-32"/>
     <use x="511.376953" xlink:href="#DejaVuSans-119"/>
     <use x="593.164062" xlink:href="#DejaVuSans-105"/>
     <use x="620.947266" xlink:href="#DejaVuSans-116"/>
     <use x="660.15625" xlink:href="#DejaVuSans-104"/>
     <use x="723.535156" xlink:href="#DejaVuSans-32"/>
     <use x="755.322266" xlink:href="#DejaVuSans-115"/>
     <use x="807.421875" xlink:href="#DejaVuSans-105"/>
     <use x="835.205078" xlink:href="#DejaVuSans-122"/>
     <use x="887.695312" xlink:href="#DejaVuSans-101"/>
     <use x="949.21875" xlink:href="#DejaVuSans-32"/>
     <use x="981.005859" xlink:href="#DejaVuSans-51"/>
     <use x="1044.628906" xlink:href="#DejaVuSans-50"/>
     <use x="1108.251953" xlink:href="#DejaVuSans-48"/>
     <use x="1171.875" xlink:href="#DejaVuSans-32"/>
     <use x="1203.662109" xlink:href="#DejaVuSans-115"/>
     <use x="1255.761719" xlink:href="#DejaVuSans-97"/>
     <use x="1317.041016" xlink:href="#DejaVuSans-109"/>
     <use x="1414.453125" xlink:href="#DejaVuSans-112"/>
     <use x="1477.929688" xlink:href="#DejaVuSans-108"/>
     <use x="1505.712891" xlink:href="#DejaVuSans-101"/>
     <use x="1567.236328" xlink:href="#DejaVuSans-32"/>
     <use x="1599.023438" xlink:href="#DejaVuSans-111"/>
     <use x="1660.205078" xlink:href="#DejaVuSans-102"/>
     <use x="1695.410156" xlink:href="#DejaVuSans-32"/>
     <use x="1727.197266" xlink:href="#DejaVuSans-108"/>
     <use x="1754.980469" xlink:href="#DejaVuSans-97"/>
     <use x="1816.259766" xlink:href="#DejaVuSans-98"/>
     <use x="1879.736328" xlink:href="#DejaVuSans-95"/>
     <use x="1929.736328" xlink:href="#DejaVuSans-109"/>
     <use x="2027.148438" xlink:href="#DejaVuSans-97"/>
     <use x="2088.427734" xlink:href="#DejaVuSans-108"/>
     <use x="2116.210938" xlink:href="#DejaVuSans-101"/>
     <use x="2177.734375" xlink:href="#DejaVuSans-46"/>
     <use x="2209.521484" xlink:href="#DejaVuSans-119"/>
     <use x="2291.308594" xlink:href="#DejaVuSans-97"/>
     <use x="2352.587891" xlink:href="#DejaVuSans-118"/>
     <use x="2411.767578" xlink:href="#DejaVuSans-32"/>
     <use x="2443.554688" xlink:href="#DejaVuSans-117"/>
     <use x="2506.933594" xlink:href="#DejaVuSans-115"/>
     <use x="2559.033203" xlink:href="#DejaVuSans-105"/>
     <use x="2586.816406" xlink:href="#DejaVuSans-110"/>
     <use x="2650.195312" xlink:href="#DejaVuSans-103"/>
     <use x="2713.671875" xlink:href="#DejaVuSans-32"/>
     <use x="2745.458984" xlink:href="#DejaVuSans-114"/>
     <use x="2784.322266" xlink:href="#DejaVuSans-101"/>
     <use x="2845.845703" xlink:href="#DejaVuSans-99"/>
     <use x="2900.826172" xlink:href="#DejaVuSans-116"/>
     <use x="2940.035156" xlink:href="#DejaVuSans-97"/>
     <use x="3001.314453" xlink:href="#DejaVuSans-110"/>
     <use x="3064.693359" xlink:href="#DejaVuSans-103"/>
     <use x="3128.169922" xlink:href="#DejaVuSans-117"/>
     <use x="3191.548828" xlink:href="#DejaVuSans-108"/>
     <use x="3219.332031" xlink:href="#DejaVuSans-97"/>
     <use x="3280.611328" xlink:href="#DejaVuSans-114"/>
     <use x="3321.724609" xlink:href="#DejaVuSans-32"/>
     <use x="3353.511719" xlink:href="#DejaVuSans-119"/>
     <use x="3435.298828" xlink:href="#DejaVuSans-105"/>
     <use x="3463.082031" xlink:href="#DejaVuSans-110"/>
     <use x="3526.460938" xlink:href="#DejaVuSans-100"/>
     <use x="3589.9375" xlink:href="#DejaVuSans-111"/>
     <use x="3651.119141" xlink:href="#DejaVuSans-119"/>
    </g>
   </g>
  </g>
  <g id="axes_2">
   <g id="patch_7">
    <path d="M 110.52 246.378642 
L 795.744 246.378642 
L 795.744 184.351479 
L 110.52 184.351479 
z
" style="fill:#ffffff;"/>
   </g>
   <g id="matplotlib.axis_3">
    <g id="xtick_8">
     <g id="line2d_11">
      <g>
       <use style="stroke:#000000;stroke-width:0.8;" x="122.22827" xlink:href="#m9ee83fd77c" y="246.378642"/>
      </g>
     </g>
     <g id="text_13">
      <!-- 0 -->
      <g transform="translate(119.04702 260.977079)scale(0.1 -0.1)">
       <use xlink:href="#DejaVuSans-48"/>
      </g>
     </g>
    </g>
    <g id="xtick_9">
     <g id="line2d_12">
      <g>
       <use style="stroke:#000000;stroke-width:0.8;" x="206.438972" xlink:href="#m9ee83fd77c" y="246.378642"/>
      </g>
     </g>
     <g id="text_14">
      <!-- 250 -->
      <g transform="translate(196.895222 260.977079)scale(0.1 -0.1)">
       <use xlink:href="#DejaVuSans-50"/>
       <use x="63.623047" xlink:href="#DejaVuSans-53"/>
       <use x="127.246094" xlink:href="#DejaVuSans-48"/>
      </g>
     </g>
    </g>
    <g id="xtick_10">
     <g id="line2d_13">
      <g>
       <use style="stroke:#000000;stroke-width:0.8;" x="290.649675" xlink:href="#m9ee83fd77c" y="246.378642"/>
      </g>
     </g>
     <g id="text_15">
      <!-- 500 -->
      <g transform="translate(281.105925 260.977079)scale(0.1 -0.1)">
       <use xlink:href="#DejaVuSans-53"/>
       <use x="63.623047" xlink:href="#DejaVuSans-48"/>
       <use x="127.246094" xlink:href="#DejaVuSans-48"/>
      </g>
     </g>
    </g>
    <g id="xtick_11">
     <g id="line2d_14">
      <g>
       <use style="stroke:#000000;stroke-width:0.8;" x="374.860377" xlink:href="#m9ee83fd77c" y="246.378642"/>
      </g>
     </g>
     <g id="text_16">
      <!-- 750 -->
      <g transform="translate(365.316627 260.977079)scale(0.1 -0.1)">
       <defs>
        <path d="M 8.203125 72.90625 
L 55.078125 72.90625 
L 55.078125 68.703125 
L 28.609375 0 
L 18.3125 0 
L 43.21875 64.59375 
L 8.203125 64.59375 
z
" id="DejaVuSans-55"/>
       </defs>
       <use xlink:href="#DejaVuSans-55"/>
       <use x="63.623047" xlink:href="#DejaVuSans-53"/>
       <use x="127.246094" xlink:href="#DejaVuSans-48"/>
      </g>
     </g>
    </g>
    <g id="xtick_12">
     <g id="line2d_15">
      <g>
       <use style="stroke:#000000;stroke-width:0.8;" x="459.07108" xlink:href="#m9ee83fd77c" y="246.378642"/>
      </g>
     </g>
     <g id="text_17">
      <!-- 1000 -->
      <g transform="translate(446.34608 260.977079)scale(0.1 -0.1)">
       <use xlink:href="#DejaVuSans-49"/>
       <use x="63.623047" xlink:href="#DejaVuSans-48"/>
       <use x="127.246094" xlink:href="#DejaVuSans-48"/>
       <use x="190.869141" xlink:href="#DejaVuSans-48"/>
      </g>
     </g>
    </g>
    <g id="xtick_13">
     <g id="line2d_16">
      <g>
       <use style="stroke:#000000;stroke-width:0.8;" x="543.281782" xlink:href="#m9ee83fd77c" y="246.378642"/>
      </g>
     </g>
     <g id="text_18">
      <!-- 1250 -->
      <g transform="translate(530.556782 260.977079)scale(0.1 -0.1)">
       <use xlink:href="#DejaVuSans-49"/>
       <use x="63.623047" xlink:href="#DejaVuSans-50"/>
       <use x="127.246094" xlink:href="#DejaVuSans-53"/>
       <use x="190.869141" xlink:href="#DejaVuSans-48"/>
      </g>
     </g>
    </g>
    <g id="xtick_14">
     <g id="line2d_17">
      <g>
       <use style="stroke:#000000;stroke-width:0.8;" x="627.492485" xlink:href="#m9ee83fd77c" y="246.378642"/>
      </g>
     </g>
     <g id="text_19">
      <!-- 1500 -->
      <g transform="translate(614.767485 260.977079)scale(0.1 -0.1)">
       <use xlink:href="#DejaVuSans-49"/>
       <use x="63.623047" xlink:href="#DejaVuSans-53"/>
       <use x="127.246094" xlink:href="#DejaVuSans-48"/>
       <use x="190.869141" xlink:href="#DejaVuSans-48"/>
      </g>
     </g>
    </g>
    <g id="xtick_15">
     <g id="line2d_18">
      <g>
       <use style="stroke:#000000;stroke-width:0.8;" x="711.703188" xlink:href="#m9ee83fd77c" y="246.378642"/>
      </g>
     </g>
     <g id="text_20">
      <!-- 1750 -->
      <g transform="translate(698.978188 260.977079)scale(0.1 -0.1)">
       <use xlink:href="#DejaVuSans-49"/>
       <use x="63.623047" xlink:href="#DejaVuSans-55"/>
       <use x="127.246094" xlink:href="#DejaVuSans-53"/>
       <use x="190.869141" xlink:href="#DejaVuSans-48"/>
      </g>
     </g>
    </g>
    <g id="text_21">
     <!-- Frequency -->
     <g transform="translate(427.302313 274.655204)scale(0.1 -0.1)">
      <defs>
       <path d="M 9.8125 72.90625 
L 51.703125 72.90625 
L 51.703125 64.59375 
L 19.671875 64.59375 
L 19.671875 43.109375 
L 48.578125 43.109375 
L 48.578125 34.8125 
L 19.671875 34.8125 
L 19.671875 0 
L 9.8125 0 
z
" id="DejaVuSans-70"/>
       <path d="M 14.796875 27.296875 
Q 14.796875 17.390625 18.875 11.75 
Q 22.953125 6.109375 30.078125 6.109375 
Q 37.203125 6.109375 41.296875 11.75 
Q 45.40625 17.390625 45.40625 27.296875 
Q 45.40625 37.203125 41.296875 42.84375 
Q 37.203125 48.484375 30.078125 48.484375 
Q 22.953125 48.484375 18.875 42.84375 
Q 14.796875 37.203125 14.796875 27.296875 
z
M 45.40625 8.203125 
Q 42.578125 3.328125 38.25 0.953125 
Q 33.9375 -1.421875 27.875 -1.421875 
Q 17.96875 -1.421875 11.734375 6.484375 
Q 5.515625 14.40625 5.515625 27.296875 
Q 5.515625 40.1875 11.734375 48.09375 
Q 17.96875 56 27.875 56 
Q 33.9375 56 38.25 53.625 
Q 42.578125 51.265625 45.40625 46.390625 
L 45.40625 54.6875 
L 54.390625 54.6875 
L 54.390625 -20.796875 
L 45.40625 -20.796875 
z
" id="DejaVuSans-113"/>
       <path d="M 32.171875 -5.078125 
Q 28.375 -14.84375 24.75 -17.8125 
Q 21.140625 -20.796875 15.09375 -20.796875 
L 7.90625 -20.796875 
L 7.90625 -13.28125 
L 13.1875 -13.28125 
Q 16.890625 -13.28125 18.9375 -11.515625 
Q 21 -9.765625 23.484375 -3.21875 
L 25.09375 0.875 
L 2.984375 54.6875 
L 12.5 54.6875 
L 29.59375 11.921875 
L 46.6875 54.6875 
L 56.203125 54.6875 
z
" id="DejaVuSans-121"/>
      </defs>
      <use xlink:href="#DejaVuSans-70"/>
      <use x="50.269531" xlink:href="#DejaVuSans-114"/>
      <use x="89.132812" xlink:href="#DejaVuSans-101"/>
      <use x="150.65625" xlink:href="#DejaVuSans-113"/>
      <use x="214.132812" xlink:href="#DejaVuSans-117"/>
      <use x="277.511719" xlink:href="#DejaVuSans-101"/>
      <use x="339.035156" xlink:href="#DejaVuSans-110"/>
      <use x="402.414062" xlink:href="#DejaVuSans-99"/>
      <use x="457.394531" xlink:href="#DejaVuSans-121"/>
     </g>
    </g>
   </g>
   <g id="matplotlib.axis_4">
    <g id="ytick_3">
     <g id="line2d_19">
      <g>
       <use style="stroke:#000000;stroke-width:0.8;" x="110.52" xlink:href="#mf6e437e326" y="244.390345"/>
      </g>
     </g>
     <g id="text_22">
      <!-- 0.0 -->
      <g transform="translate(87.616875 248.189564)scale(0.1 -0.1)">
       <use xlink:href="#DejaVuSans-48"/>
       <use x="63.623047" xlink:href="#DejaVuSans-46"/>
       <use x="95.410156" xlink:href="#DejaVuSans-48"/>
      </g>
     </g>
    </g>
    <g id="ytick_4">
     <g id="line2d_20">
      <g>
       <use style="stroke:#000000;stroke-width:0.8;" x="110.52" xlink:href="#mf6e437e326" y="220.169726"/>
      </g>
     </g>
     <g id="text_23">
      <!-- 2.5 -->
      <g transform="translate(87.616875 223.968945)scale(0.1 -0.1)">
       <use xlink:href="#DejaVuSans-50"/>
       <use x="63.623047" xlink:href="#DejaVuSans-46"/>
       <use x="95.410156" xlink:href="#DejaVuSans-53"/>
      </g>
     </g>
    </g>
    <g id="ytick_5">
     <g id="line2d_21">
      <g>
       <use style="stroke:#000000;stroke-width:0.8;" x="110.52" xlink:href="#mf6e437e326" y="195.949106"/>
      </g>
     </g>
     <g id="text_24">
      <!-- 5.0 -->
      <g transform="translate(87.616875 199.748325)scale(0.1 -0.1)">
       <use xlink:href="#DejaVuSans-53"/>
       <use x="63.623047" xlink:href="#DejaVuSans-46"/>
       <use x="95.410156" xlink:href="#DejaVuSans-48"/>
      </g>
     </g>
    </g>
    <g id="text_25">
     <!-- Power -->
     <g transform="translate(81.537187 230.479123)rotate(-90)scale(0.1 -0.1)">
      <defs>
       <path d="M 19.671875 64.796875 
L 19.671875 37.40625 
L 32.078125 37.40625 
Q 38.96875 37.40625 42.71875 40.96875 
Q 46.484375 44.53125 46.484375 51.125 
Q 46.484375 57.671875 42.71875 61.234375 
Q 38.96875 64.796875 32.078125 64.796875 
z
M 9.8125 72.90625 
L 32.078125 72.90625 
Q 44.34375 72.90625 50.609375 67.359375 
Q 56.890625 61.8125 56.890625 51.125 
Q 56.890625 40.328125 50.609375 34.8125 
Q 44.34375 29.296875 32.078125 29.296875 
L 19.671875 29.296875 
L 19.671875 0 
L 9.8125 0 
z
" id="DejaVuSans-80"/>
      </defs>
      <use xlink:href="#DejaVuSans-80"/>
      <use x="56.677734" xlink:href="#DejaVuSans-111"/>
      <use x="117.859375" xlink:href="#DejaVuSans-119"/>
      <use x="199.646484" xlink:href="#DejaVuSans-101"/>
      <use x="261.169922" xlink:href="#DejaVuSans-114"/>
     </g>
    </g>
    <g id="text_26">
     <!-- 1e10 -->
     <g transform="translate(110.52 181.351479)scale(0.1 -0.1)">
      <use xlink:href="#DejaVuSans-49"/>
      <use x="63.623047" xlink:href="#DejaVuSans-101"/>
      <use x="125.146484" xlink:href="#DejaVuSans-49"/>
      <use x="188.769531" xlink:href="#DejaVuSans-48"/>
     </g>
    </g>
   </g>
   <g id="line2d_22">
    <path clip-path="url(#p55b459a832)" d="M 122.22827 244.380232 
L 132.754607 244.281959 
L 138.675672 244.245727 
L 145.91253 244.355114 
L 148.544114 244.102153 
L 151.175699 243.56236 
L 154.465179 242.579231 
L 158.412556 241.407021 
L 160.386244 241.026133 
L 162.359933 240.861527 
L 164.333621 240.928136 
L 166.307309 241.203844 
L 168.938894 241.807051 
L 176.833647 243.81639 
L 179.465231 244.198944 
L 182.096816 244.361887 
L 184.7284 244.297027 
L 187.359985 244.010253 
L 190.649465 243.38666 
L 197.886323 241.794458 
L 200.517907 241.54451 
L 202.491595 241.572246 
L 204.465284 241.786425 
L 207.096868 242.303155 
L 214.333726 243.930551 
L 216.96531 244.231599 
L 220.254791 244.349687 
L 238.017986 244.269219 
L 248.544323 243.842335 
L 252.4917 244.07613 
L 257.096973 244.375606 
L 259.728557 244.351104 
L 263.018038 244.066695 
L 269.596999 243.381577 
L 274.202272 243.27299 
L 278.149649 243.11136 
L 286.702298 242.469481 
L 289.333883 242.693997 
L 292.623363 243.275287 
L 295.912844 243.835775 
L 298.544428 244.030752 
L 301.176013 243.945972 
L 304.465493 243.572965 
L 311.044454 242.779876 
L 313.676039 242.668251 
L 316.307623 242.787246 
L 318.939208 243.171555 
L 324.202377 244.162152 
L 326.176065 244.241485 
L 328.149753 244.035651 
L 331.439234 243.30801 
L 333.412922 242.999475 
L 334.728714 242.993236 
L 336.044507 243.183602 
L 338.018195 243.756192 
L 339.991883 244.300164 
L 340.649779 244.358273 
L 341.307676 244.302226 
L 341.965572 244.098015 
L 342.623468 243.711667 
L 343.281364 243.110623 
L 343.93926 242.265201 
L 344.597156 241.150085 
L 345.255052 239.745762 
L 346.570844 236.028367 
L 347.886637 231.119383 
L 349.202429 225.181548 
L 351.834013 211.655869 
L 353.807702 202.128306 
L 355.123494 197.173558 
L 355.78139 195.317921 
L 356.439286 193.949153 
L 357.097182 193.107836 
L 357.755078 192.821569 
L 358.412974 193.103745 
L 359.070871 193.952785 
L 359.728767 195.351889 
L 360.386663 197.269305 
L 361.702455 202.462644 
L 363.018247 209.022725 
L 366.965624 230.228329 
L 368.281416 235.666298 
L 368.939312 237.816927 
L 369.597208 239.553439 
L 370.255105 240.868245 
L 370.913001 241.76872 
L 371.570897 242.276447 
L 372.228793 242.42591 
L 372.886689 242.262698 
L 373.544585 241.841281 
L 374.860377 240.470631 
L 376.834066 238.054123 
L 378.149858 236.862235 
L 378.807754 236.513283 
L 379.46565 236.35652 
L 380.123546 236.396503 
L 380.781442 236.624751 
L 381.439338 237.020294 
L 382.755131 238.174051 
L 384.728819 240.07812 
L 385.386715 240.534119 
L 386.044611 240.807368 
L 386.702507 240.84855 
L 387.360403 240.616365 
L 388.0183 240.07965 
L 388.676196 239.219078 
L 389.334092 238.028364 
L 389.991988 236.514913 
L 391.30778 232.617776 
L 392.623572 227.849378 
L 395.255157 217.747784 
L 396.570949 213.595165 
L 397.228845 211.984974 
L 397.886741 210.757759 
L 398.544637 209.953444 
L 399.202534 209.598716 
L 399.86043 209.70608 
L 400.518326 210.273459 
L 401.176222 211.284359 
L 401.834118 212.708576 
L 403.14991 216.61533 
L 404.465702 221.534753 
L 407.755183 234.553975 
L 409.070975 238.659972 
L 409.728871 240.28101 
L 410.386767 241.579516 
L 411.044664 242.544088 
L 411.70256 243.174734 
L 412.360456 243.482181 
L 413.018352 243.486791 
L 413.676248 243.217134 
L 414.334144 242.708294 
L 415.649936 241.134612 
L 417.623625 238.018681 
L 419.597313 234.877487 
L 420.913105 233.077956 
L 422.228898 231.567252 
L 424.860482 229.049304 
L 426.176274 227.721085 
L 427.492066 226.13016 
L 428.807859 224.178379 
L 430.123651 221.857766 
L 434.728924 213.003361 
L 436.044716 211.334552 
L 436.702612 210.819546 
L 437.360508 210.55463 
L 438.018404 210.560554 
L 438.6763 210.851273 
L 439.334196 211.433311 
L 439.992093 212.305394 
L 440.649989 213.458357 
L 441.965781 216.532248 
L 443.281573 220.437713 
L 445.913158 229.47015 
L 447.886846 235.898305 
L 449.202638 239.409395 
L 450.51843 242.037678 
L 451.176327 242.982109 
L 451.834223 243.673387 
L 452.492119 244.115138 
L 453.150015 244.317513 
L 453.807911 244.296635 
L 454.465807 244.073888 
L 455.123703 243.675071 
L 456.439495 242.468728 
L 461.044768 237.321245 
L 462.36056 236.481176 
L 463.018457 236.249131 
L 463.676353 236.147725 
L 464.334249 236.175053 
L 465.650041 236.586738 
L 466.965833 237.389322 
L 468.939522 239.013717 
L 470.91321 240.655644 
L 472.229002 241.513695 
L 473.544794 242.060842 
L 474.860587 242.249306 
L 476.176379 242.086502 
L 477.492171 241.631354 
L 479.465859 240.62646 
L 481.439548 239.618355 
L 482.75534 239.150876 
L 484.071132 238.955528 
L 485.386924 239.079138 
L 486.702717 239.520083 
L 488.018509 240.229062 
L 490.650093 242.066826 
L 492.623782 243.335162 
L 493.939574 243.912585 
L 495.255366 244.182621 
L 496.571158 244.111724 
L 497.886951 243.712083 
L 499.202743 243.038796 
L 501.176431 241.716829 
L 503.808016 239.957756 
L 505.123808 239.312543 
L 506.4396 238.9185 
L 507.755392 238.803731 
L 509.071185 238.959608 
L 510.386977 239.345117 
L 512.360665 240.208406 
L 515.650146 241.768464 
L 517.623834 242.437031 
L 519.597522 242.792699 
L 521.571211 242.871502 
L 529.465964 242.723815 
L 536.702821 243.309832 
L 538.018614 243.12875 
L 539.334406 242.758421 
L 540.650198 242.177335 
L 541.96599 241.383443 
L 543.939679 239.849213 
L 548.544951 235.899065 
L 549.860744 235.13648 
L 551.176536 234.730229 
L 551.834432 234.684539 
L 552.492328 234.751603 
L 553.80812 235.229134 
L 555.123913 236.139099 
L 556.439705 237.402787 
L 561.044978 242.501448 
L 562.36077 243.465822 
L 563.676562 243.981542 
L 564.334458 244.05914 
L 565.65025 243.872451 
L 566.966043 243.310943 
L 570.913419 241.085805 
L 572.229212 240.793905 
L 572.887108 240.809216 
L 574.2029 241.174176 
L 575.518692 241.91503 
L 578.150277 243.661184 
L 578.808173 243.916452 
L 579.466069 244.003866 
L 580.123965 243.874799 
L 580.781861 243.483208 
L 581.439757 242.787664 
L 582.097653 241.753333 
L 582.755549 240.353808 
L 583.413445 238.57273 
L 584.729238 233.858297 
L 586.04503 227.721119 
L 588.018718 216.589822 
L 590.650303 201.132973 
L 591.966095 194.6875 
L 592.623991 192.08079 
L 593.281887 189.979578 
L 593.939783 188.441 
L 594.597679 187.508544 
L 595.255576 187.210473 
L 595.913472 187.558734 
L 596.571368 188.548413 
L 597.229264 190.157733 
L 597.88716 192.348628 
L 599.202952 198.248648 
L 600.518744 205.67295 
L 604.466121 229.755515 
L 605.781913 236.052291 
L 606.439809 238.584636 
L 607.097706 240.663002 
L 607.755602 242.273705 
L 608.413498 243.417938 
L 609.071394 244.111031 
L 609.72929 244.381215 
L 610.387186 244.267943 
L 611.045082 243.819859 
L 611.702978 243.092483 
L 613.018771 241.041291 
L 616.308251 235.135916 
L 617.624043 233.377522 
L 618.939836 232.188376 
L 620.255628 231.497652 
L 624.203005 230.080045 
L 624.860901 229.571353 
L 625.518797 228.908535 
L 626.834589 227.07175 
L 628.150381 224.561734 
L 629.466173 221.51607 
L 632.755654 213.523039 
L 634.071446 211.17062 
L 634.729342 210.358401 
L 635.387238 209.83587 
L 636.045135 209.6287 
L 636.703031 209.753653 
L 637.360927 210.217945 
L 638.018823 211.018975 
L 638.676719 212.144418 
L 639.334615 213.57268 
L 640.650407 217.209942 
L 641.9662 221.60945 
L 645.913576 235.405344 
L 647.229369 238.983152 
L 648.545161 241.643227 
L 649.203057 242.602035 
L 649.860953 243.314127 
L 650.518849 243.788885 
L 651.176745 244.041876 
L 651.834641 244.093927 
L 652.492537 243.970065 
L 653.80833 243.308815 
L 655.124122 242.298325 
L 657.755706 240.13109 
L 659.071499 239.314614 
L 660.387291 238.799713 
L 661.703083 238.598946 
L 663.018875 238.672569 
L 664.992564 239.129616 
L 668.93994 240.251559 
L 670.913629 240.559277 
L 673.545213 240.701854 
L 676.834694 240.855384 
L 678.808382 241.133073 
L 681.439966 241.778437 
L 688.676824 243.864367 
L 690.650512 244.157157 
L 693.282096 244.281493 
L 695.913681 244.144805 
L 699.203162 243.725004 
L 706.440019 242.704352 
L 709.071603 242.577147 
L 712.361084 242.672042 
L 716.966357 243.095582 
L 725.519006 243.898679 
L 730.124279 244.135526 
L 734.071656 244.099817 
L 738.676928 243.790964 
L 743.940097 243.451051 
L 747.887474 243.424727 
L 753.150643 243.650386 
L 766.966461 244.353939 
L 772.887526 244.341502 
L 794.598098 244.018683 
L 795.91389 244.046726 
L 795.91389 244.046726 
" style="fill:none;stroke:#1f77b4;stroke-linecap:square;stroke-width:1.5;"/>
   </g>
   <g id="patch_8">
    <path d="M 110.52 246.378642 
L 110.52 184.351479 
" style="fill:none;stroke:#000000;stroke-linecap:square;stroke-linejoin:miter;stroke-width:0.8;"/>
   </g>
   <g id="patch_9">
    <path d="M 795.744 246.378642 
L 795.744 184.351479 
" style="fill:none;stroke:#000000;stroke-linecap:square;stroke-linejoin:miter;stroke-width:0.8;"/>
   </g>
   <g id="patch_10">
    <path d="M 110.52 246.378642 
L 795.744 246.378642 
" style="fill:none;stroke:#000000;stroke-linecap:square;stroke-linejoin:miter;stroke-width:0.8;"/>
   </g>
   <g id="patch_11">
    <path d="M 110.52 184.351479 
L 795.744 184.351479 
" style="fill:none;stroke:#000000;stroke-linecap:square;stroke-linejoin:miter;stroke-width:0.8;"/>
   </g>
   <g id="text_27">
    <!-- Power Spectrum using rectangular window -->
    <g transform="translate(324.747 178.351479)scale(0.12 -0.12)">
     <defs>
      <path d="M 53.515625 70.515625 
L 53.515625 60.890625 
Q 47.90625 63.578125 42.921875 64.890625 
Q 37.9375 66.21875 33.296875 66.21875 
Q 25.25 66.21875 20.875 63.09375 
Q 16.5 59.96875 16.5 54.203125 
Q 16.5 49.359375 19.40625 46.890625 
Q 22.3125 44.4375 30.421875 42.921875 
L 36.375 41.703125 
Q 47.40625 39.59375 52.65625 34.296875 
Q 57.90625 29 57.90625 20.125 
Q 57.90625 9.515625 50.796875 4.046875 
Q 43.703125 -1.421875 29.984375 -1.421875 
Q 24.8125 -1.421875 18.96875 -0.25 
Q 13.140625 0.921875 6.890625 3.21875 
L 6.890625 13.375 
Q 12.890625 10.015625 18.65625 8.296875 
Q 24.421875 6.59375 29.984375 6.59375 
Q 38.421875 6.59375 43.015625 9.90625 
Q 47.609375 13.234375 47.609375 19.390625 
Q 47.609375 24.75 44.3125 27.78125 
Q 41.015625 30.8125 33.5 32.328125 
L 27.484375 33.5 
Q 16.453125 35.6875 11.515625 40.375 
Q 6.59375 45.0625 6.59375 53.421875 
Q 6.59375 63.09375 13.40625 68.65625 
Q 20.21875 74.21875 32.171875 74.21875 
Q 37.3125 74.21875 42.625 73.28125 
Q 47.953125 72.359375 53.515625 70.515625 
z
" id="DejaVuSans-83"/>
     </defs>
     <use xlink:href="#DejaVuSans-80"/>
     <use x="56.677734" xlink:href="#DejaVuSans-111"/>
     <use x="117.859375" xlink:href="#DejaVuSans-119"/>
     <use x="199.646484" xlink:href="#DejaVuSans-101"/>
     <use x="261.169922" xlink:href="#DejaVuSans-114"/>
     <use x="302.283203" xlink:href="#DejaVuSans-32"/>
     <use x="334.070312" xlink:href="#DejaVuSans-83"/>
     <use x="397.546875" xlink:href="#DejaVuSans-112"/>
     <use x="461.023438" xlink:href="#DejaVuSans-101"/>
     <use x="522.546875" xlink:href="#DejaVuSans-99"/>
     <use x="577.527344" xlink:href="#DejaVuSans-116"/>
     <use x="616.736328" xlink:href="#DejaVuSans-114"/>
     <use x="657.849609" xlink:href="#DejaVuSans-117"/>
     <use x="721.228516" xlink:href="#DejaVuSans-109"/>
     <use x="818.640625" xlink:href="#DejaVuSans-32"/>
     <use x="850.427734" xlink:href="#DejaVuSans-117"/>
     <use x="913.806641" xlink:href="#DejaVuSans-115"/>
     <use x="965.90625" xlink:href="#DejaVuSans-105"/>
     <use x="993.689453" xlink:href="#DejaVuSans-110"/>
     <use x="1057.068359" xlink:href="#DejaVuSans-103"/>
     <use x="1120.544922" xlink:href="#DejaVuSans-32"/>
     <use x="1152.332031" xlink:href="#DejaVuSans-114"/>
     <use x="1191.195312" xlink:href="#DejaVuSans-101"/>
     <use x="1252.71875" xlink:href="#DejaVuSans-99"/>
     <use x="1307.699219" xlink:href="#DejaVuSans-116"/>
     <use x="1346.908203" xlink:href="#DejaVuSans-97"/>
     <use x="1408.1875" xlink:href="#DejaVuSans-110"/>
     <use x="1471.566406" xlink:href="#DejaVuSans-103"/>
     <use x="1535.042969" xlink:href="#DejaVuSans-117"/>
     <use x="1598.421875" xlink:href="#DejaVuSans-108"/>
     <use x="1626.205078" xlink:href="#DejaVuSans-97"/>
     <use x="1687.484375" xlink:href="#DejaVuSans-114"/>
     <use x="1728.597656" xlink:href="#DejaVuSans-32"/>
     <use x="1760.384766" xlink:href="#DejaVuSans-119"/>
     <use x="1842.171875" xlink:href="#DejaVuSans-105"/>
     <use x="1869.955078" xlink:href="#DejaVuSans-110"/>
     <use x="1933.333984" xlink:href="#DejaVuSans-100"/>
     <use x="1996.810547" xlink:href="#DejaVuSans-111"/>
     <use x="2057.992188" xlink:href="#DejaVuSans-119"/>
    </g>
   </g>
  </g>
  <g id="axes_3">
   <g id="patch_12">
    <path d="M 110.52 365.411721 
L 795.744 365.411721 
L 795.744 303.384558 
L 110.52 303.384558 
z
" style="fill:#ffffff;"/>
   </g>
   <g id="matplotlib.axis_5">
    <g id="xtick_16">
     <g id="line2d_23">
      <g>
       <use style="stroke:#000000;stroke-width:0.8;" x="141.666545" xlink:href="#m9ee83fd77c" y="365.411721"/>
      </g>
     </g>
     <g id="text_28">
      <!-- 0 -->
      <g transform="translate(138.485295 380.010158)scale(0.1 -0.1)">
       <use xlink:href="#DejaVuSans-48"/>
      </g>
     </g>
    </g>
    <g id="xtick_17">
     <g id="line2d_24">
      <g>
       <use style="stroke:#000000;stroke-width:0.8;" x="239.304619" xlink:href="#m9ee83fd77c" y="365.411721"/>
      </g>
     </g>
     <g id="text_29">
      <!-- 50 -->
      <g transform="translate(232.942119 380.010158)scale(0.1 -0.1)">
       <use xlink:href="#DejaVuSans-53"/>
       <use x="63.623047" xlink:href="#DejaVuSans-48"/>
      </g>
     </g>
    </g>
    <g id="xtick_18">
     <g id="line2d_25">
      <g>
       <use style="stroke:#000000;stroke-width:0.8;" x="336.942693" xlink:href="#m9ee83fd77c" y="365.411721"/>
      </g>
     </g>
     <g id="text_30">
      <!-- 100 -->
      <g transform="translate(327.398943 380.010158)scale(0.1 -0.1)">
       <use xlink:href="#DejaVuSans-49"/>
       <use x="63.623047" xlink:href="#DejaVuSans-48"/>
       <use x="127.246094" xlink:href="#DejaVuSans-48"/>
      </g>
     </g>
    </g>
    <g id="xtick_19">
     <g id="line2d_26">
      <g>
       <use style="stroke:#000000;stroke-width:0.8;" x="434.580766" xlink:href="#m9ee83fd77c" y="365.411721"/>
      </g>
     </g>
     <g id="text_31">
      <!-- 150 -->
      <g transform="translate(425.037016 380.010158)scale(0.1 -0.1)">
       <use xlink:href="#DejaVuSans-49"/>
       <use x="63.623047" xlink:href="#DejaVuSans-53"/>
       <use x="127.246094" xlink:href="#DejaVuSans-48"/>
      </g>
     </g>
    </g>
    <g id="xtick_20">
     <g id="line2d_27">
      <g>
       <use style="stroke:#000000;stroke-width:0.8;" x="532.21884" xlink:href="#m9ee83fd77c" y="365.411721"/>
      </g>
     </g>
     <g id="text_32">
      <!-- 200 -->
      <g transform="translate(522.67509 380.010158)scale(0.1 -0.1)">
       <use xlink:href="#DejaVuSans-50"/>
       <use x="63.623047" xlink:href="#DejaVuSans-48"/>
       <use x="127.246094" xlink:href="#DejaVuSans-48"/>
      </g>
     </g>
    </g>
    <g id="xtick_21">
     <g id="line2d_28">
      <g>
       <use style="stroke:#000000;stroke-width:0.8;" x="629.856913" xlink:href="#m9ee83fd77c" y="365.411721"/>
      </g>
     </g>
     <g id="text_33">
      <!-- 250 -->
      <g transform="translate(620.313163 380.010158)scale(0.1 -0.1)">
       <use xlink:href="#DejaVuSans-50"/>
       <use x="63.623047" xlink:href="#DejaVuSans-53"/>
       <use x="127.246094" xlink:href="#DejaVuSans-48"/>
      </g>
     </g>
    </g>
    <g id="xtick_22">
     <g id="line2d_29">
      <g>
       <use style="stroke:#000000;stroke-width:0.8;" x="727.494987" xlink:href="#m9ee83fd77c" y="365.411721"/>
      </g>
     </g>
     <g id="text_34">
      <!-- 300 -->
      <g transform="translate(717.951237 380.010158)scale(0.1 -0.1)">
       <use xlink:href="#DejaVuSans-51"/>
       <use x="63.623047" xlink:href="#DejaVuSans-48"/>
       <use x="127.246094" xlink:href="#DejaVuSans-48"/>
      </g>
     </g>
    </g>
    <g id="text_35">
     <!-- Timestamps (samples) -->
     <g transform="translate(396.346063 393.688283)scale(0.1 -0.1)">
      <use xlink:href="#DejaVuSans-84"/>
      <use x="57.958984" xlink:href="#DejaVuSans-105"/>
      <use x="85.742188" xlink:href="#DejaVuSans-109"/>
      <use x="183.154297" xlink:href="#DejaVuSans-101"/>
      <use x="244.677734" xlink:href="#DejaVuSans-115"/>
      <use x="296.777344" xlink:href="#DejaVuSans-116"/>
      <use x="335.986328" xlink:href="#DejaVuSans-97"/>
      <use x="397.265625" xlink:href="#DejaVuSans-109"/>
      <use x="494.677734" xlink:href="#DejaVuSans-112"/>
      <use x="558.154297" xlink:href="#DejaVuSans-115"/>
      <use x="610.253906" xlink:href="#DejaVuSans-32"/>
      <use x="642.041016" xlink:href="#DejaVuSans-40"/>
      <use x="681.054688" xlink:href="#DejaVuSans-115"/>
      <use x="733.154297" xlink:href="#DejaVuSans-97"/>
      <use x="794.433594" xlink:href="#DejaVuSans-109"/>
      <use x="891.845703" xlink:href="#DejaVuSans-112"/>
      <use x="955.322266" xlink:href="#DejaVuSans-108"/>
      <use x="983.105469" xlink:href="#DejaVuSans-101"/>
      <use x="1044.628906" xlink:href="#DejaVuSans-115"/>
      <use x="1096.728516" xlink:href="#DejaVuSans-41"/>
     </g>
    </g>
   </g>
   <g id="matplotlib.axis_6">
    <g id="ytick_6">
     <g id="line2d_30">
      <g>
       <use style="stroke:#000000;stroke-width:0.8;" x="110.52" xlink:href="#mf6e437e326" y="362.83826"/>
      </g>
     </g>
     <g id="text_36">
      <!-- 5000 -->
      <g transform="translate(69.690313 366.637479)scale(0.1 -0.1)">
       <defs>
        <path d="M 10.59375 35.5 
L 73.1875 35.5 
L 73.1875 27.203125 
L 10.59375 27.203125 
z
" id="DejaVuSans-8722"/>
       </defs>
       <use xlink:href="#DejaVuSans-8722"/>
       <use x="83.789062" xlink:href="#DejaVuSans-53"/>
       <use x="147.412109" xlink:href="#DejaVuSans-48"/>
       <use x="211.035156" xlink:href="#DejaVuSans-48"/>
       <use x="274.658203" xlink:href="#DejaVuSans-48"/>
      </g>
     </g>
    </g>
    <g id="ytick_7">
     <g id="line2d_31">
      <g>
       <use style="stroke:#000000;stroke-width:0.8;" x="110.52" xlink:href="#mf6e437e326" y="338.662203"/>
      </g>
     </g>
     <g id="text_37">
      <!-- 0 -->
      <g transform="translate(97.1575 342.461422)scale(0.1 -0.1)">
       <use xlink:href="#DejaVuSans-48"/>
      </g>
     </g>
    </g>
    <g id="ytick_8">
     <g id="line2d_32">
      <g>
       <use style="stroke:#000000;stroke-width:0.8;" x="110.52" xlink:href="#mf6e437e326" y="314.486147"/>
      </g>
     </g>
     <g id="text_38">
      <!-- 5000 -->
      <g transform="translate(78.07 318.285366)scale(0.1 -0.1)">
       <use xlink:href="#DejaVuSans-53"/>
       <use x="63.623047" xlink:href="#DejaVuSans-48"/>
       <use x="127.246094" xlink:href="#DejaVuSans-48"/>
       <use x="190.869141" xlink:href="#DejaVuSans-48"/>
      </g>
     </g>
    </g>
    <g id="text_39">
     <!-- Amplitude -->
     <g transform="translate(63.610625 360.020796)rotate(-90)scale(0.1 -0.1)">
      <use xlink:href="#DejaVuSans-65"/>
      <use x="68.408203" xlink:href="#DejaVuSans-109"/>
      <use x="165.820312" xlink:href="#DejaVuSans-112"/>
      <use x="229.296875" xlink:href="#DejaVuSans-108"/>
      <use x="257.080078" xlink:href="#DejaVuSans-105"/>
      <use x="284.863281" xlink:href="#DejaVuSans-116"/>
      <use x="324.072266" xlink:href="#DejaVuSans-117"/>
      <use x="387.451172" xlink:href="#DejaVuSans-100"/>
      <use x="450.927734" xlink:href="#DejaVuSans-101"/>
     </g>
    </g>
   </g>
   <g id="line2d_33">
    <path clip-path="url(#p7e19c4566e)" d="M 141.666545 338.662203 
L 157.288637 338.721417 
L 165.099683 338.951569 
L 169.005206 338.751986 
L 174.86349 338.323581 
L 178.769013 338.425603 
L 182.674536 338.641816 
L 184.627298 338.664214 
L 194.391105 338.073892 
L 196.343867 338.163258 
L 198.296628 338.48144 
L 204.154913 340.044163 
L 206.107674 340.175118 
L 208.060435 339.918509 
L 210.013197 339.437323 
L 211.965958 338.791569 
L 213.91872 338.310946 
L 215.871481 337.948211 
L 217.824243 337.83599 
L 225.635289 338.247425 
L 229.540812 338.255896 
L 231.493573 337.819305 
L 235.399096 336.622406 
L 237.351858 336.406886 
L 239.304619 336.615455 
L 241.25738 337.161747 
L 245.162903 339.110526 
L 247.115665 340.257395 
L 251.021188 341.8083 
L 252.973949 342.367166 
L 254.926711 341.508582 
L 258.832234 339.145423 
L 260.784995 337.664186 
L 264.690518 336.143611 
L 266.64328 335.979902 
L 268.596041 336.326454 
L 270.548803 336.521273 
L 278.359848 338.666116 
L 280.31261 339.299159 
L 282.265371 340.0685 
L 284.218133 340.610435 
L 290.076417 343.794448 
L 292.029179 344.529925 
L 293.98194 344.336862 
L 295.934702 343.492683 
L 299.840225 340.65381 
L 303.745748 338.348388 
L 305.698509 337.577628 
L 307.65127 336.30177 
L 309.604032 335.801153 
L 311.556793 336.51915 
L 313.509555 337.372996 
L 315.462316 339.030581 
L 317.415078 340.162737 
L 321.320601 340.255696 
L 323.273362 340.608707 
L 327.178885 342.039486 
L 329.131647 343.051381 
L 331.084408 343.100701 
L 333.03717 342.789746 
L 336.942693 343.888295 
L 338.895454 344.048135 
L 340.848215 344.512751 
L 342.800977 344.383452 
L 344.753738 342.448758 
L 346.7065 340.204881 
L 348.659261 338.535761 
L 350.612023 337.617218 
L 352.564784 338.658509 
L 356.470307 339.953026 
L 360.37583 343.496574 
L 362.328592 344.991457 
L 364.281353 343.438184 
L 366.234115 335.982196 
L 368.186876 322.478965 
L 370.139638 310.721697 
L 372.092399 306.203975 
L 374.04516 307.071121 
L 375.997922 318.34046 
L 377.950683 334.856631 
L 379.903445 348.519148 
L 381.856206 359.287394 
L 383.808968 362.592304 
L 385.761729 361.558635 
L 387.714491 357.223893 
L 391.620014 342.183057 
L 393.572775 333.447307 
L 395.525537 327.739167 
L 397.478298 325.416927 
L 399.43106 326.66271 
L 401.383821 332.122439 
L 403.336583 335.500174 
L 405.289344 338.115107 
L 407.242105 336.445086 
L 409.194867 329.564718 
L 411.147628 323.909878 
L 413.10039 320.312501 
L 415.053151 322.285567 
L 417.005913 328.514245 
L 418.958674 336.540963 
L 420.911436 345.089521 
L 422.864197 350.858065 
L 424.816959 355.90117 
L 426.76972 357.962453 
L 428.722482 356.978032 
L 430.675243 353.455145 
L 436.533528 329.13621 
L 438.486289 324.913614 
L 440.43905 326.180622 
L 442.391812 329.535976 
L 444.344573 334.545863 
L 446.297335 336.537237 
L 448.250096 336.26056 
L 450.202858 335.239621 
L 452.155619 332.710203 
L 454.108381 332.188012 
L 456.061142 332.034575 
L 458.013904 333.221055 
L 459.966665 336.290934 
L 461.919427 338.787672 
L 463.872188 343.020423 
L 465.82495 346.699148 
L 467.777711 349.376389 
L 469.730472 350.440058 
L 471.683234 348.38243 
L 473.635995 345.330671 
L 475.588757 340.819806 
L 477.541518 336.843003 
L 479.49428 334.576992 
L 481.447041 333.403821 
L 483.399803 334.694534 
L 487.305326 336.869474 
L 489.258087 337.708202 
L 491.210849 336.947665 
L 493.16361 336.689866 
L 495.116372 335.745939 
L 497.069133 333.747629 
L 500.974656 330.25515 
L 502.927417 329.747729 
L 504.880179 332.104386 
L 506.83294 336.799207 
L 508.785702 340.706806 
L 510.738463 342.137513 
L 512.691225 343.382965 
L 514.643986 343.967599 
L 516.596748 342.513402 
L 518.549509 342.397046 
L 520.502271 343.398803 
L 522.455032 342.908761 
L 524.407794 342.153403 
L 528.313317 338.958471 
L 530.266078 337.850824 
L 532.21884 337.319562 
L 534.171601 338.381268 
L 536.124362 337.73785 
L 538.077124 336.313733 
L 540.029885 335.399413 
L 541.982647 334.711022 
L 543.935408 335.954668 
L 545.88817 337.995792 
L 547.840931 341.018935 
L 549.793693 343.191405 
L 553.699216 343.575857 
L 555.651977 343.13445 
L 557.604739 343.929427 
L 559.5575 345.532832 
L 561.510262 345.723617 
L 563.463023 345.377088 
L 567.368546 340.930143 
L 569.321307 339.148898 
L 571.274069 337.164974 
L 573.22683 336.430128 
L 575.179592 335.235825 
L 577.132353 334.565426 
L 579.085115 334.4359 
L 581.037876 335.219871 
L 582.990638 337.910975 
L 584.943399 339.914234 
L 586.896161 342.67571 
L 588.848922 344.51051 
L 590.801684 343.973699 
L 592.754445 344.226299 
L 594.707207 343.796142 
L 596.659968 341.493395 
L 598.61273 339.563702 
L 602.518252 338.21463 
L 604.471014 337.334205 
L 608.376537 340.272969 
L 610.329298 339.855532 
L 612.28206 340.093123 
L 614.234821 339.640919 
L 616.187583 338.431566 
L 618.140344 338.53289 
L 622.045867 339.27037 
L 623.998629 340.271449 
L 625.95139 342.261602 
L 627.904152 344.81633 
L 629.856913 346.162815 
L 631.809675 345.741873 
L 633.762436 341.749002 
L 637.667959 325.869059 
L 639.62072 321.577437 
L 641.573482 321.110506 
L 643.526243 325.3502 
L 647.431766 339.772709 
L 649.384528 344.0684 
L 651.337289 346.060808 
L 653.290051 346.47359 
L 655.242812 345.296884 
L 657.195574 343.643556 
L 659.148335 341.745661 
L 661.101097 339.498751 
L 663.053858 337.431528 
L 665.00662 336.269765 
L 666.959381 336.977472 
L 668.912142 338.342544 
L 670.864904 339.447049 
L 672.817665 339.873022 
L 674.770427 338.617743 
L 676.723188 336.604884 
L 678.67595 334.865253 
L 680.628711 334.09147 
L 682.581473 334.772967 
L 684.534234 336.024436 
L 686.486996 337.691319 
L 688.439757 339.149649 
L 692.34528 340.904236 
L 694.298042 341.27865 
L 696.250803 341.263051 
L 698.203565 340.736205 
L 704.061849 337.770177 
L 706.01461 337.462767 
L 707.967372 337.678943 
L 711.872895 338.500601 
L 713.825656 338.679262 
L 715.778418 338.662203 
L 721.636702 338.338877 
L 725.542225 338.35871 
L 737.258794 338.92196 
L 747.022601 338.623976 
L 760.691932 338.661665 
L 764.597455 338.662203 
L 764.597455 338.662203 
" style="fill:none;stroke:#1f77b4;stroke-linecap:square;stroke-width:1.5;"/>
   </g>
   <g id="patch_13">
    <path d="M 110.52 365.411721 
L 110.52 303.384558 
" style="fill:none;stroke:#000000;stroke-linecap:square;stroke-linejoin:miter;stroke-width:0.8;"/>
   </g>
   <g id="patch_14">
    <path d="M 795.744 365.411721 
L 795.744 303.384558 
" style="fill:none;stroke:#000000;stroke-linecap:square;stroke-linejoin:miter;stroke-width:0.8;"/>
   </g>
   <g id="patch_15">
    <path d="M 110.52 365.411721 
L 795.744 365.411721 
" style="fill:none;stroke:#000000;stroke-linecap:square;stroke-linejoin:miter;stroke-width:0.8;"/>
   </g>
   <g id="patch_16">
    <path d="M 110.52 303.384558 
L 795.744 303.384558 
" style="fill:none;stroke:#000000;stroke-linecap:square;stroke-linejoin:miter;stroke-width:0.8;"/>
   </g>
   <g id="text_40">
    <!-- A window with size 320 sample of lab_male.wav apply hanning window -->
    <g transform="translate(239.068875 297.384558)scale(0.12 -0.12)">
     <use xlink:href="#DejaVuSans-65"/>
     <use x="68.408203" xlink:href="#DejaVuSans-32"/>
     <use x="100.195312" xlink:href="#DejaVuSans-119"/>
     <use x="181.982422" xlink:href="#DejaVuSans-105"/>
     <use x="209.765625" xlink:href="#DejaVuSans-110"/>
     <use x="273.144531" xlink:href="#DejaVuSans-100"/>
     <use x="336.621094" xlink:href="#DejaVuSans-111"/>
     <use x="397.802734" xlink:href="#DejaVuSans-119"/>
     <use x="479.589844" xlink:href="#DejaVuSans-32"/>
     <use x="511.376953" xlink:href="#DejaVuSans-119"/>
     <use x="593.164062" xlink:href="#DejaVuSans-105"/>
     <use x="620.947266" xlink:href="#DejaVuSans-116"/>
     <use x="660.15625" xlink:href="#DejaVuSans-104"/>
     <use x="723.535156" xlink:href="#DejaVuSans-32"/>
     <use x="755.322266" xlink:href="#DejaVuSans-115"/>
     <use x="807.421875" xlink:href="#DejaVuSans-105"/>
     <use x="835.205078" xlink:href="#DejaVuSans-122"/>
     <use x="887.695312" xlink:href="#DejaVuSans-101"/>
     <use x="949.21875" xlink:href="#DejaVuSans-32"/>
     <use x="981.005859" xlink:href="#DejaVuSans-51"/>
     <use x="1044.628906" xlink:href="#DejaVuSans-50"/>
     <use x="1108.251953" xlink:href="#DejaVuSans-48"/>
     <use x="1171.875" xlink:href="#DejaVuSans-32"/>
     <use x="1203.662109" xlink:href="#DejaVuSans-115"/>
     <use x="1255.761719" xlink:href="#DejaVuSans-97"/>
     <use x="1317.041016" xlink:href="#DejaVuSans-109"/>
     <use x="1414.453125" xlink:href="#DejaVuSans-112"/>
     <use x="1477.929688" xlink:href="#DejaVuSans-108"/>
     <use x="1505.712891" xlink:href="#DejaVuSans-101"/>
     <use x="1567.236328" xlink:href="#DejaVuSans-32"/>
     <use x="1599.023438" xlink:href="#DejaVuSans-111"/>
     <use x="1660.205078" xlink:href="#DejaVuSans-102"/>
     <use x="1695.410156" xlink:href="#DejaVuSans-32"/>
     <use x="1727.197266" xlink:href="#DejaVuSans-108"/>
     <use x="1754.980469" xlink:href="#DejaVuSans-97"/>
     <use x="1816.259766" xlink:href="#DejaVuSans-98"/>
     <use x="1879.736328" xlink:href="#DejaVuSans-95"/>
     <use x="1929.736328" xlink:href="#DejaVuSans-109"/>
     <use x="2027.148438" xlink:href="#DejaVuSans-97"/>
     <use x="2088.427734" xlink:href="#DejaVuSans-108"/>
     <use x="2116.210938" xlink:href="#DejaVuSans-101"/>
     <use x="2177.734375" xlink:href="#DejaVuSans-46"/>
     <use x="2209.521484" xlink:href="#DejaVuSans-119"/>
     <use x="2291.308594" xlink:href="#DejaVuSans-97"/>
     <use x="2352.587891" xlink:href="#DejaVuSans-118"/>
     <use x="2411.767578" xlink:href="#DejaVuSans-32"/>
     <use x="2443.554688" xlink:href="#DejaVuSans-97"/>
     <use x="2504.833984" xlink:href="#DejaVuSans-112"/>
     <use x="2568.310547" xlink:href="#DejaVuSans-112"/>
     <use x="2631.787109" xlink:href="#DejaVuSans-108"/>
     <use x="2659.570312" xlink:href="#DejaVuSans-121"/>
     <use x="2718.75" xlink:href="#DejaVuSans-32"/>
     <use x="2750.537109" xlink:href="#DejaVuSans-104"/>
     <use x="2813.916016" xlink:href="#DejaVuSans-97"/>
     <use x="2875.195312" xlink:href="#DejaVuSans-110"/>
     <use x="2938.574219" xlink:href="#DejaVuSans-110"/>
     <use x="3001.953125" xlink:href="#DejaVuSans-105"/>
     <use x="3029.736328" xlink:href="#DejaVuSans-110"/>
     <use x="3093.115234" xlink:href="#DejaVuSans-103"/>
     <use x="3156.591797" xlink:href="#DejaVuSans-32"/>
     <use x="3188.378906" xlink:href="#DejaVuSans-119"/>
     <use x="3270.166016" xlink:href="#DejaVuSans-105"/>
     <use x="3297.949219" xlink:href="#DejaVuSans-110"/>
     <use x="3361.328125" xlink:href="#DejaVuSans-100"/>
     <use x="3424.804688" xlink:href="#DejaVuSans-111"/>
     <use x="3485.986328" xlink:href="#DejaVuSans-119"/>
    </g>
   </g>
  </g>
  <g id="axes_4">
   <g id="patch_17">
    <path d="M 110.52 484.4448 
L 795.744 484.4448 
L 795.744 422.417637 
L 110.52 422.417637 
z
" style="fill:#ffffff;"/>
   </g>
   <g id="matplotlib.axis_7">
    <g id="xtick_23">
     <g id="line2d_34">
      <g>
       <use style="stroke:#000000;stroke-width:0.8;" x="195.525916" xlink:href="#m9ee83fd77c" y="484.4448"/>
      </g>
     </g>
     <g id="text_41">
      <!-- 250 -->
      <g transform="translate(185.982166 499.043237)scale(0.1 -0.1)">
       <use xlink:href="#DejaVuSans-50"/>
       <use x="63.623047" xlink:href="#DejaVuSans-53"/>
       <use x="127.246094" xlink:href="#DejaVuSans-48"/>
      </g>
     </g>
    </g>
    <g id="xtick_24">
     <g id="line2d_35">
      <g>
       <use style="stroke:#000000;stroke-width:0.8;" x="281.296076" xlink:href="#m9ee83fd77c" y="484.4448"/>
      </g>
     </g>
     <g id="text_42">
      <!-- 500 -->
      <g transform="translate(271.752326 499.043237)scale(0.1 -0.1)">
       <use xlink:href="#DejaVuSans-53"/>
       <use x="63.623047" xlink:href="#DejaVuSans-48"/>
       <use x="127.246094" xlink:href="#DejaVuSans-48"/>
      </g>
     </g>
    </g>
    <g id="xtick_25">
     <g id="line2d_36">
      <g>
       <use style="stroke:#000000;stroke-width:0.8;" x="367.066236" xlink:href="#m9ee83fd77c" y="484.4448"/>
      </g>
     </g>
     <g id="text_43">
      <!-- 750 -->
      <g transform="translate(357.522486 499.043237)scale(0.1 -0.1)">
       <use xlink:href="#DejaVuSans-55"/>
       <use x="63.623047" xlink:href="#DejaVuSans-53"/>
       <use x="127.246094" xlink:href="#DejaVuSans-48"/>
      </g>
     </g>
    </g>
    <g id="xtick_26">
     <g id="line2d_37">
      <g>
       <use style="stroke:#000000;stroke-width:0.8;" x="452.836396" xlink:href="#m9ee83fd77c" y="484.4448"/>
      </g>
     </g>
     <g id="text_44">
      <!-- 1000 -->
      <g transform="translate(440.111396 499.043237)scale(0.1 -0.1)">
       <use xlink:href="#DejaVuSans-49"/>
       <use x="63.623047" xlink:href="#DejaVuSans-48"/>
       <use x="127.246094" xlink:href="#DejaVuSans-48"/>
       <use x="190.869141" xlink:href="#DejaVuSans-48"/>
      </g>
     </g>
    </g>
    <g id="xtick_27">
     <g id="line2d_38">
      <g>
       <use style="stroke:#000000;stroke-width:0.8;" x="538.606556" xlink:href="#m9ee83fd77c" y="484.4448"/>
      </g>
     </g>
     <g id="text_45">
      <!-- 1250 -->
      <g transform="translate(525.881556 499.043237)scale(0.1 -0.1)">
       <use xlink:href="#DejaVuSans-49"/>
       <use x="63.623047" xlink:href="#DejaVuSans-50"/>
       <use x="127.246094" xlink:href="#DejaVuSans-53"/>
       <use x="190.869141" xlink:href="#DejaVuSans-48"/>
      </g>
     </g>
    </g>
    <g id="xtick_28">
     <g id="line2d_39">
      <g>
       <use style="stroke:#000000;stroke-width:0.8;" x="624.376716" xlink:href="#m9ee83fd77c" y="484.4448"/>
      </g>
     </g>
     <g id="text_46">
      <!-- 1500 -->
      <g transform="translate(611.651716 499.043237)scale(0.1 -0.1)">
       <use xlink:href="#DejaVuSans-49"/>
       <use x="63.623047" xlink:href="#DejaVuSans-53"/>
       <use x="127.246094" xlink:href="#DejaVuSans-48"/>
       <use x="190.869141" xlink:href="#DejaVuSans-48"/>
      </g>
     </g>
    </g>
    <g id="xtick_29">
     <g id="line2d_40">
      <g>
       <use style="stroke:#000000;stroke-width:0.8;" x="710.146876" xlink:href="#m9ee83fd77c" y="484.4448"/>
      </g>
     </g>
     <g id="text_47">
      <!-- 1750 -->
      <g transform="translate(697.421876 499.043237)scale(0.1 -0.1)">
       <use xlink:href="#DejaVuSans-49"/>
       <use x="63.623047" xlink:href="#DejaVuSans-55"/>
       <use x="127.246094" xlink:href="#DejaVuSans-53"/>
       <use x="190.869141" xlink:href="#DejaVuSans-48"/>
      </g>
     </g>
    </g>
    <g id="text_48">
     <!-- Frequency -->
     <g transform="translate(427.302313 512.721362)scale(0.1 -0.1)">
      <use xlink:href="#DejaVuSans-70"/>
      <use x="50.269531" xlink:href="#DejaVuSans-114"/>
      <use x="89.132812" xlink:href="#DejaVuSans-101"/>
      <use x="150.65625" xlink:href="#DejaVuSans-113"/>
      <use x="214.132812" xlink:href="#DejaVuSans-117"/>
      <use x="277.511719" xlink:href="#DejaVuSans-101"/>
      <use x="339.035156" xlink:href="#DejaVuSans-110"/>
      <use x="402.414062" xlink:href="#DejaVuSans-99"/>
      <use x="457.394531" xlink:href="#DejaVuSans-121"/>
     </g>
    </g>
   </g>
   <g id="matplotlib.axis_8">
    <g id="ytick_9">
     <g id="line2d_41">
      <g>
       <use style="stroke:#000000;stroke-width:0.8;" x="110.52" xlink:href="#mf6e437e326" y="482.917564"/>
      </g>
     </g>
     <g id="text_49">
      <!-- 0.0 -->
      <g transform="translate(87.616875 486.716783)scale(0.1 -0.1)">
       <use xlink:href="#DejaVuSans-48"/>
       <use x="63.623047" xlink:href="#DejaVuSans-46"/>
       <use x="95.410156" xlink:href="#DejaVuSans-48"/>
      </g>
     </g>
    </g>
    <g id="ytick_10">
     <g id="line2d_42">
      <g>
       <use style="stroke:#000000;stroke-width:0.8;" x="110.52" xlink:href="#mf6e437e326" y="458.200877"/>
      </g>
     </g>
     <g id="text_50">
      <!-- 0.5 -->
      <g transform="translate(87.616875 462.000095)scale(0.1 -0.1)">
       <use xlink:href="#DejaVuSans-48"/>
       <use x="63.623047" xlink:href="#DejaVuSans-46"/>
       <use x="95.410156" xlink:href="#DejaVuSans-53"/>
      </g>
     </g>
    </g>
    <g id="ytick_11">
     <g id="line2d_43">
      <g>
       <use style="stroke:#000000;stroke-width:0.8;" x="110.52" xlink:href="#mf6e437e326" y="433.484189"/>
      </g>
     </g>
     <g id="text_51">
      <!-- 1.0 -->
      <g transform="translate(87.616875 437.283408)scale(0.1 -0.1)">
       <use xlink:href="#DejaVuSans-49"/>
       <use x="63.623047" xlink:href="#DejaVuSans-46"/>
       <use x="95.410156" xlink:href="#DejaVuSans-48"/>
      </g>
     </g>
    </g>
    <g id="text_52">
     <!-- Power -->
     <g transform="translate(81.537187 468.545281)rotate(-90)scale(0.1 -0.1)">
      <use xlink:href="#DejaVuSans-80"/>
      <use x="56.677734" xlink:href="#DejaVuSans-111"/>
      <use x="117.859375" xlink:href="#DejaVuSans-119"/>
      <use x="199.646484" xlink:href="#DejaVuSans-101"/>
      <use x="261.169922" xlink:href="#DejaVuSans-114"/>
     </g>
    </g>
    <g id="text_53">
     <!-- 1e10 -->
     <g transform="translate(110.52 419.417637)scale(0.1 -0.1)">
      <use xlink:href="#DejaVuSans-49"/>
      <use x="63.623047" xlink:href="#DejaVuSans-101"/>
      <use x="125.146484" xlink:href="#DejaVuSans-49"/>
      <use x="188.769531" xlink:href="#DejaVuSans-48"/>
     </g>
    </g>
   </g>
   <g id="line2d_44">
    <path clip-path="url(#p5fea042f92)" d="M 110.425835 482.85982 
L 125.167582 482.799172 
L 128.517979 482.514888 
L 131.198296 482.105868 
L 133.878614 481.509271 
L 137.22901 480.512942 
L 146.610122 477.420001 
L 148.62036 477.048865 
L 150.630598 476.891758 
L 152.640836 476.975278 
L 154.651074 477.303956 
L 156.661312 477.857697 
L 159.34163 478.866509 
L 166.712503 481.883498 
L 168.722741 482.402543 
L 170.732979 482.68234 
L 172.743217 482.703894 
L 174.753455 482.476294 
L 176.763694 482.03495 
L 179.444011 481.214318 
L 185.474725 479.239547 
L 188.155043 478.668929 
L 190.165281 478.453906 
L 192.175519 478.433622 
L 194.185757 478.597201 
L 196.866075 479.051798 
L 200.886551 480.038822 
L 206.247186 481.378589 
L 209.597583 481.987606 
L 212.94798 482.356671 
L 216.968456 482.526252 
L 222.99917 482.485818 
L 230.370044 482.46719 
L 237.740917 482.710068 
L 244.44171 482.904766 
L 248.462187 482.792383 
L 251.812584 482.470351 
L 255.16298 481.919242 
L 259.853536 480.864528 
L 264.544092 479.810558 
L 267.224409 479.392871 
L 269.904727 479.207595 
L 272.585044 479.295741 
L 275.265362 479.652405 
L 278.615759 480.391582 
L 286.656711 482.362174 
L 289.337029 482.724171 
L 292.017346 482.841759 
L 294.697664 482.722071 
L 298.048061 482.317251 
L 305.418934 481.261999 
L 308.099251 481.133436 
L 310.779569 481.24889 
L 313.459886 481.591526 
L 318.150442 482.29219 
L 320.16068 482.301171 
L 321.500839 482.074331 
L 322.840997 481.586519 
L 324.181156 480.772722 
L 325.521315 479.571656 
L 326.861474 477.930569 
L 328.201632 475.810293 
L 329.541791 473.190159 
L 330.88195 470.072323 
L 332.222109 466.485048 
L 334.232347 460.354503 
L 336.912664 451.289728 
L 340.263061 440.031956 
L 342.273299 434.229351 
L 343.613458 431.057489 
L 344.953617 428.577219 
L 345.623696 427.623164 
L 346.293776 426.86969 
L 346.963855 426.321215 
L 347.633934 425.979679 
L 348.304014 425.844517 
L 348.974093 425.912672 
L 349.644172 426.178664 
L 350.314252 426.634687 
L 350.984331 427.270759 
L 352.32449 429.033379 
L 353.664649 431.350934 
L 355.674887 435.568083 
L 361.705601 449.095357 
L 363.04576 451.534199 
L 364.385919 453.613583 
L 365.726077 455.312127 
L 367.066236 456.631874 
L 368.406395 457.593928 
L 369.746554 458.233232 
L 371.086712 458.593179 
L 372.426871 458.72068 
L 373.76703 458.662199 
L 375.777268 458.319462 
L 378.457586 457.581132 
L 382.478062 456.400853 
L 384.4883 456.031157 
L 385.828459 455.960876 
L 387.168617 456.085807 
L 388.508776 456.452313 
L 389.848935 457.102214 
L 391.189094 458.067896 
L 392.529252 459.367161 
L 393.869411 460.998416 
L 395.20957 462.936813 
L 397.219808 466.30276 
L 401.910364 474.610813 
L 403.250522 476.528151 
L 404.590681 477.98754 
L 405.260761 478.504989 
L 405.93084 478.861647 
L 406.600919 479.044976 
L 407.270999 479.044291 
L 407.941078 478.850989 
L 408.611157 478.458741 
L 409.281237 477.863659 
L 409.951316 477.064424 
L 411.291475 474.861517 
L 412.631634 471.893033 
L 413.971792 468.244229 
L 415.982031 461.776429 
L 422.012745 440.866399 
L 423.352904 437.172021 
L 424.693062 434.205107 
L 425.363142 433.035043 
L 426.033221 432.090863 
L 426.703301 431.382084 
L 427.37338 430.915533 
L 428.043459 430.695294 
L 428.713539 430.722682 
L 429.383618 430.996259 
L 430.053697 431.511892 
L 430.723777 432.262835 
L 431.393856 433.239859 
L 432.734015 435.823763 
L 434.074174 439.146628 
L 435.414332 443.064302 
L 437.424571 449.696066 
L 442.115126 465.688468 
L 444.125364 471.518279 
L 445.465523 474.77858 
L 446.805682 477.462637 
L 448.145841 479.540498 
L 449.485999 481.011774 
L 450.826158 481.902984 
L 451.496237 482.145776 
L 452.166317 482.263685 
L 453.506476 482.161742 
L 454.846634 481.678076 
L 456.186793 480.901263 
L 458.197031 479.384985 
L 462.217507 476.119531 
L 464.227746 474.818614 
L 465.567904 474.176191 
L 466.908063 473.740356 
L 468.248222 473.520076 
L 469.588381 473.513416 
L 470.928539 473.709184 
L 472.268698 474.088699 
L 474.278936 474.947915 
L 476.289174 476.066434 
L 484.330127 480.965706 
L 486.340365 481.795842 
L 488.350603 482.311424 
L 489.690762 482.457553 
L 491.030921 482.437001 
L 492.371079 482.248753 
L 493.711238 481.897842 
L 495.721476 481.092767 
L 497.731714 480.011968 
L 501.082111 477.855523 
L 504.432508 475.728515 
L 506.442746 474.702726 
L 508.452984 473.993988 
L 509.793143 473.734866 
L 511.133302 473.661361 
L 512.473461 473.776375 
L 513.813619 474.073511 
L 515.823857 474.824086 
L 517.834096 475.858991 
L 524.534889 479.669136 
L 526.545127 480.386828 
L 527.885286 480.656145 
L 529.225445 480.740615 
L 530.565604 480.636905 
L 531.905762 480.352344 
L 533.916001 479.627281 
L 535.926239 478.632706 
L 541.956953 475.368135 
L 543.967191 474.63259 
L 545.30735 474.328824 
L 546.647509 474.192582 
L 547.987668 474.229689 
L 549.327826 474.437322 
L 551.338064 475.042357 
L 553.348303 475.936696 
L 556.698699 477.787115 
L 559.379017 479.228067 
L 561.389255 480.03067 
L 562.729414 480.329575 
L 564.069573 480.370488 
L 565.409731 480.093008 
L 566.74989 479.438095 
L 568.090049 478.351112 
L 569.430208 476.785592 
L 570.770366 474.707546 
L 572.110525 472.100032 
L 573.450684 468.96757 
L 574.790843 465.339949 
L 576.801081 459.104397 
L 579.481398 449.83746 
L 582.831795 438.337567 
L 584.171954 434.308051 
L 585.512113 430.861513 
L 586.852271 428.149374 
L 587.522351 427.108618 
L 588.19243 426.295018 
L 588.862509 425.718124 
L 589.532589 425.384704 
L 590.202668 425.298586 
L 590.872748 425.460544 
L 591.542827 425.868235 
L 592.212906 426.516192 
L 592.882986 427.395865 
L 594.223144 429.801368 
L 595.563303 432.959625 
L 596.903462 436.707501 
L 599.583779 445.189012 
L 602.264097 453.585226 
L 603.604256 457.255691 
L 604.944414 460.356817 
L 606.284573 462.769722 
L 606.954653 463.692246 
L 607.624732 464.417113 
L 608.294811 464.941441 
L 608.964891 465.265 
L 609.63497 465.390118 
L 610.305049 465.321545 
L 610.975129 465.066288 
L 611.645208 464.633419 
L 612.315288 464.033863 
L 613.655446 462.386257 
L 614.995605 460.238986 
L 617.005843 456.367344 
L 622.366478 445.424199 
L 623.706637 443.201494 
L 625.046796 441.376353 
L 626.386954 440.016768 
L 627.727113 439.173668 
L 628.397193 438.957037 
L 629.067272 438.88088 
L 629.737351 438.946765 
L 630.407431 439.155202 
L 631.07751 439.505644 
L 631.747589 439.996494 
L 633.087748 441.387806 
L 634.427907 443.295624 
L 635.768066 445.67039 
L 637.108224 448.447457 
L 639.118463 453.193196 
L 646.489336 471.59537 
L 647.829494 474.28026 
L 649.169653 476.572431 
L 650.509812 478.430919 
L 651.849971 479.835442 
L 653.190129 480.786666 
L 654.530288 481.305211 
L 655.870447 481.429512 
L 657.210606 481.212716 
L 658.550764 480.718876 
L 660.561003 479.614251 
L 666.591717 475.860996 
L 667.931876 475.295209 
L 669.272034 474.90291 
L 670.612193 474.697334 
L 671.952352 474.680847 
L 673.292511 474.846199 
L 674.632669 475.178066 
L 676.642908 475.939248 
L 679.323225 477.29956 
L 686.024019 480.936915 
L 688.034257 481.735207 
L 690.044495 482.295798 
L 692.054733 482.598921 
L 694.064971 482.650505 
L 696.075209 482.480433 
L 698.755527 481.997133 
L 706.796479 480.279355 
L 709.476797 480.067443 
L 712.157114 480.139019 
L 714.837432 480.464171 
L 718.857908 481.250541 
L 724.218543 482.324495 
L 727.56894 482.750081 
L 730.919337 482.906185 
L 734.269734 482.815042 
L 738.960289 482.417904 
L 747.001242 481.696405 
L 751.021718 481.583093 
L 755.042194 481.699626 
L 760.402829 482.12018 
L 767.773703 482.706429 
L 771.794179 482.806554 
L 776.484734 482.67814 
L 790.556401 482.03727 
L 795.246957 482.154385 
L 795.917036 482.185444 
L 795.917036 482.185444 
" style="fill:none;stroke:#1f77b4;stroke-linecap:square;stroke-width:1.5;"/>
   </g>
   <g id="patch_18">
    <path d="M 110.52 484.4448 
L 110.52 422.417637 
" style="fill:none;stroke:#000000;stroke-linecap:square;stroke-linejoin:miter;stroke-width:0.8;"/>
   </g>
   <g id="patch_19">
    <path d="M 795.744 484.4448 
L 795.744 422.417637 
" style="fill:none;stroke:#000000;stroke-linecap:square;stroke-linejoin:miter;stroke-width:0.8;"/>
   </g>
   <g id="patch_20">
    <path d="M 110.52 484.4448 
L 795.744 484.4448 
" style="fill:none;stroke:#000000;stroke-linecap:square;stroke-linejoin:miter;stroke-width:0.8;"/>
   </g>
   <g id="patch_21">
    <path d="M 110.52 422.417637 
L 795.744 422.417637 
" style="fill:none;stroke:#000000;stroke-linecap:square;stroke-linejoin:miter;stroke-width:0.8;"/>
   </g>
   <g id="text_54">
    <!-- Power Spectrum apply hanning window -->
    <g transform="translate(334.653563 416.417637)scale(0.12 -0.12)">
     <use xlink:href="#DejaVuSans-80"/>
     <use x="56.677734" xlink:href="#DejaVuSans-111"/>
     <use x="117.859375" xlink:href="#DejaVuSans-119"/>
     <use x="199.646484" xlink:href="#DejaVuSans-101"/>
     <use x="261.169922" xlink:href="#DejaVuSans-114"/>
     <use x="302.283203" xlink:href="#DejaVuSans-32"/>
     <use x="334.070312" xlink:href="#DejaVuSans-83"/>
     <use x="397.546875" xlink:href="#DejaVuSans-112"/>
     <use x="461.023438" xlink:href="#DejaVuSans-101"/>
     <use x="522.546875" xlink:href="#DejaVuSans-99"/>
     <use x="577.527344" xlink:href="#DejaVuSans-116"/>
     <use x="616.736328" xlink:href="#DejaVuSans-114"/>
     <use x="657.849609" xlink:href="#DejaVuSans-117"/>
     <use x="721.228516" xlink:href="#DejaVuSans-109"/>
     <use x="818.640625" xlink:href="#DejaVuSans-32"/>
     <use x="850.427734" xlink:href="#DejaVuSans-97"/>
     <use x="911.707031" xlink:href="#DejaVuSans-112"/>
     <use x="975.183594" xlink:href="#DejaVuSans-112"/>
     <use x="1038.660156" xlink:href="#DejaVuSans-108"/>
     <use x="1066.443359" xlink:href="#DejaVuSans-121"/>
     <use x="1125.623047" xlink:href="#DejaVuSans-32"/>
     <use x="1157.410156" xlink:href="#DejaVuSans-104"/>
     <use x="1220.789062" xlink:href="#DejaVuSans-97"/>
     <use x="1282.068359" xlink:href="#DejaVuSans-110"/>
     <use x="1345.447266" xlink:href="#DejaVuSans-110"/>
     <use x="1408.826172" xlink:href="#DejaVuSans-105"/>
     <use x="1436.609375" xlink:href="#DejaVuSans-110"/>
     <use x="1499.988281" xlink:href="#DejaVuSans-103"/>
     <use x="1563.464844" xlink:href="#DejaVuSans-32"/>
     <use x="1595.251953" xlink:href="#DejaVuSans-119"/>
     <use x="1677.039062" xlink:href="#DejaVuSans-105"/>
     <use x="1704.822266" xlink:href="#DejaVuSans-110"/>
     <use x="1768.201172" xlink:href="#DejaVuSans-100"/>
     <use x="1831.677734" xlink:href="#DejaVuSans-111"/>
     <use x="1892.859375" xlink:href="#DejaVuSans-119"/>
    </g>
   </g>
  </g>
 </g>
 <defs>
  <clipPath id="p11a6c32b3b">
   <rect height="62.027163" width="685.224" x="110.52" y="65.3184"/>
  </clipPath>
  <clipPath id="p55b459a832">
   <rect height="62.027163" width="685.224" x="110.52" y="184.351479"/>
  </clipPath>
  <clipPath id="p7e19c4566e">
   <rect height="62.027163" width="685.224" x="110.52" y="303.384558"/>
  </clipPath>
  <clipPath id="p5fea042f92">
   <rect height="62.027163" width="685.224" x="110.52" y="422.417637"/>
  </clipPath>
 </defs>
</svg>
