<?xml version="1.0" encoding="utf-8" standalone="no"?>
<!DOCTYPE svg PUBLIC "-//W3C//DTD SVG 1.1//EN"
  "http://www.w3.org/Graphics/SVG/1.1/DTD/svg11.dtd">
<!-- Created with matplotlib (https://matplotlib.org/) -->
<svg height="519.84pt" version="1.1" viewBox="0 0 1204.56 519.84" width="1204.56pt" xmlns="http://www.w3.org/2000/svg" xmlns:xlink="http://www.w3.org/1999/xlink">
 <metadata>
  <rdf:RDF xmlns:cc="http://creativecommons.org/ns#" xmlns:dc="http://purl.org/dc/elements/1.1/" xmlns:rdf="http://www.w3.org/1999/02/22-rdf-syntax-ns#">
   <cc:Work>
    <dc:type rdf:resource="http://purl.org/dc/dcmitype/StillImage"/>
    <dc:date>2020-11-15T13:50:25.859683</dc:date>
    <dc:format>image/svg+xml</dc:format>
    <dc:creator>
     <cc:Agent>
      <dc:title>Matplotlib v3.3.1, https://matplotlib.org/</dc:title>
     </cc:Agent>
    </dc:creator>
   </cc:Work>
  </rdf:RDF>
 </metadata>
 <defs>
  <style type="text/css">*{stroke-linecap:butt;stroke-linejoin:round;}</style>
 </defs>
 <g id="figure_1">
  <g id="patch_1">
   <path d="M 0 519.84 
L 1204.56 519.84 
L 1204.56 0 
L 0 0 
z
" style="fill:#ffffff;"/>
  </g>
  <g id="axes_1">
   <g id="patch_2">
    <path d="M 150.57 145.937587 
L 1084.104 145.937587 
L 1084.104 62.3808 
L 150.57 62.3808 
z
" style="fill:#ffffff;"/>
   </g>
   <g id="matplotlib.axis_1">
    <g id="xtick_1">
     <g id="line2d_1">
      <defs>
       <path d="M 0 0 
L 0 3.5 
" id="m5768c9ca43" style="stroke:#000000;stroke-width:0.8;"/>
      </defs>
      <g>
       <use style="stroke:#000000;stroke-width:0.8;" x="193.003364" xlink:href="#m5768c9ca43" y="145.937587"/>
      </g>
     </g>
     <g id="text_1">
      <!-- 0 -->
      <g transform="translate(189.822114 160.536025)scale(0.1 -0.1)">
       <defs>
        <path d="M 31.78125 66.40625 
Q 24.171875 66.40625 20.328125 58.90625 
Q 16.5 51.421875 16.5 36.375 
Q 16.5 21.390625 20.328125 13.890625 
Q 24.171875 6.390625 31.78125 6.390625 
Q 39.453125 6.390625 43.28125 13.890625 
Q 47.125 21.390625 47.125 36.375 
Q 47.125 51.421875 43.28125 58.90625 
Q 39.453125 66.40625 31.78125 66.40625 
z
M 31.78125 74.21875 
Q 44.046875 74.21875 50.515625 64.515625 
Q 56.984375 54.828125 56.984375 36.375 
Q 56.984375 17.96875 50.515625 8.265625 
Q 44.046875 -1.421875 31.78125 -1.421875 
Q 19.53125 -1.421875 13.0625 8.265625 
Q 6.59375 17.96875 6.59375 36.375 
Q 6.59375 54.828125 13.0625 64.515625 
Q 19.53125 74.21875 31.78125 74.21875 
z
" id="DejaVuSans-48"/>
       </defs>
       <use xlink:href="#DejaVuSans-48"/>
      </g>
     </g>
    </g>
    <g id="xtick_2">
     <g id="line2d_2">
      <g>
       <use style="stroke:#000000;stroke-width:0.8;" x="307.843319" xlink:href="#m5768c9ca43" y="145.937587"/>
      </g>
     </g>
     <g id="text_2">
      <!-- 100 -->
      <g transform="translate(298.299569 160.536025)scale(0.1 -0.1)">
       <defs>
        <path d="M 12.40625 8.296875 
L 28.515625 8.296875 
L 28.515625 63.921875 
L 10.984375 60.40625 
L 10.984375 69.390625 
L 28.421875 72.90625 
L 38.28125 72.90625 
L 38.28125 8.296875 
L 54.390625 8.296875 
L 54.390625 0 
L 12.40625 0 
z
" id="DejaVuSans-49"/>
       </defs>
       <use xlink:href="#DejaVuSans-49"/>
       <use x="63.623047" xlink:href="#DejaVuSans-48"/>
       <use x="127.246094" xlink:href="#DejaVuSans-48"/>
      </g>
     </g>
    </g>
    <g id="xtick_3">
     <g id="line2d_3">
      <g>
       <use style="stroke:#000000;stroke-width:0.8;" x="422.683275" xlink:href="#m5768c9ca43" y="145.937587"/>
      </g>
     </g>
     <g id="text_3">
      <!-- 200 -->
      <g transform="translate(413.139525 160.536025)scale(0.1 -0.1)">
       <defs>
        <path d="M 19.1875 8.296875 
L 53.609375 8.296875 
L 53.609375 0 
L 7.328125 0 
L 7.328125 8.296875 
Q 12.9375 14.109375 22.625 23.890625 
Q 32.328125 33.6875 34.8125 36.53125 
Q 39.546875 41.84375 41.421875 45.53125 
Q 43.3125 49.21875 43.3125 52.78125 
Q 43.3125 58.59375 39.234375 62.25 
Q 35.15625 65.921875 28.609375 65.921875 
Q 23.96875 65.921875 18.8125 64.3125 
Q 13.671875 62.703125 7.8125 59.421875 
L 7.8125 69.390625 
Q 13.765625 71.78125 18.9375 73 
Q 24.125 74.21875 28.421875 74.21875 
Q 39.75 74.21875 46.484375 68.546875 
Q 53.21875 62.890625 53.21875 53.421875 
Q 53.21875 48.921875 51.53125 44.890625 
Q 49.859375 40.875 45.40625 35.40625 
Q 44.1875 33.984375 37.640625 27.21875 
Q 31.109375 20.453125 19.1875 8.296875 
z
" id="DejaVuSans-50"/>
       </defs>
       <use xlink:href="#DejaVuSans-50"/>
       <use x="63.623047" xlink:href="#DejaVuSans-48"/>
       <use x="127.246094" xlink:href="#DejaVuSans-48"/>
      </g>
     </g>
    </g>
    <g id="xtick_4">
     <g id="line2d_4">
      <g>
       <use style="stroke:#000000;stroke-width:0.8;" x="537.523231" xlink:href="#m5768c9ca43" y="145.937587"/>
      </g>
     </g>
     <g id="text_4">
      <!-- 300 -->
      <g transform="translate(527.979481 160.536025)scale(0.1 -0.1)">
       <defs>
        <path d="M 40.578125 39.3125 
Q 47.65625 37.796875 51.625 33 
Q 55.609375 28.21875 55.609375 21.1875 
Q 55.609375 10.40625 48.1875 4.484375 
Q 40.765625 -1.421875 27.09375 -1.421875 
Q 22.515625 -1.421875 17.65625 -0.515625 
Q 12.796875 0.390625 7.625 2.203125 
L 7.625 11.71875 
Q 11.71875 9.328125 16.59375 8.109375 
Q 21.484375 6.890625 26.8125 6.890625 
Q 36.078125 6.890625 40.9375 10.546875 
Q 45.796875 14.203125 45.796875 21.1875 
Q 45.796875 27.640625 41.28125 31.265625 
Q 36.765625 34.90625 28.71875 34.90625 
L 20.21875 34.90625 
L 20.21875 43.015625 
L 29.109375 43.015625 
Q 36.375 43.015625 40.234375 45.921875 
Q 44.09375 48.828125 44.09375 54.296875 
Q 44.09375 59.90625 40.109375 62.90625 
Q 36.140625 65.921875 28.71875 65.921875 
Q 24.65625 65.921875 20.015625 65.03125 
Q 15.375 64.15625 9.8125 62.3125 
L 9.8125 71.09375 
Q 15.4375 72.65625 20.34375 73.4375 
Q 25.25 74.21875 29.59375 74.21875 
Q 40.828125 74.21875 47.359375 69.109375 
Q 53.90625 64.015625 53.90625 55.328125 
Q 53.90625 49.265625 50.4375 45.09375 
Q 46.96875 40.921875 40.578125 39.3125 
z
" id="DejaVuSans-51"/>
       </defs>
       <use xlink:href="#DejaVuSans-51"/>
       <use x="63.623047" xlink:href="#DejaVuSans-48"/>
       <use x="127.246094" xlink:href="#DejaVuSans-48"/>
      </g>
     </g>
    </g>
    <g id="xtick_5">
     <g id="line2d_5">
      <g>
       <use style="stroke:#000000;stroke-width:0.8;" x="652.363186" xlink:href="#m5768c9ca43" y="145.937587"/>
      </g>
     </g>
     <g id="text_5">
      <!-- 400 -->
      <g transform="translate(642.819436 160.536025)scale(0.1 -0.1)">
       <defs>
        <path d="M 37.796875 64.3125 
L 12.890625 25.390625 
L 37.796875 25.390625 
z
M 35.203125 72.90625 
L 47.609375 72.90625 
L 47.609375 25.390625 
L 58.015625 25.390625 
L 58.015625 17.1875 
L 47.609375 17.1875 
L 47.609375 0 
L 37.796875 0 
L 37.796875 17.1875 
L 4.890625 17.1875 
L 4.890625 26.703125 
z
" id="DejaVuSans-52"/>
       </defs>
       <use xlink:href="#DejaVuSans-52"/>
       <use x="63.623047" xlink:href="#DejaVuSans-48"/>
       <use x="127.246094" xlink:href="#DejaVuSans-48"/>
      </g>
     </g>
    </g>
    <g id="xtick_6">
     <g id="line2d_6">
      <g>
       <use style="stroke:#000000;stroke-width:0.8;" x="767.203142" xlink:href="#m5768c9ca43" y="145.937587"/>
      </g>
     </g>
     <g id="text_6">
      <!-- 500 -->
      <g transform="translate(757.659392 160.536025)scale(0.1 -0.1)">
       <defs>
        <path d="M 10.796875 72.90625 
L 49.515625 72.90625 
L 49.515625 64.59375 
L 19.828125 64.59375 
L 19.828125 46.734375 
Q 21.96875 47.46875 24.109375 47.828125 
Q 26.265625 48.1875 28.421875 48.1875 
Q 40.625 48.1875 47.75 41.5 
Q 54.890625 34.8125 54.890625 23.390625 
Q 54.890625 11.625 47.5625 5.09375 
Q 40.234375 -1.421875 26.90625 -1.421875 
Q 22.3125 -1.421875 17.546875 -0.640625 
Q 12.796875 0.140625 7.71875 1.703125 
L 7.71875 11.625 
Q 12.109375 9.234375 16.796875 8.0625 
Q 21.484375 6.890625 26.703125 6.890625 
Q 35.15625 6.890625 40.078125 11.328125 
Q 45.015625 15.765625 45.015625 23.390625 
Q 45.015625 31 40.078125 35.4375 
Q 35.15625 39.890625 26.703125 39.890625 
Q 22.75 39.890625 18.8125 39.015625 
Q 14.890625 38.140625 10.796875 36.28125 
z
" id="DejaVuSans-53"/>
       </defs>
       <use xlink:href="#DejaVuSans-53"/>
       <use x="63.623047" xlink:href="#DejaVuSans-48"/>
       <use x="127.246094" xlink:href="#DejaVuSans-48"/>
      </g>
     </g>
    </g>
    <g id="xtick_7">
     <g id="line2d_7">
      <g>
       <use style="stroke:#000000;stroke-width:0.8;" x="882.043098" xlink:href="#m5768c9ca43" y="145.937587"/>
      </g>
     </g>
     <g id="text_7">
      <!-- 600 -->
      <g transform="translate(872.499348 160.536025)scale(0.1 -0.1)">
       <defs>
        <path d="M 33.015625 40.375 
Q 26.375 40.375 22.484375 35.828125 
Q 18.609375 31.296875 18.609375 23.390625 
Q 18.609375 15.53125 22.484375 10.953125 
Q 26.375 6.390625 33.015625 6.390625 
Q 39.65625 6.390625 43.53125 10.953125 
Q 47.40625 15.53125 47.40625 23.390625 
Q 47.40625 31.296875 43.53125 35.828125 
Q 39.65625 40.375 33.015625 40.375 
z
M 52.59375 71.296875 
L 52.59375 62.3125 
Q 48.875 64.0625 45.09375 64.984375 
Q 41.3125 65.921875 37.59375 65.921875 
Q 27.828125 65.921875 22.671875 59.328125 
Q 17.53125 52.734375 16.796875 39.40625 
Q 19.671875 43.65625 24.015625 45.921875 
Q 28.375 48.1875 33.59375 48.1875 
Q 44.578125 48.1875 50.953125 41.515625 
Q 57.328125 34.859375 57.328125 23.390625 
Q 57.328125 12.15625 50.6875 5.359375 
Q 44.046875 -1.421875 33.015625 -1.421875 
Q 20.359375 -1.421875 13.671875 8.265625 
Q 6.984375 17.96875 6.984375 36.375 
Q 6.984375 53.65625 15.1875 63.9375 
Q 23.390625 74.21875 37.203125 74.21875 
Q 40.921875 74.21875 44.703125 73.484375 
Q 48.484375 72.75 52.59375 71.296875 
z
" id="DejaVuSans-54"/>
       </defs>
       <use xlink:href="#DejaVuSans-54"/>
       <use x="63.623047" xlink:href="#DejaVuSans-48"/>
       <use x="127.246094" xlink:href="#DejaVuSans-48"/>
      </g>
     </g>
    </g>
    <g id="xtick_8">
     <g id="line2d_8">
      <g>
       <use style="stroke:#000000;stroke-width:0.8;" x="996.883054" xlink:href="#m5768c9ca43" y="145.937587"/>
      </g>
     </g>
     <g id="text_8">
      <!-- 700 -->
      <g transform="translate(987.339304 160.536025)scale(0.1 -0.1)">
       <defs>
        <path d="M 8.203125 72.90625 
L 55.078125 72.90625 
L 55.078125 68.703125 
L 28.609375 0 
L 18.3125 0 
L 43.21875 64.59375 
L 8.203125 64.59375 
z
" id="DejaVuSans-55"/>
       </defs>
       <use xlink:href="#DejaVuSans-55"/>
       <use x="63.623047" xlink:href="#DejaVuSans-48"/>
       <use x="127.246094" xlink:href="#DejaVuSans-48"/>
      </g>
     </g>
    </g>
    <g id="text_9">
     <!-- Timestamps (samples) -->
     <g transform="translate(560.551062 174.21415)scale(0.1 -0.1)">
      <defs>
       <path d="M -0.296875 72.90625 
L 61.375 72.90625 
L 61.375 64.59375 
L 35.5 64.59375 
L 35.5 0 
L 25.59375 0 
L 25.59375 64.59375 
L -0.296875 64.59375 
z
" id="DejaVuSans-84"/>
       <path d="M 9.421875 54.6875 
L 18.40625 54.6875 
L 18.40625 0 
L 9.421875 0 
z
M 9.421875 75.984375 
L 18.40625 75.984375 
L 18.40625 64.59375 
L 9.421875 64.59375 
z
" id="DejaVuSans-105"/>
       <path d="M 52 44.1875 
Q 55.375 50.25 60.0625 53.125 
Q 64.75 56 71.09375 56 
Q 79.640625 56 84.28125 50.015625 
Q 88.921875 44.046875 88.921875 33.015625 
L 88.921875 0 
L 79.890625 0 
L 79.890625 32.71875 
Q 79.890625 40.578125 77.09375 44.375 
Q 74.3125 48.1875 68.609375 48.1875 
Q 61.625 48.1875 57.5625 43.546875 
Q 53.515625 38.921875 53.515625 30.90625 
L 53.515625 0 
L 44.484375 0 
L 44.484375 32.71875 
Q 44.484375 40.625 41.703125 44.40625 
Q 38.921875 48.1875 33.109375 48.1875 
Q 26.21875 48.1875 22.15625 43.53125 
Q 18.109375 38.875 18.109375 30.90625 
L 18.109375 0 
L 9.078125 0 
L 9.078125 54.6875 
L 18.109375 54.6875 
L 18.109375 46.1875 
Q 21.1875 51.21875 25.484375 53.609375 
Q 29.78125 56 35.6875 56 
Q 41.65625 56 45.828125 52.96875 
Q 50 49.953125 52 44.1875 
z
" id="DejaVuSans-109"/>
       <path d="M 56.203125 29.59375 
L 56.203125 25.203125 
L 14.890625 25.203125 
Q 15.484375 15.921875 20.484375 11.0625 
Q 25.484375 6.203125 34.421875 6.203125 
Q 39.59375 6.203125 44.453125 7.46875 
Q 49.3125 8.734375 54.109375 11.28125 
L 54.109375 2.78125 
Q 49.265625 0.734375 44.1875 -0.34375 
Q 39.109375 -1.421875 33.890625 -1.421875 
Q 20.796875 -1.421875 13.15625 6.1875 
Q 5.515625 13.8125 5.515625 26.8125 
Q 5.515625 40.234375 12.765625 48.109375 
Q 20.015625 56 32.328125 56 
Q 43.359375 56 49.78125 48.890625 
Q 56.203125 41.796875 56.203125 29.59375 
z
M 47.21875 32.234375 
Q 47.125 39.59375 43.09375 43.984375 
Q 39.0625 48.390625 32.421875 48.390625 
Q 24.90625 48.390625 20.390625 44.140625 
Q 15.875 39.890625 15.1875 32.171875 
z
" id="DejaVuSans-101"/>
       <path d="M 44.28125 53.078125 
L 44.28125 44.578125 
Q 40.484375 46.53125 36.375 47.5 
Q 32.28125 48.484375 27.875 48.484375 
Q 21.1875 48.484375 17.84375 46.4375 
Q 14.5 44.390625 14.5 40.28125 
Q 14.5 37.15625 16.890625 35.375 
Q 19.28125 33.59375 26.515625 31.984375 
L 29.59375 31.296875 
Q 39.15625 29.25 43.1875 25.515625 
Q 47.21875 21.78125 47.21875 15.09375 
Q 47.21875 7.46875 41.1875 3.015625 
Q 35.15625 -1.421875 24.609375 -1.421875 
Q 20.21875 -1.421875 15.453125 -0.5625 
Q 10.6875 0.296875 5.421875 2 
L 5.421875 11.28125 
Q 10.40625 8.6875 15.234375 7.390625 
Q 20.0625 6.109375 24.8125 6.109375 
Q 31.15625 6.109375 34.5625 8.28125 
Q 37.984375 10.453125 37.984375 14.40625 
Q 37.984375 18.0625 35.515625 20.015625 
Q 33.0625 21.96875 24.703125 23.78125 
L 21.578125 24.515625 
Q 13.234375 26.265625 9.515625 29.90625 
Q 5.8125 33.546875 5.8125 39.890625 
Q 5.8125 47.609375 11.28125 51.796875 
Q 16.75 56 26.8125 56 
Q 31.78125 56 36.171875 55.265625 
Q 40.578125 54.546875 44.28125 53.078125 
z
" id="DejaVuSans-115"/>
       <path d="M 18.3125 70.21875 
L 18.3125 54.6875 
L 36.8125 54.6875 
L 36.8125 47.703125 
L 18.3125 47.703125 
L 18.3125 18.015625 
Q 18.3125 11.328125 20.140625 9.421875 
Q 21.96875 7.515625 27.59375 7.515625 
L 36.8125 7.515625 
L 36.8125 0 
L 27.59375 0 
Q 17.1875 0 13.234375 3.875 
Q 9.28125 7.765625 9.28125 18.015625 
L 9.28125 47.703125 
L 2.6875 47.703125 
L 2.6875 54.6875 
L 9.28125 54.6875 
L 9.28125 70.21875 
z
" id="DejaVuSans-116"/>
       <path d="M 34.28125 27.484375 
Q 23.390625 27.484375 19.1875 25 
Q 14.984375 22.515625 14.984375 16.5 
Q 14.984375 11.71875 18.140625 8.90625 
Q 21.296875 6.109375 26.703125 6.109375 
Q 34.1875 6.109375 38.703125 11.40625 
Q 43.21875 16.703125 43.21875 25.484375 
L 43.21875 27.484375 
z
M 52.203125 31.203125 
L 52.203125 0 
L 43.21875 0 
L 43.21875 8.296875 
Q 40.140625 3.328125 35.546875 0.953125 
Q 30.953125 -1.421875 24.3125 -1.421875 
Q 15.921875 -1.421875 10.953125 3.296875 
Q 6 8.015625 6 15.921875 
Q 6 25.140625 12.171875 29.828125 
Q 18.359375 34.515625 30.609375 34.515625 
L 43.21875 34.515625 
L 43.21875 35.40625 
Q 43.21875 41.609375 39.140625 45 
Q 35.0625 48.390625 27.6875 48.390625 
Q 23 48.390625 18.546875 47.265625 
Q 14.109375 46.140625 10.015625 43.890625 
L 10.015625 52.203125 
Q 14.9375 54.109375 19.578125 55.046875 
Q 24.21875 56 28.609375 56 
Q 40.484375 56 46.34375 49.84375 
Q 52.203125 43.703125 52.203125 31.203125 
z
" id="DejaVuSans-97"/>
       <path d="M 18.109375 8.203125 
L 18.109375 -20.796875 
L 9.078125 -20.796875 
L 9.078125 54.6875 
L 18.109375 54.6875 
L 18.109375 46.390625 
Q 20.953125 51.265625 25.265625 53.625 
Q 29.59375 56 35.59375 56 
Q 45.5625 56 51.78125 48.09375 
Q 58.015625 40.1875 58.015625 27.296875 
Q 58.015625 14.40625 51.78125 6.484375 
Q 45.5625 -1.421875 35.59375 -1.421875 
Q 29.59375 -1.421875 25.265625 0.953125 
Q 20.953125 3.328125 18.109375 8.203125 
z
M 48.6875 27.296875 
Q 48.6875 37.203125 44.609375 42.84375 
Q 40.53125 48.484375 33.40625 48.484375 
Q 26.265625 48.484375 22.1875 42.84375 
Q 18.109375 37.203125 18.109375 27.296875 
Q 18.109375 17.390625 22.1875 11.75 
Q 26.265625 6.109375 33.40625 6.109375 
Q 40.53125 6.109375 44.609375 11.75 
Q 48.6875 17.390625 48.6875 27.296875 
z
" id="DejaVuSans-112"/>
       <path id="DejaVuSans-32"/>
       <path d="M 31 75.875 
Q 24.46875 64.65625 21.28125 53.65625 
Q 18.109375 42.671875 18.109375 31.390625 
Q 18.109375 20.125 21.3125 9.0625 
Q 24.515625 -2 31 -13.1875 
L 23.1875 -13.1875 
Q 15.875 -1.703125 12.234375 9.375 
Q 8.59375 20.453125 8.59375 31.390625 
Q 8.59375 42.28125 12.203125 53.3125 
Q 15.828125 64.359375 23.1875 75.875 
z
" id="DejaVuSans-40"/>
       <path d="M 9.421875 75.984375 
L 18.40625 75.984375 
L 18.40625 0 
L 9.421875 0 
z
" id="DejaVuSans-108"/>
       <path d="M 8.015625 75.875 
L 15.828125 75.875 
Q 23.140625 64.359375 26.78125 53.3125 
Q 30.421875 42.28125 30.421875 31.390625 
Q 30.421875 20.453125 26.78125 9.375 
Q 23.140625 -1.703125 15.828125 -13.1875 
L 8.015625 -13.1875 
Q 14.5 -2 17.703125 9.0625 
Q 20.90625 20.125 20.90625 31.390625 
Q 20.90625 42.671875 17.703125 53.65625 
Q 14.5 64.65625 8.015625 75.875 
z
" id="DejaVuSans-41"/>
      </defs>
      <use xlink:href="#DejaVuSans-84"/>
      <use x="57.958984" xlink:href="#DejaVuSans-105"/>
      <use x="85.742188" xlink:href="#DejaVuSans-109"/>
      <use x="183.154297" xlink:href="#DejaVuSans-101"/>
      <use x="244.677734" xlink:href="#DejaVuSans-115"/>
      <use x="296.777344" xlink:href="#DejaVuSans-116"/>
      <use x="335.986328" xlink:href="#DejaVuSans-97"/>
      <use x="397.265625" xlink:href="#DejaVuSans-109"/>
      <use x="494.677734" xlink:href="#DejaVuSans-112"/>
      <use x="558.154297" xlink:href="#DejaVuSans-115"/>
      <use x="610.253906" xlink:href="#DejaVuSans-32"/>
      <use x="642.041016" xlink:href="#DejaVuSans-40"/>
      <use x="681.054688" xlink:href="#DejaVuSans-115"/>
      <use x="733.154297" xlink:href="#DejaVuSans-97"/>
      <use x="794.433594" xlink:href="#DejaVuSans-109"/>
      <use x="891.845703" xlink:href="#DejaVuSans-112"/>
      <use x="955.322266" xlink:href="#DejaVuSans-108"/>
      <use x="983.105469" xlink:href="#DejaVuSans-101"/>
      <use x="1044.628906" xlink:href="#DejaVuSans-115"/>
      <use x="1096.728516" xlink:href="#DejaVuSans-41"/>
     </g>
    </g>
   </g>
   <g id="matplotlib.axis_2">
    <g id="ytick_1">
     <g id="line2d_9">
      <defs>
       <path d="M 0 0 
L -3.5 0 
" id="m397ec86d3a" style="stroke:#000000;stroke-width:0.8;"/>
      </defs>
      <g>
       <use style="stroke:#000000;stroke-width:0.8;" x="150.57" xlink:href="#m397ec86d3a" y="139.224229"/>
      </g>
     </g>
     <g id="text_10">
      <!-- −5000 -->
      <g transform="translate(109.740312 143.023448)scale(0.1 -0.1)">
       <defs>
        <path d="M 10.59375 35.5 
L 73.1875 35.5 
L 73.1875 27.203125 
L 10.59375 27.203125 
z
" id="DejaVuSans-8722"/>
       </defs>
       <use xlink:href="#DejaVuSans-8722"/>
       <use x="83.789062" xlink:href="#DejaVuSans-53"/>
       <use x="147.412109" xlink:href="#DejaVuSans-48"/>
       <use x="211.035156" xlink:href="#DejaVuSans-48"/>
       <use x="274.658203" xlink:href="#DejaVuSans-48"/>
      </g>
     </g>
    </g>
    <g id="ytick_2">
     <g id="line2d_10">
      <g>
       <use style="stroke:#000000;stroke-width:0.8;" x="150.57" xlink:href="#m397ec86d3a" y="113.131773"/>
      </g>
     </g>
     <g id="text_11">
      <!-- 0 -->
      <g transform="translate(137.2075 116.930992)scale(0.1 -0.1)">
       <use xlink:href="#DejaVuSans-48"/>
      </g>
     </g>
    </g>
    <g id="ytick_3">
     <g id="line2d_11">
      <g>
       <use style="stroke:#000000;stroke-width:0.8;" x="150.57" xlink:href="#m397ec86d3a" y="87.039317"/>
      </g>
     </g>
     <g id="text_12">
      <!-- 5000 -->
      <g transform="translate(118.12 90.838536)scale(0.1 -0.1)">
       <use xlink:href="#DejaVuSans-53"/>
       <use x="63.623047" xlink:href="#DejaVuSans-48"/>
       <use x="127.246094" xlink:href="#DejaVuSans-48"/>
       <use x="190.869141" xlink:href="#DejaVuSans-48"/>
      </g>
     </g>
    </g>
    <g id="text_13">
     <!-- Amplitude -->
     <g transform="translate(103.660625 129.78185)rotate(-90)scale(0.1 -0.1)">
      <defs>
       <path d="M 34.1875 63.1875 
L 20.796875 26.90625 
L 47.609375 26.90625 
z
M 28.609375 72.90625 
L 39.796875 72.90625 
L 67.578125 0 
L 57.328125 0 
L 50.6875 18.703125 
L 17.828125 18.703125 
L 11.1875 0 
L 0.78125 0 
z
" id="DejaVuSans-65"/>
       <path d="M 8.5 21.578125 
L 8.5 54.6875 
L 17.484375 54.6875 
L 17.484375 21.921875 
Q 17.484375 14.15625 20.5 10.265625 
Q 23.53125 6.390625 29.59375 6.390625 
Q 36.859375 6.390625 41.078125 11.03125 
Q 45.3125 15.671875 45.3125 23.6875 
L 45.3125 54.6875 
L 54.296875 54.6875 
L 54.296875 0 
L 45.3125 0 
L 45.3125 8.40625 
Q 42.046875 3.421875 37.71875 1 
Q 33.40625 -1.421875 27.6875 -1.421875 
Q 18.265625 -1.421875 13.375 4.4375 
Q 8.5 10.296875 8.5 21.578125 
z
M 31.109375 56 
z
" id="DejaVuSans-117"/>
       <path d="M 45.40625 46.390625 
L 45.40625 75.984375 
L 54.390625 75.984375 
L 54.390625 0 
L 45.40625 0 
L 45.40625 8.203125 
Q 42.578125 3.328125 38.25 0.953125 
Q 33.9375 -1.421875 27.875 -1.421875 
Q 17.96875 -1.421875 11.734375 6.484375 
Q 5.515625 14.40625 5.515625 27.296875 
Q 5.515625 40.1875 11.734375 48.09375 
Q 17.96875 56 27.875 56 
Q 33.9375 56 38.25 53.625 
Q 42.578125 51.265625 45.40625 46.390625 
z
M 14.796875 27.296875 
Q 14.796875 17.390625 18.875 11.75 
Q 22.953125 6.109375 30.078125 6.109375 
Q 37.203125 6.109375 41.296875 11.75 
Q 45.40625 17.390625 45.40625 27.296875 
Q 45.40625 37.203125 41.296875 42.84375 
Q 37.203125 48.484375 30.078125 48.484375 
Q 22.953125 48.484375 18.875 42.84375 
Q 14.796875 37.203125 14.796875 27.296875 
z
" id="DejaVuSans-100"/>
      </defs>
      <use xlink:href="#DejaVuSans-65"/>
      <use x="68.408203" xlink:href="#DejaVuSans-109"/>
      <use x="165.820312" xlink:href="#DejaVuSans-112"/>
      <use x="229.296875" xlink:href="#DejaVuSans-108"/>
      <use x="257.080078" xlink:href="#DejaVuSans-105"/>
      <use x="284.863281" xlink:href="#DejaVuSans-116"/>
      <use x="324.072266" xlink:href="#DejaVuSans-117"/>
      <use x="387.451172" xlink:href="#DejaVuSans-100"/>
      <use x="450.927734" xlink:href="#DejaVuSans-101"/>
     </g>
    </g>
   </g>
   <g id="line2d_12">
    <path clip-path="url(#p3affc62d15)" d="M 193.003364 113.131773 
L 221.713353 113.049503 
L 225.158551 113.029335 
L 228.60375 113.314332 
L 230.900549 113.444906 
L 233.197348 113.292782 
L 236.642547 112.982595 
L 240.087745 113.007166 
L 243.532944 113.045331 
L 245.829743 112.952477 
L 249.274942 112.648363 
L 251.571741 112.808431 
L 258.462138 113.944221 
L 260.758938 113.51303 
L 264.204136 112.729038 
L 265.352536 112.568614 
L 266.500935 112.529937 
L 272.242933 113.018777 
L 276.836531 113.583869 
L 281.43013 114.516061 
L 282.578529 114.476252 
L 283.726929 114.281218 
L 288.320527 113.055745 
L 289.468926 112.86779 
L 290.617326 112.554539 
L 291.765726 112.42877 
L 294.062525 112.811899 
L 295.210924 113.223628 
L 296.359324 113.507814 
L 299.804522 113.627172 
L 304.398121 114.28596 
L 305.54652 114.211063 
L 310.140118 114.696929 
L 311.288518 114.671358 
L 314.733717 113.097128 
L 315.882116 112.843684 
L 318.178915 113.320476 
L 319.327315 113.494414 
L 322.772514 114.94492 
L 323.920913 114.509073 
L 325.069313 112.353703 
L 326.217712 108.401386 
L 327.366112 104.908481 
L 328.514511 103.512364 
L 329.662911 103.703495 
L 330.81131 107.023682 
L 331.95971 111.979716 
L 333.10811 116.137421 
L 334.256509 119.467095 
L 335.404909 120.536746 
L 336.553308 120.269966 
L 337.701708 118.962373 
L 339.998507 114.254815 
L 341.146907 111.455397 
L 342.295306 109.592769 
L 343.443706 108.806181 
L 344.592105 109.181479 
L 345.740505 110.961343 
L 346.888904 112.073732 
L 348.037304 112.947191 
L 349.185703 112.377482 
L 350.334103 110.010495 
L 351.482503 108.027085 
L 352.630902 106.727462 
L 353.779302 107.366234 
L 354.927701 109.52762 
L 357.2245 115.455508 
L 359.521299 119.47856 
L 360.669699 120.303222 
L 361.818099 120.001052 
L 362.966498 118.732178 
L 366.411697 109.420204 
L 367.560096 107.72239 
L 368.708496 108.172214 
L 369.856895 109.469166 
L 371.005295 111.463074 
L 372.153695 112.261553 
L 373.302094 112.138111 
L 374.450494 111.700967 
L 375.598893 110.617398 
L 376.747293 110.36778 
L 377.895692 110.271954 
L 379.044092 110.758515 
L 380.192491 112.086199 
L 381.340891 113.187707 
L 383.63769 116.795303 
L 384.78609 118.071167 
L 385.934489 118.623818 
L 387.082889 117.716842 
L 388.231288 116.314109 
L 390.528087 112.242879 
L 391.676487 111.111624 
L 392.824887 110.499859 
L 395.121686 111.658434 
L 397.418485 112.630018 
L 398.566884 112.218494 
L 399.715284 112.067616 
L 400.863683 111.537824 
L 403.160483 109.41751 
L 404.308882 108.351005 
L 405.457282 107.993707 
L 406.605681 109.300247 
L 407.754081 112.028222 
L 408.90248 114.359825 
L 411.199279 116.048246 
L 412.347679 116.456652 
L 413.496079 115.580437 
L 414.644478 115.541371 
L 415.792878 116.233067 
L 416.941277 115.95394 
L 418.089677 115.487128 
L 421.534876 112.558551 
L 422.683275 112.16823 
L 423.831675 112.92694 
L 424.980074 112.446935 
L 426.128474 111.363441 
L 427.276873 110.634467 
L 428.425273 110.057169 
L 429.573672 110.989411 
L 430.722072 112.595488 
L 431.870472 115.060973 
L 433.018871 116.903873 
L 435.31567 117.370173 
L 436.46407 117.05883 
L 437.612469 117.84104 
L 438.760869 119.387611 
L 439.909268 119.680953 
L 441.057668 119.476757 
L 443.354467 115.357615 
L 444.502867 113.618737 
L 445.651266 111.604195 
L 446.799666 110.809051 
L 447.948065 109.494321 
L 449.096465 108.693842 
L 450.244864 108.458949 
L 451.393264 109.246169 
L 452.541664 112.265862 
L 453.690063 114.605856 
L 454.838463 117.959579 
L 455.986862 120.321124 
L 457.135262 119.806409 
L 458.283661 120.281284 
L 459.432061 119.879007 
L 460.58046 116.938595 
L 461.72886 114.372295 
L 464.025659 112.486135 
L 465.174059 111.169459 
L 467.470858 115.631637 
L 468.619257 115.030742 
L 469.767657 115.467362 
L 470.916056 114.770905 
L 472.064456 112.735294 
L 473.212856 112.903514 
L 475.509655 114.264936 
L 476.658054 116.214197 
L 477.806454 120.222298 
L 478.954853 125.604913 
L 480.103253 128.779622 
L 481.251652 128.341181 
L 482.400052 119.963762 
L 484.696851 83.035507 
L 485.845251 71.663735 
L 486.99365 69.155835 
L 488.14205 78.684074 
L 490.438849 116.202178 
L 491.587248 128.595693 
L 492.735648 135.039147 
L 493.884048 137.089747 
L 495.032447 134.22297 
L 496.180847 129.555634 
L 497.329246 123.683179 
L 499.626045 108.58565 
L 500.774445 103.939078 
L 501.922845 106.392986 
L 503.071244 111.799646 
L 504.219644 116.542302 
L 505.368043 118.623181 
L 506.516443 112.921128 
L 508.813242 93.4423 
L 509.961641 88.296083 
L 511.110041 90.963776 
L 512.258441 97.342088 
L 514.55524 116.361915 
L 516.852039 129.667618 
L 518.000438 133.534699 
L 519.148838 134.608729 
L 520.297237 131.297986 
L 521.445637 122.913601 
L 523.742436 103.704408 
L 524.890836 99.581965 
L 526.039235 101.23184 
L 527.187635 105.291369 
L 528.336034 110.870406 
L 529.484434 113.389489 
L 530.632833 113.131773 
L 531.781233 110.591833 
L 532.929633 107.338465 
L 534.078032 106.275488 
L 535.226432 105.007523 
L 536.374831 105.324205 
L 537.523231 106.961111 
L 538.67163 108.956345 
L 539.82003 113.698227 
L 542.116829 124.372227 
L 543.265229 126.885 
L 544.413628 124.319478 
L 545.562028 119.209984 
L 546.710427 113.136643 
L 547.858827 109.051391 
L 549.007226 108.196076 
L 550.155626 109.999178 
L 551.304025 112.075512 
L 552.452425 112.201292 
L 553.600825 112.500305 
L 554.749224 112.316121 
L 557.046023 111.707438 
L 558.194423 110.491466 
L 559.342822 108.683159 
L 560.491222 104.986787 
L 561.639621 102.372252 
L 562.788021 103.074541 
L 563.936421 104.998871 
L 565.08482 109.136365 
L 566.23322 112.819668 
L 567.381619 114.049428 
L 568.530019 114.31347 
L 569.678418 114.05734 
L 570.826818 114.34745 
L 571.975217 115.160862 
L 573.123617 117.01793 
L 574.272017 118.172978 
L 575.420416 118.53635 
L 576.568816 118.502638 
L 577.717215 116.252175 
L 578.865615 115.356087 
L 580.014014 113.300717 
L 581.162414 110.763805 
L 582.310814 109.580948 
L 583.459213 106.685029 
L 584.607613 106.431405 
L 585.756012 106.558423 
L 586.904412 107.056926 
L 589.201211 111.39215 
L 590.34961 115.637565 
L 591.49801 117.268487 
L 592.64641 119.171019 
L 593.794809 122.557476 
L 594.943209 123.440187 
L 596.091608 124.759413 
L 597.240008 124.54903 
L 598.388407 123.449981 
L 599.536807 121.949158 
L 600.685206 119.983643 
L 601.833606 119.123696 
L 602.982006 116.410147 
L 604.130405 112.673642 
L 605.278805 108.408026 
L 606.427204 104.931257 
L 607.575604 103.417201 
L 608.724003 104.321485 
L 611.020802 114.503486 
L 612.169202 118.082309 
L 613.317602 120.175176 
L 614.466001 120.854267 
L 615.614401 121.230542 
L 616.7628 120.90729 
L 617.9112 121.058625 
L 619.059599 120.119048 
L 620.207999 117.113032 
L 621.356398 113.517856 
L 622.504798 109.469732 
L 623.653198 106.763478 
L 624.801597 108.157133 
L 625.949997 112.412353 
L 628.246796 122.436805 
L 629.395195 125.198942 
L 630.543595 125.345116 
L 631.691994 123.33116 
L 632.840394 121.084594 
L 633.988794 121.439276 
L 635.137193 120.634603 
L 636.285593 121.206666 
L 637.433992 118.669142 
L 638.582392 105.191578 
L 639.730791 85.430177 
L 640.879191 68.929368 
L 642.02759 66.178836 
L 643.17599 69.556663 
L 644.32439 78.59834 
L 645.472789 97.960401 
L 646.621189 114.658365 
L 647.769588 127.600111 
L 648.917988 134.591675 
L 651.214787 142.139551 
L 652.363186 138.32108 
L 653.511586 131.357946 
L 655.808385 110.365442 
L 656.956785 105.803168 
L 658.105184 103.211228 
L 659.253584 105.582684 
L 660.401983 107.164736 
L 661.550383 106.436406 
L 662.698783 103.371855 
L 663.847182 94.78011 
L 664.995582 90.39721 
L 666.143981 90.901717 
L 667.292381 96.245918 
L 668.44078 103.642773 
L 669.58918 108.598619 
L 671.885979 125.097274 
L 673.034379 132.115927 
L 674.182778 136.63345 
L 675.331178 137.153292 
L 676.479577 135.90007 
L 677.627977 127.191492 
L 678.776376 116.598996 
L 679.924776 108.692649 
L 681.073175 103.580818 
L 682.221575 104.073128 
L 683.369975 103.404347 
L 684.518374 103.812426 
L 685.666774 105.45674 
L 686.815173 104.990533 
L 687.963573 106.216597 
L 689.111972 106.737747 
L 690.260372 107.615478 
L 691.408771 108.735963 
L 692.557171 108.640416 
L 693.705571 109.902637 
L 694.85397 111.446812 
L 696.00237 115.051895 
L 697.150769 119.660639 
L 698.299169 122.330317 
L 699.447568 124.040123 
L 700.595968 123.423307 
L 702.892767 120.690331 
L 704.041167 118.06584 
L 705.189566 115.919796 
L 706.337966 113.164479 
L 707.486365 109.08346 
L 708.634765 105.61187 
L 709.783164 104.35635 
L 712.079963 108.280751 
L 713.228363 109.254829 
L 714.376763 109.857098 
L 715.525162 109.13818 
L 716.673562 108.951218 
L 717.821961 109.241252 
L 718.970361 109.836527 
L 720.11876 111.867609 
L 722.415559 114.110251 
L 723.563959 114.934954 
L 724.712359 113.952531 
L 725.860758 116.456084 
L 727.009158 119.985321 
L 728.157557 118.196023 
L 729.305957 115.309099 
L 730.454356 114.429778 
L 731.602756 113.947538 
L 732.751155 112.081404 
L 733.899555 111.448239 
L 735.047955 113.500609 
L 736.196354 113.080512 
L 737.344754 113.16581 
L 738.493153 113.131773 
L 739.641553 111.743417 
L 740.789952 113.203214 
L 741.938352 113.638132 
L 743.086752 113.106771 
L 744.235151 111.849671 
L 745.383551 109.785475 
L 747.68035 113.692784 
L 748.828749 116.001759 
L 749.977149 119.393712 
L 751.125548 121.255785 
L 752.273948 122.002501 
L 753.422348 120.156118 
L 754.570747 119.182965 
L 755.719147 119.550722 
L 756.867546 118.821554 
L 758.015946 117.5257 
L 759.164345 114.62833 
L 760.312745 112.79739 
L 761.461144 110.315297 
L 762.609544 107.542572 
L 763.757944 108.099484 
L 764.906343 108.464405 
L 766.054743 110.486103 
L 767.203142 113.339152 
L 768.351542 114.90957 
L 769.499941 117.384697 
L 771.79674 120.147248 
L 772.94514 120.780435 
L 774.09354 118.57374 
L 775.241939 115.425615 
L 776.390339 114.23253 
L 777.538738 115.353063 
L 778.687138 114.102246 
L 779.835537 113.809297 
L 780.983937 115.353477 
L 782.132336 114.386818 
L 783.280736 113.76253 
L 784.429136 112.91701 
L 785.577535 112.553361 
L 787.874334 115.607529 
L 789.022734 117.92066 
L 790.171133 119.509323 
L 791.319533 119.999515 
L 793.616332 121.466565 
L 794.764732 117.232784 
L 797.061531 91.216561 
L 798.20993 83.935512 
L 799.35833 81.745303 
L 800.506729 84.598286 
L 801.655129 95.186004 
L 802.803528 109.45443 
L 803.951928 120.587063 
L 805.100328 126.512302 
L 806.248727 128.492567 
L 807.397127 129.022894 
L 808.545526 126.615681 
L 810.842325 118.395098 
L 811.990725 112.778179 
L 813.139124 108.803361 
L 814.287524 107.628501 
L 815.435924 108.744748 
L 816.584323 110.690664 
L 817.732723 111.96887 
L 818.881122 112.143974 
L 820.029522 108.432638 
L 821.177921 103.470077 
L 822.326321 100.365337 
L 823.474721 100.135751 
L 824.62312 103.266667 
L 825.77152 106.787731 
L 826.919919 111.709123 
L 828.068319 117.567166 
L 829.216718 121.891325 
L 830.365118 124.964433 
L 831.513517 126.179246 
L 832.661917 125.80164 
L 833.810317 122.958176 
L 836.107116 113.116882 
L 837.255515 108.861938 
L 838.403915 106.972362 
L 839.552314 107.168373 
L 840.700714 108.273589 
L 841.849113 109.639152 
L 842.997513 110.066314 
L 845.294312 111.151862 
L 847.591111 111.07437 
L 848.739511 110.677928 
L 849.88791 111.085516 
L 851.03631 111.957424 
L 852.184709 112.614561 
L 853.333109 114.076194 
L 855.629908 118.51481 
L 856.778308 118.866011 
L 857.926707 117.728794 
L 861.371906 113.325707 
L 862.520305 112.216064 
L 863.668705 111.402429 
L 864.817105 110.999606 
L 867.113904 110.906717 
L 868.262303 111.214254 
L 869.410703 112.120096 
L 870.559102 112.548544 
L 871.707502 112.55348 
L 872.855901 112.206581 
L 874.004301 111.500855 
L 876.3011 110.476316 
L 877.4495 110.588432 
L 878.597899 111.15421 
L 879.746299 112.050527 
L 880.894698 112.775835 
L 882.043098 113.251631 
L 883.191497 114.611045 
L 884.339897 115.266303 
L 885.488297 115.220097 
L 886.636696 114.754556 
L 887.785096 113.127219 
L 890.081895 111.615498 
L 891.230294 111.256912 
L 892.378694 112.375367 
L 893.527093 113.235305 
L 894.675493 113.91077 
L 895.823893 113.826764 
L 896.972292 113.509695 
L 898.120692 113.545834 
L 901.56589 111.946953 
L 902.71429 111.986033 
L 903.86269 112.672639 
L 905.011089 113.090109 
L 906.159489 114.037966 
L 908.456288 115.508076 
L 909.604687 115.917172 
L 911.901486 114.578278 
L 913.049886 114.018665 
L 916.495085 113.094241 
L 917.643484 113.206589 
L 922.237082 112.785955 
L 923.385482 113.329733 
L 925.682281 113.823613 
L 926.830681 114.038048 
L 929.12748 114.276008 
L 931.424279 113.807426 
L 933.721078 113.702078 
L 936.017877 113.419949 
L 937.166277 113.445972 
L 940.611475 112.666945 
L 941.759875 112.726742 
L 947.501873 114.783621 
L 948.650272 115.040141 
L 950.947071 114.970432 
L 952.095471 114.667057 
L 953.24387 113.540154 
L 955.54067 109.038431 
L 956.689069 108.071558 
L 957.837469 107.974767 
L 958.985868 108.792032 
L 961.282667 112.511309 
L 962.431067 113.932777 
L 963.579466 114.687703 
L 965.876266 115.100486 
L 968.173065 114.548367 
L 969.321464 114.057093 
L 970.469864 113.263893 
L 971.618263 112.907709 
L 972.766663 112.835105 
L 973.915062 113.071337 
L 975.063462 113.132395 
L 977.360261 112.980574 
L 978.508661 112.359467 
L 979.65706 111.882323 
L 980.80546 111.699747 
L 981.953859 111.848992 
L 986.547458 113.436922 
L 988.844257 113.997318 
L 991.141056 114.00973 
L 995.734654 112.905062 
L 1002.625051 113.065731 
L 1007.21865 112.988597 
L 1017.554246 113.221826 
L 1022.147844 113.121815 
L 1041.670636 113.131773 
L 1041.670636 113.131773 
" style="fill:none;stroke:#1f77b4;stroke-linecap:square;stroke-width:1.5;"/>
   </g>
   <g id="patch_3">
    <path d="M 150.57 145.937587 
L 150.57 62.3808 
" style="fill:none;stroke:#000000;stroke-linecap:square;stroke-linejoin:miter;stroke-width:0.8;"/>
   </g>
   <g id="patch_4">
    <path d="M 1084.104 145.937587 
L 1084.104 62.3808 
" style="fill:none;stroke:#000000;stroke-linecap:square;stroke-linejoin:miter;stroke-width:0.8;"/>
   </g>
   <g id="patch_5">
    <path d="M 150.57 145.937587 
L 1084.104 145.937587 
" style="fill:none;stroke:#000000;stroke-linecap:square;stroke-linejoin:miter;stroke-width:0.8;"/>
   </g>
   <g id="patch_6">
    <path d="M 150.57 62.3808 
L 1084.104 62.3808 
" style="fill:none;stroke:#000000;stroke-linecap:square;stroke-linejoin:miter;stroke-width:0.8;"/>
   </g>
   <g id="text_14">
    <!-- A window with size 740 sample of lab_male.wav apply hanning window -->
    <g transform="translate(403.273875 56.3808)scale(0.12 -0.12)">
     <defs>
      <path d="M 4.203125 54.6875 
L 13.1875 54.6875 
L 24.421875 12.015625 
L 35.59375 54.6875 
L 46.1875 54.6875 
L 57.421875 12.015625 
L 68.609375 54.6875 
L 77.59375 54.6875 
L 63.28125 0 
L 52.6875 0 
L 40.921875 44.828125 
L 29.109375 0 
L 18.5 0 
z
" id="DejaVuSans-119"/>
      <path d="M 54.890625 33.015625 
L 54.890625 0 
L 45.90625 0 
L 45.90625 32.71875 
Q 45.90625 40.484375 42.875 44.328125 
Q 39.84375 48.1875 33.796875 48.1875 
Q 26.515625 48.1875 22.3125 43.546875 
Q 18.109375 38.921875 18.109375 30.90625 
L 18.109375 0 
L 9.078125 0 
L 9.078125 54.6875 
L 18.109375 54.6875 
L 18.109375 46.1875 
Q 21.34375 51.125 25.703125 53.5625 
Q 30.078125 56 35.796875 56 
Q 45.21875 56 50.046875 50.171875 
Q 54.890625 44.34375 54.890625 33.015625 
z
" id="DejaVuSans-110"/>
      <path d="M 30.609375 48.390625 
Q 23.390625 48.390625 19.1875 42.75 
Q 14.984375 37.109375 14.984375 27.296875 
Q 14.984375 17.484375 19.15625 11.84375 
Q 23.34375 6.203125 30.609375 6.203125 
Q 37.796875 6.203125 41.984375 11.859375 
Q 46.1875 17.53125 46.1875 27.296875 
Q 46.1875 37.015625 41.984375 42.703125 
Q 37.796875 48.390625 30.609375 48.390625 
z
M 30.609375 56 
Q 42.328125 56 49.015625 48.375 
Q 55.71875 40.765625 55.71875 27.296875 
Q 55.71875 13.875 49.015625 6.21875 
Q 42.328125 -1.421875 30.609375 -1.421875 
Q 18.84375 -1.421875 12.171875 6.21875 
Q 5.515625 13.875 5.515625 27.296875 
Q 5.515625 40.765625 12.171875 48.375 
Q 18.84375 56 30.609375 56 
z
" id="DejaVuSans-111"/>
      <path d="M 54.890625 33.015625 
L 54.890625 0 
L 45.90625 0 
L 45.90625 32.71875 
Q 45.90625 40.484375 42.875 44.328125 
Q 39.84375 48.1875 33.796875 48.1875 
Q 26.515625 48.1875 22.3125 43.546875 
Q 18.109375 38.921875 18.109375 30.90625 
L 18.109375 0 
L 9.078125 0 
L 9.078125 75.984375 
L 18.109375 75.984375 
L 18.109375 46.1875 
Q 21.34375 51.125 25.703125 53.5625 
Q 30.078125 56 35.796875 56 
Q 45.21875 56 50.046875 50.171875 
Q 54.890625 44.34375 54.890625 33.015625 
z
" id="DejaVuSans-104"/>
      <path d="M 5.515625 54.6875 
L 48.1875 54.6875 
L 48.1875 46.484375 
L 14.40625 7.171875 
L 48.1875 7.171875 
L 48.1875 0 
L 4.296875 0 
L 4.296875 8.203125 
L 38.09375 47.515625 
L 5.515625 47.515625 
z
" id="DejaVuSans-122"/>
      <path d="M 37.109375 75.984375 
L 37.109375 68.5 
L 28.515625 68.5 
Q 23.6875 68.5 21.796875 66.546875 
Q 19.921875 64.59375 19.921875 59.515625 
L 19.921875 54.6875 
L 34.71875 54.6875 
L 34.71875 47.703125 
L 19.921875 47.703125 
L 19.921875 0 
L 10.890625 0 
L 10.890625 47.703125 
L 2.296875 47.703125 
L 2.296875 54.6875 
L 10.890625 54.6875 
L 10.890625 58.5 
Q 10.890625 67.625 15.140625 71.796875 
Q 19.390625 75.984375 28.609375 75.984375 
z
" id="DejaVuSans-102"/>
      <path d="M 48.6875 27.296875 
Q 48.6875 37.203125 44.609375 42.84375 
Q 40.53125 48.484375 33.40625 48.484375 
Q 26.265625 48.484375 22.1875 42.84375 
Q 18.109375 37.203125 18.109375 27.296875 
Q 18.109375 17.390625 22.1875 11.75 
Q 26.265625 6.109375 33.40625 6.109375 
Q 40.53125 6.109375 44.609375 11.75 
Q 48.6875 17.390625 48.6875 27.296875 
z
M 18.109375 46.390625 
Q 20.953125 51.265625 25.265625 53.625 
Q 29.59375 56 35.59375 56 
Q 45.5625 56 51.78125 48.09375 
Q 58.015625 40.1875 58.015625 27.296875 
Q 58.015625 14.40625 51.78125 6.484375 
Q 45.5625 -1.421875 35.59375 -1.421875 
Q 29.59375 -1.421875 25.265625 0.953125 
Q 20.953125 3.328125 18.109375 8.203125 
L 18.109375 0 
L 9.078125 0 
L 9.078125 75.984375 
L 18.109375 75.984375 
z
" id="DejaVuSans-98"/>
      <path d="M 50.984375 -16.609375 
L 50.984375 -23.578125 
L -0.984375 -23.578125 
L -0.984375 -16.609375 
z
" id="DejaVuSans-95"/>
      <path d="M 10.6875 12.40625 
L 21 12.40625 
L 21 0 
L 10.6875 0 
z
" id="DejaVuSans-46"/>
      <path d="M 2.984375 54.6875 
L 12.5 54.6875 
L 29.59375 8.796875 
L 46.6875 54.6875 
L 56.203125 54.6875 
L 35.6875 0 
L 23.484375 0 
z
" id="DejaVuSans-118"/>
      <path d="M 32.171875 -5.078125 
Q 28.375 -14.84375 24.75 -17.8125 
Q 21.140625 -20.796875 15.09375 -20.796875 
L 7.90625 -20.796875 
L 7.90625 -13.28125 
L 13.1875 -13.28125 
Q 16.890625 -13.28125 18.9375 -11.515625 
Q 21 -9.765625 23.484375 -3.21875 
L 25.09375 0.875 
L 2.984375 54.6875 
L 12.5 54.6875 
L 29.59375 11.921875 
L 46.6875 54.6875 
L 56.203125 54.6875 
z
" id="DejaVuSans-121"/>
      <path d="M 45.40625 27.984375 
Q 45.40625 37.75 41.375 43.109375 
Q 37.359375 48.484375 30.078125 48.484375 
Q 22.859375 48.484375 18.828125 43.109375 
Q 14.796875 37.75 14.796875 27.984375 
Q 14.796875 18.265625 18.828125 12.890625 
Q 22.859375 7.515625 30.078125 7.515625 
Q 37.359375 7.515625 41.375 12.890625 
Q 45.40625 18.265625 45.40625 27.984375 
z
M 54.390625 6.78125 
Q 54.390625 -7.171875 48.1875 -13.984375 
Q 42 -20.796875 29.203125 -20.796875 
Q 24.46875 -20.796875 20.265625 -20.09375 
Q 16.0625 -19.390625 12.109375 -17.921875 
L 12.109375 -9.1875 
Q 16.0625 -11.328125 19.921875 -12.34375 
Q 23.78125 -13.375 27.78125 -13.375 
Q 36.625 -13.375 41.015625 -8.765625 
Q 45.40625 -4.15625 45.40625 5.171875 
L 45.40625 9.625 
Q 42.625 4.78125 38.28125 2.390625 
Q 33.9375 0 27.875 0 
Q 17.828125 0 11.671875 7.65625 
Q 5.515625 15.328125 5.515625 27.984375 
Q 5.515625 40.671875 11.671875 48.328125 
Q 17.828125 56 27.875 56 
Q 33.9375 56 38.28125 53.609375 
Q 42.625 51.21875 45.40625 46.390625 
L 45.40625 54.6875 
L 54.390625 54.6875 
z
" id="DejaVuSans-103"/>
     </defs>
     <use xlink:href="#DejaVuSans-65"/>
     <use x="68.408203" xlink:href="#DejaVuSans-32"/>
     <use x="100.195312" xlink:href="#DejaVuSans-119"/>
     <use x="181.982422" xlink:href="#DejaVuSans-105"/>
     <use x="209.765625" xlink:href="#DejaVuSans-110"/>
     <use x="273.144531" xlink:href="#DejaVuSans-100"/>
     <use x="336.621094" xlink:href="#DejaVuSans-111"/>
     <use x="397.802734" xlink:href="#DejaVuSans-119"/>
     <use x="479.589844" xlink:href="#DejaVuSans-32"/>
     <use x="511.376953" xlink:href="#DejaVuSans-119"/>
     <use x="593.164062" xlink:href="#DejaVuSans-105"/>
     <use x="620.947266" xlink:href="#DejaVuSans-116"/>
     <use x="660.15625" xlink:href="#DejaVuSans-104"/>
     <use x="723.535156" xlink:href="#DejaVuSans-32"/>
     <use x="755.322266" xlink:href="#DejaVuSans-115"/>
     <use x="807.421875" xlink:href="#DejaVuSans-105"/>
     <use x="835.205078" xlink:href="#DejaVuSans-122"/>
     <use x="887.695312" xlink:href="#DejaVuSans-101"/>
     <use x="949.21875" xlink:href="#DejaVuSans-32"/>
     <use x="981.005859" xlink:href="#DejaVuSans-55"/>
     <use x="1044.628906" xlink:href="#DejaVuSans-52"/>
     <use x="1108.251953" xlink:href="#DejaVuSans-48"/>
     <use x="1171.875" xlink:href="#DejaVuSans-32"/>
     <use x="1203.662109" xlink:href="#DejaVuSans-115"/>
     <use x="1255.761719" xlink:href="#DejaVuSans-97"/>
     <use x="1317.041016" xlink:href="#DejaVuSans-109"/>
     <use x="1414.453125" xlink:href="#DejaVuSans-112"/>
     <use x="1477.929688" xlink:href="#DejaVuSans-108"/>
     <use x="1505.712891" xlink:href="#DejaVuSans-101"/>
     <use x="1567.236328" xlink:href="#DejaVuSans-32"/>
     <use x="1599.023438" xlink:href="#DejaVuSans-111"/>
     <use x="1660.205078" xlink:href="#DejaVuSans-102"/>
     <use x="1695.410156" xlink:href="#DejaVuSans-32"/>
     <use x="1727.197266" xlink:href="#DejaVuSans-108"/>
     <use x="1754.980469" xlink:href="#DejaVuSans-97"/>
     <use x="1816.259766" xlink:href="#DejaVuSans-98"/>
     <use x="1879.736328" xlink:href="#DejaVuSans-95"/>
     <use x="1929.736328" xlink:href="#DejaVuSans-109"/>
     <use x="2027.148438" xlink:href="#DejaVuSans-97"/>
     <use x="2088.427734" xlink:href="#DejaVuSans-108"/>
     <use x="2116.210938" xlink:href="#DejaVuSans-101"/>
     <use x="2177.734375" xlink:href="#DejaVuSans-46"/>
     <use x="2209.521484" xlink:href="#DejaVuSans-119"/>
     <use x="2291.308594" xlink:href="#DejaVuSans-97"/>
     <use x="2352.587891" xlink:href="#DejaVuSans-118"/>
     <use x="2411.767578" xlink:href="#DejaVuSans-32"/>
     <use x="2443.554688" xlink:href="#DejaVuSans-97"/>
     <use x="2504.833984" xlink:href="#DejaVuSans-112"/>
     <use x="2568.310547" xlink:href="#DejaVuSans-112"/>
     <use x="2631.787109" xlink:href="#DejaVuSans-108"/>
     <use x="2659.570312" xlink:href="#DejaVuSans-121"/>
     <use x="2718.75" xlink:href="#DejaVuSans-32"/>
     <use x="2750.537109" xlink:href="#DejaVuSans-104"/>
     <use x="2813.916016" xlink:href="#DejaVuSans-97"/>
     <use x="2875.195312" xlink:href="#DejaVuSans-110"/>
     <use x="2938.574219" xlink:href="#DejaVuSans-110"/>
     <use x="3001.953125" xlink:href="#DejaVuSans-105"/>
     <use x="3029.736328" xlink:href="#DejaVuSans-110"/>
     <use x="3093.115234" xlink:href="#DejaVuSans-103"/>
     <use x="3156.591797" xlink:href="#DejaVuSans-32"/>
     <use x="3188.378906" xlink:href="#DejaVuSans-119"/>
     <use x="3270.166016" xlink:href="#DejaVuSans-105"/>
     <use x="3297.949219" xlink:href="#DejaVuSans-110"/>
     <use x="3361.328125" xlink:href="#DejaVuSans-100"/>
     <use x="3424.804688" xlink:href="#DejaVuSans-111"/>
     <use x="3485.986328" xlink:href="#DejaVuSans-119"/>
    </g>
   </g>
  </g>
  <g id="axes_2">
   <g id="patch_7">
    <path d="M 150.57 304.297594 
L 1084.104 304.297594 
L 1084.104 220.740806 
L 150.57 220.740806 
z
" style="fill:#ffffff;"/>
   </g>
   <g id="matplotlib.axis_3">
    <g id="xtick_9">
     <g id="line2d_13">
      <g>
       <use style="stroke:#000000;stroke-width:0.8;" x="175.240479" xlink:href="#m5768c9ca43" y="304.297594"/>
      </g>
     </g>
     <g id="text_15">
      <!-- 0 -->
      <g transform="translate(172.059229 318.896031)scale(0.1 -0.1)">
       <use xlink:href="#DejaVuSans-48"/>
      </g>
     </g>
    </g>
    <g id="xtick_10">
     <g id="line2d_14">
      <g>
       <use style="stroke:#000000;stroke-width:0.8;" x="287.982361" xlink:href="#m5768c9ca43" y="304.297594"/>
      </g>
     </g>
     <g id="text_16">
      <!-- 250 -->
      <g transform="translate(278.438611 318.896031)scale(0.1 -0.1)">
       <use xlink:href="#DejaVuSans-50"/>
       <use x="63.623047" xlink:href="#DejaVuSans-53"/>
       <use x="127.246094" xlink:href="#DejaVuSans-48"/>
      </g>
     </g>
    </g>
    <g id="xtick_11">
     <g id="line2d_15">
      <g>
       <use style="stroke:#000000;stroke-width:0.8;" x="400.724244" xlink:href="#m5768c9ca43" y="304.297594"/>
      </g>
     </g>
     <g id="text_17">
      <!-- 500 -->
      <g transform="translate(391.180494 318.896031)scale(0.1 -0.1)">
       <use xlink:href="#DejaVuSans-53"/>
       <use x="63.623047" xlink:href="#DejaVuSans-48"/>
       <use x="127.246094" xlink:href="#DejaVuSans-48"/>
      </g>
     </g>
    </g>
    <g id="xtick_12">
     <g id="line2d_16">
      <g>
       <use style="stroke:#000000;stroke-width:0.8;" x="513.466126" xlink:href="#m5768c9ca43" y="304.297594"/>
      </g>
     </g>
     <g id="text_18">
      <!-- 750 -->
      <g transform="translate(503.922376 318.896031)scale(0.1 -0.1)">
       <use xlink:href="#DejaVuSans-55"/>
       <use x="63.623047" xlink:href="#DejaVuSans-53"/>
       <use x="127.246094" xlink:href="#DejaVuSans-48"/>
      </g>
     </g>
    </g>
    <g id="xtick_13">
     <g id="line2d_17">
      <g>
       <use style="stroke:#000000;stroke-width:0.8;" x="626.208008" xlink:href="#m5768c9ca43" y="304.297594"/>
      </g>
     </g>
     <g id="text_19">
      <!-- 1000 -->
      <g transform="translate(613.483008 318.896031)scale(0.1 -0.1)">
       <use xlink:href="#DejaVuSans-49"/>
       <use x="63.623047" xlink:href="#DejaVuSans-48"/>
       <use x="127.246094" xlink:href="#DejaVuSans-48"/>
       <use x="190.869141" xlink:href="#DejaVuSans-48"/>
      </g>
     </g>
    </g>
    <g id="xtick_14">
     <g id="line2d_18">
      <g>
       <use style="stroke:#000000;stroke-width:0.8;" x="738.94989" xlink:href="#m5768c9ca43" y="304.297594"/>
      </g>
     </g>
     <g id="text_20">
      <!-- 1250 -->
      <g transform="translate(726.22489 318.896031)scale(0.1 -0.1)">
       <use xlink:href="#DejaVuSans-49"/>
       <use x="63.623047" xlink:href="#DejaVuSans-50"/>
       <use x="127.246094" xlink:href="#DejaVuSans-53"/>
       <use x="190.869141" xlink:href="#DejaVuSans-48"/>
      </g>
     </g>
    </g>
    <g id="xtick_15">
     <g id="line2d_19">
      <g>
       <use style="stroke:#000000;stroke-width:0.8;" x="851.691772" xlink:href="#m5768c9ca43" y="304.297594"/>
      </g>
     </g>
     <g id="text_21">
      <!-- 1500 -->
      <g transform="translate(838.966772 318.896031)scale(0.1 -0.1)">
       <use xlink:href="#DejaVuSans-49"/>
       <use x="63.623047" xlink:href="#DejaVuSans-53"/>
       <use x="127.246094" xlink:href="#DejaVuSans-48"/>
       <use x="190.869141" xlink:href="#DejaVuSans-48"/>
      </g>
     </g>
    </g>
    <g id="xtick_16">
     <g id="line2d_20">
      <g>
       <use style="stroke:#000000;stroke-width:0.8;" x="964.433654" xlink:href="#m5768c9ca43" y="304.297594"/>
      </g>
     </g>
     <g id="text_22">
      <!-- 1750 -->
      <g transform="translate(951.708654 318.896031)scale(0.1 -0.1)">
       <use xlink:href="#DejaVuSans-49"/>
       <use x="63.623047" xlink:href="#DejaVuSans-55"/>
       <use x="127.246094" xlink:href="#DejaVuSans-53"/>
       <use x="190.869141" xlink:href="#DejaVuSans-48"/>
      </g>
     </g>
    </g>
    <g id="xtick_17">
     <g id="line2d_21">
      <g>
       <use style="stroke:#000000;stroke-width:0.8;" x="1077.175536" xlink:href="#m5768c9ca43" y="304.297594"/>
      </g>
     </g>
     <g id="text_23">
      <!-- 2000 -->
      <g transform="translate(1064.450536 318.896031)scale(0.1 -0.1)">
       <use xlink:href="#DejaVuSans-50"/>
       <use x="63.623047" xlink:href="#DejaVuSans-48"/>
       <use x="127.246094" xlink:href="#DejaVuSans-48"/>
       <use x="190.869141" xlink:href="#DejaVuSans-48"/>
      </g>
     </g>
    </g>
    <g id="text_24">
     <!-- Frequency -->
     <g transform="translate(591.507313 332.574156)scale(0.1 -0.1)">
      <defs>
       <path d="M 9.8125 72.90625 
L 51.703125 72.90625 
L 51.703125 64.59375 
L 19.671875 64.59375 
L 19.671875 43.109375 
L 48.578125 43.109375 
L 48.578125 34.8125 
L 19.671875 34.8125 
L 19.671875 0 
L 9.8125 0 
z
" id="DejaVuSans-70"/>
       <path d="M 41.109375 46.296875 
Q 39.59375 47.171875 37.8125 47.578125 
Q 36.03125 48 33.890625 48 
Q 26.265625 48 22.1875 43.046875 
Q 18.109375 38.09375 18.109375 28.8125 
L 18.109375 0 
L 9.078125 0 
L 9.078125 54.6875 
L 18.109375 54.6875 
L 18.109375 46.1875 
Q 20.953125 51.171875 25.484375 53.578125 
Q 30.03125 56 36.53125 56 
Q 37.453125 56 38.578125 55.875 
Q 39.703125 55.765625 41.0625 55.515625 
z
" id="DejaVuSans-114"/>
       <path d="M 14.796875 27.296875 
Q 14.796875 17.390625 18.875 11.75 
Q 22.953125 6.109375 30.078125 6.109375 
Q 37.203125 6.109375 41.296875 11.75 
Q 45.40625 17.390625 45.40625 27.296875 
Q 45.40625 37.203125 41.296875 42.84375 
Q 37.203125 48.484375 30.078125 48.484375 
Q 22.953125 48.484375 18.875 42.84375 
Q 14.796875 37.203125 14.796875 27.296875 
z
M 45.40625 8.203125 
Q 42.578125 3.328125 38.25 0.953125 
Q 33.9375 -1.421875 27.875 -1.421875 
Q 17.96875 -1.421875 11.734375 6.484375 
Q 5.515625 14.40625 5.515625 27.296875 
Q 5.515625 40.1875 11.734375 48.09375 
Q 17.96875 56 27.875 56 
Q 33.9375 56 38.25 53.625 
Q 42.578125 51.265625 45.40625 46.390625 
L 45.40625 54.6875 
L 54.390625 54.6875 
L 54.390625 -20.796875 
L 45.40625 -20.796875 
z
" id="DejaVuSans-113"/>
       <path d="M 48.78125 52.59375 
L 48.78125 44.1875 
Q 44.96875 46.296875 41.140625 47.34375 
Q 37.3125 48.390625 33.40625 48.390625 
Q 24.65625 48.390625 19.8125 42.84375 
Q 14.984375 37.3125 14.984375 27.296875 
Q 14.984375 17.28125 19.8125 11.734375 
Q 24.65625 6.203125 33.40625 6.203125 
Q 37.3125 6.203125 41.140625 7.25 
Q 44.96875 8.296875 48.78125 10.40625 
L 48.78125 2.09375 
Q 45.015625 0.34375 40.984375 -0.53125 
Q 36.96875 -1.421875 32.421875 -1.421875 
Q 20.0625 -1.421875 12.78125 6.34375 
Q 5.515625 14.109375 5.515625 27.296875 
Q 5.515625 40.671875 12.859375 48.328125 
Q 20.21875 56 33.015625 56 
Q 37.15625 56 41.109375 55.140625 
Q 45.0625 54.296875 48.78125 52.59375 
z
" id="DejaVuSans-99"/>
      </defs>
      <use xlink:href="#DejaVuSans-70"/>
      <use x="50.269531" xlink:href="#DejaVuSans-114"/>
      <use x="89.132812" xlink:href="#DejaVuSans-101"/>
      <use x="150.65625" xlink:href="#DejaVuSans-113"/>
      <use x="214.132812" xlink:href="#DejaVuSans-117"/>
      <use x="277.511719" xlink:href="#DejaVuSans-101"/>
      <use x="339.035156" xlink:href="#DejaVuSans-110"/>
      <use x="402.414062" xlink:href="#DejaVuSans-99"/>
      <use x="457.394531" xlink:href="#DejaVuSans-121"/>
     </g>
    </g>
   </g>
   <g id="matplotlib.axis_4">
    <g id="ytick_4">
     <g id="line2d_22">
      <g>
       <use style="stroke:#000000;stroke-width:0.8;" x="150.57" xlink:href="#m397ec86d3a" y="302.160605"/>
      </g>
     </g>
     <g id="text_25">
      <!-- 0.0 -->
      <g transform="translate(127.666875 305.959824)scale(0.1 -0.1)">
       <use xlink:href="#DejaVuSans-48"/>
       <use x="63.623047" xlink:href="#DejaVuSans-46"/>
       <use x="95.410156" xlink:href="#DejaVuSans-48"/>
      </g>
     </g>
    </g>
    <g id="ytick_5">
     <g id="line2d_23">
      <g>
       <use style="stroke:#000000;stroke-width:0.8;" x="150.57" xlink:href="#m397ec86d3a" y="276.202778"/>
      </g>
     </g>
     <g id="text_26">
      <!-- 2.5 -->
      <g transform="translate(127.666875 280.001997)scale(0.1 -0.1)">
       <use xlink:href="#DejaVuSans-50"/>
       <use x="63.623047" xlink:href="#DejaVuSans-46"/>
       <use x="95.410156" xlink:href="#DejaVuSans-53"/>
      </g>
     </g>
    </g>
    <g id="ytick_6">
     <g id="line2d_24">
      <g>
       <use style="stroke:#000000;stroke-width:0.8;" x="150.57" xlink:href="#m397ec86d3a" y="250.244951"/>
      </g>
     </g>
     <g id="text_27">
      <!-- 5.0 -->
      <g transform="translate(127.666875 254.04417)scale(0.1 -0.1)">
       <use xlink:href="#DejaVuSans-53"/>
       <use x="63.623047" xlink:href="#DejaVuSans-46"/>
       <use x="95.410156" xlink:href="#DejaVuSans-48"/>
      </g>
     </g>
    </g>
    <g id="ytick_7">
     <g id="line2d_25">
      <g>
       <use style="stroke:#000000;stroke-width:0.8;" x="150.57" xlink:href="#m397ec86d3a" y="224.287124"/>
      </g>
     </g>
     <g id="text_28">
      <!-- 7.5 -->
      <g transform="translate(127.666875 228.086343)scale(0.1 -0.1)">
       <use xlink:href="#DejaVuSans-55"/>
       <use x="63.623047" xlink:href="#DejaVuSans-46"/>
       <use x="95.410156" xlink:href="#DejaVuSans-53"/>
      </g>
     </g>
    </g>
    <g id="text_29">
     <!-- Power -->
     <g transform="translate(121.587187 277.633263)rotate(-90)scale(0.1 -0.1)">
      <defs>
       <path d="M 19.671875 64.796875 
L 19.671875 37.40625 
L 32.078125 37.40625 
Q 38.96875 37.40625 42.71875 40.96875 
Q 46.484375 44.53125 46.484375 51.125 
Q 46.484375 57.671875 42.71875 61.234375 
Q 38.96875 64.796875 32.078125 64.796875 
z
M 9.8125 72.90625 
L 32.078125 72.90625 
Q 44.34375 72.90625 50.609375 67.359375 
Q 56.890625 61.8125 56.890625 51.125 
Q 56.890625 40.328125 50.609375 34.8125 
Q 44.34375 29.296875 32.078125 29.296875 
L 19.671875 29.296875 
L 19.671875 0 
L 9.8125 0 
z
" id="DejaVuSans-80"/>
      </defs>
      <use xlink:href="#DejaVuSans-80"/>
      <use x="56.677734" xlink:href="#DejaVuSans-111"/>
      <use x="117.859375" xlink:href="#DejaVuSans-119"/>
      <use x="199.646484" xlink:href="#DejaVuSans-101"/>
      <use x="261.169922" xlink:href="#DejaVuSans-114"/>
     </g>
    </g>
    <g id="text_30">
     <!-- 1e10 -->
     <g transform="translate(150.57 217.740806)scale(0.1 -0.1)">
      <use xlink:href="#DejaVuSans-49"/>
      <use x="63.623047" xlink:href="#DejaVuSans-101"/>
      <use x="125.146484" xlink:href="#DejaVuSans-49"/>
      <use x="188.769531" xlink:href="#DejaVuSans-48"/>
     </g>
    </g>
   </g>
   <g id="line2d_26">
    <path clip-path="url(#pedf71efc07)" d="M 175.240479 302.099223 
L 214.876297 302.08433 
L 216.637889 301.845784 
L 218.399481 301.384796 
L 220.161073 300.686523 
L 222.803461 299.326141 
L 225.445849 298.006778 
L 227.207441 297.432136 
L 228.969033 297.249085 
L 230.730624 297.489607 
L 232.492216 298.08898 
L 235.134604 299.351195 
L 237.776992 300.580052 
L 239.538584 301.201743 
L 241.300176 301.629034 
L 243.942564 301.966371 
L 247.465748 302.095738 
L 262.439279 302.130997 
L 265.962463 301.943506 
L 267.724055 301.684152 
L 269.485646 301.227564 
L 271.247238 300.522567 
L 273.00883 299.570812 
L 278.293606 296.419325 
L 279.174402 296.101823 
L 280.055198 295.903571 
L 280.935994 295.836178 
L 281.81679 295.903597 
L 282.697586 296.101797 
L 284.459178 296.837456 
L 286.22077 297.881593 
L 289.743953 300.081635 
L 291.505545 300.921518 
L 293.267137 301.502872 
L 295.028729 301.851429 
L 297.671117 302.078565 
L 302.955893 302.149137 
L 321.452608 302.037334 
L 326.737383 301.816844 
L 333.783751 301.45729 
L 337.306935 301.538812 
L 349.638078 302.140475 
L 359.326834 302.130884 
L 372.538773 301.996203 
L 374.300365 301.72738 
L 376.061957 301.27153 
L 377.823549 300.62677 
L 383.108324 298.353087 
L 384.869916 297.919993 
L 386.631508 297.833321 
L 388.3931 298.10843 
L 390.154692 298.680611 
L 396.320264 301.18848 
L 398.081856 301.633596 
L 400.724244 301.998069 
L 404.247427 302.136523 
L 420.101755 302.152613 
L 425.38653 302.057804 
L 428.028918 301.820041 
L 430.671306 301.361611 
L 437.717674 299.844632 
L 439.479266 299.738334 
L 441.240857 299.811734 
L 443.883245 300.185909 
L 450.048817 301.278786 
L 453.572001 301.628727 
L 462.37996 302.122321 
L 465.022348 302.111539 
L 471.18792 301.87087 
L 474.711104 302.124 
L 475.5919 301.953884 
L 476.472696 301.50876 
L 477.353492 300.666309 
L 478.234287 299.298415 
L 479.115083 297.283212 
L 479.995879 294.518873 
L 480.876675 290.937738 
L 481.757471 286.519163 
L 482.638267 281.29941 
L 484.399859 268.913224 
L 487.923043 242.547103 
L 488.803839 237.249167 
L 489.684635 233.001068 
L 490.565431 229.994076 
L 491.446227 228.351219 
L 492.327023 228.119343 
L 493.207819 229.267738 
L 494.088615 231.693254 
L 494.969411 235.231118 
L 495.850207 239.670129 
L 497.611798 250.282394 
L 500.254186 266.989828 
L 502.015778 276.539843 
L 502.896574 280.537704 
L 503.77737 283.980737 
L 504.658166 286.883832 
L 505.538962 289.286814 
L 506.419758 291.246325 
L 507.300554 292.828076 
L 508.18135 294.100024 
L 509.062146 295.126847 
L 510.823738 296.664413 
L 512.58533 297.773427 
L 514.346922 298.615283 
L 516.108513 299.22297 
L 517.870105 299.58209 
L 519.631697 299.716671 
L 523.154881 299.849881 
L 524.916473 300.220419 
L 526.678065 300.878544 
L 528.439657 301.565001 
L 529.320453 301.746619 
L 530.201249 301.692878 
L 531.082045 301.295424 
L 531.962841 300.445954 
L 532.843637 299.04641 
L 533.724433 297.019631 
L 534.605229 294.319461 
L 535.486024 290.939213 
L 536.36682 286.917508 
L 538.128412 277.341205 
L 541.651596 256.96502 
L 542.532392 252.867477 
L 543.413188 249.574088 
L 544.293984 247.231559 
L 545.17478 245.936259 
L 546.055576 245.728239 
L 546.936372 246.589801 
L 547.817168 248.448659 
L 548.697964 251.185265 
L 549.57876 254.643463 
L 551.340352 262.99482 
L 553.982739 276.374731 
L 555.744331 284.179841 
L 557.505923 290.375084 
L 558.386719 292.827477 
L 559.267515 294.873435 
L 560.148311 296.54922 
L 561.029107 297.898934 
L 561.909903 298.969563 
L 562.790699 299.807074 
L 563.671495 300.453657 
L 565.433087 301.314846 
L 567.194679 301.773863 
L 568.956271 301.966319 
L 571.598659 301.937848 
L 575.121842 301.763364 
L 577.76423 301.918144 
L 579.525822 302.045997 
L 580.406618 301.975266 
L 581.287414 301.700098 
L 582.16821 301.109105 
L 583.049006 300.077445 
L 583.929802 298.476321 
L 584.810598 296.185169 
L 585.691394 293.10553 
L 586.57219 289.17522 
L 587.452986 284.381177 
L 589.214578 272.449807 
L 593.618557 238.066231 
L 594.499353 232.65434 
L 595.380149 228.391456 
L 596.260945 225.478591 
L 597.141741 224.044437 
L 598.022537 224.136636 
L 598.903333 225.719891 
L 599.784129 228.680945 
L 600.664925 232.839708 
L 601.545721 237.965218 
L 603.307313 250.053467 
L 605.949701 268.86915 
L 607.711293 279.524319 
L 608.592089 283.949726 
L 609.472885 287.731781 
L 610.353681 290.886004 
L 611.234476 293.455361 
L 612.115272 295.501212 
L 612.996068 297.094825 
L 613.876864 298.310144 
L 614.75766 299.2182 
L 615.638456 299.883312 
L 616.519252 300.360945 
L 618.280844 300.927978 
L 620.042436 301.180988 
L 622.684824 301.28139 
L 633.254375 301.206361 
L 635.015967 300.911154 
L 635.896763 300.596264 
L 636.777559 300.125409 
L 637.658355 299.467493 
L 638.539151 298.597465 
L 639.419947 297.49999 
L 640.300743 296.172722 
L 642.062335 292.898043 
L 646.466315 283.509875 
L 647.347111 282.015176 
L 648.227907 280.82121 
L 649.108702 279.981349 
L 649.989498 279.53073 
L 650.870294 279.484062 
L 651.75109 279.835103 
L 652.631886 280.557808 
L 653.512682 281.608979 
L 654.393478 282.932082 
L 656.15507 286.12907 
L 659.678254 292.899819 
L 661.439846 295.696338 
L 663.201438 297.867749 
L 664.96303 299.430766 
L 666.724622 300.48854 
L 668.486213 301.172282 
L 670.247805 301.60117 
L 672.890193 301.951407 
L 675.532581 302.086737 
L 679.055765 302.036097 
L 685.221337 301.828656 
L 691.386908 301.924581 
L 693.1485 301.500862 
L 694.910092 300.640169 
L 696.671684 299.346614 
L 701.95646 294.874611 
L 702.837256 294.422182 
L 703.718052 294.132476 
L 704.598848 294.016669 
L 705.479644 294.075205 
L 706.360439 294.298248 
L 708.122031 295.155862 
L 709.883623 296.371667 
L 713.406807 298.930355 
L 715.168399 299.942977 
L 716.929991 300.696359 
L 718.691583 301.212164 
L 721.333971 301.655747 
L 724.857155 301.896906 
L 728.380338 301.927114 
L 731.903522 301.758799 
L 737.188298 301.445173 
L 739.830686 301.54411 
L 742.473074 301.659328 
L 744.234666 301.48157 
L 745.115461 301.244514 
L 745.996257 300.883341 
L 746.877053 300.387805 
L 748.638645 299.001224 
L 750.400237 297.206162 
L 753.042625 294.365712 
L 754.804217 292.880443 
L 755.685013 292.373246 
L 756.565809 292.054175 
L 757.446605 291.932903 
L 758.327401 292.00777 
L 759.208197 292.266621 
L 760.088993 292.68845 
L 761.850585 293.906519 
L 768.016156 298.960939 
L 769.777748 299.986291 
L 771.53934 300.747258 
L 773.300932 301.272661 
L 775.062524 301.597987 
L 776.824116 301.74759 
L 778.585708 301.725906 
L 780.3473 301.521851 
L 782.108892 301.1314 
L 787.393667 299.674272 
L 788.274463 299.636299 
L 789.155259 299.726566 
L 790.036055 299.954242 
L 791.797647 300.762766 
L 793.559239 301.699306 
L 794.440035 301.991463 
L 795.320831 302.005143 
L 796.201627 301.607302 
L 797.082423 300.669247 
L 797.963219 299.080565 
L 798.844015 296.763346 
L 799.724811 293.685069 
L 800.605607 289.868494 
L 802.367198 280.415196 
L 805.890382 259.899078 
L 806.771178 255.935491 
L 807.651974 252.923382 
L 808.53277 251.029488 
L 809.413566 250.352465 
L 810.294362 250.915636 
L 811.175158 252.666497 
L 812.055954 255.482881 
L 812.93675 259.184987 
L 814.698342 268.340258 
L 817.34073 282.871011 
L 819.102322 290.8391 
L 819.983118 293.978855 
L 820.863913 296.518859 
L 821.744709 298.481301 
L 822.625505 299.91783 
L 823.506301 300.899467 
L 824.387097 301.506684 
L 825.267893 301.82063 
L 826.148689 301.916187 
L 827.910281 301.694088 
L 829.671873 301.188172 
L 832.314261 300.198785 
L 838.479833 297.588801 
L 840.241424 297.264056 
L 841.12222 297.264694 
L 842.883812 297.602522 
L 846.406996 298.79914 
L 847.287792 298.863667 
L 848.168588 298.676559 
L 849.049384 298.157992 
L 849.93018 297.23917 
L 850.810976 295.869958 
L 851.691772 294.025723 
L 852.572568 291.712603 
L 854.33416 285.873422 
L 858.738139 269.471748 
L 859.618935 267.045066 
L 860.499731 265.214589 
L 861.380527 264.064338 
L 862.261323 263.641159 
L 863.142119 263.952408 
L 864.022915 264.966786 
L 864.903711 266.618136 
L 865.784507 268.811731 
L 867.546099 274.353173 
L 871.069283 286.584749 
L 872.830875 291.703504 
L 873.711671 293.823222 
L 874.592467 295.632256 
L 875.473263 297.138072 
L 876.354059 298.360206 
L 877.234855 299.326377 
L 878.11565 300.068888 
L 878.996446 300.621542 
L 879.877242 301.017247 
L 881.638834 301.455465 
L 883.400426 301.580342 
L 886.042814 301.458379 
L 893.969978 300.801467 
L 895.73157 300.92909 
L 898.373957 301.426859 
L 901.016345 302.005304 
L 902.777937 302.128176 
L 903.658733 302.033324 
L 904.539529 301.808179 
L 905.420325 301.442678 
L 906.301121 300.936634 
L 908.062713 299.556292 
L 912.466693 295.503334 
L 913.347489 294.923239 
L 914.228285 294.503913 
L 915.109081 294.264666 
L 915.989876 294.213428 
L 916.870672 294.346649 
L 917.751468 294.650166 
L 919.51306 295.669212 
L 922.155448 297.740305 
L 924.797836 299.714275 
L 926.559428 300.710107 
L 928.32102 301.399414 
L 930.082612 301.819022 
L 931.844204 302.03865 
L 934.486592 302.146804 
L 940.652163 302.068591 
L 951.221715 301.903504 
L 957.387286 301.912434 
L 960.029674 301.632203 
L 962.672062 301.116818 
L 967.076042 300.192944 
L 968.837634 300.000256 
L 970.599226 299.972692 
L 973.241613 300.224093 
L 976.764797 300.880972 
L 981.168777 301.664283 
L 984.691961 302.018664 
L 988.215145 302.147486 
L 994.380716 302.087092 
L 1001.427084 302.030216 
L 1008.473452 302.072658 
L 1011.996635 301.846452 
L 1019.923799 301.154061 
L 1023.446983 301.202632 
L 1030.49335 301.698735 
L 1036.658922 301.989901 
L 1045.466882 302.13308 
L 1058.678821 302.12978 
L 1063.082801 301.970216 
L 1074.533148 301.266305 
L 1078.056332 301.419812 
L 1084.221904 301.851825 
L 1084.221904 301.851825 
" style="fill:none;stroke:#1f77b4;stroke-linecap:square;stroke-width:1.5;"/>
   </g>
   <g id="patch_8">
    <path d="M 150.57 304.297594 
L 150.57 220.740806 
" style="fill:none;stroke:#000000;stroke-linecap:square;stroke-linejoin:miter;stroke-width:0.8;"/>
   </g>
   <g id="patch_9">
    <path d="M 1084.104 304.297594 
L 1084.104 220.740806 
" style="fill:none;stroke:#000000;stroke-linecap:square;stroke-linejoin:miter;stroke-width:0.8;"/>
   </g>
   <g id="patch_10">
    <path d="M 150.57 304.297594 
L 1084.104 304.297594 
" style="fill:none;stroke:#000000;stroke-linecap:square;stroke-linejoin:miter;stroke-width:0.8;"/>
   </g>
   <g id="patch_11">
    <path d="M 150.57 220.740806 
L 1084.104 220.740806 
" style="fill:none;stroke:#000000;stroke-linecap:square;stroke-linejoin:miter;stroke-width:0.8;"/>
   </g>
   <g id="text_31">
    <!-- Power Spectrum apply hanning window -->
    <g transform="translate(498.858563 214.740806)scale(0.12 -0.12)">
     <defs>
      <path d="M 53.515625 70.515625 
L 53.515625 60.890625 
Q 47.90625 63.578125 42.921875 64.890625 
Q 37.9375 66.21875 33.296875 66.21875 
Q 25.25 66.21875 20.875 63.09375 
Q 16.5 59.96875 16.5 54.203125 
Q 16.5 49.359375 19.40625 46.890625 
Q 22.3125 44.4375 30.421875 42.921875 
L 36.375 41.703125 
Q 47.40625 39.59375 52.65625 34.296875 
Q 57.90625 29 57.90625 20.125 
Q 57.90625 9.515625 50.796875 4.046875 
Q 43.703125 -1.421875 29.984375 -1.421875 
Q 24.8125 -1.421875 18.96875 -0.25 
Q 13.140625 0.921875 6.890625 3.21875 
L 6.890625 13.375 
Q 12.890625 10.015625 18.65625 8.296875 
Q 24.421875 6.59375 29.984375 6.59375 
Q 38.421875 6.59375 43.015625 9.90625 
Q 47.609375 13.234375 47.609375 19.390625 
Q 47.609375 24.75 44.3125 27.78125 
Q 41.015625 30.8125 33.5 32.328125 
L 27.484375 33.5 
Q 16.453125 35.6875 11.515625 40.375 
Q 6.59375 45.0625 6.59375 53.421875 
Q 6.59375 63.09375 13.40625 68.65625 
Q 20.21875 74.21875 32.171875 74.21875 
Q 37.3125 74.21875 42.625 73.28125 
Q 47.953125 72.359375 53.515625 70.515625 
z
" id="DejaVuSans-83"/>
     </defs>
     <use xlink:href="#DejaVuSans-80"/>
     <use x="56.677734" xlink:href="#DejaVuSans-111"/>
     <use x="117.859375" xlink:href="#DejaVuSans-119"/>
     <use x="199.646484" xlink:href="#DejaVuSans-101"/>
     <use x="261.169922" xlink:href="#DejaVuSans-114"/>
     <use x="302.283203" xlink:href="#DejaVuSans-32"/>
     <use x="334.070312" xlink:href="#DejaVuSans-83"/>
     <use x="397.546875" xlink:href="#DejaVuSans-112"/>
     <use x="461.023438" xlink:href="#DejaVuSans-101"/>
     <use x="522.546875" xlink:href="#DejaVuSans-99"/>
     <use x="577.527344" xlink:href="#DejaVuSans-116"/>
     <use x="616.736328" xlink:href="#DejaVuSans-114"/>
     <use x="657.849609" xlink:href="#DejaVuSans-117"/>
     <use x="721.228516" xlink:href="#DejaVuSans-109"/>
     <use x="818.640625" xlink:href="#DejaVuSans-32"/>
     <use x="850.427734" xlink:href="#DejaVuSans-97"/>
     <use x="911.707031" xlink:href="#DejaVuSans-112"/>
     <use x="975.183594" xlink:href="#DejaVuSans-112"/>
     <use x="1038.660156" xlink:href="#DejaVuSans-108"/>
     <use x="1066.443359" xlink:href="#DejaVuSans-121"/>
     <use x="1125.623047" xlink:href="#DejaVuSans-32"/>
     <use x="1157.410156" xlink:href="#DejaVuSans-104"/>
     <use x="1220.789062" xlink:href="#DejaVuSans-97"/>
     <use x="1282.068359" xlink:href="#DejaVuSans-110"/>
     <use x="1345.447266" xlink:href="#DejaVuSans-110"/>
     <use x="1408.826172" xlink:href="#DejaVuSans-105"/>
     <use x="1436.609375" xlink:href="#DejaVuSans-110"/>
     <use x="1499.988281" xlink:href="#DejaVuSans-103"/>
     <use x="1563.464844" xlink:href="#DejaVuSans-32"/>
     <use x="1595.251953" xlink:href="#DejaVuSans-119"/>
     <use x="1677.039062" xlink:href="#DejaVuSans-105"/>
     <use x="1704.822266" xlink:href="#DejaVuSans-110"/>
     <use x="1768.201172" xlink:href="#DejaVuSans-100"/>
     <use x="1831.677734" xlink:href="#DejaVuSans-111"/>
     <use x="1892.859375" xlink:href="#DejaVuSans-119"/>
    </g>
   </g>
  </g>
  <g id="axes_3">
   <g id="patch_12">
    <path d="M 150.57 462.6576 
L 1084.104 462.6576 
L 1084.104 379.100813 
L 150.57 379.100813 
z
" style="fill:#ffffff;"/>
   </g>
   <g id="matplotlib.axis_5">
    <g id="xtick_18">
     <g id="line2d_27">
      <g>
       <use style="stroke:#000000;stroke-width:0.8;" x="154.662111" xlink:href="#m5768c9ca43" y="462.6576"/>
      </g>
     </g>
     <g id="text_32">
      <!-- 0 -->
      <g transform="translate(151.480861 477.256038)scale(0.1 -0.1)">
       <use xlink:href="#DejaVuSans-48"/>
      </g>
     </g>
    </g>
    <g id="xtick_19">
     <g id="line2d_28">
      <g>
       <use style="stroke:#000000;stroke-width:0.8;" x="297.592094" xlink:href="#m5768c9ca43" y="462.6576"/>
      </g>
     </g>
     <g id="text_33">
      <!-- 50 -->
      <g transform="translate(291.229594 477.256038)scale(0.1 -0.1)">
       <use xlink:href="#DejaVuSans-53"/>
       <use x="63.623047" xlink:href="#DejaVuSans-48"/>
      </g>
     </g>
    </g>
    <g id="xtick_20">
     <g id="line2d_29">
      <g>
       <use style="stroke:#000000;stroke-width:0.8;" x="440.522078" xlink:href="#m5768c9ca43" y="462.6576"/>
      </g>
     </g>
     <g id="text_34">
      <!-- 100 -->
      <g transform="translate(430.978328 477.256038)scale(0.1 -0.1)">
       <use xlink:href="#DejaVuSans-49"/>
       <use x="63.623047" xlink:href="#DejaVuSans-48"/>
       <use x="127.246094" xlink:href="#DejaVuSans-48"/>
      </g>
     </g>
    </g>
    <g id="xtick_21">
     <g id="line2d_30">
      <g>
       <use style="stroke:#000000;stroke-width:0.8;" x="583.452061" xlink:href="#m5768c9ca43" y="462.6576"/>
      </g>
     </g>
     <g id="text_35">
      <!-- 150 -->
      <g transform="translate(573.908311 477.256038)scale(0.1 -0.1)">
       <use xlink:href="#DejaVuSans-49"/>
       <use x="63.623047" xlink:href="#DejaVuSans-53"/>
       <use x="127.246094" xlink:href="#DejaVuSans-48"/>
      </g>
     </g>
    </g>
    <g id="xtick_22">
     <g id="line2d_31">
      <g>
       <use style="stroke:#000000;stroke-width:0.8;" x="726.382044" xlink:href="#m5768c9ca43" y="462.6576"/>
      </g>
     </g>
     <g id="text_36">
      <!-- 200 -->
      <g transform="translate(716.838294 477.256038)scale(0.1 -0.1)">
       <use xlink:href="#DejaVuSans-50"/>
       <use x="63.623047" xlink:href="#DejaVuSans-48"/>
       <use x="127.246094" xlink:href="#DejaVuSans-48"/>
      </g>
     </g>
    </g>
    <g id="xtick_23">
     <g id="line2d_32">
      <g>
       <use style="stroke:#000000;stroke-width:0.8;" x="869.312027" xlink:href="#m5768c9ca43" y="462.6576"/>
      </g>
     </g>
     <g id="text_37">
      <!-- 250 -->
      <g transform="translate(859.768277 477.256038)scale(0.1 -0.1)">
       <use xlink:href="#DejaVuSans-50"/>
       <use x="63.623047" xlink:href="#DejaVuSans-53"/>
       <use x="127.246094" xlink:href="#DejaVuSans-48"/>
      </g>
     </g>
    </g>
    <g id="xtick_24">
     <g id="line2d_33">
      <g>
       <use style="stroke:#000000;stroke-width:0.8;" x="1012.242011" xlink:href="#m5768c9ca43" y="462.6576"/>
      </g>
     </g>
     <g id="text_38">
      <!-- 300 -->
      <g transform="translate(1002.698261 477.256038)scale(0.1 -0.1)">
       <use xlink:href="#DejaVuSans-51"/>
       <use x="63.623047" xlink:href="#DejaVuSans-48"/>
       <use x="127.246094" xlink:href="#DejaVuSans-48"/>
      </g>
     </g>
    </g>
    <g id="text_39">
     <!-- Frequency -->
     <g transform="translate(591.507313 490.934163)scale(0.1 -0.1)">
      <use xlink:href="#DejaVuSans-70"/>
      <use x="50.269531" xlink:href="#DejaVuSans-114"/>
      <use x="89.132812" xlink:href="#DejaVuSans-101"/>
      <use x="150.65625" xlink:href="#DejaVuSans-113"/>
      <use x="214.132812" xlink:href="#DejaVuSans-117"/>
      <use x="277.511719" xlink:href="#DejaVuSans-101"/>
      <use x="339.035156" xlink:href="#DejaVuSans-110"/>
      <use x="402.414062" xlink:href="#DejaVuSans-99"/>
      <use x="457.394531" xlink:href="#DejaVuSans-121"/>
     </g>
    </g>
   </g>
   <g id="matplotlib.axis_6">
    <g id="ytick_8">
     <g id="line2d_34">
      <g>
       <use style="stroke:#000000;stroke-width:0.8;" x="150.57" xlink:href="#m397ec86d3a" y="459.637786"/>
      </g>
     </g>
     <g id="text_40">
      <!-- 0.0 -->
      <g transform="translate(127.666875 463.437005)scale(0.1 -0.1)">
       <use xlink:href="#DejaVuSans-48"/>
       <use x="63.623047" xlink:href="#DejaVuSans-46"/>
       <use x="95.410156" xlink:href="#DejaVuSans-48"/>
      </g>
     </g>
    </g>
    <g id="ytick_9">
     <g id="line2d_35">
      <g>
       <use style="stroke:#000000;stroke-width:0.8;" x="150.57" xlink:href="#m397ec86d3a" y="423.173739"/>
      </g>
     </g>
     <g id="text_41">
      <!-- 0.5 -->
      <g transform="translate(127.666875 426.972958)scale(0.1 -0.1)">
       <use xlink:href="#DejaVuSans-48"/>
       <use x="63.623047" xlink:href="#DejaVuSans-46"/>
       <use x="95.410156" xlink:href="#DejaVuSans-53"/>
      </g>
     </g>
    </g>
    <g id="ytick_10">
     <g id="line2d_36">
      <g>
       <use style="stroke:#000000;stroke-width:0.8;" x="150.57" xlink:href="#m397ec86d3a" y="386.709693"/>
      </g>
     </g>
     <g id="text_42">
      <!-- 1.0 -->
      <g transform="translate(127.666875 390.508912)scale(0.1 -0.1)">
       <use xlink:href="#DejaVuSans-49"/>
       <use x="63.623047" xlink:href="#DejaVuSans-46"/>
       <use x="95.410156" xlink:href="#DejaVuSans-48"/>
      </g>
     </g>
    </g>
    <g id="text_43">
     <!-- Power -->
     <g transform="translate(121.587187 435.993269)rotate(-90)scale(0.1 -0.1)">
      <use xlink:href="#DejaVuSans-80"/>
      <use x="56.677734" xlink:href="#DejaVuSans-111"/>
      <use x="117.859375" xlink:href="#DejaVuSans-119"/>
      <use x="199.646484" xlink:href="#DejaVuSans-101"/>
      <use x="261.169922" xlink:href="#DejaVuSans-114"/>
     </g>
    </g>
    <g id="text_44">
     <!-- 1e51 -->
     <g transform="translate(150.57 376.100813)scale(0.1 -0.1)">
      <use xlink:href="#DejaVuSans-49"/>
      <use x="63.623047" xlink:href="#DejaVuSans-101"/>
      <use x="125.146484" xlink:href="#DejaVuSans-53"/>
      <use x="188.769531" xlink:href="#DejaVuSans-49"/>
     </g>
    </g>
   </g>
   <g id="line2d_37">
    <path clip-path="url(#pe9adca8521)" d="M 154.662111 459.637786 
L 489.118272 459.53771 
L 491.976872 454.679264 
L 494.835471 419.502077 
L 497.694071 382.935907 
L 500.552671 413.524976 
L 503.41127 449.691298 
L 506.26987 458.748371 
L 509.12847 459.592096 
L 517.704269 459.637543 
L 660.634252 459.614439 
L 663.492851 459.249839 
L 666.351451 456.261696 
L 669.210051 451.935201 
L 672.06865 454.205358 
L 674.92725 458.35985 
L 677.78585 459.546368 
L 683.503049 459.637779 
L 832.150232 459.636127 
L 835.008831 459.472587 
L 840.726031 457.197299 
L 843.58463 457.993608 
L 846.44323 459.146849 
L 849.30183 459.551972 
L 855.019029 459.636741 
L 1178.040791 459.637752 
L 1205.56 459.637786 
L 1205.56 459.637786 
" style="fill:none;stroke:#1f77b4;stroke-linecap:square;stroke-width:1.5;"/>
   </g>
   <g id="line2d_38">
    <defs>
     <path d="M 0 3 
C 0.795609 3 1.55874 2.683901 2.12132 2.12132 
C 2.683901 1.55874 3 0.795609 3 0 
C 3 -0.795609 2.683901 -1.55874 2.12132 -2.12132 
C 1.55874 -2.683901 0.795609 -3 0 -3 
C -0.795609 -3 -1.55874 -2.683901 -2.12132 -2.12132 
C -2.683901 -1.55874 -3 -0.795609 -3 0 
C -3 0.795609 -2.683901 1.55874 -2.12132 2.12132 
C -1.55874 2.683901 -0.795609 3 0 3 
z
" id="m186f36f3ad" style="stroke:#ff7f0e;"/>
    </defs>
    <g clip-path="url(#pe9adca8521)">
     <use style="fill:#ff7f0e;stroke:#ff7f0e;" x="497.694071" xlink:href="#m186f36f3ad" y="382.935907"/>
    </g>
   </g>
   <g id="patch_13">
    <path d="M 150.57 462.6576 
L 150.57 379.100813 
" style="fill:none;stroke:#000000;stroke-linecap:square;stroke-linejoin:miter;stroke-width:0.8;"/>
   </g>
   <g id="patch_14">
    <path d="M 1084.104 462.6576 
L 1084.104 379.100813 
" style="fill:none;stroke:#000000;stroke-linecap:square;stroke-linejoin:miter;stroke-width:0.8;"/>
   </g>
   <g id="patch_15">
    <path d="M 150.57 462.6576 
L 1084.104 462.6576 
" style="fill:none;stroke:#000000;stroke-linecap:square;stroke-linejoin:miter;stroke-width:0.8;"/>
   </g>
   <g id="patch_16">
    <path d="M 150.57 379.100813 
L 1084.104 379.100813 
" style="fill:none;stroke:#000000;stroke-linecap:square;stroke-linejoin:miter;stroke-width:0.8;"/>
   </g>
   <g id="text_45">
    <!-- Power Spectrum after downsample by product_num of 5 and multiply -->
    <g transform="translate(408.63075 373.100813)scale(0.12 -0.12)">
     <use xlink:href="#DejaVuSans-80"/>
     <use x="56.677734" xlink:href="#DejaVuSans-111"/>
     <use x="117.859375" xlink:href="#DejaVuSans-119"/>
     <use x="199.646484" xlink:href="#DejaVuSans-101"/>
     <use x="261.169922" xlink:href="#DejaVuSans-114"/>
     <use x="302.283203" xlink:href="#DejaVuSans-32"/>
     <use x="334.070312" xlink:href="#DejaVuSans-83"/>
     <use x="397.546875" xlink:href="#DejaVuSans-112"/>
     <use x="461.023438" xlink:href="#DejaVuSans-101"/>
     <use x="522.546875" xlink:href="#DejaVuSans-99"/>
     <use x="577.527344" xlink:href="#DejaVuSans-116"/>
     <use x="616.736328" xlink:href="#DejaVuSans-114"/>
     <use x="657.849609" xlink:href="#DejaVuSans-117"/>
     <use x="721.228516" xlink:href="#DejaVuSans-109"/>
     <use x="818.640625" xlink:href="#DejaVuSans-32"/>
     <use x="850.427734" xlink:href="#DejaVuSans-97"/>
     <use x="911.707031" xlink:href="#DejaVuSans-102"/>
     <use x="945.162109" xlink:href="#DejaVuSans-116"/>
     <use x="984.371094" xlink:href="#DejaVuSans-101"/>
     <use x="1045.894531" xlink:href="#DejaVuSans-114"/>
     <use x="1087.007812" xlink:href="#DejaVuSans-32"/>
     <use x="1118.794922" xlink:href="#DejaVuSans-100"/>
     <use x="1182.271484" xlink:href="#DejaVuSans-111"/>
     <use x="1243.453125" xlink:href="#DejaVuSans-119"/>
     <use x="1325.240234" xlink:href="#DejaVuSans-110"/>
     <use x="1388.619141" xlink:href="#DejaVuSans-115"/>
     <use x="1440.71875" xlink:href="#DejaVuSans-97"/>
     <use x="1501.998047" xlink:href="#DejaVuSans-109"/>
     <use x="1599.410156" xlink:href="#DejaVuSans-112"/>
     <use x="1662.886719" xlink:href="#DejaVuSans-108"/>
     <use x="1690.669922" xlink:href="#DejaVuSans-101"/>
     <use x="1752.193359" xlink:href="#DejaVuSans-32"/>
     <use x="1783.980469" xlink:href="#DejaVuSans-98"/>
     <use x="1847.457031" xlink:href="#DejaVuSans-121"/>
     <use x="1906.636719" xlink:href="#DejaVuSans-32"/>
     <use x="1938.423828" xlink:href="#DejaVuSans-112"/>
     <use x="2001.900391" xlink:href="#DejaVuSans-114"/>
     <use x="2040.763672" xlink:href="#DejaVuSans-111"/>
     <use x="2101.945312" xlink:href="#DejaVuSans-100"/>
     <use x="2165.421875" xlink:href="#DejaVuSans-117"/>
     <use x="2228.800781" xlink:href="#DejaVuSans-99"/>
     <use x="2283.78125" xlink:href="#DejaVuSans-116"/>
     <use x="2322.990234" xlink:href="#DejaVuSans-95"/>
     <use x="2372.990234" xlink:href="#DejaVuSans-110"/>
     <use x="2436.369141" xlink:href="#DejaVuSans-117"/>
     <use x="2499.748047" xlink:href="#DejaVuSans-109"/>
     <use x="2597.160156" xlink:href="#DejaVuSans-32"/>
     <use x="2628.947266" xlink:href="#DejaVuSans-111"/>
     <use x="2690.128906" xlink:href="#DejaVuSans-102"/>
     <use x="2725.333984" xlink:href="#DejaVuSans-32"/>
     <use x="2757.121094" xlink:href="#DejaVuSans-53"/>
     <use x="2820.744141" xlink:href="#DejaVuSans-32"/>
     <use x="2852.53125" xlink:href="#DejaVuSans-97"/>
     <use x="2913.810547" xlink:href="#DejaVuSans-110"/>
     <use x="2977.189453" xlink:href="#DejaVuSans-100"/>
     <use x="3040.666016" xlink:href="#DejaVuSans-32"/>
     <use x="3072.453125" xlink:href="#DejaVuSans-109"/>
     <use x="3169.865234" xlink:href="#DejaVuSans-117"/>
     <use x="3233.244141" xlink:href="#DejaVuSans-108"/>
     <use x="3261.027344" xlink:href="#DejaVuSans-116"/>
     <use x="3300.236328" xlink:href="#DejaVuSans-105"/>
     <use x="3328.019531" xlink:href="#DejaVuSans-112"/>
     <use x="3391.496094" xlink:href="#DejaVuSans-108"/>
     <use x="3419.279297" xlink:href="#DejaVuSans-121"/>
    </g>
   </g>
  </g>
 </g>
 <defs>
  <clipPath id="p3affc62d15">
   <rect height="83.556787" width="933.534" x="150.57" y="62.3808"/>
  </clipPath>
  <clipPath id="pedf71efc07">
   <rect height="83.556787" width="933.534" x="150.57" y="220.740806"/>
  </clipPath>
  <clipPath id="pe9adca8521">
   <rect height="83.556787" width="933.534" x="150.57" y="379.100813"/>
  </clipPath>
 </defs>
</svg>
